<?xml version="1.0" encoding="UTF-8"?>
<svg width="750px" height="1334px" viewBox="0 0 750 1334" version="1.1" xmlns="http://www.w3.org/2000/svg" xmlns:xlink="http://www.w3.org/1999/xlink">
    <!-- Generator: Sketch 41.2 (35397) - http://www.bohemiancoding.com/sketch -->
    <title>iPhone 7</title>
    <desc>Created with Sketch.</desc>
    <defs></defs>
    <g id="Page-1" stroke="none" stroke-width="1" fill="none" fill-rule="evenodd">
        <g id="iPhone-7" fill="#FFFFFF">
            <path d="M138.641,294.334929 L124.303286,308.672643 L117.950714,302.320071 C117.504429,301.873786 116.780429,301.873786 116.334714,302.320071 C115.888429,302.766357 115.888429,303.489786 116.334714,303.936071 L123.495286,311.097214 C123.709571,311.3115 124.000429,311.4315 124.303286,311.4315 C124.606143,311.4315 124.897,311.3115 125.111286,311.097214 L140.257571,295.950929 C140.703857,295.504643 140.703857,294.781214 140.257571,294.334929 C139.811286,293.888643 139.087286,293.888071 138.641,294.334929 Z" id="Shape"></path>
            <path d="M128,279 C114.990857,279 104,289.990286 104,303 C104,316.009714 114.990857,327 128,327 C141.009143,327 152,316.009714 152,303 C152,289.990286 141.009143,279 128,279 Z M128,324.714286 C116.229714,324.714286 106.285714,314.770286 106.285714,303 C106.285714,291.229714 116.229714,281.285714 128,281.285714 C139.770286,281.285714 149.714286,291.229714 149.714286,303 C149.714286,314.770286 139.770286,324.714286 128,324.714286 Z" id="Shape"></path>
            <path d="M138.641,188.334929 L124.303286,202.672643 L117.950714,196.320071 C117.504429,195.873786 116.780429,195.873786 116.334714,196.320071 C115.888429,196.766357 115.888429,197.489786 116.334714,197.936071 L123.495286,205.097214 C123.709571,205.3115 124.000429,205.4315 124.303286,205.4315 C124.606143,205.4315 124.897,205.3115 125.111286,205.097214 L140.257571,189.950929 C140.703857,189.504643 140.703857,188.781214 140.257571,188.334929 C139.811286,187.888643 139.087286,187.888071 138.641,188.334929 Z" id="Shape"></path>
            <path d="M128,173 C114.990857,173 104,183.990286 104,197 C104,210.009714 114.990857,221 128,221 C141.009143,221 152,210.009714 152,197 C152,183.990286 141.009143,173 128,173 Z M128,218.714286 C116.229714,218.714286 106.285714,208.770286 106.285714,197 C106.285714,185.229714 116.229714,175.285714 128,175.285714 C139.770286,175.285714 149.714286,185.229714 149.714286,197 C149.714286,208.770286 139.770286,218.714286 128,218.714286 Z" id="Shape"></path>
            <path d="M199.552,211 L199.552,179.848 L193.84,179.848 C193.216,183.112 190.048,185.656 185.488,185.704 L185.488,190.168 L192.976,190.168 L192.976,211 L199.552,211 Z M223.456,197.128 C223.6,194.536 225.184,192.52 227.872,192.52 C230.944,192.52 232.24,194.584 232.24,197.224 L232.24,211 L238.624,211 L238.624,196.12 C238.624,190.936 235.84,186.76 229.84,186.76 C227.584,186.76 224.992,187.528 223.456,189.352 L223.456,176.248 L217.072,176.248 L217.072,211 L223.456,211 L223.456,197.128 Z M259.768,211 L265.864,211 C265.768,210.184 265.624,208.552 265.624,206.728 L265.624,187.384 L259.24,187.384 L259.24,201.112 C259.24,203.848 257.608,205.768 254.776,205.768 C251.8,205.768 250.456,203.656 250.456,201.016 L250.456,187.384 L244.072,187.384 L244.072,202.312 C244.072,207.448 247.336,211.624 253.048,211.624 C255.544,211.624 258.28,210.664 259.576,208.456 C259.576,209.416 259.672,210.52 259.768,211 Z M278.224001,197.416 C278.224001,194.68 279.856001,192.52 282.640001,192.52 C285.712001,192.52 287.008001,194.584 287.008001,197.224 L287.008001,211 L293.392001,211 L293.392001,196.12 C293.392001,190.936 290.704001,186.76 284.848001,186.76 C282.304001,186.76 279.472001,187.864 278.032001,190.312 L278.032001,187.384 L271.840001,187.384 L271.840001,211 L278.224001,211 L278.224001,197.416 Z M297.592001,212.296 C298.264001,216.808 302.584001,220.84 309.064001,220.84 C317.944001,220.84 321.448001,214.936 321.448001,208.456 L321.448001,187.384 L315.304001,187.384 L315.304001,190.168 C314.488001,188.584 312.328001,186.952 308.584001,186.952 C302.104001,186.952 297.592001,192.232 297.592001,198.472 C297.592001,205.096 302.296001,209.944 308.584001,209.944 C311.992001,209.944 314.200001,208.456 315.160001,206.92 L315.160001,208.648 C315.160001,213.208 312.904001,215.224 308.872001,215.224 C305.848001,215.224 303.784001,213.352 303.352001,210.76 L297.592001,212.296 Z M309.688001,204.472 C306.376001,204.472 304.024001,202.168 304.024001,198.472 C304.024001,194.824 306.520001,192.52 309.688001,192.52 C312.760001,192.52 315.256001,194.824 315.256001,198.472 C315.256001,202.12 312.952001,204.472 309.688001,204.472 Z M341.728001,187.288 C341.248001,187.24 340.768001,187.192 340.240001,187.192 C338.224001,187.192 334.960001,187.768 333.520001,190.888 L333.520001,187.384 L327.328001,187.384 L327.328001,211 L333.712001,211 L333.712001,200.2 C333.712001,195.112 336.544001,193.528 339.808001,193.528 C340.384001,193.528 341.008001,193.576 341.728001,193.72 L341.728001,187.288 Z M354.808001,220.312 L369.640001,187.384 L362.824001,187.384 L357.016001,201.208 L350.728001,187.384 L343.576001,187.384 L353.608001,208.024 L348.040001,220.312 L354.808001,220.312 Z M390.568001,220.12 L390.568001,208.696 C391.720001,210.28 394.120001,211.576 397.384001,211.576 C404.056001,211.576 408.520001,206.296 408.520001,199.144 C408.520001,192.136 404.536001,186.856 397.624001,186.856 C394.072001,186.856 391.432001,188.44 390.376001,190.264 L390.376001,187.384 L384.184001,187.384 L384.184001,220.12 L390.568001,220.12 Z M402.232001,199.192 C402.232001,203.416 399.640001,205.864 396.376001,205.864 C393.112001,205.864 390.472001,203.368 390.472001,199.192 C390.472001,195.016 393.112001,192.568 396.376001,192.568 C399.640001,192.568 402.232001,195.016 402.232001,199.192 Z M428.320002,211 L434.416002,211 C434.320002,210.184 434.176002,208.552 434.176002,206.728 L434.176002,187.384 L427.792002,187.384 L427.792002,201.112 C427.792002,203.848 426.160002,205.768 423.328002,205.768 C420.352002,205.768 419.008002,203.656 419.008002,201.016 L419.008002,187.384 L412.624002,187.384 L412.624002,202.312 C412.624002,207.448 415.888002,211.624 421.600002,211.624 C424.096002,211.624 426.832002,210.664 428.128002,208.456 C428.128002,209.416 428.224002,210.52 428.320002,211 Z M446.776002,220.12 L446.776002,208.696 C447.928002,210.28 450.328002,211.576 453.592002,211.576 C460.264002,211.576 464.728002,206.296 464.728002,199.144 C464.728002,192.136 460.744002,186.856 453.832002,186.856 C450.280002,186.856 447.640002,188.44 446.584002,190.264 L446.584002,187.384 L440.392002,187.384 L440.392002,220.12 L446.776002,220.12 Z M458.440002,199.192 C458.440002,203.416 455.848002,205.864 452.584002,205.864 C449.320002,205.864 446.680002,203.368 446.680002,199.192 C446.680002,195.016 449.320002,192.568 452.584002,192.568 C455.848002,192.568 458.440002,195.016 458.440002,199.192 Z" id="1-hungry-pup-copy"></path>
            <path d="M199.552,317 L199.552,285.848 L193.84,285.848 C193.216,289.112 190.048,291.656 185.488,291.704 L185.488,296.168 L192.976,296.168 L192.976,317 L199.552,317 Z M225.208,282.536 L219.4,282.536 L202.408,317.432 L208.168,317.432 L225.208,282.536 Z M231.232,297.896 C231.088,297.368 230.992,296.744 230.992,296.168 C230.992,293.24 232.624,290.984 235.936,290.984 C239.056,290.984 240.64,293 240.64,295.256 C240.64,297.416 239.584,299.048 236.944,300.632 L231.808,303.704 C226.24,307.064 224.512,311.528 224.464,317 L247.504,317 L247.504,311.288 L232.576,311.288 C233.056,310.088 234.064,309.224 235.264,308.456 L241.264,304.808 C245.104,302.456 247.312,299.192 247.312,295.16 C247.312,289.736 243.04,285.128 236.08,285.128 C228.832,285.128 224.704,290.072 224.704,295.544 C224.704,296.312 224.848,297.272 224.944,297.704 L231.232,297.896 Z M269.440001,317 L269.440001,303.176 C269.440001,300.584 271.072001,298.52 273.856001,298.52 C276.736001,298.52 278.032001,300.44 278.032001,302.984 L278.032001,317 L284.368001,317 L284.368001,303.176 C284.368001,300.632 286.000001,298.52 288.736001,298.52 C291.664001,298.52 292.912001,300.44 292.912001,302.984 L292.912001,317 L299.104001,317 L299.104001,301.688 C299.104001,295.352 294.928001,292.712 290.560001,292.712 C287.440001,292.712 284.944001,293.768 283.072001,296.648 C281.872001,294.104 279.280001,292.712 276.064001,292.712 C273.472001,292.712 270.448001,293.96 269.152001,296.264 L269.152001,293.384 L263.056001,293.384 L263.056001,317 L269.440001,317 Z M309.640001,302.504 C309.784001,300.344 311.608001,297.848 314.920001,297.848 C318.568001,297.848 320.104001,300.152 320.200001,302.504 L309.640001,302.504 Z M320.824001,308.648 C320.056001,310.76 318.424001,312.248 315.448001,312.248 C312.280001,312.248 309.640001,309.992 309.496001,306.872 L326.392001,306.872 C326.392001,306.776 326.488001,305.816 326.488001,304.904 C326.488001,297.32 322.120001,292.664 314.824001,292.664 C308.776001,292.664 303.208001,297.56 303.208001,305.096 C303.208001,313.064 308.920001,317.72 315.400001,317.72 C321.208001,317.72 324.952001,314.312 326.152001,310.232 L320.824001,308.648 Z M329.488001,310.568 C329.488001,314.264 332.560001,317.672 337.600001,317.672 C341.104001,317.672 343.360001,316.04 344.560001,314.168 C344.560001,315.08 344.656001,316.376 344.800001,317 L350.656001,317 C350.512001,316.184 350.368001,314.504 350.368001,313.256 L350.368001,301.64 C350.368001,296.888 347.584001,292.664 340.096001,292.664 C333.760001,292.664 330.352001,296.744 329.968001,300.44 L335.632001,301.64 C335.824001,299.576 337.360001,297.8 340.144001,297.8 C342.832001,297.8 344.128001,299.192 344.128001,300.872 C344.128001,301.688 343.696001,302.36 342.352001,302.552 L336.544001,303.416 C332.608001,303.992 329.488001,306.344 329.488001,310.568 Z M338.944001,312.92 C336.880001,312.92 335.872001,311.576 335.872001,310.184 C335.872001,308.36 337.168001,307.448 338.800001,307.208 L344.128001,306.392 L344.128001,307.448 C344.128001,311.624 341.632001,312.92 338.944001,312.92 Z M362.584001,317 L362.584001,282.248 L356.200001,282.248 L356.200001,317 L362.584001,317 Z M390.664001,311.912 C387.544001,311.912 384.664001,309.608 384.664001,305.192 C384.664001,300.728 387.544001,298.472 390.664001,298.472 C393.784001,298.472 396.664001,300.728 396.664001,305.192 C396.664001,309.656 393.784001,311.912 390.664001,311.912 Z M390.664001,292.664 C383.608001,292.664 378.280001,297.896 378.280001,305.192 C378.280001,312.44 383.608001,317.72 390.664001,317.72 C397.720001,317.72 403.048001,312.44 403.048001,305.192 C403.048001,297.896 397.720001,292.664 390.664001,292.664 Z M418.432002,287.528 C419.488002,287.528 420.112002,287.672 420.448002,287.768 L420.448002,282.392 C419.920002,282.152 418.624002,281.912 417.280002,281.912 C412.048002,281.912 408.688002,285.368 408.688002,290.696 L408.688002,293.384 L404.752002,293.384 L404.752002,298.856 L408.688002,298.856 L408.688002,317 L415.120002,317 L415.120002,298.856 L420.448002,298.856 L420.448002,293.384 L415.120002,293.384 L415.120002,290.792 C415.120002,288.152 416.992002,287.528 418.432002,287.528 Z M457.744002,282.248 L451.456002,282.248 L451.456002,295.736 C450.784002,294.488 448.864002,292.808 444.784002,292.808 C438.112002,292.808 433.456002,298.232 433.456002,305.144 C433.456002,312.296 438.256002,317.576 444.976002,317.576 C448.144002,317.576 450.544002,316.136 451.600002,314.264 C451.600002,315.368 451.744002,316.52 451.840002,317 L457.936002,317 C457.840002,316.04 457.744002,314.312 457.744002,312.728 L457.744002,282.248 Z M439.888002,305.144 C439.888002,300.92 442.480002,298.52 445.744002,298.52 C449.008002,298.52 451.552002,300.872 451.552002,305.096 C451.552002,309.368 449.008002,311.864 445.744002,311.864 C442.384002,311.864 439.888002,309.368 439.888002,305.144 Z M478.456002,293.288 C477.976002,293.24 477.496002,293.192 476.968002,293.192 C474.952002,293.192 471.688002,293.768 470.248002,296.888 L470.248002,293.384 L464.056002,293.384 L464.056002,317 L470.440002,317 L470.440002,306.2 C470.440002,301.112 473.272002,299.528 476.536002,299.528 C477.112002,299.528 477.736002,299.576 478.456002,299.72 L478.456002,293.288 Z M491.536002,326.312 L506.368002,293.384 L499.552002,293.384 L493.744002,307.208 L487.456002,293.384 L480.304002,293.384 L490.336002,314.024 L484.768002,326.312 L491.536002,326.312 Z M531.856002,287.528 C532.912002,287.528 533.536002,287.672 533.872002,287.768 L533.872002,282.392 C533.344002,282.152 532.048002,281.912 530.704002,281.912 C525.472002,281.912 522.112002,285.368 522.112002,290.696 L522.112002,293.384 L518.176002,293.384 L518.176002,298.856 L522.112002,298.856 L522.112002,317 L528.544002,317 L528.544002,298.856 L533.872002,298.856 L533.872002,293.384 L528.544002,293.384 L528.544002,290.792 C528.544002,288.152 530.416002,287.528 531.856002,287.528 Z M547.480003,311.912 C544.360003,311.912 541.480003,309.608 541.480003,305.192 C541.480003,300.728 544.360003,298.472 547.480003,298.472 C550.600003,298.472 553.480003,300.728 553.480003,305.192 C553.480003,309.656 550.600003,311.912 547.480003,311.912 Z M547.480003,292.664 C540.424003,292.664 535.096003,297.896 535.096003,305.192 C535.096003,312.44 540.424003,317.72 547.480003,317.72 C554.536003,317.72 559.864003,312.44 559.864003,305.192 C559.864003,297.896 554.536003,292.664 547.480003,292.664 Z M574.912003,311.912 C571.792003,311.912 568.912003,309.608 568.912003,305.192 C568.912003,300.728 571.792003,298.472 574.912003,298.472 C578.032003,298.472 580.912003,300.728 580.912003,305.192 C580.912003,309.656 578.032003,311.912 574.912003,311.912 Z M574.912003,292.664 C567.856003,292.664 562.528003,297.896 562.528003,305.192 C562.528003,312.44 567.856003,317.72 574.912003,317.72 C581.968003,317.72 587.296003,312.44 587.296003,305.192 C587.296003,297.896 581.968003,292.664 574.912003,292.664 Z M614.248003,282.248 L607.960003,282.248 L607.960003,295.736 C607.288003,294.488 605.368003,292.808 601.288003,292.808 C594.616003,292.808 589.960003,298.232 589.960003,305.144 C589.960003,312.296 594.760003,317.576 601.480003,317.576 C604.648003,317.576 607.048003,316.136 608.104003,314.264 C608.104003,315.368 608.248003,316.52 608.344003,317 L614.440003,317 C614.344003,316.04 614.248003,314.312 614.248003,312.728 L614.248003,282.248 Z M596.392003,305.144 C596.392003,300.92 598.984003,298.52 602.248003,298.52 C605.512003,298.52 608.056003,300.872 608.056003,305.096 C608.056003,309.368 605.512003,311.864 602.248003,311.864 C598.888003,311.864 596.392003,309.368 596.392003,305.144 Z M198.016,372.912 C194.896,372.912 192.016,370.608 192.016,366.192 C192.016,361.728 194.896,359.472 198.016,359.472 C201.136,359.472 204.016,361.728 204.016,366.192 C204.016,370.656 201.136,372.912 198.016,372.912 Z M198.016,353.664 C190.96,353.664 185.632,358.896 185.632,366.192 C185.632,373.44 190.96,378.72 198.016,378.72 C205.072,378.72 210.4,373.44 210.4,366.192 C210.4,358.896 205.072,353.664 198.016,353.664 Z M229.24,354.288 C228.76,354.24 228.28,354.192 227.752,354.192 C225.736,354.192 222.472,354.768 221.032,357.888 L221.032,354.384 L214.84,354.384 L214.84,378 L221.224,378 L221.224,367.2 C221.224,362.112 224.056,360.528 227.32,360.528 C227.896,360.528 228.52,360.576 229.24,360.72 L229.24,354.288 Z M256.408,378 L256.408,346.848 L250.696,346.848 C250.072,350.112 246.904,352.656 242.344,352.704 L242.344,357.168 L249.832,357.168 L249.832,378 L256.408,378 Z M275.920001,366.576 L275.920001,360.912 L262.000001,360.912 L262.000001,366.576 L275.920001,366.576 Z M285.640001,358.896 C285.496001,358.368 285.400001,357.744 285.400001,357.168 C285.400001,354.24 287.032001,351.984 290.344001,351.984 C293.464001,351.984 295.048001,354 295.048001,356.256 C295.048001,358.416 293.992001,360.048 291.352001,361.632 L286.216001,364.704 C280.648001,368.064 278.920001,372.528 278.872001,378 L301.912001,378 L301.912001,372.288 L286.984001,372.288 C287.464001,371.088 288.472001,370.224 289.672001,369.456 L295.672001,365.808 C299.512001,363.456 301.720001,360.192 301.720001,356.16 C301.720001,350.736 297.448001,346.128 290.488001,346.128 C283.240001,346.128 279.112001,351.072 279.112001,356.544 C279.112001,357.312 279.256001,358.272 279.352001,358.704 L285.640001,358.896 Z M339.976001,343.248 L333.688001,343.248 L333.688001,356.736 C333.016001,355.488 331.096001,353.808 327.016001,353.808 C320.344001,353.808 315.688001,359.232 315.688001,366.144 C315.688001,373.296 320.488001,378.576 327.208001,378.576 C330.376001,378.576 332.776001,377.136 333.832001,375.264 C333.832001,376.368 333.976001,377.52 334.072001,378 L340.168001,378 C340.072001,377.04 339.976001,375.312 339.976001,373.728 L339.976001,343.248 Z M322.120001,366.144 C322.120001,361.92 324.712001,359.52 327.976001,359.52 C331.240001,359.52 333.784001,361.872 333.784001,366.096 C333.784001,370.368 331.240001,372.864 327.976001,372.864 C324.616001,372.864 322.120001,370.368 322.120001,366.144 Z M356.896001,372.912 C353.776001,372.912 350.896001,370.608 350.896001,366.192 C350.896001,361.728 353.776001,359.472 356.896001,359.472 C360.016001,359.472 362.896001,361.728 362.896001,366.192 C362.896001,370.656 360.016001,372.912 356.896001,372.912 Z M356.896001,353.664 C349.840001,353.664 344.512001,358.896 344.512001,366.192 C344.512001,373.44 349.840001,378.72 356.896001,378.72 C363.952001,378.72 369.280001,373.44 369.280001,366.192 C369.280001,358.896 363.952001,353.664 356.896001,353.664 Z M391.528001,378 L391.528001,372.432 L379.816001,372.432 L391.336001,359.712 L391.336001,354.384 L372.280001,354.384 L372.280001,359.904 L383.176001,359.904 L371.992001,372.384 L371.992001,378 L391.528001,378 Z M400.624002,363.504 C400.768002,361.344 402.592002,358.848 405.904002,358.848 C409.552002,358.848 411.088002,361.152 411.184002,363.504 L400.624002,363.504 Z M411.808002,369.648 C411.040002,371.76 409.408002,373.248 406.432002,373.248 C403.264002,373.248 400.624002,370.992 400.480002,367.872 L417.376002,367.872 C417.376002,367.776 417.472002,366.816 417.472002,365.904 C417.472002,358.32 413.104002,353.664 405.808002,353.664 C399.760002,353.664 394.192002,358.56 394.192002,366.096 C394.192002,374.064 399.904002,378.72 406.384002,378.72 C412.192002,378.72 415.936002,375.312 417.136002,371.232 L411.808002,369.648 Z M428.296002,364.416 C428.296002,361.68 429.928002,359.52 432.712002,359.52 C435.784002,359.52 437.080002,361.584 437.080002,364.224 L437.080002,378 L443.464002,378 L443.464002,363.12 C443.464002,357.936 440.776002,353.76 434.920002,353.76 C432.376002,353.76 429.544002,354.864 428.104002,357.312 L428.104002,354.384 L421.912002,354.384 L421.912002,378 L428.296002,378 L428.296002,364.416 Z M468.472002,347.328 L462.712002,347.328 L462.712002,350.64 C462.712002,352.752 461.560002,354.384 459.064002,354.384 L457.864002,354.384 L457.864002,360.048 L462.136002,360.048 L462.136002,371.04 C462.136002,375.6 465.016002,378.336 469.624002,378.336 C471.496002,378.336 472.648002,378 473.224002,377.76 L473.224002,372.48 C472.888002,372.576 472.024002,372.672 471.256002,372.672 C469.432002,372.672 468.472002,372 468.472002,369.936 L468.472002,360.048 L473.224002,360.048 L473.224002,354.384 L468.472002,354.384 L468.472002,347.328 Z M476.752002,371.568 C476.752002,375.264 479.824002,378.672 484.864002,378.672 C488.368002,378.672 490.624002,377.04 491.824002,375.168 C491.824002,376.08 491.920002,377.376 492.064002,378 L497.920002,378 C497.776002,377.184 497.632002,375.504 497.632002,374.256 L497.632002,362.64 C497.632002,357.888 494.848002,353.664 487.360002,353.664 C481.024002,353.664 477.616002,357.744 477.232002,361.44 L482.896002,362.64 C483.088002,360.576 484.624002,358.8 487.408002,358.8 C490.096002,358.8 491.392002,360.192 491.392002,361.872 C491.392002,362.688 490.960002,363.36 489.616002,363.552 L483.808002,364.416 C479.872002,364.992 476.752002,367.344 476.752002,371.568 Z M486.208002,373.92 C484.144002,373.92 483.136002,372.576 483.136002,371.184 C483.136002,369.36 484.432002,368.448 486.064002,368.208 L491.392002,367.392 L491.392002,368.448 C491.392002,372.624 488.896002,373.92 486.208002,373.92 Z M501.448002,371.424 C501.736002,374.112 504.184002,378.72 511.288002,378.72 C517.480002,378.72 520.456002,374.784 520.456002,370.944 C520.456002,367.488 518.104002,364.656 513.448002,363.696 L510.088002,362.976 C508.792002,362.736 507.928002,362.016 507.928002,360.864 C507.928002,359.52 509.272002,358.512 510.952002,358.512 C513.640002,358.512 514.648002,360.288 514.840002,361.68 L520.168002,360.48 C519.880002,357.936 517.624002,353.664 510.904002,353.664 C505.816002,353.664 502.072002,357.168 502.072002,361.392 C502.072002,364.704 504.136002,367.44 508.696002,368.448 L511.816002,369.168 C513.640002,369.552 514.360002,370.416 514.360002,371.472 C514.360002,372.72 513.352002,373.824 511.240002,373.824 C508.456002,373.824 507.064002,372.096 506.920002,370.224 L501.448002,371.424 Z M532.864002,347.328 L527.104002,347.328 L527.104002,350.64 C527.104002,352.752 525.952002,354.384 523.456002,354.384 L522.256002,354.384 L522.256002,360.048 L526.528002,360.048 L526.528002,371.04 C526.528002,375.6 529.408002,378.336 534.016002,378.336 C535.888002,378.336 537.040002,378 537.616002,377.76 L537.616002,372.48 C537.280002,372.576 536.416002,372.672 535.648002,372.672 C533.824002,372.672 532.864002,372 532.864002,369.936 L532.864002,360.048 L537.616002,360.048 L537.616002,354.384 L532.864002,354.384 L532.864002,347.328 Z M551.128003,387.312 L565.960003,354.384 L559.144003,354.384 L553.336003,368.208 L547.048003,354.384 L539.896003,354.384 L549.928003,375.024 L544.360003,387.312 L551.128003,387.312 Z M588.376003,347.328 L582.616003,347.328 L582.616003,350.64 C582.616003,352.752 581.464003,354.384 578.968003,354.384 L577.768003,354.384 L577.768003,360.048 L582.040003,360.048 L582.040003,371.04 C582.040003,375.6 584.920003,378.336 589.528003,378.336 C591.400003,378.336 592.552003,378 593.128003,377.76 L593.128003,372.48 C592.792003,372.576 591.928003,372.672 591.160003,372.672 C589.336003,372.672 588.376003,372 588.376003,369.936 L588.376003,360.048 L593.128003,360.048 L593.128003,354.384 L588.376003,354.384 L588.376003,347.328 Z M612.016003,354.288 C611.536003,354.24 611.056003,354.192 610.528003,354.192 C608.512003,354.192 605.248003,354.768 603.808003,357.888 L603.808003,354.384 L597.616003,354.384 L597.616003,378 L604.000003,378 L604.000003,367.2 C604.000003,362.112 606.832003,360.528 610.096003,360.528 C610.672003,360.528 611.296003,360.576 612.016003,360.72 L612.016003,354.288 Z M620.344003,363.504 C620.488003,361.344 622.312003,358.848 625.624003,358.848 C629.272003,358.848 630.808003,361.152 630.904003,363.504 L620.344003,363.504 Z M631.528003,369.648 C630.760003,371.76 629.128003,373.248 626.152003,373.248 C622.984003,373.248 620.344003,370.992 620.200003,367.872 L637.096003,367.872 C637.096003,367.776 637.192003,366.816 637.192003,365.904 C637.192003,358.32 632.824003,353.664 625.528003,353.664 C619.480003,353.664 613.912003,358.56 613.912003,366.096 C613.912003,374.064 619.624003,378.72 626.104003,378.72 C631.912003,378.72 635.656003,375.312 636.856003,371.232 L631.528003,369.648 Z M640.192003,371.568 C640.192003,375.264 643.264003,378.672 648.304003,378.672 C651.808003,378.672 654.064003,377.04 655.264003,375.168 C655.264003,376.08 655.360003,377.376 655.504003,378 L661.360003,378 C661.216003,377.184 661.072003,375.504 661.072003,374.256 L661.072003,362.64 C661.072003,357.888 658.288003,353.664 650.800003,353.664 C644.464003,353.664 641.056003,357.744 640.672003,361.44 L646.336003,362.64 C646.528003,360.576 648.064003,358.8 650.848003,358.8 C653.536003,358.8 654.832003,360.192 654.832003,361.872 C654.832003,362.688 654.400003,363.36 653.056003,363.552 L647.248003,364.416 C643.312003,364.992 640.192003,367.344 640.192003,371.568 Z M649.648003,373.92 C647.584003,373.92 646.576003,372.576 646.576003,371.184 C646.576003,369.36 647.872003,368.448 649.504003,368.208 L654.832003,367.392 L654.832003,368.448 C654.832003,372.624 652.336003,373.92 649.648003,373.92 Z M674.632004,347.328 L668.872004,347.328 L668.872004,350.64 C668.872004,352.752 667.720004,354.384 665.224004,354.384 L664.024004,354.384 L664.024004,360.048 L668.296004,360.048 L668.296004,371.04 C668.296004,375.6 671.176004,378.336 675.784004,378.336 C677.656004,378.336 678.808004,378 679.384004,377.76 L679.384004,372.48 C679.048004,372.576 678.184004,372.672 677.416004,372.672 C675.592004,372.672 674.632004,372 674.632004,369.936 L674.632004,360.048 L679.384004,360.048 L679.384004,354.384 L674.632004,354.384 L674.632004,347.328 Z M682.720004,371.424 C683.008004,374.112 685.456004,378.72 692.560004,378.72 C698.752004,378.72 701.728004,374.784 701.728004,370.944 C701.728004,367.488 699.376004,364.656 694.720004,363.696 L691.360004,362.976 C690.064004,362.736 689.200004,362.016 689.200004,360.864 C689.200004,359.52 690.544004,358.512 692.224004,358.512 C694.912004,358.512 695.920004,360.288 696.112004,361.68 L701.440004,360.48 C701.152004,357.936 698.896004,353.664 692.176004,353.664 C687.088004,353.664 683.344004,357.168 683.344004,361.392 C683.344004,364.704 685.408004,367.44 689.968004,368.448 L693.088004,369.168 C694.912004,369.552 695.632004,370.416 695.632004,371.472 C695.632004,372.72 694.624004,373.824 692.512004,373.824 C689.728004,373.824 688.336004,372.096 688.192004,370.224 L682.720004,371.424 Z" id="1/2-meal-of-dry-food-copy"></path>
        </g>
    </g>
</svg>