<?xml version="1.0" encoding="UTF-8"?>
<svg width="375px" height="667px" viewBox="0 0 375 667" version="1.1" xmlns="http://www.w3.org/2000/svg" xmlns:xlink="http://www.w3.org/1999/xlink" style="background: #FBF7F2;">
    <!-- Generator: Sketch 41.2 (35397) - http://www.bohemiancoding.com/sketch -->
    <title>iPhone 7</title>
    <desc>Created with Sketch.</desc>
    <defs></defs>
    <g id="Page-1" stroke="none" stroke-width="1" fill="none" fill-rule="evenodd">
        <g id="iPhone-7">
            <rect id="Rectangle-6" fill="#FFC268" x="29" y="151" width="8" height="8" rx="3"></rect>
            <rect id="Rectangle-7" fill-opacity="0.1" fill="#000000" x="32" y="163" width="2" height="600"></rect>
            <path d="M62.072,199 L62.072,176.312 L57.592,176.312 L57.592,199 L62.072,199 Z M70.792,199 L70.792,189.784 C70.792,188.056 71.88,186.68 73.736,186.68 C75.656,186.68 76.52,187.96 76.52,189.656 L76.52,199 L80.744,199 L80.744,189.784 C80.744,188.088 81.832,186.68 83.656,186.68 C85.608,186.68 86.44,187.96 86.44,189.656 L86.44,199 L90.568,199 L90.568,188.792 C90.568,184.568 87.784,182.808 84.872,182.808 C82.792,182.808 81.128,183.512 79.88,185.432 C79.08,183.736 77.352,182.808 75.208,182.808 C73.48,182.808 71.464,183.64 70.6,185.176 L70.6,183.256 L66.536,183.256 L66.536,199 L70.792,199 Z M98.744,205.08 L98.744,197.464 C99.512,198.52 101.112,199.384 103.288,199.384 C107.736,199.384 110.712,195.864 110.712,191.096 C110.712,186.424 108.056,182.904 103.448,182.904 C101.08,182.904 99.32,183.96 98.616,185.176 L98.616,183.256 L94.488,183.256 L94.488,205.08 L98.744,205.08 Z M106.52,191.128 C106.52,193.944 104.792,195.576 102.616,195.576 C100.44,195.576 98.68,193.912 98.68,191.128 C98.68,188.344 100.44,186.712 102.616,186.712 C104.792,186.712 106.52,188.344 106.52,191.128 Z M123.912,199 L127.976,199 C127.912,198.456 127.816,197.368 127.816,196.152 L127.816,183.256 L123.56,183.256 L123.56,192.408 C123.56,194.232 122.472,195.512 120.584,195.512 C118.6,195.512 117.704,194.104 117.704,192.344 L117.704,183.256 L113.448,183.256 L113.448,193.208 C113.448,196.632 115.624,199.416 119.432,199.416 C121.096,199.416 122.92,198.776 123.784,197.304 C123.784,197.944 123.848,198.68 123.912,199 Z M136.216,199 L136.216,175.832 L131.96,175.832 L131.96,199 L136.216,199 Z M139.016,194.616 C139.208,196.408 140.84,199.48 145.576,199.48 C149.704,199.48 151.688,196.856 151.688,194.296 C151.688,191.992 150.12,190.104 147.016,189.464 L144.776,188.984 C143.912,188.824 143.336,188.344 143.336,187.576 C143.336,186.68 144.232,186.008 145.352,186.008 C147.144,186.008 147.816,187.192 147.944,188.12 L151.496,187.32 C151.304,185.624 149.8,182.776 145.32,182.776 C141.928,182.776 139.432,185.112 139.432,187.928 C139.432,190.136 140.808,191.96 143.848,192.632 L145.928,193.112 C147.144,193.368 147.624,193.944 147.624,194.648 C147.624,195.48 146.952,196.216 145.544,196.216 C143.688,196.216 142.76,195.064 142.664,193.816 L139.016,194.616 Z M157.752,189.336 C157.848,187.896 159.064,186.232 161.272,186.232 C163.704,186.232 164.728,187.768 164.792,189.336 L157.752,189.336 Z M165.208,193.432 C164.696,194.84 163.608,195.832 161.624,195.832 C159.512,195.832 157.752,194.328 157.656,192.248 L168.92,192.248 C168.92,192.184 168.984,191.544 168.984,190.936 C168.984,185.88 166.072,182.776 161.208,182.776 C157.176,182.776 153.464,186.04 153.464,191.064 C153.464,196.376 157.272,199.48 161.592,199.48 C165.464,199.48 167.96,197.208 168.76,194.488 L165.208,193.432 Z M190.04,199.48 C196.408,199.48 199.672,195.256 200.536,191.768 L196.408,190.52 C195.8,192.632 193.912,195.16 190.04,195.16 C186.392,195.16 183,192.504 183,187.672 C183,182.52 186.584,180.088 189.976,180.088 C193.912,180.088 195.672,182.488 196.216,184.664 L200.376,183.352 C199.48,179.672 196.248,175.832 189.976,175.832 C183.896,175.832 178.424,180.44 178.424,187.672 C178.424,194.904 183.704,199.48 190.04,199.48 Z M210.024,195.608 C207.944,195.608 206.024,194.072 206.024,191.128 C206.024,188.152 207.944,186.648 210.024,186.648 C212.104,186.648 214.024,188.152 214.024,191.128 C214.024,194.104 212.104,195.608 210.024,195.608 Z M210.024,182.776 C205.32,182.776 201.768,186.264 201.768,191.128 C201.768,195.96 205.32,199.48 210.024,199.48 C214.728,199.48 218.28,195.96 218.28,191.128 C218.28,186.264 214.728,182.776 210.024,182.776 Z M225.496,189.944 C225.496,188.12 226.584,186.68 228.44,186.68 C230.488,186.68 231.352,188.056 231.352,189.816 L231.352,199 L235.608,199 L235.608,189.08 C235.608,185.624 233.816,182.84 229.912,182.84 C228.216,182.84 226.328,183.576 225.368,185.208 L225.368,183.256 L221.24,183.256 L221.24,199 L225.496,199 L225.496,189.944 Z M244.776,178.552 L240.936,178.552 L240.936,180.76 C240.936,182.168 240.168,183.256 238.504,183.256 L237.704,183.256 L237.704,187.032 L240.552,187.032 L240.552,194.36 C240.552,197.4 242.472,199.224 245.544,199.224 C246.792,199.224 247.56,199 247.944,198.84 L247.944,195.32 C247.72,195.384 247.144,195.448 246.632,195.448 C245.416,195.448 244.776,195 244.776,193.624 L244.776,187.032 L247.944,187.032 L247.944,183.256 L244.776,183.256 L244.776,178.552 Z M260.536,183.192 C260.216,183.16 259.896,183.128 259.544,183.128 C258.2,183.128 256.024,183.512 255.064,185.592 L255.064,183.256 L250.936,183.256 L250.936,199 L255.192,199 L255.192,191.8 C255.192,188.408 257.08,187.352 259.256,187.352 C259.64,187.352 260.056,187.384 260.536,187.48 L260.536,183.192 Z M270.056,195.608 C267.976,195.608 266.056,194.072 266.056,191.128 C266.056,188.152 267.976,186.648 270.056,186.648 C272.136,186.648 274.056,188.152 274.056,191.128 C274.056,194.104 272.136,195.608 270.056,195.608 Z M270.056,182.776 C265.352,182.776 261.8,186.264 261.8,191.128 C261.8,195.96 265.352,199.48 270.056,199.48 C274.76,199.48 278.312,195.96 278.312,191.128 C278.312,186.264 274.76,182.776 270.056,182.776 Z M285.528,199 L285.528,175.832 L281.272,175.832 L281.272,199 L285.528,199 Z" id="Impulse-Control-Copy" fill="#474747"></path>
            <path d="M143.66,282 L143.66,272.074 L142.26,272.074 L142.26,282 L143.66,282 Z M147.181,278.108 C147.181,277.086 147.713,276.26 148.749,276.26 C149.925,276.26 150.317,277.016 150.317,277.954 L150.317,282 L151.633,282 L151.633,277.73 C151.633,276.232 150.835,275.07 149.225,275.07 C148.441,275.07 147.643,275.392 147.153,276.232 L147.153,275.266 L145.865,275.266 L145.865,282 L147.181,282 L147.181,278.108 Z M154.342,278.612 C154.342,277.226 155.126,276.246 156.33,276.246 C157.534,276.246 158.262,277.198 158.262,278.584 C158.262,279.97 157.52,281.02 156.316,281.02 C155.056,281.02 154.342,279.998 154.342,278.612 Z M158.276,281.09 C158.276,281.496 158.318,281.846 158.346,282 L159.62,282 C159.606,281.888 159.55,281.398 159.55,280.754 L159.55,271.864 L158.248,271.864 L158.248,276.218 C158.024,275.672 157.38,275.084 156.19,275.084 C154.286,275.084 152.998,276.708 152.998,278.612 C152.998,280.614 154.216,282.182 156.19,282.182 C157.24,282.182 157.954,281.622 158.276,280.978 L158.276,281.09 Z M164.499,281.034 C163.379,281.034 162.399,280.194 162.399,278.626 C162.399,277.072 163.379,276.232 164.499,276.232 C165.619,276.232 166.599,277.072 166.599,278.626 C166.599,280.194 165.619,281.034 164.499,281.034 Z M164.499,275.056 C162.483,275.056 161.055,276.582 161.055,278.626 C161.055,280.684 162.483,282.21 164.499,282.21 C166.515,282.21 167.943,280.684 167.943,278.626 C167.943,276.582 166.515,275.056 164.499,275.056 Z M172.332,281.034 C171.212,281.034 170.232,280.194 170.232,278.626 C170.232,277.072 171.212,276.232 172.332,276.232 C173.452,276.232 174.432,277.072 174.432,278.626 C174.432,280.194 173.452,281.034 172.332,281.034 Z M172.332,275.056 C170.316,275.056 168.888,276.582 168.888,278.626 C168.888,280.684 170.316,282.21 172.332,282.21 C174.348,282.21 175.776,280.684 175.776,278.626 C175.776,276.582 174.348,275.056 172.332,275.056 Z M181.019,275.196 C180.949,275.182 180.767,275.154 180.585,275.154 C179.899,275.154 179.059,275.406 178.569,276.442 L178.569,275.266 L177.281,275.266 L177.281,282 L178.597,282 L178.597,278.626 C178.597,277.142 179.339,276.554 180.445,276.554 C180.627,276.554 180.823,276.568 181.019,276.596 L181.019,275.196 Z M181.614,280.25 C181.726,281.02 182.51,282.21 184.358,282.21 C186.024,282.21 186.822,281.076 186.822,280.124 C186.822,279.13 186.178,278.388 184.96,278.122 L183.868,277.884 C183.35,277.772 183.098,277.478 183.098,277.072 C183.098,276.61 183.546,276.176 184.218,276.176 C185.282,276.176 185.562,276.946 185.618,277.296 L186.78,276.862 C186.64,276.26 186.066,275.056 184.218,275.056 C182.902,275.056 181.824,276.036 181.824,277.184 C181.824,278.136 182.454,278.85 183.504,279.074 L184.652,279.326 C185.212,279.452 185.52,279.774 185.52,280.194 C185.52,280.67 185.114,281.09 184.372,281.09 C183.42,281.09 182.888,280.53 182.804,279.83 L181.614,280.25 Z" id="Indoors-Copy" fill="#474747"></path>
            <path d="M61.49,279.536 C61.616,280.964 62.918,282.224 64.85,282.224 C66.866,282.224 68.182,280.838 68.182,279.13 C68.182,277.254 66.88,276.12 65.102,276.12 C64.388,276.12 63.66,276.344 63.254,276.792 L63.926,274.188 L67.804,274.188 L67.804,272.928 L63.016,272.928 L61.84,277.436 C62.302,277.604 62.708,277.786 63.184,277.968 C63.576,277.562 64.192,277.31 64.836,277.31 C65.886,277.31 66.796,277.94 66.796,279.186 C66.796,280.306 65.928,281.02 64.85,281.02 C63.716,281.02 62.89,280.264 62.806,279.144 L61.49,279.536 Z M74.244,282 L74.244,277.94 C74.244,276.932 74.874,276.232 75.812,276.232 C76.82,276.232 77.24,276.904 77.24,277.772 L77.24,282 L78.556,282 L78.556,277.926 C78.556,276.96 79.186,276.232 80.11,276.232 C81.104,276.232 81.538,276.89 81.538,277.772 L81.538,282 L82.84,282 L82.84,277.632 C82.84,275.868 81.692,275.07 80.516,275.07 C79.662,275.07 78.794,275.378 78.262,276.344 C77.898,275.476 77.086,275.07 76.246,275.07 C75.462,275.07 74.622,275.42 74.202,276.162 L74.202,275.266 L72.942,275.266 L72.942,282 L74.244,282 Z M86.0670001,282 L86.0670001,275.266 L84.7650001,275.266 L84.7650001,282 L86.0670001,282 Z M84.4710001,272.718 C84.4710001,273.236 84.8910001,273.656 85.4090001,273.656 C85.9410001,273.656 86.3610001,273.236 86.3610001,272.718 C86.3610001,272.186 85.9410001,271.766 85.4090001,271.766 C84.8910001,271.766 84.4710001,272.186 84.4710001,272.718 Z M89.4480001,278.108 C89.4480001,277.086 89.9800001,276.26 91.0160001,276.26 C92.1920001,276.26 92.5840001,277.016 92.5840001,277.954 L92.5840001,282 L93.9000001,282 L93.9000001,277.73 C93.9000001,276.232 93.1020001,275.07 91.4920001,275.07 C90.7080001,275.07 89.9100001,275.392 89.4200001,276.232 L89.4200001,275.266 L88.1320001,275.266 L88.1320001,282 L89.4480001,282 L89.4480001,278.108 Z M100.123,281.188 C100.123,281.468 100.151,281.846 100.179,282 L101.439,282 C101.411,281.762 101.369,281.286 101.369,280.754 L101.369,275.266 L100.053,275.266 L100.053,279.326 C100.053,280.348 99.5210001,281.048 98.4570001,281.048 C97.3510001,281.048 96.9310001,280.236 96.9310001,279.312 L96.9310001,275.266 L95.6150001,275.266 L95.6150001,279.508 C95.6150001,281.034 96.5670001,282.21 98.1350001,282.21 C98.9190001,282.21 99.7590001,281.888 100.123,281.188 Z M105.198,273.138 L103.994,273.138 L103.994,274.23 C103.994,274.818 103.686,275.266 102.958,275.266 L102.594,275.266 L102.594,276.456 L103.882,276.456 L103.882,280.152 C103.882,281.37 104.61,282.07 105.758,282.07 C106.206,282.07 106.542,281.986 106.654,281.944 L106.654,280.824 C106.542,280.852 106.304,280.88 106.136,280.88 C105.45,280.88 105.198,280.572 105.198,279.956 L105.198,276.456 L106.654,276.456 L106.654,275.266 L105.198,275.266 L105.198,273.138 Z M109.013,277.94 C109.069,277.072 109.741,276.218 110.847,276.218 C112.037,276.218 112.667,276.974 112.695,277.94 L109.013,277.94 Z M112.891,279.69 C112.639,280.446 112.093,281.048 111.001,281.048 C109.867,281.048 108.999,280.208 108.971,279.004 L114.039,279.004 C114.053,278.92 114.067,278.752 114.067,278.584 C114.067,276.484 112.905,275.056 110.833,275.056 C109.139,275.056 107.613,276.498 107.613,278.612 C107.613,280.894 109.195,282.21 111.001,282.21 C112.569,282.21 113.647,281.272 114.025,280.082 L112.891,279.69 Z M114.942,280.25 C115.054,281.02 115.838,282.21 117.686,282.21 C119.352,282.21 120.15,281.076 120.15,280.124 C120.15,279.13 119.506,278.388 118.288,278.122 L117.196,277.884 C116.678,277.772 116.426,277.478 116.426,277.072 C116.426,276.61 116.874,276.176 117.546,276.176 C118.61,276.176 118.89,276.946 118.946,277.296 L120.108,276.862 C119.968,276.26 119.394,275.056 117.546,275.056 C116.23,275.056 115.152,276.036 115.152,277.184 C115.152,278.136 115.782,278.85 116.832,279.074 L117.98,279.326 C118.54,279.452 118.848,279.774 118.848,280.194 C118.848,280.67 118.442,281.09 117.7,281.09 C116.748,281.09 116.216,280.53 116.132,279.83 L114.942,280.25 Z" id="5-minutes-copy" fill="#474747"></path>
            <path d="M215.632,282 L215.632,277.828 L219.86,277.828 L219.86,276.54 L215.632,276.54 L215.632,273.348 L220.294,273.348 L220.294,272.074 L214.26,272.074 L214.26,282 L215.632,282 Z M224.053,281.034 C222.933,281.034 221.953,280.194 221.953,278.626 C221.953,277.072 222.933,276.232 224.053,276.232 C225.173,276.232 226.153,277.072 226.153,278.626 C226.153,280.194 225.173,281.034 224.053,281.034 Z M224.053,275.056 C222.037,275.056 220.609,276.582 220.609,278.626 C220.609,280.684 222.037,282.21 224.053,282.21 C226.069,282.21 227.497,280.684 227.497,278.626 C227.497,276.582 226.069,275.056 224.053,275.056 Z M231.886,281.034 C230.766,281.034 229.786,280.194 229.786,278.626 C229.786,277.072 230.766,276.232 231.886,276.232 C233.006,276.232 233.986,277.072 233.986,278.626 C233.986,280.194 233.006,281.034 231.886,281.034 Z M231.886,275.056 C229.87,275.056 228.442,276.582 228.442,278.626 C228.442,280.684 229.87,282.21 231.886,282.21 C233.902,282.21 235.33,280.684 235.33,278.626 C235.33,276.582 233.902,275.056 231.886,275.056 Z M237.619,278.612 C237.619,277.226 238.403,276.246 239.607,276.246 C240.811,276.246 241.539,277.198 241.539,278.584 C241.539,279.97 240.797,281.02 239.593,281.02 C238.333,281.02 237.619,279.998 237.619,278.612 Z M241.553,281.09 C241.553,281.496 241.595,281.846 241.623,282 L242.897,282 C242.883,281.888 242.827,281.398 242.827,280.754 L242.827,271.864 L241.525,271.864 L241.525,276.218 C241.301,275.672 240.657,275.084 239.467,275.084 C237.563,275.084 236.275,276.708 236.275,278.612 C236.275,280.614 237.493,282.182 239.467,282.182 C240.517,282.182 241.231,281.622 241.553,280.978 L241.553,281.09 Z M249.981,273.138 L248.777,273.138 L248.777,274.23 C248.777,274.818 248.469,275.266 247.741,275.266 L247.377,275.266 L247.377,276.456 L248.665,276.456 L248.665,280.152 C248.665,281.37 249.393,282.07 250.541,282.07 C250.989,282.07 251.325,281.986 251.437,281.944 L251.437,280.824 C251.325,280.852 251.087,280.88 250.919,280.88 C250.233,280.88 249.981,280.572 249.981,279.956 L249.981,276.456 L251.437,276.456 L251.437,275.266 L249.981,275.266 L249.981,273.138 Z M256.61,275.196 C256.54,275.182 256.358,275.154 256.176,275.154 C255.49,275.154 254.65,275.406 254.16,276.442 L254.16,275.266 L252.872,275.266 L252.872,282 L254.188,282 L254.188,278.626 C254.188,277.142 254.93,276.554 256.036,276.554 C256.218,276.554 256.414,276.568 256.61,276.596 L256.61,275.196 Z M258.619,277.94 C258.675,277.072 259.347,276.218 260.453,276.218 C261.643,276.218 262.273,276.974 262.301,277.94 L258.619,277.94 Z M262.497,279.69 C262.245,280.446 261.699,281.048 260.607,281.048 C259.473,281.048 258.605,280.208 258.577,279.004 L263.645,279.004 C263.659,278.92 263.673,278.752 263.673,278.584 C263.673,276.484 262.511,275.056 260.439,275.056 C258.745,275.056 257.219,276.498 257.219,278.612 C257.219,280.894 258.801,282.21 260.607,282.21 C262.175,282.21 263.253,281.272 263.631,280.082 L262.497,279.69 Z M264.758,280.194 C264.758,281.258 265.64,282.21 267.012,282.21 C268.216,282.21 268.888,281.566 269.182,281.09 C269.182,281.58 269.224,281.832 269.252,282 L270.54,282 C270.512,281.832 270.456,281.482 270.456,280.894 L270.456,277.52 C270.456,276.204 269.672,275.056 267.656,275.056 C266.2,275.056 265.038,275.952 264.898,277.24 L266.158,277.534 C266.242,276.75 266.76,276.176 267.684,276.176 C268.706,276.176 269.14,276.722 269.14,277.38 C269.14,277.618 269.028,277.828 268.622,277.884 L266.802,278.15 C265.64,278.318 264.758,278.99 264.758,280.194 Z M267.194,281.104 C266.522,281.104 266.102,280.628 266.102,280.124 C266.102,279.522 266.522,279.2 267.082,279.116 L269.14,278.808 L269.14,279.116 C269.14,280.586 268.272,281.104 267.194,281.104 Z M274.089,273.138 L272.885,273.138 L272.885,274.23 C272.885,274.818 272.577,275.266 271.849,275.266 L271.485,275.266 L271.485,276.456 L272.773,276.456 L272.773,280.152 C272.773,281.37 273.501,282.07 274.649,282.07 C275.097,282.07 275.433,281.986 275.545,281.944 L275.545,280.824 C275.433,280.852 275.195,280.88 275.027,280.88 C274.341,280.88 274.089,280.572 274.089,279.956 L274.089,276.456 L275.545,276.456 L275.545,275.266 L274.089,275.266 L274.089,273.138 Z M276.56,280.25 C276.672,281.02 277.456,282.21 279.304,282.21 C280.97,282.21 281.768,281.076 281.768,280.124 C281.768,279.13 281.124,278.388 279.906,278.122 L278.814,277.884 C278.296,277.772 278.044,277.478 278.044,277.072 C278.044,276.61 278.492,276.176 279.164,276.176 C280.228,276.176 280.508,276.946 280.564,277.296 L281.726,276.862 C281.586,276.26 281.012,275.056 279.164,275.056 C277.848,275.056 276.77,276.036 276.77,277.184 C276.77,278.136 277.4,278.85 278.45,279.074 L279.598,279.326 C280.158,279.452 280.466,279.774 280.466,280.194 C280.466,280.67 280.06,281.09 279.318,281.09 C278.366,281.09 277.834,280.53 277.75,279.83 L276.56,280.25 Z" id="Food-treats-Copy" fill="#474747"></path>
            <path d="M65.312,150.112 L65.312,148.656 L56.16,148.656 L56.16,150.112 L59.952,150.112 L59.952,160 L61.52,160 L61.52,150.112 L65.312,150.112 Z M68.928,158.896 C67.648,158.896 66.528,157.936 66.528,156.144 C66.528,154.368 67.648,153.408 68.928,153.408 C70.208,153.408 71.328,154.368 71.328,156.144 C71.328,157.936 70.208,158.896 68.928,158.896 Z M68.928,152.064 C66.624,152.064 64.992,153.808 64.992,156.144 C64.992,158.496 66.624,160.24 68.928,160.24 C71.232,160.24 72.864,158.496 72.864,156.144 C72.864,153.808 71.232,152.064 68.928,152.064 Z M76.08,156.128 C76.08,154.544 76.976,153.424 78.352,153.424 C79.728,153.424 80.56,154.512 80.56,156.096 C80.56,157.68 79.712,158.88 78.336,158.88 C76.896,158.88 76.08,157.712 76.08,156.128 Z M80.576,158.96 C80.576,159.424 80.624,159.824 80.656,160 L82.112,160 C82.096,159.872 82.032,159.312 82.032,158.576 L82.032,148.416 L80.544,148.416 L80.544,153.392 C80.288,152.768 79.552,152.096 78.192,152.096 C76.016,152.096 74.544,153.952 74.544,156.128 C74.544,158.416 75.936,160.208 78.192,160.208 C79.392,160.208 80.208,159.568 80.576,158.832 L80.576,158.96 Z M84.512,157.936 C84.512,159.152 85.52,160.24 87.088,160.24 C88.464,160.24 89.232,159.504 89.568,158.96 C89.568,159.52 89.616,159.808 89.648,160 L91.12,160 C91.088,159.808 91.024,159.408 91.024,158.736 L91.024,154.88 C91.024,153.376 90.128,152.064 87.824,152.064 C86.16,152.064 84.832,153.088 84.672,154.56 L86.112,154.896 C86.208,154 86.8,153.344 87.856,153.344 C89.024,153.344 89.52,153.968 89.52,154.72 C89.52,154.992 89.392,155.232 88.928,155.296 L86.848,155.6 C85.52,155.792 84.512,156.56 84.512,157.936 Z M87.296,158.976 C86.528,158.976 86.048,158.432 86.048,157.856 C86.048,157.168 86.528,156.8 87.168,156.704 L89.52,156.352 L89.52,156.704 C89.52,158.384 88.528,158.976 87.296,158.976 Z M95.52,163.216 L100.528,152.304 L98.912,152.304 L96.608,157.616 L94.208,152.304 L92.48,152.304 L95.792,159.152 L93.872,163.216 L95.52,163.216 Z M101.728,149.504 C101.728,150.144 102.176,150.528 102.736,150.528 C102.896,150.528 103.008,150.48 103.056,150.448 C103.04,151.168 102.544,151.904 101.824,152.064 L101.824,152.832 C102.752,152.72 104.032,151.904 104.032,149.92 C104.032,148.992 103.456,148.512 102.816,148.512 C102.192,148.512 101.728,148.976 101.728,149.504 Z M104.752,158 C104.88,158.88 105.776,160.24 107.888,160.24 C109.792,160.24 110.704,158.944 110.704,157.856 C110.704,156.72 109.968,155.872 108.576,155.568 L107.328,155.296 C106.736,155.168 106.448,154.832 106.448,154.368 C106.448,153.84 106.96,153.344 107.728,153.344 C108.944,153.344 109.264,154.224 109.328,154.624 L110.656,154.128 C110.496,153.44 109.84,152.064 107.728,152.064 C106.224,152.064 104.992,153.184 104.992,154.496 C104.992,155.584 105.712,156.4 106.912,156.656 L108.224,156.944 C108.864,157.088 109.216,157.456 109.216,157.936 C109.216,158.48 108.752,158.96 107.904,158.96 C106.816,158.96 106.208,158.32 106.112,157.52 L104.752,158 Z M116.784,158 C116.912,158.88 117.808,160.24 119.92,160.24 C121.824,160.24 122.736,158.944 122.736,157.856 C122.736,156.72 122,155.872 120.608,155.568 L119.36,155.296 C118.768,155.168 118.48,154.832 118.48,154.368 C118.48,153.84 118.992,153.344 119.76,153.344 C120.976,153.344 121.296,154.224 121.36,154.624 L122.688,154.128 C122.528,153.44 121.872,152.064 119.76,152.064 C118.256,152.064 117.024,153.184 117.024,154.496 C117.024,155.584 117.744,156.4 118.944,156.656 L120.256,156.944 C120.896,157.088 121.248,157.456 121.248,157.936 C121.248,158.48 120.784,158.96 119.936,158.96 C118.848,158.96 118.24,158.32 118.144,157.52 L116.784,158 Z M126.032,155.36 C126.096,154.368 126.864,153.392 128.128,153.392 C129.488,153.392 130.208,154.256 130.24,155.36 L126.032,155.36 Z M130.464,157.36 C130.176,158.224 129.552,158.912 128.304,158.912 C127.008,158.912 126.016,157.952 125.984,156.576 L131.776,156.576 C131.792,156.48 131.808,156.288 131.808,156.096 C131.808,153.696 130.48,152.064 128.112,152.064 C126.176,152.064 124.432,153.712 124.432,156.128 C124.432,158.736 126.24,160.24 128.304,160.24 C130.096,160.24 131.328,159.168 131.76,157.808 L130.464,157.36 Z M133.408,158 C133.536,158.88 134.432,160.24 136.544,160.24 C138.448,160.24 139.36,158.944 139.36,157.856 C139.36,156.72 138.624,155.872 137.232,155.568 L135.984,155.296 C135.392,155.168 135.104,154.832 135.104,154.368 C135.104,153.84 135.616,153.344 136.384,153.344 C137.6,153.344 137.92,154.224 137.984,154.624 L139.312,154.128 C139.152,153.44 138.496,152.064 136.384,152.064 C134.88,152.064 133.648,153.184 133.648,154.496 C133.648,155.584 134.368,156.4 135.568,156.656 L136.88,156.944 C137.52,157.088 137.872,157.456 137.872,157.936 C137.872,158.48 137.408,158.96 136.56,158.96 C135.472,158.96 134.864,158.32 134.768,157.52 L133.408,158 Z M141.04,158 C141.168,158.88 142.064,160.24 144.176,160.24 C146.08,160.24 146.992,158.944 146.992,157.856 C146.992,156.72 146.256,155.872 144.864,155.568 L143.616,155.296 C143.024,155.168 142.736,154.832 142.736,154.368 C142.736,153.84 143.248,153.344 144.016,153.344 C145.232,153.344 145.552,154.224 145.616,154.624 L146.944,154.128 C146.784,153.44 146.128,152.064 144.016,152.064 C142.512,152.064 141.28,153.184 141.28,154.496 C141.28,155.584 142,156.4 143.2,156.656 L144.512,156.944 C145.152,157.088 145.504,157.456 145.504,157.936 C145.504,158.48 145.04,158.96 144.192,158.96 C143.104,158.96 142.496,158.32 142.4,157.52 L141.04,158 Z M150.88,160 L150.88,152.304 L149.392,152.304 L149.392,160 L150.88,160 Z M149.056,149.392 C149.056,149.984 149.536,150.464 150.128,150.464 C150.736,150.464 151.216,149.984 151.216,149.392 C151.216,148.784 150.736,148.304 150.128,148.304 C149.536,148.304 149.056,148.784 149.056,149.392 Z M157.136,158.896 C155.856,158.896 154.736,157.936 154.736,156.144 C154.736,154.368 155.856,153.408 157.136,153.408 C158.416,153.408 159.536,154.368 159.536,156.144 C159.536,157.936 158.416,158.896 157.136,158.896 Z M157.136,152.064 C154.832,152.064 153.2,153.808 153.2,156.144 C153.2,158.496 154.832,160.24 157.136,160.24 C159.44,160.24 161.072,158.496 161.072,156.144 C161.072,153.808 159.44,152.064 157.136,152.064 Z M164.896,155.552 C164.896,154.384 165.504,153.44 166.688,153.44 C168.032,153.44 168.48,154.304 168.48,155.376 L168.48,160 L169.984,160 L169.984,155.12 C169.984,153.408 169.072,152.08 167.232,152.08 C166.336,152.08 165.424,152.448 164.864,153.408 L164.864,152.304 L163.392,152.304 L163.392,160 L164.896,160 L164.896,155.552 Z" id="Today’s-session-Copy" fill="#474747"></path>
            <g id="Chair-Icon" transform="translate(152.000000, 230.000000)" fill="#000000">
                <path d="M24.4632576,0.052173913 C24.2814394,0.00347826087 24.0935606,0.101565217 24.0420455,0.267826087 C23.0106061,3.6013913 20.605303,5.46469565 17.0863636,5.65634783 C15.1412879,5.76208696 13.9454545,5.79165217 12.8901515,5.8173913 C11.9200758,5.84104348 11.0829545,5.86156522 9.88598485,5.93356522 C7.13295455,6.09913043 6.46931818,7.22852174 5.53371212,9.21043478 C5.42083333,9.44973913 5.30151515,9.71791304 5.17386364,10.0038261 C4.27689394,12.0163478 2.91742424,15.0556522 0.679545455,14.7568696 C0.493181818,14.7314783 0.320075758,14.8504348 0.29280303,15.0215652 C0.265530303,15.1926957 0.39469697,15.3516522 0.581060606,15.3766957 C0.725757576,15.3961739 0.866287879,15.4055652 1.00378788,15.4055652 C3.50340909,15.4055652 4.87840909,12.3196522 5.80492424,10.2413913 C5.93068182,9.95965217 6.04848485,9.69565217 6.15984848,9.45982609 C7.12234848,7.42086957 7.66174242,6.69495652 9.93068182,6.5586087 C11.1140152,6.48730435 11.9454545,6.46713043 12.9083333,6.44347826 C13.9689394,6.4173913 15.1708333,6.38817391 17.1268939,6.28173913 C20.9621212,6.07304348 23.580303,4.05286957 24.6984848,0.439652174 C24.7496212,0.272695652 24.6443182,0.0994782609 24.4632576,0.052173913 Z" id="Shape"></path>
                <path d="M2.10075758,31.3342609 L1.43712121,31.3342609 C1.24886364,31.3342609 1.09621212,31.4744348 1.09621212,31.6473043 C1.09621212,31.8201739 1.24886364,31.9603478 1.43712121,31.9603478 L2.10075758,31.9603478 C2.28901515,31.9603478 2.44166667,31.8201739 2.44166667,31.6473043 C2.44166667,31.4744348 2.28901515,31.3342609 2.10075758,31.3342609 Z" id="Shape"></path>
                <path d="M20.1371212,31.3342609 L19.4738636,31.3342609 C19.2856061,31.3342609 19.1329545,31.4744348 19.1329545,31.6473043 C19.1329545,31.8201739 19.2856061,31.9603478 19.4738636,31.9603478 L20.1371212,31.9603478 C20.3253788,31.9603478 20.4780303,31.8201739 20.4780303,31.6473043 C20.4780303,31.4744348 20.3253788,31.3342609 20.1371212,31.3342609 Z" id="Shape"></path>
                <path d="M22.2227273,5.06991304 C22.0640152,4.97773913 21.8530303,5.02191304 21.7530303,5.16834783 C21.2871212,5.8493913 20.7549242,8.10713043 19.917803,12.962087 C19.7564394,13.8973913 19.3,14.5909565 18.5223485,15.0827826 C16.9435606,16.0824348 14.0662879,16.1878261 9.97159091,15.3968696 C6.48068182,14.7231304 3.59015152,14.7634783 3.46780303,14.7645217 C3.27992424,14.7676522 3.12992424,14.9102609 3.13333333,15.0831304 C3.13674242,15.2556522 3.30227273,15.3906087 3.47992424,15.3906087 C3.4969697,15.3906087 4.47765152,15.378087 5.95795455,15.493913 L6.83295455,16.477913 C6.88106061,16.5318261 6.94734848,16.5697391 7.02121212,16.5850435 L7.12689394,16.6073043 L1.77878788,30.7325217 C1.71666667,30.8956522 1.81098485,31.074087 1.98863636,31.1311304 C2.02613636,31.1429565 2.06363636,31.1485217 2.10075758,31.1485217 C2.24166667,31.1485217 2.37386364,31.0674783 2.42272727,30.938087 L4.32424242,25.9158261 C4.35530303,25.9088696 4.38598485,25.8987826 4.4155303,25.8834783 L10.7496212,22.5311304 L17.257197,25.8831304 L19.1518939,30.9373913 C19.2003788,31.0671304 19.3325758,31.1485217 19.4742424,31.1485217 C19.5109848,31.1485217 19.5484848,31.1429565 19.5852273,31.1314783 C19.7632576,31.0751304 19.8579545,30.8970435 19.7965909,30.7335652 L14.8511364,17.5436522 L15.0560606,17.5509565 L15.0689394,17.5509565 C15.1530303,17.5509565 15.2344697,17.5224348 15.2969697,17.4706087 L16.5761364,16.4142609 C17.5098485,16.2646957 18.2856061,15.9933913 18.9094697,15.5986087 C19.8359848,15.0125217 20.4015152,14.1582609 20.5909091,13.0601739 C21.0878788,10.1805217 21.8083333,6.26365217 22.3299242,5.50191304 C22.430303,5.35513043 22.382197,5.16173913 22.2227273,5.06991304 Z M6.91590909,15.5812174 C7.44015152,15.6358261 8.00378788,15.706087 8.59469697,15.7965217 L8.07462121,16.1638261 L7.28712121,15.9989565 L6.91590909,15.5812174 Z M4.65871212,25.0316522 L6.43560606,20.3391304 L10.0056818,22.2017391 L4.65871212,25.0316522 Z M11.4977273,22.1982609 L15.1590909,20.288 L16.9231061,24.9930435 L11.4977273,22.1982609 Z M14.9333333,19.6855652 L10.7481061,21.8692174 L6.66287879,19.738087 L7.79507576,16.7474783 L8.07916667,16.8069565 C8.10416667,16.8121739 8.12992424,16.8146087 8.15492424,16.8146087 C8.22916667,16.8146087 8.30265152,16.7923478 8.36287879,16.749913 L9.49772727,15.9492174 C9.60871212,15.9693913 9.71856061,15.9881739 9.83068182,16.010087 C10.9549242,16.2271304 11.9848485,16.3773913 12.9276515,16.464 L13.6140152,17.3749565 C13.675,17.456 13.7742424,17.5057391 13.8814394,17.5095652 L14.1200758,17.517913 L14.9333333,19.6855652 Z M14.9439394,16.9203478 L14.0784091,16.8897391 L13.8045455,16.5262609 C14.1087121,16.5415652 14.4049242,16.5513043 14.6882576,16.5513043 C14.9386364,16.5513043 15.1795455,16.544 15.4140152,16.5318261 L14.9439394,16.9203478 Z" id="Shape"></path>
            </g>
            <path d="M246.078431,258.571429 L237.843137,258.571429 L237.843137,249.828571 L253.764706,245.542857 L253.764706,247.714286 C254.094118,247.6 254.478431,247.714286 254.862745,247.714286 L254.862745,233.771429 L257.717647,230.857143 L256.94902,230 L254.203922,232.857143 L237.568627,232.857143 L234.823529,230 L234,230.8 L236.745098,233.657143 L236.745098,259.657143 L246.188235,259.657143 C246.023529,259.257143 246.133333,258.971429 246.078431,258.571429 Z M237.843137,234 L253.764706,234 L253.764706,235.257143 L237.843137,239.485714 L237.843137,234 Z M237.843137,240.685714 L253.764706,236.4 L253.764706,244.342857 L237.843137,248.628571 L237.843137,240.685714 Z M247.176471,240.171429 L239.545098,242.285714 C239.270588,242.342857 239.05098,242.685714 239.160784,242.971429 C239.215686,243.2 239.435294,243.371429 239.709804,243.371429 L239.87451,243.371429 L247.505882,241.257143 C247.780392,241.2 248,240.857143 247.890196,240.571429 C247.780392,240.285714 247.505882,240.114286 247.176471,240.171429 Z M245.529412,243.257143 L239.545098,244.914286 C239.270588,244.971429 239.05098,245.314286 239.160784,245.6 C239.215686,245.828571 239.435294,246 239.709804,246 L239.87451,246 L245.858824,244.342857 C246.133333,244.285714 246.352941,243.942857 246.243137,243.657143 C246.133333,243.371429 245.803922,243.2 245.529412,243.257143 Z M245.529412,252.857143 L245.309804,253.371429 C245.309804,258.114286 249.098039,262 253.654902,262 C258.211765,262 262,258.114286 262,253.371429 L262,252.857143 L245.529412,252.857143 Z M253.709804,260.857143 C249.921569,260.857143 246.901961,257.885714 246.627451,254 L260.901961,254 C260.627451,257.885714 257.498039,260.857143 253.709804,260.857143 Z M258.596078,251.657143 C259.639216,251.657143 259.639216,249.942857 258.596078,249.942857 C257.552941,249.942857 257.552941,251.657143 258.596078,251.657143 Z M255.960784,248.114286 C254.917647,248.114286 254.917647,249.828571 255.960784,249.828571 C257.003922,249.828571 257.003922,248.114286 255.960784,248.114286 Z M255.960784,250.685714 C254.917647,250.685714 254.917647,252.4 255.960784,252.4 C257.003922,252.4 257.003922,250.685714 255.960784,250.685714 Z M252.282353,252.285714 C253.32549,252.285714 253.32549,250.571429 252.282353,250.571429 C251.239216,250.571429 251.239216,252.285714 252.282353,252.285714 Z M253.929412,250.514286 C254.972549,250.514286 254.972549,248.8 253.929412,248.8 C252.886275,248.8 252.886275,250.514286 253.929412,250.514286 Z M249.317647,252.4 C250.360784,252.4 250.360784,250.685714 249.317647,250.685714 C248.27451,250.685714 248.27451,252.4 249.317647,252.4 Z" id="Food" fill="#000000"></path>
            <g id="Stopwatch" transform="translate(79.000000, 234.000000)" fill="#000000">
                <path d="M13.4702652,5.28236915 C12.9932242,5.28236915 12.6060606,5.6671405 12.6060606,6.14187328 L12.6060606,14.1639118 C12.6060606,14.6386446 12.9932242,15.023416 13.4702652,15.023416 C13.9473061,15.023416 14.3344697,14.6386446 14.3344697,14.1639118 L14.3344697,6.14187328 C14.3344697,5.6671405 13.9473061,5.28236915 13.4702652,5.28236915 Z" id="Shape" transform="translate(13.470265, 10.152893) rotate(30.000000) translate(-13.470265, -10.152893) "></path>
                <path d="M19.3596222,2.90462259 C17.9777591,1.96489807 16.3956886,1.29849587 14.6914773,0.978187328 L10.0823864,0.978187328 C4.35040568,2.05600551 0,7.07092562 0,13.0805785 C0,19.8735262 5.55683523,25.4001377 12.3869318,25.4001377 C19.2170284,25.4001377 24.7738636,19.8735262 24.7738636,13.0805785 C24.7738636,10.5103747 23.9773551,8.12267218 22.6185375,6.14581267 L19.3596222,2.90462259 Z M12.3869318,24.2988981 C6.16726095,24.2988981 1.10726207,19.2664206 1.10726207,13.0805785 C1.10726207,6.89473647 6.16726095,1.86225895 12.3869318,1.86225895 C18.6066027,1.86225895 23.6666016,6.89473647 23.6666016,13.0805785 C23.6666016,19.2664206 18.6066027,24.2988981 12.3869318,24.2988981 Z" id="Shape"></path>
            </g>
        </g>
    </g>
</svg>