<?xml version="1.0" encoding="UTF-8"?>
<svg width="1448px" height="688px" viewBox="0 0 1448 688" version="1.1" xmlns="http://www.w3.org/2000/svg" xmlns:xlink="http://www.w3.org/1999/xlink" style="background: #FFFDF8;">
    <!-- Generator: Sketch 40 (33762) - http://www.bohemiancoding.com/sketch -->
    <title>Style</title>
    <desc>Created with Sketch.</desc>
    <defs></defs>
    <g id="Shots" stroke="none" stroke-width="1" fill="none" fill-rule="evenodd">
        <g id="Style">
            <path d="M28.784,124.968 L17.408,124.968 L17.408,131.016 L27.728,131.016 L27.728,138.984 L17.408,138.984 L17.408,153.192 L8,153.192 L8,117 L28.784,117 L28.784,124.968 Z M61,117 L70.408,117 L70.408,137.352 C70.408,140.296015 70.1760023,142.76799 69.712,144.768 C69.2479977,146.76801 68.216008,148.551992 66.616,150.12 C63.8959864,152.808013 59.8960264,154.152 54.616,154.152 C49.3359736,154.152 45.3360136,152.808013 42.616,150.12 C41.015992,148.551992 39.9840023,146.76801 39.52,144.768 C39.0559977,142.76799 38.824,140.296015 38.824,137.352 L38.824,117 L48.232,117 L48.232,136.056 C48.232,137.208006 48.2559998,138.167996 48.304,138.936 C48.3520002,139.704004 48.4959988,140.567995 48.736,141.528 C48.9760012,142.488005 49.3119978,143.255997 49.744,143.832 C50.1760022,144.408003 50.8079958,144.895998 51.64,145.296 C52.4720042,145.696002 53.4639942,145.896 54.616,145.896 C55.7680058,145.896 56.7599958,145.696002 57.592,145.296 C58.4240042,144.895998 59.0559978,144.408003 59.488,143.832 C59.9200022,143.255997 60.2559988,142.488005 60.496,141.528 C60.7360012,140.567995 60.8799998,139.704004 60.928,138.936 C60.9760002,138.167996 61,137.208006 61,136.056 L61,117 Z M95.76,124.968 L95.76,153.192 L86.352,153.192 L86.352,124.968 L78.576,124.968 L78.576,117 L103.536,117 L103.536,124.968 L95.76,124.968 Z M133.928,117 L143.336,117 L143.336,137.352 C143.336,140.296015 143.104002,142.76799 142.64,144.768 C142.175998,146.76801 141.144008,148.551992 139.544,150.12 C136.823986,152.808013 132.824026,154.152 127.544,154.152 C122.263974,154.152 118.264014,152.808013 115.544,150.12 C113.943992,148.551992 112.912002,146.76801 112.448,144.768 C111.983998,142.76799 111.752,140.296015 111.752,137.352 L111.752,117 L121.16,117 L121.16,136.056 C121.16,137.208006 121.184,138.167996 121.232,138.936 C121.28,139.704004 121.423999,140.567995 121.664,141.528 C121.904001,142.488005 122.239998,143.255997 122.672,143.832 C123.104002,144.408003 123.735996,144.895998 124.568,145.296 C125.400004,145.696002 126.391994,145.896 127.544,145.896 C128.696006,145.896 129.687996,145.696002 130.52,145.296 C131.352004,144.895998 131.983998,144.408003 132.416,143.832 C132.848002,143.255997 133.183999,142.488005 133.424,141.528 C133.664001,140.567995 133.808,139.704004 133.856,138.936 C133.904,138.167996 133.928,137.208006 133.928,136.056 L133.928,117 Z M173.008,138.36 L184.384,153.192 L172.672,153.192 L163.792,139.272 L163.696,139.272 L163.696,153.192 L154.288,153.192 L154.288,117 L168.352,117 C172.128019,117 175.167988,117.927991 177.472,119.784 C179.776012,121.640009 180.928,124.423981 180.928,128.136 C180.928,130.728013 180.232007,132.967991 178.84,134.856 C177.447993,136.744009 175.504012,137.911998 173.008,138.36 L173.008,138.36 Z M163.696,124.2 L163.696,133.224 L164.608,133.224 C168.960022,133.224 171.136,131.720015 171.136,128.712 C171.136,125.703985 168.960022,124.2 164.608,124.2 L163.696,124.2 Z M214.104,146.904 L201.144,146.904 L198.648,153.192 L188.664,153.192 L202.584,117 L212.856,117 L226.488,153.192 L216.456,153.192 L214.104,146.904 Z M211.56,139.704 L207.72,128.184 L207.624,128.184 L203.736,139.704 L211.56,139.704 Z" id="FUTURA-Outline" fill="#151203"></path>
            <path d="M61.76,239.36 L61.76,217.64 L5,217.64 L5.36,221.72 L11.6,222.44 C14.12,222.8 14.72,223.04 14.72,224 L14.72,286.16 C14.72,287.12 13.88,287.6 11.6,287.84 L5.36,288.56 L5,292.64 L36.68,292.64 L36.32,288.56 L27.68,287.84 C25.28,287.6 24.56,287.24 24.56,286.28 L24.56,257.24 L29.84,257.24 C40.76,257.24 41.36,257.96 41.72,259.88 L42.56,267.56 L46.52,267.56 L49.04,242.6 L44.96,242.6 L42.2,250.64 C41.36,252.8 40.16,252.92 30.08,252.92 L24.56,252.92 L24.56,222.08 L28.28,222.08 C51.56,222.08 52.52,222.44 53.96,227.24 L56.48,239.36 L61.76,239.36 Z M110.72,243.32 C110.72,239.96 108.32,237.2 104,237.2 C98.84,237.2 94.52,241.28 87.56,252.92 L87.08,252.92 L87.08,237.32 L70.04,241.28 L69.8,244.52 L74.72,245.24 C77.84,246.08 78.44,246.8 78.44,252.32 L78.44,286.28 C78.44,287.48 77.6,287.96 75.44,288.08 L70.64,288.56 L70.28,292.64 L97.04,292.64 L96.68,288.56 L90.32,288.08 C87.56,287.96 87.08,287.36 87.08,286.4 L87.08,259.4 C90.08,253.4 95.6,247.88 99.32,245.6 C100.4,247.64 102.56,249.44 105.08,249.44 C108.68,249.44 110.72,246.68 110.72,243.32 L110.72,243.32 Z M161,280.88 L158.6,279.44 C154.28,284.6 148.76,286.76 143.24,286.76 C132.32,286.76 124.4,277.04 124.4,263.48 C124.4,263 124.4,261.08 124.52,260.6 L160.64,261.08 C161,259.4 161.24,256.76 161.24,254.72 C161.24,244.4 154.04,237.32 142.76,237.32 C127.88,237.32 115.28,249.92 115.28,267.44 C115.28,283.04 125.48,294.32 139.4,294.32 C148.76,294.32 156.68,289.4 161,280.88 L161,280.88 Z M151.64,256.88 C152.12,256.88 125,257 125,257 C126.92,247.28 134,241.52 140.6,241.52 C147.8,241.52 152.24,247.52 151.64,256.88 L151.64,256.88 Z M186.92,219.8 C186.92,216.2 184.88,213.08 180.8,213.08 C176.72,213.08 174.68,216.32 174.68,219.8 C174.68,223.28 176.72,226.52 180.8,226.52 C184.88,226.52 186.92,223.28 186.92,219.8 L186.92,219.8 Z M195.08,292.64 L194.72,288.56 L189.68,288.08 C186.92,287.96 186.32,287.36 186.32,286.4 L186.32,237.32 L169.16,241.28 L168.92,244.52 L173.72,245.24 C177.08,246.08 177.8,246.8 177.8,252.56 L177.8,286.28 C177.8,287.48 176.84,287.96 174.8,288.08 L169.76,288.56 L169.4,292.64 L195.08,292.64 Z M253.4,247.4 L253.4,240.44 L237.08,240.32 C233.24,238.52 228.92,237.32 223.64,237.32 C211.4,237.32 202.4,245.96 202.4,257 C202.4,265.04 206.48,270.8 212.6,273.56 C212.6,273.68 212.48,273.68 212.48,273.92 C207.32,276.32 202.76,280.64 202.76,285.44 C202.76,289.4 206,293.24 210.44,294.08 L210.44,294.56 C204.8,296.96 199.16,301.28 199.16,308.72 C199.16,317.12 207.44,323 220.4,323 C237.44,323 250.04,314.24 250.04,301.64 C250.04,293.12 243.2,286.28 232.4,286.28 C229.76,286.28 222.44,286.52 218.48,286.52 C214.04,286.52 210.92,284.12 210.92,281 C210.92,278.12 214.64,275.72 216.56,274.76 C218.12,275.24 220.88,275.48 223.16,275.48 C234.92,275.48 244.28,266.84 244.28,256.4 C244.28,251.6 242.72,248.36 240.56,245.72 L240.56,245.12 L253.4,247.4 Z M242,305.48 C242,312.8 234.8,318.56 224.84,318.56 C215,318.56 207.32,314 207.32,305.96 C207.32,299.96 212.48,296.12 215.12,295.04 C224,294.92 224.36,294.68 229.04,294.8 C238.76,295.16 242,299.36 242,305.48 L242,305.48 Z M235.4,256.64 C235.4,262.16 233.96,266.48 231.08,269 C229.16,270.8 226.64,271.64 223.28,271.64 C220.76,271.64 218.48,270.68 216.56,269.12 C213.44,266.24 211.4,261.44 211.4,255.44 C211.4,247.16 216.2,241.16 223.52,241.16 C226.52,241.16 229.04,242.24 231.08,244.16 C233.96,246.8 235.4,251.24 235.4,256.64 L235.4,256.64 Z M314.84,292.64 L314.48,288.56 L309.8,288.08 C306.68,287.84 306.2,287.24 306.2,286.28 L306.2,254.48 C306.2,248.72 304.88,244.28 301.76,241.16 C299.12,238.52 295.28,237.32 291.68,237.32 C284.96,237.32 278.6,240.8 272.48,245.96 L271.88,245.96 L271.88,209 L253.88,213.32 L253.52,216.32 L261.92,218.96 C262.88,219.2 263.24,219.92 263.24,221.48 L263.24,286.28 C263.24,287.48 262.4,287.96 260.24,288.08 L255.44,288.56 L255.08,292.64 L281,292.64 L280.64,288.56 L275.12,288.08 C272.36,287.96 271.88,287.36 271.88,286.4 L271.88,250.64 C275.24,247.88 280.64,244.64 286.16,244.64 C293.36,244.64 297.68,248.24 297.68,260.12 L297.68,286.28 C297.68,287.36 297.2,287.96 294.68,288.08 L289.76,288.56 L289.4,292.64 L314.84,292.64 Z M355.16,287.6 L354.44,284.48 C351.2,286.28 347.6,287.6 344.36,287.6 C338,287.6 334.52,284.6 334.76,276.68 L335.48,244.76 L354.08,244.76 L354.92,239.24 L335.48,239.24 L335.6,229.04 L331.4,228.56 L325.76,236.12 L317.6,241.04 L317.48,244.52 L326.96,245 L326.24,278.84 C326.12,289.88 331.76,294.44 339.92,294.44 C345.2,294.44 351.32,291.56 355.16,287.6 L355.16,287.6 Z M454.16,240.68 L454.16,217.64 L389.96,217.64 L387.92,240.68 L393.32,240.68 L396.56,227.24 C397.88,222.8 399.44,222.08 415.88,222.08 L416.72,222.08 L416.72,286.16 C416.72,287.12 415.88,287.6 413.6,287.84 L405.44,288.56 L405.08,292.64 L438.2,292.64 L437.84,288.56 L429.68,287.84 C427.28,287.6 426.56,287.24 426.56,286.28 L426.56,222.08 L427.4,222.08 C444.44,222.2 445.28,223.64 446.36,228.08 L449,240.68 L454.16,240.68 Z M508.16,280.88 L505.76,279.44 C501.44,284.6 495.92,286.76 490.4,286.76 C479.48,286.76 471.56,277.04 471.56,263.48 C471.56,263 471.56,261.08 471.68,260.6 L507.8,261.08 C508.16,259.4 508.4,256.76 508.4,254.72 C508.4,244.4 501.2,237.32 489.92,237.32 C475.04,237.32 462.44,249.92 462.44,267.44 C462.44,283.04 472.64,294.32 486.56,294.32 C495.92,294.32 503.84,289.4 508.16,280.88 L508.16,280.88 Z M498.8,256.88 C499.28,256.88 472.16,257 472.16,257 C474.08,247.28 481.16,241.52 487.76,241.52 C494.96,241.52 499.4,247.52 498.8,256.88 L498.8,256.88 Z M570.44,292.64 L570.08,288.56 L566.72,287.84 C564.32,287.36 562.88,286.28 559.64,282.08 L545.72,263.84 L557.6,249.56 C561.08,245.36 562.16,244.16 565.16,243.8 L569.24,243.08 L569.6,239.12 L547.4,239.12 L547.76,243.08 L551.72,243.8 C554.84,244.16 554.6,245.48 551.96,248.96 L542.96,260.72 L542.84,260.72 L534.2,248.84 C531.68,245.36 531.44,244.16 534.2,243.8 L537.68,243.08 L538.04,239.12 L513.56,239.12 L513.92,243.08 L517.4,243.92 C520.16,244.28 521.48,245.36 524.72,249.56 L537.68,266.36 L524.72,282.08 C521.12,286.28 519.8,287.6 517.28,287.96 L513.2,288.68 L512.84,292.64 L534.8,292.64 L534.44,288.68 L530.48,287.96 C527.36,287.6 527.48,286.4 530.24,282.68 L540.44,269.48 L540.56,269.48 L550.28,282.8 C552.68,286.28 552.68,287.36 549.92,287.96 L546.44,288.68 L546.08,292.64 L570.44,292.64 Z M609.08,287.6 L608.36,284.48 C605.12,286.28 601.52,287.6 598.28,287.6 C591.92,287.6 588.44,284.6 588.68,276.68 L589.4,244.76 L608,244.76 L608.84,239.24 L589.4,239.24 L589.52,229.04 L585.32,228.56 L579.68,236.12 L571.52,241.04 L571.4,244.52 L580.88,245 L580.16,278.84 C580.04,289.88 585.68,294.44 593.84,294.44 C599.12,294.44 605.24,291.56 609.08,287.6 L609.08,287.6 Z" id="Freight-Text-Outline" fill="#151203"></path>
            <rect id="Rectangle-3" fill="#2D2D2D" x="0" y="425" width="160" height="160"></rect>
            <rect id="Rectangle-3-Copy" fill="#1B5D7E" x="184" y="425" width="160" height="160"></rect>
            <rect id="Rectangle-3-Copy-2" fill="#627F78" x="368" y="425" width="160" height="160"></rect>
            <rect id="Rectangle-3-Copy-3" fill="#492736" x="552" y="425" width="160" height="160"></rect>
            <rect id="Rectangle-3-Copy-4" fill="#9B432F" x="736" y="425" width="160" height="160"></rect>
            <rect id="Rectangle-3-Copy-5" fill="#A77B45" x="920" y="425" width="160" height="160"></rect>
            <rect id="Rectangle-3-Copy-6" fill="#B89993" x="1104" y="425" width="160" height="160"></rect>
            <rect id="Rectangle-3-Copy-7" fill="#6E657E" x="1288" y="425" width="160" height="160"></rect>
        </g>
    </g>
</svg>