<?xml version="1.0" encoding="UTF-8"?>
<svg width="1110px" height="412px" viewBox="0 0 1110 412" version="1.1" xmlns="http://www.w3.org/2000/svg" xmlns:xlink="http://www.w3.org/1999/xlink" style="background: #FFFDF8;">
    <!-- Generator: Sketch 40 (33762) - http://www.bohemiancoding.com/sketch -->
    <title>Artboard 2 Copy</title>
    <desc>Created with Sketch.</desc>
    <defs></defs>
    <g id="Shots" stroke="none" stroke-width="1" fill="none" fill-rule="evenodd">
        <g id="Artboard-2-Copy" fill="#C31230">
            <g id="ahalogy-wordmark-white-copy" transform="translate(0.000000, 116.000000)">
                <g id="Layer_1">
                    <g id="Group">
                        <path d="M82.9571745,100.60967 L30.0612742,100.60967 L15.1125762,135.660835 L0,135.660835 L57.1652078,6.26086957 L112.852687,135.660835 L97.5762327,135.660835 L82.9571745,100.60967 L82.9571745,100.60967 Z M77.5360111,87.8309217 L56.8374515,38.3650435 L35.6472576,87.8309217 L77.5360111,87.8309217 L77.5360111,87.8309217 Z" id="Shape"></path>
                        <path d="M119.298246,0 L132.439575,0 L132.439575,67.1581565 L132.767331,67.4868522 C138.352373,59.8451478 145.688273,56.0191304 154.779741,56.0191304 C164.635974,56.0191304 171.479298,59.0243478 175.314423,65.0291478 C179.14578,71.0377043 181.063343,79.171513 181.063343,89.4362087 L181.063343,135.135235 L167.922013,135.135235 L167.922013,91.7286261 C167.922013,88.0171826 167.783564,84.9856696 167.510434,82.6378435 C167.23542,80.2909565 166.608163,77.8886609 165.622068,75.4309565 C164.635974,72.9732522 162.966113,71.1466435 160.612484,69.9417391 C158.25603,68.7434087 155.274201,68.1414261 151.659464,68.1414261 C148.153038,68.1414261 145.169326,68.7988174 142.706445,70.1079652 C140.241681,71.417113 138.352373,73.0023652 137.039464,74.858087 C135.724672,76.7166261 134.711265,79.1161043 134.000185,82.0649739 C133.286279,85.0138435 132.850212,87.6621913 132.686334,90.0109565 C132.521514,92.3587826 132.439575,95.226887 132.439575,98.6096348 L132.439575,135.136174 L119.298246,135.136174 L119.298246,0 L119.298246,0 Z" id="Shape"></path>
                        <path d="M268.548513,58.4777739 L268.548513,135.462991 L255.407184,135.462991 L255.407184,124.817009 L255.078486,124.817009 C248.397156,133.333983 239.526076,137.592939 228.466187,137.592939 C217.514608,137.592939 208.615272,133.609148 201.771948,125.63593 C194.925799,117.667409 191.505078,108.167165 191.505078,97.1352 C191.505078,85.7801739 194.898486,76.1418783 201.690009,68.2240696 C208.478707,60.3081391 217.45904,56.3478261 228.630065,56.3478261 C239.472392,56.3478261 248.285078,60.7194783 255.077544,69.4533913 L255.406242,69.4533913 L255.406242,58.4777739 L268.548513,58.4777739 L268.548513,58.4777739 Z M230.108735,68.4682435 C222.770951,68.4682435 216.747018,71.2001739 212.038818,76.6584 C207.329677,82.1203826 204.975106,88.6144696 204.975106,96.1500522 C204.975106,104.125148 207.246796,111.000522 211.793001,116.7912 C216.33638,122.58 222.496879,125.470643 230.273555,125.470643 C238.377045,125.470643 244.701422,122.662643 249.247627,117.035374 C253.791006,111.413739 256.06458,104.504557 256.06458,96.3144 C256.06458,88.3458783 253.708126,81.7128 249.000868,76.4142261 C244.290785,71.1175304 237.994663,68.4682435 230.108735,68.4682435 L230.108735,68.4682435 Z" id="Shape"></path>
                        <path d="M373.845854,125.799339 C365.959926,133.6608 356.376824,137.592939 345.099372,137.592939 C333.817211,137.592939 324.238818,133.6608 316.35289,125.799339 C308.46602,117.937878 304.524469,108.384104 304.524469,97.1352 C304.524469,85.7801739 308.46602,76.1418783 316.35289,68.2240696 C324.238818,60.3081391 333.818153,56.3478261 345.099372,56.3478261 C356.377765,56.3478261 365.959926,60.3081391 373.845854,68.2240696 C381.73084,76.1418783 385.673333,85.7801739 385.673333,97.1352 C385.672392,108.384104 381.73084,117.936939 373.845854,125.799339 L373.845854,125.799339 Z M364.812779,76.7410435 C359.660979,71.2274087 353.091727,68.4682435 345.09843,68.4682435 C337.10325,68.4682435 330.532114,71.2274087 325.385023,76.7410435 C320.236048,82.2565565 317.663915,89.0004522 317.663915,96.969913 C317.663915,104.942191 320.236048,111.687026 325.385023,117.199722 C330.532114,122.714296 337.102308,125.470643 345.09843,125.470643 C353.090785,125.470643 359.660979,122.714296 364.812779,117.199722 C369.957987,111.687026 372.532004,104.942191 372.532004,96.969913 C372.532004,89.0004522 369.957987,82.2565565 364.812779,76.7410435 L364.812779,76.7410435 Z" id="Shape"></path>
                        <path d="M472.612244,58.4796522 L472.612244,131.698957 C472.612244,137.047304 472.530305,141.117496 472.364543,143.900139 C472.199723,146.684661 471.515014,150.068348 470.310416,154.056835 C469.104875,158.040626 467.243823,161.616835 464.725374,164.785461 C457.605152,173.84807 447.639668,178.381252 434.82892,178.381252 C423.877341,178.381252 414.869695,175.158157 407.805042,168.7176 C400.74133,162.271409 397.09928,153.699965 396.880776,143.001391 L410.023047,143.001391 C410.132299,149.986643 412.487812,155.612035 417.086759,159.87287 C421.686648,164.129948 427.54482,166.259896 434.6641,166.259896 C439.591745,166.259896 443.724488,165.413739 447.065152,163.722365 C450.406759,162.025357 452.951579,159.626817 454.704321,156.514539 C456.456122,153.4032 457.68615,150.042052 458.400997,146.438609 C459.113019,142.835165 459.469972,138.684209 459.469972,133.990435 L459.469972,124.818887 L459.139391,124.818887 C456.070914,128.860904 452.159501,132.000417 447.395734,134.236487 C442.630083,136.474435 437.620499,137.593878 432.364155,137.593878 C421.411634,137.593878 412.540554,133.661739 405.751856,125.800278 C398.959391,117.938817 395.567867,108.437635 395.567867,97.2976696 C395.567867,86.0534609 399.017784,76.4142261 405.915734,68.3874783 C412.814626,60.3626087 421.793075,56.3478261 432.856731,56.3478261 C443.805485,56.3478261 452.569197,60.7194783 459.138449,69.4533913 L459.46903,69.4533913 L459.46903,58.4796522 L472.612244,58.4796522 L472.612244,58.4796522 Z M434.170582,68.4701217 C426.834681,68.4701217 420.807922,71.2020522 416.102548,76.6602783 C411.393407,82.1222609 409.037895,88.6163478 409.037895,96.1519304 C409.037895,104.127026 411.309584,111.0024 415.853906,116.793078 C420.398227,122.581878 426.558726,125.472522 434.336343,125.472522 C442.437008,125.472522 448.760443,122.664522 453.309474,117.037252 C457.851911,111.415617 460.124543,104.506435 460.124543,96.3162783 C460.124543,88.3477565 457.76903,81.7146783 453.061773,76.4161043 C448.352632,71.1194087 442.058393,68.4701217 434.170582,68.4701217 L434.170582,68.4701217 Z" id="Shape"></path>
                        <polygon id="Shape" points="518.953333 129.256591 483.471837 59.4782609 498.750175 59.4782609 526.016103 114.676591 550.989621 59.4782609 565.937378 59.4782609 508.935106 179.706678 493.98735 179.706678"></polygon>
                    </g>
                    <polygon id="Shape" points="295.680388 0 295.680388 135.176557 282.548476 135.176557 282.548476 0"></polygon>
                    <path d="M279.925799,147.535826 C282.364193,145.181426 285.279151,144 288.679151,144 C292.076326,144 294.99411,145.181426 297.434387,147.535826 C299.869954,149.893983 301.08868,152.764904 301.08868,156.153287 C301.08868,159.543548 299.869954,162.488661 297.434387,164.990504 C294.99411,167.495165 292.077267,168.747026 288.679151,168.747026 C285.279151,168.747026 282.364193,167.495165 279.925799,164.990504 C277.488348,162.488661 276.269622,159.543548 276.269622,156.153287 C276.26868,152.764904 277.488348,149.893043 279.925799,147.535826 L279.925799,147.535826 Z" id="Shape"></path>
                </g>
            </g>
            <g id="Group-2" transform="translate(910.000000, 106.000000)">
                <polygon id="Shape" points="84.8623441 110.5 115.386534 110.5 100.303741 74.26"></polygon>
                <path d="M100.004489,0 C44.9137157,0 0.253865337,44.7715 0.253865337,100 C0.253865337,155.2285 44.9137157,200 100.004489,200 C155.095262,200 199.755112,155.2285 199.755112,100 C199.755112,44.7715 155.095262,0 100.004489,0 L100.004489,0 Z M129.989526,145.5 L119.336658,120 L80.7930175,120 L69.9002494,145.5 L58.8877805,145.5 L100.543641,50.7 L141.122195,145.5 L129.989526,145.5 L129.989526,145.5 Z" id="Shape"></path>
            </g>
            <g id="Group-3" transform="translate(660.000000, 106.000000)">
                <path d="M10.2413965,100 C10.2413965,50.3756329 50.516342,10 100.004489,10 C149.492636,10 189.767581,50.3756329 189.767581,100 C189.767581,149.624367 149.492636,190 100.004489,190 C50.516342,190 10.2413965,149.624367 10.2413965,100 Z M199.767581,100 C199.767581,44.8583671 155.02108,0 100.004489,0 C44.9878974,0 0.241396509,44.8583671 0.241396509,100 C0.241396509,155.141633 44.9878974,200 100.004489,200 C155.02108,200 199.767581,155.141633 199.767581,100 Z" id="Shape"></path>
                <path d="M119.336658,118.82 L80.7930175,118.82 L69.8997506,144.5 L58.8872818,144.5 L100.543142,49.7 L141.121696,144.5 L129.989526,144.5 L119.336658,118.82 L119.336658,118.82 Z M115.386534,109.46 L100.304239,73.22 L84.8628429,109.46 L115.386534,109.46 L115.386534,109.46 Z" id="Shape"></path>
            </g>
        </g>
    </g>
</svg>