<?xml version="1.0" encoding="UTF-8"?>
<svg width="1440px" height="1200px" viewBox="0 0 1440 1200" version="1.1" xmlns="http://www.w3.org/2000/svg" xmlns:xlink="http://www.w3.org/1999/xlink">
    <!-- Generator: Sketch 46.2 (44496) - http://www.bohemiancoding.com/sketch -->
    <title>White on Blue</title>
    <desc>Created with Sketch.</desc>
    <defs></defs>
    <g id="Shots" stroke="none" stroke-width="1" fill="none" fill-rule="evenodd">
        <g id="TJ-•-Identity" transform="translate(0.000000, -1200.000000)">
            <g id="White-on-Blue" transform="translate(0.000000, 1200.000000)">
                <rect id="BG" fill="#0280A8" x="0" y="0" width="1440" height="1200"></rect>
                <g id="White-on-Blue-Copy" transform="translate(545.000000, 522.000000)" fill="#FFFFFF">
                    <g id="Blue-on-White" transform="translate(0.000000, -2.000000)">
                        <path d="M277.244,55.598 C278.162,56.732 280.754,59.54 285.452,59.54 C291.77,59.54 297.062,55.22 297.062,47.714 L297.062,22.226 C297.062,21.686 296.63,21.2 296.036,21.2 L289.448,21.2 C288.854,21.2 288.422,21.686 288.422,22.226 L288.422,47.66 C288.422,50.36 286.748,51.764 285.236,51.764 C283.778,51.764 283.13,51.278 282.482,50.63 C282.05,50.198 281.456,50.252 281.024,50.63 L277.352,54.248 C277.028,54.626 276.974,55.166 277.244,55.598 Z M302.138,48.146 C302.138,54.356 307.214,59.54 313.37,59.54 C319.526,59.54 324.602,54.356 324.602,48.146 C324.602,42.044 319.526,36.86 313.37,36.86 C307.214,36.86 302.138,42.044 302.138,48.146 Z M309.104,48.146 C309.104,45.77 310.994,43.826 313.37,43.826 C315.746,43.826 317.636,45.77 317.636,48.146 C317.636,50.576 315.746,52.574 313.37,52.574 C310.994,52.574 309.104,50.576 309.104,48.146 Z M334.268,56.786 L326.222,73.742 C325.844,74.498 326.33,75.2 327.14,75.2 L333.188,75.2 C333.62,75.2 333.944,74.876 334.106,74.552 L350.63,38.804 C351.008,38.102 350.522,37.4 349.712,37.4 L343.61,37.4 C343.178,37.4 342.8,37.67 342.692,37.994 L338.426,48.038 L338.318,48.038 L334.16,37.994 C333.998,37.67 333.674,37.4 333.242,37.4 L327.086,37.4 C326.276,37.4 325.844,38.102 326.168,38.804 L334.268,56.786 Z" id="Joy-Outline"></path>
                        <path d="M240.585786,33.7769869 L237.582903,31.6524849 L237.582903,22.1576169 C237.582903,20.6691616 236.436802,19.5313768 235.108191,19.5313768 C233.779658,19.5313768 232.63348,20.6692458 232.63348,22.1576169 L232.63348,31.6524849 L229.585786,33.8086889 L229.585786,33.009585 C229.585786,31.9080511 228.690356,31.0121933 227.585786,31.0121933 C226.473516,31.0121933 225.585786,31.906456 225.585786,33.009585 L225.585786,36.6386377 L220.259922,40.4066186 L220.259922,43.7735931 L232.63348,39.7332237 L232.63348,49.2955996 L232.63348,49.600708 C231.945662,49.1546448 231.218722,48.708655 230.817444,48.4823448 C229.835392,47.9250986 228.844724,47.5343911 228.102585,47.2864648 C227.722901,47.1592085 227.411702,47.069588 227.197632,47.0121933 C227.13087,47.2224838 227.041494,47.5294514 226.952334,47.9142783 C226.769276,48.7051021 226.585356,49.827357 226.585787,51.1432013 C226.585787,52.278864 226.722112,53.5563668 227.111487,54.8938518 C227.33008,54.8538637 227.655277,54.7882361 228.062743,54.686384 C228.84537,54.4904422 229.920244,54.1634805 231.07631,53.6417532 C231.599586,53.4058924 232.058821,53.1758062 232.456276,52.9609579 C231.060673,54.5960829 229.529685,56.9866788 228.585786,60.2733046 C228.624767,60.3353936 228.677315,60.4153532 228.74257,60.5095177 C228.913353,60.7530624 229.174587,61.0916879 229.531874,61.458265 C230.195406,62.139411 231.183919,62.9174708 232.537042,63.3892097 C232.609403,63.2070667 232.707609,62.952983 232.82412,62.6361229 C233.081047,61.9430632 233.422181,60.9549089 233.763316,59.7816331 C234.180078,58.3525541 234.595322,56.6474576 234.856024,54.8693519 C235.331072,58.1063916 236.31928,61.0998022 236.88823,62.6362013 C237.005172,62.9528344 237.103592,63.207149 237.175954,63.3892932 C239.538696,62.5676968 240.798997,60.7966594 241.12764,60.2733671 C240.257326,57.2406614 238.885646,54.9701986 237.582903,53.3538501 L237.582903,53.2035802 C237.863378,53.3459217 238.16861,53.49283 238.498995,53.6417712 C239.654414,54.1618534 240.73015,54.4897568 241.512346,54.6859344 C241.919597,54.7877868 242.244363,54.8534145 242.462956,54.8934027 C242.852332,53.556855 242.988871,52.278643 242.988871,51.1429773 C242.989302,49.1870825 242.581836,47.6555333 242.377242,47.0121933 C242.162526,47.0691177 241.851542,47.1585032 241.472504,47.2855246 C240.730365,47.5343925 239.739267,47.9241601 238.756568,48.4816431 C238.48028,48.6376964 238.04926,48.8980458 237.582903,49.1908154 L237.582903,39.7332237 L249.95646,43.7735931 L249.95646,40.4066186 L244.585786,36.6069357 L244.585786,33.009585 C244.585786,31.9080511 243.690356,31.0121933 242.585786,31.0121933 C241.473516,31.0121933 240.585786,31.906456 240.585786,33.009585 L240.585786,33.7769869 Z M236,72.4264069 C219.431458,72.4264069 206,58.9949494 206,42.4264069 C206,25.8578644 219.431458,12.4264069 236,12.4264069 C252.568542,12.4264069 266,25.8578644 266,42.4264069 C266,58.9949494 252.568542,72.4264069 236,72.4264069 Z" id="Icon-w-Engines" transform="translate(236.000000, 42.426407) rotate(45.000000) translate(-236.000000, -42.426407) "></path>
                        <path d="M9.504,57.974 C9.504,58.514 9.99,59 10.53,59 L17.01,59 C17.55,59 18.036,58.514 18.036,57.974 L18.036,29.138 L25.758,29.138 C26.352,29.138 26.784,28.652 26.784,28.112 L26.784,22.226 C26.784,21.686 26.352,21.2 25.758,21.2 L1.782,21.2 C1.188,21.2 0.756,21.686 0.756,22.226 L0.756,28.112 C0.756,28.652 1.188,29.138 1.782,29.138 L9.504,29.138 L9.504,57.974 Z M27.456,57.974 C27.456,58.514 27.942,59 28.482,59 L33.99,59 C34.854,59 35.178,58.622 35.178,57.974 L35.178,46.796 C35.178,44.96 36.42,43.718 38.04,43.718 C38.526,43.718 39.066,43.88 39.336,43.988 C39.93,44.204 40.308,43.88 40.524,43.502 L43.17,39.182 C43.926,37.94 41.82,36.86 38.85,36.86 C36.042,36.86 34.044,38.858 32.964,40.424 L31.992,38.048 C31.83,37.724 31.614,37.4 31.02,37.4 L28.482,37.4 C27.942,37.4 27.456,37.832 27.456,38.426 L27.456,57.974 Z M44.628,52.412 C44.628,56.678 47.814,59.54 52.08,59.54 C55.482,59.54 57.372,57.974 58.614,56.84 L59.37,58.298 C59.64,58.892 60.018,59 60.342,59 L62.718,59 C63.258,59 63.744,58.514 63.744,57.974 L63.744,46.04 C63.744,39.668 61.314,36.86 54.618,36.86 C51.702,36.86 47.922,37.508 47.436,37.67 C46.95,37.832 46.464,38.21 46.626,39.128 L47.112,42.53 C47.22,43.34 47.598,43.934 48.408,43.664 C49.812,43.232 52.35,42.854 53.808,42.854 C56.4,42.854 56.724,43.934 56.724,46.04 C56.724,46.04 54.996,45.176 52.566,45.176 C47.652,45.176 44.628,48.254 44.628,52.412 Z M51.648,51.872 C51.648,50.63 52.674,49.604 53.97,49.604 C55.266,49.604 56.292,50.63 56.346,51.872 C56.346,53.168 55.266,54.248 53.97,54.248 C52.674,54.248 51.648,53.168 51.648,51.872 Z M76.704,59 C76.866,59.27 77.298,59.54 77.622,59.54 L77.892,59.54 C78.216,59.54 78.648,59.27 78.81,59 L89.07,38.858 C89.448,38.156 88.962,37.4 88.152,37.4 L82.698,37.4 C81.942,37.4 81.564,37.346 81.24,37.994 L77.838,45.338 L77.676,45.338 L74.49,37.994 C74.328,37.67 73.896,37.4 73.518,37.4 L67.47,37.4 C66.66,37.4 66.174,38.156 66.552,38.858 L76.704,59 Z M90.636,48.2 C90.636,54.41 95.496,59.54 101.922,59.54 C105.324,59.54 108.024,58.352 109.914,56.462 C110.4,55.976 110.292,55.328 109.968,54.896 L107.268,51.656 C106.944,51.278 106.404,51.278 105.918,51.656 C105.054,52.304 103.488,52.952 102.138,52.952 C99.33,52.952 98.142,50.846 97.98,49.388 L110.94,49.388 C111.426,49.388 111.912,49.01 111.966,48.47 C112.02,48.092 112.074,47.39 112.074,47.012 C112.074,41.072 107.322,36.86 101.814,36.86 C95.442,36.86 90.636,42.098 90.636,48.2 Z M98.682,45.176 C98.898,43.772 100.14,42.638 101.598,42.638 C103.002,42.638 104.352,43.772 104.46,45.176 L98.682,45.176 Z M115.962,57.974 C115.962,58.514 116.448,59 116.988,59 L122.928,59 C123.468,59 123.954,58.514 123.954,57.974 L123.954,22.226 C123.954,21.686 123.468,21.2 122.928,21.2 L116.988,21.2 C116.448,21.2 115.962,21.686 115.962,22.226 L115.962,57.974 Z M128.166,48.2 C128.166,54.41 133.026,59.54 139.452,59.54 C142.854,59.54 145.554,58.352 147.444,56.462 C147.93,55.976 147.822,55.328 147.498,54.896 L144.798,51.656 C144.474,51.278 143.934,51.278 143.448,51.656 C142.584,52.304 141.018,52.952 139.668,52.952 C136.86,52.952 135.672,50.846 135.51,49.388 L148.47,49.388 C148.956,49.388 149.442,49.01 149.496,48.47 C149.55,48.092 149.604,47.39 149.604,47.012 C149.604,41.072 144.852,36.86 139.344,36.86 C132.972,36.86 128.166,42.098 128.166,48.2 Z M136.212,45.176 C136.428,43.772 137.67,42.638 139.128,42.638 C140.532,42.638 141.882,43.772 141.99,45.176 L136.212,45.176 Z M153.492,57.974 C153.492,58.514 153.978,59 154.518,59 L160.026,59 C160.89,59 161.214,58.622 161.214,57.974 L161.214,46.796 C161.214,44.96 162.456,43.718 164.076,43.718 C164.562,43.718 165.102,43.88 165.372,43.988 C165.966,44.204 166.344,43.88 166.56,43.502 L169.206,39.182 C169.962,37.94 167.856,36.86 164.886,36.86 C162.078,36.86 160.08,38.858 159,40.424 L158.028,38.048 C157.866,37.724 157.65,37.4 157.056,37.4 L154.518,37.4 C153.978,37.4 153.492,37.832 153.492,38.426 L153.492,57.974 Z M172.878,36.482 C173.31,36.968 173.688,36.86 174.066,36.59 C175.308,35.564 179.088,32.594 179.088,26.924 C179.088,22.226 176.226,20.66 174.174,20.66 C171.69,20.66 169.908,22.442 169.908,24.548 C169.908,26.708 171.69,28.382 173.796,28.382 C175.038,28.382 175.956,28.004 175.956,28.004 C175.902,31.676 172.716,34.052 172.122,34.484 C171.798,34.754 171.69,35.24 172.068,35.672 L172.878,36.482 Z M177.166,57.758 C178.246,58.622 180.946,59.54 184.51,59.54 C190.612,59.54 193.636,56.462 193.636,52.682 C193.636,48.362 190.612,46.634 186.238,45.122 C184.402,44.474 183.808,43.934 183.808,43.394 C183.808,42.8 184.294,42.638 184.996,42.638 C187.102,42.638 189.586,43.88 189.586,43.88 C190.018,44.042 190.558,43.88 190.72,43.556 L192.718,39.884 C193.042,39.344 192.664,38.858 192.178,38.534 C190.99,37.778 188.398,36.86 184.996,36.86 C179.164,36.86 176.572,39.776 176.572,43.394 C176.572,46.742 178.408,49.172 182.62,50.63 C185.374,51.602 185.698,52.358 185.698,52.898 C185.698,53.546 185.212,53.87 184.672,53.87 C182.35,53.87 179.812,52.466 179.812,52.466 C179.38,52.25 178.84,52.574 178.678,52.898 L176.788,56.624 C176.518,57.11 176.788,57.434 177.166,57.758 Z" id="Traveler's-Outline"></path>
                    </g>
                </g>
            </g>
        </g>
    </g>
</svg>