<?xml version="1.0" encoding="UTF-8"?>
<svg width="1440px" height="1200px" viewBox="0 0 1440 1200" version="1.1" xmlns="http://www.w3.org/2000/svg" xmlns:xlink="http://www.w3.org/1999/xlink">
    <!-- Generator: Sketch 46.2 (44496) - http://www.bohemiancoding.com/sketch -->
    <title>Blue on White</title>
    <desc>Created with Sketch.</desc>
    <defs></defs>
    <g id="Shots" stroke="none" stroke-width="1" fill="none" fill-rule="evenodd">
        <g id="TJ-•-Identity">
            <g id="Blue-on-White">
                <rect id="BG" fill="#FFFFFF" x="0" y="0" width="1440" height="1200"></rect>
                <g id="Blue-on-White-Copy" transform="translate(545.000000, 522.000000)" fill="#0280A8">
                    <g id="Blue-on-White" transform="translate(0.000000, -3.000000)">
                        <path d="M277.244,56.598 C278.162,57.732 280.754,60.54 285.452,60.54 C291.77,60.54 297.062,56.22 297.062,48.714 L297.062,23.226 C297.062,22.686 296.63,22.2 296.036,22.2 L289.448,22.2 C288.854,22.2 288.422,22.686 288.422,23.226 L288.422,48.66 C288.422,51.36 286.748,52.764 285.236,52.764 C283.778,52.764 283.13,52.278 282.482,51.63 C282.05,51.198 281.456,51.252 281.024,51.63 L277.352,55.248 C277.028,55.626 276.974,56.166 277.244,56.598 Z M302.138,49.146 C302.138,55.356 307.214,60.54 313.37,60.54 C319.526,60.54 324.602,55.356 324.602,49.146 C324.602,43.044 319.526,37.86 313.37,37.86 C307.214,37.86 302.138,43.044 302.138,49.146 Z M309.104,49.146 C309.104,46.77 310.994,44.826 313.37,44.826 C315.746,44.826 317.636,46.77 317.636,49.146 C317.636,51.576 315.746,53.574 313.37,53.574 C310.994,53.574 309.104,51.576 309.104,49.146 Z M334.268,57.786 L326.222,74.742 C325.844,75.498 326.33,76.2 327.14,76.2 L333.188,76.2 C333.62,76.2 333.944,75.876 334.106,75.552 L350.63,39.804 C351.008,39.102 350.522,38.4 349.712,38.4 L343.61,38.4 C343.178,38.4 342.8,38.67 342.692,38.994 L338.426,49.038 L338.318,49.038 L334.16,38.994 C333.998,38.67 333.674,38.4 333.242,38.4 L327.086,38.4 C326.276,38.4 325.844,39.102 326.168,39.804 L334.268,57.786 Z" id="Joy-Outline"></path>
                        <path d="M240.585786,34.35058 L237.582903,32.2260781 L237.582903,22.73121 C237.582903,21.2427547 236.436802,20.1049699 235.108191,20.1049699 C233.779658,20.1049699 232.63348,21.2428389 232.63348,22.73121 L232.63348,32.2260781 L229.585786,34.382282 L229.585786,33.5831781 C229.585786,32.4816442 228.690356,31.5857864 227.585786,31.5857864 C226.473516,31.5857864 225.585786,32.4800492 225.585786,33.5831781 L225.585786,37.2122308 L220.259922,40.9802117 L220.259922,44.3471862 L232.63348,40.3068168 L232.63348,49.8691927 L232.63348,50.1743012 C231.945662,49.728238 231.218722,49.2822482 230.817444,49.0559379 C229.835392,48.4986917 228.844724,48.1079842 228.102585,47.8600579 C227.722901,47.7328016 227.411702,47.6431812 227.197632,47.5857864 C227.13087,47.7960769 227.041494,48.1030445 226.952334,48.4878714 C226.769276,49.2786953 226.585356,50.4009501 226.585787,51.7167945 C226.585787,52.8524571 226.722112,54.1299599 227.111487,55.4674449 C227.33008,55.4274568 227.655277,55.3618292 228.062743,55.2599771 C228.84537,55.0640353 229.920244,54.7370737 231.07631,54.2153463 C231.599586,53.9794855 232.058821,53.7493993 232.456276,53.534551 C231.060673,55.1696761 229.529685,57.5602719 228.585786,60.8468978 C228.624767,60.9089867 228.677315,60.9889464 228.74257,61.0831109 C228.913353,61.3266555 229.174587,61.6652811 229.531874,62.0318581 C230.195406,62.7130041 231.183919,63.491064 232.537042,63.9628028 C232.609403,63.7806598 232.707609,63.5265761 232.82412,63.2097161 C233.081047,62.5166563 233.422181,61.528502 233.763316,60.3552263 C234.180078,58.9261472 234.595322,57.2210507 234.856024,55.442945 C235.331072,58.6799847 236.31928,61.6733953 236.88823,63.2097945 C237.005172,63.5264275 237.103592,63.7807421 237.175954,63.9628863 C239.538696,63.1412899 240.798997,61.3702525 241.12764,60.8469602 C240.257326,57.8142545 238.885646,55.5437917 237.582903,53.9274432 L237.582903,53.7771733 C237.863378,53.9195149 238.16861,54.0664232 238.498995,54.2153643 C239.654414,54.7354465 240.73015,55.06335 241.512346,55.2595275 C241.919597,55.3613799 242.244363,55.4270076 242.462956,55.4669959 C242.852332,54.1304481 242.988871,52.8522362 242.988871,51.7165705 C242.989302,49.7606756 242.581836,48.2291265 242.377242,47.5857864 C242.162526,47.6427109 241.851542,47.7320963 241.472504,47.8591177 C240.730365,48.1079857 239.739267,48.4977533 238.756568,49.0552362 C238.48028,49.2112895 238.04926,49.4716389 237.582903,49.7644085 L237.582903,40.3068168 L249.95646,44.3471862 L249.95646,40.9802117 L244.585786,37.1805289 L244.585786,33.5831781 C244.585786,32.4816442 243.690356,31.5857864 242.585786,31.5857864 C241.473516,31.5857864 240.585786,32.4800492 240.585786,33.5831781 L240.585786,34.35058 Z M236,73 C219.431458,73 206,59.5685425 206,43 C206,26.4314575 219.431458,13 236,13 C252.568542,13 266,26.4314575 266,43 C266,59.5685425 252.568542,73 236,73 Z" id="Icon-w-Engines" transform="translate(236.000000, 43.000000) rotate(45.000000) translate(-236.000000, -43.000000) "></path>
                        <path d="M9.504,58.974 C9.504,59.514 9.99,60 10.53,60 L17.01,60 C17.55,60 18.036,59.514 18.036,58.974 L18.036,30.138 L25.758,30.138 C26.352,30.138 26.784,29.652 26.784,29.112 L26.784,23.226 C26.784,22.686 26.352,22.2 25.758,22.2 L1.782,22.2 C1.188,22.2 0.756,22.686 0.756,23.226 L0.756,29.112 C0.756,29.652 1.188,30.138 1.782,30.138 L9.504,30.138 L9.504,58.974 Z M27.456,58.974 C27.456,59.514 27.942,60 28.482,60 L33.99,60 C34.854,60 35.178,59.622 35.178,58.974 L35.178,47.796 C35.178,45.96 36.42,44.718 38.04,44.718 C38.526,44.718 39.066,44.88 39.336,44.988 C39.93,45.204 40.308,44.88 40.524,44.502 L43.17,40.182 C43.926,38.94 41.82,37.86 38.85,37.86 C36.042,37.86 34.044,39.858 32.964,41.424 L31.992,39.048 C31.83,38.724 31.614,38.4 31.02,38.4 L28.482,38.4 C27.942,38.4 27.456,38.832 27.456,39.426 L27.456,58.974 Z M44.628,53.412 C44.628,57.678 47.814,60.54 52.08,60.54 C55.482,60.54 57.372,58.974 58.614,57.84 L59.37,59.298 C59.64,59.892 60.018,60 60.342,60 L62.718,60 C63.258,60 63.744,59.514 63.744,58.974 L63.744,47.04 C63.744,40.668 61.314,37.86 54.618,37.86 C51.702,37.86 47.922,38.508 47.436,38.67 C46.95,38.832 46.464,39.21 46.626,40.128 L47.112,43.53 C47.22,44.34 47.598,44.934 48.408,44.664 C49.812,44.232 52.35,43.854 53.808,43.854 C56.4,43.854 56.724,44.934 56.724,47.04 C56.724,47.04 54.996,46.176 52.566,46.176 C47.652,46.176 44.628,49.254 44.628,53.412 Z M51.648,52.872 C51.648,51.63 52.674,50.604 53.97,50.604 C55.266,50.604 56.292,51.63 56.346,52.872 C56.346,54.168 55.266,55.248 53.97,55.248 C52.674,55.248 51.648,54.168 51.648,52.872 Z M76.704,60 C76.866,60.27 77.298,60.54 77.622,60.54 L77.892,60.54 C78.216,60.54 78.648,60.27 78.81,60 L89.07,39.858 C89.448,39.156 88.962,38.4 88.152,38.4 L82.698,38.4 C81.942,38.4 81.564,38.346 81.24,38.994 L77.838,46.338 L77.676,46.338 L74.49,38.994 C74.328,38.67 73.896,38.4 73.518,38.4 L67.47,38.4 C66.66,38.4 66.174,39.156 66.552,39.858 L76.704,60 Z M90.636,49.2 C90.636,55.41 95.496,60.54 101.922,60.54 C105.324,60.54 108.024,59.352 109.914,57.462 C110.4,56.976 110.292,56.328 109.968,55.896 L107.268,52.656 C106.944,52.278 106.404,52.278 105.918,52.656 C105.054,53.304 103.488,53.952 102.138,53.952 C99.33,53.952 98.142,51.846 97.98,50.388 L110.94,50.388 C111.426,50.388 111.912,50.01 111.966,49.47 C112.02,49.092 112.074,48.39 112.074,48.012 C112.074,42.072 107.322,37.86 101.814,37.86 C95.442,37.86 90.636,43.098 90.636,49.2 Z M98.682,46.176 C98.898,44.772 100.14,43.638 101.598,43.638 C103.002,43.638 104.352,44.772 104.46,46.176 L98.682,46.176 Z M115.962,58.974 C115.962,59.514 116.448,60 116.988,60 L122.928,60 C123.468,60 123.954,59.514 123.954,58.974 L123.954,23.226 C123.954,22.686 123.468,22.2 122.928,22.2 L116.988,22.2 C116.448,22.2 115.962,22.686 115.962,23.226 L115.962,58.974 Z M128.166,49.2 C128.166,55.41 133.026,60.54 139.452,60.54 C142.854,60.54 145.554,59.352 147.444,57.462 C147.93,56.976 147.822,56.328 147.498,55.896 L144.798,52.656 C144.474,52.278 143.934,52.278 143.448,52.656 C142.584,53.304 141.018,53.952 139.668,53.952 C136.86,53.952 135.672,51.846 135.51,50.388 L148.47,50.388 C148.956,50.388 149.442,50.01 149.496,49.47 C149.55,49.092 149.604,48.39 149.604,48.012 C149.604,42.072 144.852,37.86 139.344,37.86 C132.972,37.86 128.166,43.098 128.166,49.2 Z M136.212,46.176 C136.428,44.772 137.67,43.638 139.128,43.638 C140.532,43.638 141.882,44.772 141.99,46.176 L136.212,46.176 Z M153.492,58.974 C153.492,59.514 153.978,60 154.518,60 L160.026,60 C160.89,60 161.214,59.622 161.214,58.974 L161.214,47.796 C161.214,45.96 162.456,44.718 164.076,44.718 C164.562,44.718 165.102,44.88 165.372,44.988 C165.966,45.204 166.344,44.88 166.56,44.502 L169.206,40.182 C169.962,38.94 167.856,37.86 164.886,37.86 C162.078,37.86 160.08,39.858 159,41.424 L158.028,39.048 C157.866,38.724 157.65,38.4 157.056,38.4 L154.518,38.4 C153.978,38.4 153.492,38.832 153.492,39.426 L153.492,58.974 Z M172.878,37.482 C173.31,37.968 173.688,37.86 174.066,37.59 C175.308,36.564 179.088,33.594 179.088,27.924 C179.088,23.226 176.226,21.66 174.174,21.66 C171.69,21.66 169.908,23.442 169.908,25.548 C169.908,27.708 171.69,29.382 173.796,29.382 C175.038,29.382 175.956,29.004 175.956,29.004 C175.902,32.676 172.716,35.052 172.122,35.484 C171.798,35.754 171.69,36.24 172.068,36.672 L172.878,37.482 Z M177.166,58.758 C178.246,59.622 180.946,60.54 184.51,60.54 C190.612,60.54 193.636,57.462 193.636,53.682 C193.636,49.362 190.612,47.634 186.238,46.122 C184.402,45.474 183.808,44.934 183.808,44.394 C183.808,43.8 184.294,43.638 184.996,43.638 C187.102,43.638 189.586,44.88 189.586,44.88 C190.018,45.042 190.558,44.88 190.72,44.556 L192.718,40.884 C193.042,40.344 192.664,39.858 192.178,39.534 C190.99,38.778 188.398,37.86 184.996,37.86 C179.164,37.86 176.572,40.776 176.572,44.394 C176.572,47.742 178.408,50.172 182.62,51.63 C185.374,52.602 185.698,53.358 185.698,53.898 C185.698,54.546 185.212,54.87 184.672,54.87 C182.35,54.87 179.812,53.466 179.812,53.466 C179.38,53.25 178.84,53.574 178.678,53.898 L176.788,57.624 C176.518,58.11 176.788,58.434 177.166,58.758 Z" id="Traveler's-Outline"></path>
                    </g>
                </g>
            </g>
        </g>
    </g>
</svg>