<?xml version="1.0" encoding="UTF-8"?>
<svg width="108px" height="108px" viewBox="0 0 108 108" version="1.1" xmlns="http://www.w3.org/2000/svg" xmlns:xlink="http://www.w3.org/1999/xlink">
    <!-- Generator: Sketch 41 (35326) - http://www.bohemiancoding.com/sketch -->
    <title>PJ Icon White</title>
    <desc>Created with Sketch.</desc>
    <defs></defs>
    <g id="Symbols" stroke="none" stroke-width="1" fill="none" fill-rule="evenodd">
        <g id="PJ-Icon-White" fill="#FFFFFF">
            <path d="M45.6015625,27 C51.3203411,27 55.7031098,28.1718633 58.75,30.515625 C62.6406445,33.4687648 64.5859375,38.4140278 64.5859375,45.3515625 C64.5859375,52.4297229 62.6640817,57.468735 58.8203125,60.46875 C57.2265545,61.7343813 55.328136,62.6484347 53.125,63.2109375 C50.9687392,63.7265651 48.39064,63.984375 45.390625,63.984375 L37.1640625,63.984375 C37.1640625,66.7968891 37,94.5624578 37,103 C34.9843649,103 31.0937805,99 25,99 L25,40.4296875 L25,27 L45.6015625,27 Z M37.1640625,37.3359375 L37.1640625,53.6484375 L45.109375,53.6484375 C47.5937624,53.6484375 49.3281201,53.1562549 50.3125,52.171875 C51.3906304,51.0937446 51.9296875,48.8906416 51.9296875,45.5625 C51.9296875,43.6406154 51.7890639,42.1406304 51.5078125,41.0625 C51.1796859,39.9843696 50.7109405,39.1875026 50.1015625,38.671875 C49.5859349,38.1562474 48.9062542,37.8046884 48.0625,37.6171875 C47.2187458,37.4296866 46.1171943,37.3359375 44.7578125,37.3359375 L37.1640625,37.3359375 L37.1640625,37.3359375 Z M71,5 C73.0156351,5 76.9530948,12 83,12 C85.4976273,12 83.1953125,46.7655359 83.1953125,64.578125 C83.1953125,70.8125312 81.6718902,75.5234216 78.625,78.7109375 C75.5781098,81.8984534 71.101592,83.4921875 65.1953125,83.4921875 C59.4296587,83.4921875 55.0703273,81.9687652 52.1171875,78.921875 C53.5703198,77.0937409 55.7031109,74.3047062 58.515625,70.5546875 C60.2500087,72.2421959 62.3827998,73.0859375 64.9140625,73.0859375 C66.8828223,73.0859375 68.4062446,72.5234431 69.484375,71.3984375 C70.5625054,70.2734319 71.1015625,67.9297053 71.1015625,64.3671875 L71.1015625,29 L71,5 Z" id="PJ"></path>
            <path d="M17,84.5798147 L17,93.332136 C6.53459951,83.4835272 0,69.5048824 0,54 C0,24.1766235 24.1766235,0 54,0 C65.1008799,0 75.4194118,3.34962995 84,9.09329422 L84,16.5277743 C75.7824124,9.94030992 65.3513605,6 54,6 C27.490332,6 6,27.490332 6,54 C6,65.6200572 10.1290589,76.275721 17,84.5798147 Z M25,92.2524744 L25,99.5602079 C33.3772792,104.903639 43.3270427,108 54,108 C83.8233765,108 108,83.8233765 108,54 C108,38.9950613 101.880013,25.4195222 92,15.6333423 L92,24.6704457 C98.2695961,32.7815402 102,42.9551288 102,54 C102,80.509668 80.509668,102 54,102 C43.1042031,102 33.0563278,98.3696162 25,92.2524744 Z" id="Combined-Shape"></path>
        </g>
    </g>
</svg>