<?xml version="1.0" encoding="UTF-8"?>
<svg width="48px" height="48px" viewBox="0 0 48 48" version="1.1" xmlns="http://www.w3.org/2000/svg" xmlns:xlink="http://www.w3.org/1999/xlink">
    <!-- Generator: Sketch 41 (35326) - http://www.bohemiancoding.com/sketch -->
    <title>Artboard 2 Copy</title>
    <desc>Created with Sketch.</desc>
    <defs></defs>
    <g id="Page-1" stroke="none" stroke-width="1" fill="none" fill-rule="evenodd">
        <g id="Artboard-2-Copy" fill="#A82F30">
            <g id="PJ-Icon-White">
                <path d="M20.2673611,12 C22.8090405,12 24.7569377,12.5208281 26.1111111,13.5625 C27.8402864,14.8750066 28.7048611,17.0729013 28.7048611,20.15625 C28.7048611,23.3020991 27.850703,25.54166 26.1423611,26.875 C25.4340242,27.4375028 24.5902827,27.8437487 23.6111111,28.09375 C22.652773,28.3229178 21.5069511,28.4375 20.1736111,28.4375 L16.5173611,28.4375 C16.5173611,29.6875062 16.4444444,42.027759 16.4444444,45.7777778 C15.5486066,45.7777778 13.819458,44 11.1111111,44 L11.1111111,17.96875 L11.1111111,12 L20.2673611,12 Z M16.5173611,16.59375 L16.5173611,23.84375 L20.0486111,23.84375 C21.1527833,23.84375 21.9236089,23.6250022 22.3611111,23.1875 C22.8402802,22.7083309 23.0798611,21.7291741 23.0798611,20.25 C23.0798611,19.3958291 23.0173617,18.7291691 22.8923611,18.25 C22.746527,17.7708309 22.5381958,17.4166678 22.2673611,17.1875 C22.0381933,16.9583322 21.736113,16.8020838 21.3611111,16.71875 C20.9861092,16.6354162 20.4965308,16.59375 19.8923611,16.59375 L16.5173611,16.59375 L16.5173611,16.59375 Z M31.5555556,2.22222222 C32.4513934,2.22222222 34.2013755,5.33333333 36.8888889,5.33333333 C37.9989455,5.33333333 36.9756944,20.7846826 36.9756944,28.7013889 C36.9756944,31.4722361 36.2986179,33.5659651 34.9444444,34.9826389 C33.590271,36.3993126 31.6007076,37.1076389 28.9756944,37.1076389 C26.4131816,37.1076389 24.475701,36.4305623 23.1631944,35.0763889 C23.809031,34.2638848 24.7569382,33.0243139 26.0069444,31.3576389 C26.7777816,32.1076426 27.7256888,32.4826389 28.8506944,32.4826389 C29.7256988,32.4826389 30.4027754,32.2326414 30.8819444,31.7326389 C31.3611135,31.2326364 31.6006944,30.1909801 31.6006944,28.6076389 L31.6006944,12.8888889 L31.5555556,2.22222222 Z" id="PJ"></path>
                <path d="M7.55555556,37.5910288 L7.55555556,41.4809494 C2.90426645,37.1037899 0,30.8910588 0,24 C0,10.745166 10.745166,0 24,0 C28.9337244,0 33.5197386,1.48872442 37.3333333,4.0414641 L37.3333333,7.34567746 C33.6810722,4.41791552 29.0450491,2.66666667 24,2.66666667 C12.2179253,2.66666667 2.66666667,12.2179253 2.66666667,24 C2.66666667,29.1644699 4.50180396,33.9003204 7.55555556,37.5910288 Z M11.1111111,41.0010997 L11.1111111,44.2489813 C14.8343463,46.6238396 19.2564634,48 24,48 C37.254834,48 48,37.254834 48,24 C48,17.3311384 45.2800059,11.2975654 40.8888889,6.94815215 L40.8888889,10.9646426 C43.675376,14.5695734 45.3333333,19.0911684 45.3333333,24 C45.3333333,35.7820747 35.7820747,45.3333333 24,45.3333333 C19.1574236,45.3333333 14.6917012,43.7198294 11.1111111,41.0010997 Z" id="Combined-Shape"></path>
            </g>
        </g>
    </g>
</svg>