<?xml version="1.0" encoding="UTF-8"?>
<svg width="69px" height="124px" viewBox="0 0 69 124" version="1.1" xmlns="http://www.w3.org/2000/svg" xmlns:xlink="http://www.w3.org/1999/xlink">
    <!-- Generator: Sketch 41.2 (35397) - http://www.bohemiancoding.com/sketch -->
    <title>Access</title>
    <desc>Created with Sketch.</desc>
    <defs></defs>
    <g id="Symbols" stroke="none" stroke-width="1" fill="none" fill-rule="evenodd">
        <g id="Access" fill="#000000">
            <path d="M60.75,0 L8.25,0 C3.7005,0 0,3.68563855 0,8.21686747 L0,115.783133 C0,120.312867 3.7005,124 8.25,124 L60.75,124 C65.298,124 69,120.312867 69,115.783133 L69,8.21686747 C69,3.68563855 65.298,0 60.75,0 Z M8.25,4.48192771 L60.75,4.48192771 C62.8185,4.48192771 64.5,6.15816867 64.5,8.21686747 L64.5,14.939759 L4.5,14.939759 L4.5,8.21686747 C4.5,6.15816867 6.183,4.48192771 8.25,4.48192771 Z M64.5,19.4216867 L64.5,97.1084337 L4.5,97.1084337 L4.5,19.4216867 L64.5,19.4216867 Z M60.75,119.518072 L8.25,119.518072 C6.183,119.518072 4.5,117.843325 4.5,115.783133 L4.5,101.590361 L64.5,101.590361 L64.5,115.783133 C64.5,117.843325 62.8185,119.518072 60.75,119.518072 Z" id="Shape"></path>
            <path d="M35.1255,103.333831 C31.197,103.333831 28.0005,106.517494 28.0005,110.430217 C28.0005,114.34294 31.197,117.526602 35.1255,117.526602 C39.054,117.526602 42.2505,114.34294 42.2505,110.430217 C42.2505,106.517494 39.054,103.333831 35.1255,103.333831 Z M35.1255,113.044675 C33.678,113.044675 32.5005,111.871904 32.5005,110.430217 C32.5005,108.98853 33.678,107.815759 35.1255,107.815759 C36.573,107.815759 37.7505,108.98853 37.7505,110.430217 C37.7505,111.871904 36.573,113.044675 35.1255,113.044675 Z" id="Shape"></path>
            <path d="M25.5,11.9518072 L43.5,11.9518072 C44.742,11.9518072 45.75,10.9493494 45.75,9.71084337 C45.75,8.47233735 44.742,7.46987952 43.5,7.46987952 L25.5,7.46987952 C24.2565,7.46987952 23.25,8.47233735 23.25,9.71084337 C23.25,10.9493494 24.2565,11.9518072 25.5,11.9518072 Z" id="Shape"></path>
            <ellipse id="Oval" cx="18.7815" cy="9.74221687" rx="2.235" ry="2.2260241"></ellipse>
        </g>
    </g>
</svg>