<?xml version="1.0" encoding="UTF-8"?>
<svg width="116px" height="124px" viewBox="0 0 116 124" version="1.1" xmlns="http://www.w3.org/2000/svg" xmlns:xlink="http://www.w3.org/1999/xlink">
    <!-- Generator: Sketch 40.3 (33839) - http://www.bohemiancoding.com/sketch -->
    <title>Conditioning</title>
    <desc>Created with Sketch.</desc>
    <defs></defs>
    <g id="Page-1" stroke="none" stroke-width="1" fill="none" fill-rule="evenodd">
        <g id="Conditioning" fill="#252522">
            <path d="M32.164,105.614 C16.54,105.614 3.828,92.904 3.828,77.278 C3.828,61.652 16.54,48.94 32.164,48.94 C47.788,48.94 60.5,61.652 60.5,77.278 C60.5,92.904 47.788,105.614 32.164,105.614 L32.164,105.614 Z M32.164,52.94 C18.746,52.94 7.828,63.856 7.828,77.276 C7.828,90.694 18.744,101.612 32.164,101.612 C45.584,101.612 56.5,90.696 56.5,77.278 C56.5,63.858 45.584,52.94 32.164,52.94 L32.164,52.94 Z" id="Shape"></path>
            <path d="M36.624,51.22 L32.666,50.65 L36.734,22.364 C12.338,17.678 14.068,0.18 14.09,0 L18.062,0.46 L16.076,0.23 L18.064,0.448 C18.002,1.05 16.79,15.252 39.294,18.748 L41.248,19.052 L36.624,51.22 L36.624,51.22 Z" id="Shape"></path>
            <rect id="Rectangle-path" transform="translate(97.458535, 49.073373) rotate(10.749186) translate(-97.458535, -49.073373) " x="95.4586433" y="25.1596639" width="3.99978401" height="47.8274173"></rect>
            <rect id="Rectangle-path" transform="translate(87.091626, 102.838602) rotate(10.696386) translate(-87.091626, -102.838602) " x="85.0916755" y="94.3728127" width="3.99990024" height="16.9315777"></rect>
            <rect id="Rectangle-path" transform="translate(41.031922, 107.389445) rotate(61.505225) translate(-41.031922, -107.389445) " x="36.7367295" y="105.388355" width="8.59038491" height="4.00217933"></rect>
            <path d="M111.882,123.77 L0.57,123.77 L0.57,109.158 L111.882,109.158 L111.882,123.77 L111.882,123.77 Z M4.57,119.77 L107.882,119.77 L107.882,113.158 L4.57,113.158 L4.57,119.77 L4.57,119.77 Z" id="Shape"></path>
            <rect id="Rectangle-path" x="83.598" y="22.586" width="31.832" height="4"></rect>
            <path d="M74.618,72.814 C71.23,44.564 36.59,40.274 36.242,40.234 L36.698,36.26 C37.078,36.304 74.83,40.986 78.592,72.338 L74.618,72.814 L74.618,72.814 Z" id="Shape"></path>
            <path d="M90.472,96.518 C82.922,96.518 76.776,90.376 76.776,82.824 C76.776,75.272 82.92,69.128 90.472,69.128 C98.024,69.128 104.166,75.272 104.166,82.824 C104.166,90.376 98.024,96.518 90.472,96.518 L90.472,96.518 Z M90.472,73.128 C85.126,73.128 80.776,77.478 80.776,82.824 C80.776,88.17 85.126,92.518 90.472,92.518 C95.818,92.518 100.166,88.17 100.166,82.824 C100.166,77.478 95.818,73.128 90.472,73.128 L90.472,73.128 Z" id="Shape"></path>
            <polygon id="Shape" points="86.05 95.776 28.722 80.186 28.722 74.018 89.378 69.134 89.7 73.124 34.372 77.576 87.102 91.916"></polygon>
        </g>
    </g>
</svg>