<?xml version="1.0" encoding="UTF-8"?>
<svg width="111px" height="132px" viewBox="0 0 111 132" version="1.1" xmlns="http://www.w3.org/2000/svg" xmlns:xlink="http://www.w3.org/1999/xlink">
    <!-- Generator: Sketch 40.3 (33839) - http://www.bohemiancoding.com/sketch -->
    <title>Core</title>
    <desc>Created with Sketch.</desc>
    <defs></defs>
    <g id="Symbols" stroke="none" stroke-width="1" fill="none" fill-rule="evenodd">
        <g id="Core" stroke="#252522" stroke-width="4">
            <path d="M71.5,13 C71.5,13 59.5,14.5 58,23.5 C58,28 56.5,35.5 59.5,38.5 C68.5,47.5 97,43 100,40 C103,37 107.5,31 107.5,26.5 C107.5,22 104.5,13 97,13 C88,13 71.5,13 71.5,13 Z M70,49 C70,49 59.5,50.5 58,59.5 C58,64 56.5,70 59.5,73 C67,82 92.5,76 95.5,73 C98.5,70 103,65.5 101.5,62.5 C101.5,58 98.5,50.5 91,49 C85,47.5 70,49 70,49 Z M68.5,83.5 C68.5,83.5 58,85 58,98.5 C58,104.5 56.5,119.5 59.5,122.5 C65.5,131.5 83.5,122.5 86.5,118 C89.5,113.5 97,104.5 97,95.5 C97,89.5 95.5,85 89.5,83.5 C82,82 68.5,83.5 68.5,83.5 Z M38.5,13 C38.5,13 50.5,14.5 52,23.5 C52,28 53.5,35.5 50.5,38.5 C41.5,47.5 13,43 10,40 C7,37 2.5,31 2.5,26.5 C2.5,22 5.5,13 13,13 L38.5,13 Z M40,49 C40,49 50.5,50.5 52,59.5 C52,64 53.5,70 50.5,73 C43,82 17.5,76 14.5,73 C11.5,70 7,65.5 8.5,62.5 C8.5,58 11.5,50.5 19,49 C25,47.5 40,49 40,49 Z M41.5,83.5 C41.5,83.5 52,85 52,98.5 C52,104.5 53.5,119.5 50.5,122.5 C44.5,131.5 26.5,122.5 23.5,118 C20.5,113.5 13,104.5 13,95.5 C13,89.5 14.5,85 20.5,83.5 C28,82 41.5,83.5 41.5,83.5 Z" id="Combined-Shape"></path>
        </g>
    </g>
</svg>