<?xml version="1.0" encoding="UTF-8"?>
<svg width="96px" height="96px" viewBox="0 0 96 96" version="1.1" xmlns="http://www.w3.org/2000/svg" xmlns:xlink="http://www.w3.org/1999/xlink">
    <!-- Generator: Sketch 41.2 (35397) - http://www.bohemiancoding.com/sketch -->
    <title>Facebook Icon Copy</title>
    <desc>Created with Sketch.</desc>
    <defs></defs>
    <g id="Page-1" stroke="none" stroke-width="1" fill="none" fill-rule="evenodd">
        <path d="M90.7019095,96.000745 C93.6275372,96.000745 96,93.6282822 96,90.7019095 L96,5.29846304 C96,2.37171781 93.6279097,0 90.7019095,0 L5.29846304,0 C2.37171781,0 -1.13686838e-13,2.37171781 -1.13686838e-13,5.29846304 L-1.13686838e-13,90.7019095 C-1.13686838e-13,93.6279097 2.37134531,96.000745 5.29846304,96.000745 L90.7019095,96.000745 Z M66.2386106,96.000745 L66.2386106,58.8239658 L78.7170423,58.8239658 L80.5855105,44.3355153 L66.2386106,44.3355153 L66.2386106,35.0855551 C66.2386106,30.8908143 67.4034231,28.0322369 73.4185793,28.0322369 L81.0906227,28.0288844 L81.0906227,15.070298 C79.7637719,14.8937323 75.2095671,14.4992531 69.911104,14.4992531 C58.8496684,14.4992531 51.2767105,21.2512174 51.2767105,33.6506788 L51.2767105,44.3355153 L38.7662436,44.3355153 L38.7662436,58.8239658 L51.2767105,58.8239658 L51.2767105,96.000745 L66.2386106,96.000745 Z" id="Facebook-Icon-Copy" fill="#A82F30"></path>
    </g>
</svg>