<?xml version="1.0" encoding="UTF-8"?>
<svg width="120px" height="128px" viewBox="0 0 120 128" version="1.1" xmlns="http://www.w3.org/2000/svg" xmlns:xlink="http://www.w3.org/1999/xlink">
    <!-- Generator: Sketch 40.3 (33839) - http://www.bohemiancoding.com/sketch -->
    <title>Flexibility</title>
    <desc>Created with Sketch.</desc>
    <defs></defs>
    <g id="Page-1" stroke="none" stroke-width="1" fill="none" fill-rule="evenodd">
        <g id="Flexibility" fill="#252522">
            <path d="M111.435477,6.71493548 C108.257932,3.83948387 103.103432,0.344 96.5792045,0.0221935484 C93.1756818,-0.117903226 90.0438864,0.850290323 87.8062955,2.71870968 C87.7106364,2.78667742 87.6219091,2.86296774 87.5387273,2.94619355 L3.04956818,87.3787742 L3.04956818,87.3787742 C2.90538636,87.5230323 2.81804545,87.7005806 2.71961364,87.8739677 C1.19877273,89.7687419 0.318431818,92.2266774 0.201977273,94.9842258 C0.114636364,100.947355 2.77506818,105.988065 5.42579545,110.185419 C11.5632273,119.345806 20.5829091,125.798581 30.1668409,127.893097 C30.2832955,127.919452 30.3983636,127.916677 30.5134318,127.923613 C30.5661136,127.925 30.6146364,127.937484 30.6659318,127.936097 C30.9210227,127.933323 31.1664091,127.887548 31.3993182,127.80571 C31.4506136,127.789065 31.4949773,127.76271 31.5435,127.741903 C31.7639318,127.647581 31.9677273,127.521355 32.1479545,127.361839 C32.1645909,127.345194 32.1881591,127.341032 32.2061818,127.324387 C41.5738409,118.473323 50.8694091,109.265774 59.86275,100.362 C64.7275,95.5432258 69.5950227,90.7244516 74.4916591,85.9389677 C74.4985909,85.9320323 74.5055227,85.9264839 74.5110682,85.9209355 C74.5166136,85.914 74.5249318,85.9084516 74.5304773,85.9015161 C79.2843182,81.0314194 84.0728182,76.1918387 88.8599318,71.3522581 C97.7867273,62.3291935 107.017136,52.9968065 115.892636,43.5950645 C115.912045,43.5742581 115.918977,43.545129 115.938386,43.5229355 C116.086727,43.3523226 116.205955,43.158129 116.300227,42.9445161 C116.330727,42.8751613 116.358455,42.8085806 116.382023,42.7364516 C116.401432,42.6768065 116.434705,42.6254839 116.449955,42.5630645 C116.47075,42.4715161 116.449955,42.3827419 116.459659,42.2925806 C116.476295,42.14 116.488773,41.9915806 116.476295,41.839 C116.463818,41.6947419 116.429159,41.5615806 116.391727,41.4256452 C116.351523,41.2869355 116.309932,41.1579355 116.246159,41.0303226 C116.178227,40.8916129 116.090886,40.7737097 115.993841,40.6544194 C115.938386,40.5836774 115.912045,40.4990645 115.846886,40.433871 C115.809455,40.3964194 115.759545,40.3825484 115.720727,40.3492581 C115.608432,40.2493871 115.485045,40.1786452 115.353341,40.1023548 C115.221636,40.0274516 115.092705,39.9567097 114.949909,39.9081613 C114.898614,39.8915161 114.862568,39.8540645 114.811273,39.8401935 C112.738659,39.302 110.639705,38.4586452 108.543523,37.3448065 L109.307409,36.5610968 C111.536682,34.2793226 113.763182,32.0003226 115.957795,29.6810968 L115.957795,29.6810968 C115.961955,29.6769355 115.966114,29.6727742 115.970273,29.6672258 C115.981364,29.6575161 115.992455,29.6464194 116.000773,29.6367097 L116.002159,29.6367097 L117.044705,28.5603226 C117.059955,28.5450645 117.077977,28.5298065 117.084909,28.5214839 C117.154227,28.4507419 117.303955,28.2953871 117.413477,28.1608387 C118.214795,27.2134516 120.071136,24.5876774 119.806341,20.782871 C119.382114,14.6435806 114.829295,9.81787097 111.435477,6.71493548 L111.435477,6.71493548 Z M114.434182,21.5873871 C114.772455,23.2408065 114.395364,24.8012903 113.843591,25.3505806 L113.843591,25.3505806 L112.679045,26.4782903 L112.679045,26.4796774 L112.679045,26.4810645 C110.280636,28.7559032 107.916886,31.0668065 105.557295,33.3777097 L102.89825,35.9757419 C102.889932,35.9840645 102.881614,35.991 102.874682,35.9979355 C102.864977,36.0076452 102.863591,36.0215161 102.855273,36.0298387 C102.841409,36.0423226 102.822,36.0492581 102.80675,36.0617419 L102.540568,36.3169677 C102.533636,36.3225161 102.530864,36.3308387 102.523932,36.3363871 C102.521159,36.3391613 102.515614,36.3419355 102.511455,36.3447097 C96.8800455,41.8320645 91.27775,47.3485484 85.6782273,52.8636452 C80.9923182,57.4785161 76.3091818,62.092 71.5692045,66.7249032 C66.78625,71.6255161 61.9700227,76.4942258 57.1551818,81.3629355 C50.1526591,88.4412903 42.9699091,95.7124516 35.9133182,103.052968 C34.7640227,98.5282581 32.0093182,94.1602903 27.8432955,90.3527097 C24.9693636,87.7519032 20.4678409,84.6683871 14.8100909,83.8583226 C26.2073864,72.4272581 48.227,50.3460645 65.7880682,32.7770968 C86.12325,12.4297742 90.9852273,7.63041935 91.4316364,7.22954839 C92.6211364,6.27383871 94.3513182,5.80916129 96.3629318,5.92151613 C100.103341,6.04358065 104.115477,7.83154839 107.654864,10.9483548 C110.204386,13.2065484 113.45125,16.8837419 114.434182,21.5873871 L114.434182,21.5873871 Z M84.9434545,67.437871 C80.1064318,72.2275161 75.2680227,77.0171613 70.3630682,81.8123548 C65.5953636,86.6990968 60.7916136,91.5525484 55.98925,96.4073871 C47.4048864,105.086452 38.5446364,114.052645 29.9824545,123.088194 C26.3349318,121.950774 22.7220682,120.017161 19.2215,117.247129 C15.5046591,114.335613 12.3936591,110.956645 9.99663636,107.235065 C7.09220455,102.536968 5.74188636,98.5879032 5.86665909,95.215871 C5.96370455,93.6290323 6.49329545,92.2738387 7.34452273,91.3472581 C7.42631818,91.2612581 7.54831818,91.1405806 7.70220455,90.9866129 C7.74795455,90.9463871 7.78677273,90.9061613 7.83668182,90.8673226 C9.02618182,89.9116129 10.75775,89.4455484 12.7693636,89.5592903 C15.1871818,89.6383548 17.7062045,90.4789355 20.1475909,91.8549355 C17.6396591,94.4529677 15.1289545,97.0468387 12.6515227,99.6726129 C12.5822045,99.7433548 12.5558636,99.8390645 12.49625,99.918129 C12.4075227,100.040194 12.3229545,100.158097 12.2605682,100.295419 C12.1995682,100.429968 12.1649091,100.565903 12.13025,100.707387 C12.0969773,100.843323 12.0664773,100.97371 12.0581591,101.115194 C12.0512273,101.271935 12.0734091,101.420355 12.0983636,101.577097 C12.1136136,101.670032 12.0955909,101.765742 12.1233182,101.860065 C12.1441136,101.936355 12.1801591,102.009871 12.2051136,102.086161 C12.2065,102.09171 12.2078864,102.097258 12.2106591,102.102806 C13.80775,107.319677 17.8795,111.689032 23.2682955,113.85429 C26.8104545,115.073548 30.0185,114.920968 32.5319773,113.420129 C33.7131591,112.727968 34.6406364,111.679323 35.2991591,110.435097 C44.0374091,102.126387 52.7105,93.554129 61.1090909,85.2357097 C65.9613636,80.4321935 70.81225,75.6272903 75.6964091,70.8542903 C75.7019545,70.8487419 75.7088864,70.8418065 75.7144318,70.834871 C75.7199773,70.8293226 75.7282955,70.8223871 75.7338409,70.8154516 C80.3060682,66.134 84.8949318,61.4705806 89.4824091,56.8057742 C94.6549318,51.5459032 99.8246818,46.2860323 104.973636,41.0011935 C106.574886,41.8348387 108.196932,42.5367097 109.832841,43.1095806 C101.405136,51.1505806 93.0481364,59.4107419 84.9434545,67.437871 L84.9434545,67.437871 Z M24.2831136,94.7928065 C26.7965909,97.0634839 29.8840227,100.654677 30.8406136,105.225161 C31.1095682,106.54429 30.8378409,107.887 30.1599091,108.563903 C30.0517727,108.67071 29.9325455,108.765032 29.75925,108.869065 C28.6834318,109.547355 26.9158182,109.564 24.9582727,108.932871 C21.4521591,107.709452 18.5033636,105.040677 16.9783636,101.804581 C19.4266818,99.4798065 21.85975,97.1397742 24.2831136,94.7928065 L24.2831136,94.7928065 Z" id="Shape"></path>
        </g>
    </g>
</svg>