<?xml version="1.0" encoding="UTF-8"?>
<svg width="96px" height="96px" viewBox="0 0 96 96" version="1.1" xmlns="http://www.w3.org/2000/svg" xmlns:xlink="http://www.w3.org/1999/xlink">
    <!-- Generator: Sketch 41.2 (35397) - http://www.bohemiancoding.com/sketch -->
    <title>Google+ Icon Copy</title>
    <desc>Created with Sketch.</desc>
    <defs></defs>
    <g id="Page-1" stroke="none" stroke-width="1" fill="none" fill-rule="evenodd">
        <path d="M76.097561,44.4878049 L76.097561,37.4634146 L70.2439024,37.4634146 L70.2439024,44.4878049 L63.2195122,44.4878049 L63.2195122,49.1707317 L70.2439024,49.1707317 L70.2439024,57.3658537 L76.097561,57.3658537 L76.097561,49.1707317 L83.1219512,49.1707317 L83.1219512,44.4878049 L76.097561,44.4878049 Z M48,96 C74.509668,96 96,74.509668 96,48 C96,21.490332 74.509668,0 48,0 C21.490332,0 0,21.490332 0,48 C0,74.509668 21.490332,96 48,96 Z M36.4917073,44.4878049 L57.3658537,44.4878049 C57.2956094,47.9297733 56.6780513,52.0799881 56.1687805,54.4682927 C55.6595096,56.8565973 54.5970812,59.1746229 52.9814634,61.422439 C49.258518,66.6205138 43.7971092,69.2195122 36.5970732,69.2195122 C30.3453346,69.2195122 25.2527026,67.2790438 21.3190244,63.3980488 C17.3853462,59.5170538 15.4185366,54.4683238 15.4185366,48.2517073 C15.4185366,41.8243581 17.402907,36.6527025 21.3717073,32.7365854 C25.3405076,28.8204682 30.5385044,26.862439 36.9658537,26.862439 C41.1102646,26.862439 44.7102286,27.7931614 47.7658537,29.6546341 C50.8214787,31.5161069 53.1921867,34.2907133 54.8780488,37.9785366 L45.0790244,42.0878049 C44.3414597,40.1209658 43.2351293,38.5756154 41.76,37.4517073 C40.2848707,36.3277993 38.5287907,35.7658537 36.4917073,35.7658537 C33.2955938,35.7658537 30.775619,37.0302313 28.9317073,39.5590244 C27.0877957,42.0878175 26.1658537,45.0029103 26.1658537,48.3043902 C26.1658537,51.6058702 27.1053565,54.5034022 28.9843902,56.9970732 C30.863424,59.4907442 33.4185204,60.737561 36.6497561,60.737561 C38.9678165,60.737561 40.8819437,60.1404938 42.3921951,58.9463415 C43.9024466,57.7521892 46.6185355,53.7248891 46.8292683,51.5121951 L36.5970732,51.5121951 L36.4917073,44.4878049 Z" id="Google+-Icon-Copy" fill="#A82F30"></path>
    </g>
</svg>