<?xml version="1.0" encoding="UTF-8"?>
<svg width="125px" height="125px" viewBox="0 0 125 125" version="1.1" xmlns="http://www.w3.org/2000/svg" xmlns:xlink="http://www.w3.org/1999/xlink">
    <!-- Generator: Sketch 40.3 (33839) - http://www.bohemiancoding.com/sketch -->
    <title>in-person-training</title>
    <desc>Created with Sketch.</desc>
    <defs></defs>
    <g id="Page-1" stroke="none" stroke-width="1" fill="none" fill-rule="evenodd">
        <g id="In-Person-Training" fill="#252522">
            <path d="M44.9383594,48.6073388 L66.9846357,70.6577564 C67.490853,71.1639737 68.1568771,71.4190312 68.8192472,71.4190312 C69.489169,71.4190312 70.1515391,71.1639737 70.6614105,70.6577564 C71.6738452,69.641424 71.6738452,67.9970703 70.6614105,66.9807379 L49.3691009,45.6957365 L49.3691009,15.5913963 C49.3691009,14.1526477 48.2080653,12.9916122 46.7732145,12.9916122 C45.3383636,12.9916122 44.1773281,14.1526477 44.1773281,15.5913963 L44.1773281,46.7729709 C44.1770845,47.4884474 44.4662472,48.1391243 44.9383594,48.6073388 L44.9383594,48.6073388 Z" id="Shape"></path>
            <path d="M122.130656,90.9451832 L114.335445,90.9451832 L114.335445,88.3453991 C114.335445,84.0479112 110.83358,80.5504318 106.53999,80.5504318 C105.626704,80.5504318 104.751177,80.7102386 103.936552,80.9996449 L103.936552,80.5504318 C103.936552,76.2529439 100.442239,72.7549773 96.1410973,72.7549773 C91.8475071,72.7549773 88.3456428,76.2529439 88.3456428,80.5504318 L88.3456428,90.9451832 L62.3636364,90.9451832 L62.3636364,90.888179 C68.8650455,88.5968026 74.8254013,84.8627798 79.8461612,79.8425071 C88.6808473,71.0117187 93.5452109,59.2690845 93.5452109,46.7805227 L93.5452109,46.7729709 L93.5452109,46.7615213 C93.5452109,34.2727159 88.6806037,22.5303253 79.8461612,13.6995369 C71.0114751,4.86509446 59.2651868,0.000487215909 46.7729709,0.000487215909 C34.280755,0.000487215909 22.534223,4.86509446 13.6995369,13.6995369 C4.86533807,22.5303253 0.000730823864,34.2766136 0.000730823864,46.7729709 C0.000730823864,59.2651868 4.86533807,71.0117187 13.6995369,79.8425071 C18.7582997,84.9044368 24.7722493,88.6577045 31.3345604,90.9451832 L28.586419,90.9451832 C27.1476705,90.9451832 25.9827372,92.1062187 25.9827372,93.5449673 L25.9827372,103.936308 C25.9827372,105.371403 27.1474268,106.536092 28.586419,106.536092 L36.38163,106.536092 L36.38163,109.135876 C36.38163,113.433364 39.8759425,116.931331 44.1770845,116.931331 C45.0830625,116.931331 45.9583459,116.771524 46.7729709,116.482118 L46.7729709,116.931331 C46.7729709,121.228819 50.2672834,124.726786 54.5684254,124.726786 C58.8693239,124.726786 62.3636364,121.228819 62.3636364,116.931331 L62.3636364,106.536092 L88.3456428,106.536092 L88.3456428,116.931331 C88.3456428,121.228819 91.8475071,124.726786 96.1410973,124.726786 C100.442239,124.726786 103.936552,121.228819 103.936552,116.931331 L103.936552,116.482118 C104.751177,116.771524 105.626704,116.931331 106.53999,116.931331 C110.83358,116.931331 114.335445,113.433364 114.335445,109.135876 L114.335445,106.536092 L122.130656,106.536092 C123.561852,106.536092 124.726542,105.371403 124.726542,103.936308 L124.726542,93.5449673 C124.726542,92.1062187 123.561852,90.9451832 122.130656,90.9451832 L122.130656,90.9451832 Z M12.1238807,69.7707798 C13.322919,69.039956 13.7263338,67.4830575 13.0184091,66.2613636 C12.3104844,65.035772 10.7577273,64.6055604 9.5243402,65.27938 C7.07315696,60.3577685 5.6227152,54.9679425 5.28020241,49.3649595 C6.67705043,49.3230589 7.79618537,48.1773707 7.79618537,46.7729709 C7.79618537,45.3646733 6.67705043,44.2189851 5.28020241,44.1770845 C5.6227152,38.5741016 7.07291335,33.1842756 9.5243402,28.2626641 C9.92020313,28.4797187 10.346517,28.5822777 10.7652791,28.5822777 C11.6637053,28.5822777 12.538745,28.1140632 13.0184091,27.2843345 C13.7263338,26.0587429 13.322919,24.5018445 12.1238807,23.7710206 C13.6425327,21.4949915 15.3935866,19.3519723 17.3729013,17.3726577 C19.3522159,15.393343 21.4949915,13.6425327 23.7712642,12.1238807 C24.2584801,12.9195043 25.111108,13.3648196 25.9902891,13.3648196 C26.4280526,13.3648196 26.8733679,13.2544652 27.2843345,13.0145114 C28.5099261,12.3102408 28.9362401,10.7572401 28.2663182,9.52019886 C33.1842756,7.06901562 38.573858,5.61857386 44.1768409,5.27606108 C44.2226392,6.67290909 45.3644297,7.79594176 46.7727273,7.79594176 C48.1810249,7.79594176 49.3230589,6.6731527 49.3686136,5.27606108 C54.9715966,5.61857386 60.361179,7.06877202 65.2791364,9.52019886 C64.6092145,10.7572401 65.0355284,12.3102408 66.26112,13.0145114 C66.6723303,13.2505675 67.1176456,13.3648196 67.5551655,13.3648196 C68.4343466,13.3648196 69.2833203,12.9195043 69.7741903,12.1238807 C72.0502195,13.6425327 74.1932386,15.3935866 76.1725533,17.3729013 C78.1518679,19.3522159 79.9026783,21.4952351 81.4215739,23.7712642 C80.2225355,24.5059858 79.8191207,26.0589865 80.5270455,27.2845781 C81.0067095,28.1143068 81.8819929,28.5825213 82.780419,28.5825213 C83.1991811,28.5825213 83.6291491,28.4797187 84.021358,28.2629077 C86.4725412,33.1845192 87.922983,38.5743452 88.2654957,44.1773281 C86.8686477,44.2192287 85.7495128,45.3649169 85.7495128,46.7732145 C85.7495128,48.1776143 86.8686477,49.3233026 88.2654957,49.3652031 C87.922983,54.9681861 86.4727848,60.3580121 84.021358,65.2796236 C82.7882145,64.605804 81.2349702,65.0360156 80.5270455,66.2579531 C79.8191207,67.4835447 80.2225355,69.0404432 81.4215739,69.771267 C79.9029219,72.0475398 78.1518679,74.1905589 76.1725533,76.1698736 C74.1932386,78.1491882 72.0463217,79.8999986 69.7705362,81.4188942 C69.0397124,80.2237536 67.4828139,79.8203388 66.26112,80.5282635 C65.0355284,81.2325341 64.6092145,82.7850476 65.2827905,84.0220888 C64.3273601,84.4978551 63.3529283,84.9317209 62.3633928,85.3314815 L62.3633928,80.5511626 C62.3633928,76.2536747 58.8690803,72.7557081 54.5681818,72.7557081 C50.2670398,72.7557081 46.7727273,76.2536747 46.7727273,80.5511626 L46.7727273,81.0003757 C45.9581023,80.7109695 45.0825753,80.5511626 44.1768409,80.5511626 C40.3095646,80.5511626 37.0971065,83.3750661 36.4880866,87.0671882 C33.6410405,86.3439162 30.8853473,85.3239297 28.2665618,84.0181911 C28.9364837,82.7850476 28.5101697,81.2322905 27.2845781,80.5282635 C26.0626406,79.8203388 24.5059858,80.2237536 23.7751619,81.4188942 C21.4988892,79.9002422 19.3522159,78.1491882 17.3729013,76.1698736 C15.3935866,74.1905589 13.6425327,72.0470526 12.1238807,69.7707798 L12.1238807,69.7707798 Z M28.7163437,101.340422 C29.6982532,101.336524 30.6805217,101.085364 31.421084,100.579147 C32.9251939,99.5628146 32.9251939,97.9184609 31.421084,96.9021286 C30.6805217,96.3959112 29.6982532,96.1408537 28.7163437,96.1408537 L36.38163,96.1408537 L36.38163,101.340422 L28.7163437,101.340422 L28.7163437,101.340422 Z M44.1770845,111.731763 C42.7419901,111.731763 41.5734027,110.567073 41.5734027,109.135876 L41.5734027,88.3453991 C41.5734027,86.9142024 42.7419901,85.7495128 44.1770845,85.7495128 C45.6082812,85.7495128 46.7729709,86.9142024 46.7729709,88.3453991 L46.7729709,109.135876 C46.7729709,110.567073 45.6082812,111.731763 44.1770845,111.731763 L44.1770845,111.731763 Z M57.1643118,116.931331 C57.1643118,118.362528 55.9996222,119.527217 54.5684254,119.527217 C53.1372287,119.527217 51.9725391,118.362528 51.9725391,116.931331 L51.9725391,109.135876 L51.9725391,88.3453991 L51.9725391,80.5504318 C51.9725391,79.1192351 53.1372287,77.9545455 54.5684254,77.9545455 C55.9996222,77.9545455 57.1643118,79.1192351 57.1643118,80.5504318 L57.1643118,116.931331 L57.1643118,116.931331 Z M62.3636364,101.340422 L62.3636364,96.1408537 L88.3456428,96.1408537 L88.3456428,101.340422 L62.3636364,101.340422 L62.3636364,101.340422 Z M98.7447791,116.931331 C98.7447791,118.362528 97.5761918,119.527217 96.1410973,119.527217 C94.7099006,119.527217 93.5452109,118.362528 93.5452109,116.931331 L93.5452109,80.5504318 C93.5452109,79.1192351 94.7099006,77.9545455 96.1410973,77.9545455 C97.5761918,77.9545455 98.7447791,79.1192351 98.7447791,80.5504318 L98.7447791,88.3453991 L98.7447791,109.135876 L98.7447791,116.931331 L98.7447791,116.931331 Z M109.135876,109.135876 C109.135876,110.567073 107.971187,111.731763 106.53999,111.731763 C105.105139,111.731763 103.936552,110.567073 103.936552,109.135876 L103.936552,88.3453991 C103.936552,86.9142024 105.105139,85.7495128 106.53999,85.7495128 C107.971187,85.7495128 109.135876,86.9142024 109.135876,88.3453991 L109.135876,109.135876 L109.135876,109.135876 Z M114.335445,96.1408537 L122.000731,96.1408537 C121.022788,96.1408537 120.039451,96.3959112 119.292056,96.9021286 C117.797628,97.9184609 117.797628,99.5628146 119.292056,100.579147 C120.039451,101.085364 121.022788,101.336524 122.000731,101.340422 L114.335445,101.340422 L114.335445,96.1408537 L114.335445,96.1408537 Z" id="Shape"></path>
        </g>
    </g>
</svg>