<?xml version="1.0" encoding="UTF-8"?>
<svg width="96px" height="96px" viewBox="0 0 96 96" version="1.1" xmlns="http://www.w3.org/2000/svg" xmlns:xlink="http://www.w3.org/1999/xlink">
    <!-- Generator: Sketch 41.2 (35397) - http://www.bohemiancoding.com/sketch -->
    <title>Combined Shape Copy</title>
    <desc>Created with Sketch.</desc>
    <defs></defs>
    <g id="Page-1" stroke="none" stroke-width="1" fill="none" fill-rule="evenodd">
        <path d="M0,21.9942368 C0,9.84715525 9.84489659,0 21.9942368,0 L74.0057632,0 C86.1528448,0 96,9.84489659 96,21.9942368 L96,74.0057632 C96,86.1528448 86.1551034,96 74.0057632,96 L21.9942368,96 C9.84715525,96 0,86.1551034 0,74.0057632 L0,21.9942368 Z M47.9530544,12.375 C38.2905452,12.375 37.0790949,12.415956 33.2843096,12.589101 C29.4972917,12.7619636 26.9111321,13.3633107 24.64796,14.2428761 C22.3083837,15.1520993 20.3242773,16.3686338 18.3463849,18.3465262 C16.3684926,20.3244186 15.1519581,22.308525 14.2427349,24.6481012 C13.3631694,26.9112733 12.7618224,29.497433 12.5889598,33.2844508 C12.4158148,37.0790949 12.375,38.2906864 12.375,47.9531956 C12.375,57.6157048 12.4158148,58.8272963 12.5889598,62.6219404 C12.7618224,66.4089583 13.3631694,68.9951179 14.2427349,71.25829 C15.1519581,73.597725 16.3684926,75.5819727 18.3463849,77.5598651 C20.3242773,79.5377574 22.3083837,80.7542919 24.64796,81.6635151 C26.9111321,82.5430806 29.4972917,83.1444276 33.2843096,83.3172902 C37.0790949,83.4904352 38.2905452,83.53125 47.9530544,83.53125 C57.6155636,83.53125 58.8271551,83.4904352 62.6217992,83.3172902 C66.408817,83.1444276 68.9949767,82.5430806 71.2581488,81.6635151 C73.597725,80.7542919 75.5818314,79.5377574 77.5597238,77.5598651 C79.5376162,75.5819727 80.7541507,73.5978663 81.6633739,71.25829 C82.5429393,68.9951179 83.1442864,66.4089583 83.317149,62.6219404 C83.490294,58.8272963 83.53125,57.6157048 83.53125,47.9531956 C83.53125,38.2906864 83.490294,37.0790949 83.317149,33.2844508 C83.1442864,29.497433 82.5429393,26.9112733 81.6633739,24.6481012 C80.7541507,22.308525 79.5376162,20.3244186 77.5597238,18.3465262 C75.5818314,16.3686338 73.597725,15.1520993 71.2581488,14.2428761 C68.9949767,13.3633107 66.408817,12.7619636 62.6217992,12.589101 C58.8271551,12.415956 57.6155636,12.375 47.9530544,12.375 Z M47.9530544,18.7856027 C57.4528694,18.7856027 58.5780296,18.821757 62.3295993,18.9929249 C65.7984314,19.151241 67.6822662,19.730839 68.9360847,20.217933 C70.5966387,20.863343 71.7819619,21.6344457 73.0268831,22.8793669 C74.2718043,24.1242881 75.042907,25.3096113 75.6881758,26.9701653 C76.175411,28.2239838 76.755009,30.1078186 76.9133251,33.5765094 C77.084493,37.3282204 77.1206473,38.4533806 77.1206473,47.9531956 C77.1206473,57.4530107 77.084493,58.5781709 76.9133251,62.3297406 C76.755009,65.7985726 76.175411,67.6824074 75.6881758,68.936226 C75.042907,70.59678 74.2718043,71.7821031 73.0268831,73.0270243 C71.7819619,74.2719455 70.5966387,75.0430482 68.9360847,75.688317 C67.6822662,76.1755522 65.7984314,76.7551502 62.3295993,76.9134664 C58.5785945,77.0846342 57.4534343,77.1207885 47.9530544,77.1207885 C38.4526744,77.1207885 37.3275142,77.0846342 33.5765094,76.9134664 C30.1076774,76.7551502 28.2238426,76.1755522 26.9701653,75.688317 C25.30947,75.0430482 24.1241469,74.2719455 22.8792257,73.0270243 C21.6343045,71.7821031 20.8632018,70.59678 20.217933,68.936226 C19.7306978,67.6824074 19.1510998,65.7985726 18.9927836,62.3298818 C18.8216158,58.5781709 18.7854615,57.4530107 18.7854615,47.9531956 C18.7854615,38.4533806 18.8216158,37.3282204 18.9927836,33.5766507 C19.1510998,30.1078186 19.7306978,28.2239838 20.217933,26.9701653 C20.8632018,25.3096113 21.6343045,24.1242881 22.8792257,22.8793669 C24.1241469,21.6344457 25.30947,20.863343 26.9701653,20.217933 C28.2238426,19.730839 30.1076774,19.151241 33.5763682,18.9929249 C37.3280791,18.821757 38.4532393,18.7856027 47.9530544,18.7856027 Z M48,29.71875 C37.9035892,29.71875 29.71875,37.9035892 29.71875,48 C29.71875,58.0964108 37.9035892,66.28125 48,66.28125 C58.0964108,66.28125 66.28125,58.0964108 66.28125,48 C66.28125,37.9035892 58.0964108,29.71875 48,29.71875 Z M48,59.8668085 C41.4462217,59.8668085 36.1331915,54.5537783 36.1331915,48 C36.1331915,41.4462217 41.4462217,36.1331915 48,36.1331915 C54.5537783,36.1331915 59.8668085,41.4462217 59.8668085,48 C59.8668085,54.5537783 54.5537783,59.8668085 48,59.8668085 Z M71.25,28.9218044 C71.25,31.2776661 69.3403072,33.1875 66.9844456,33.1875 C64.6285839,33.1875 62.71875,31.2776661 62.71875,28.9218044 C62.71875,26.5659428 64.6285839,24.65625 66.9844456,24.65625 C69.3403072,24.65625 71.25,26.5659428 71.25,28.9218044 Z" id="Combined-Shape-Copy" fill="#A82F30"></path>
    </g>
</svg>