<?xml version="1.0" encoding="UTF-8"?>
<svg width="785px" height="55px" viewBox="0 0 785 55" version="1.1" xmlns="http://www.w3.org/2000/svg" xmlns:xlink="http://www.w3.org/1999/xlink">
    <!-- Generator: Sketch 40.3 (33839) - http://www.bohemiancoding.com/sketch -->
    <title>livestrong</title>
    <desc>Created with Sketch.</desc>
    <defs></defs>
    <g id="Symbols" stroke="none" stroke-width="1" fill="none" fill-rule="evenodd">
        <g id="livestrong" fill="#252522">
            <polygon id="path3093" points="0.767462088 51.9135868 0.767462088 2.45878401 7.09992531 2.45878401 7.09992531 45.9697851 31.2370874 45.9697851 31.2370874 51.9135868"></polygon>
            <polygon id="path3095" points="77.7605679 2.45351235 84.0666733 2.45351235 84.0666733 51.9280839 77.7605679 51.9280839"></polygon>
            <polygon id="path3099" points="149.307518 54.9612415 125.690923 2.45546287 132.33968 2.45546287 149.307518 40.6157245 166.255588 2.45546287 172.910935 2.45546287 149.307518 54.9612415"></polygon>
            <polygon id="path3103" points="213.189618 51.9326703 213.189618 2.4580987 241.748302 2.4580987 241.748302 8.21739219 219.528671 8.21739219 219.528671 23.3470694 238.789638 23.3470694 238.789638 28.9482129 219.528671 28.9482129 219.528671 46.1140706 241.748302 46.1140706 241.748302 51.9326703"></polygon>
            <path d="M299.569424,53.4364126 C293.401697,53.4364126 289.098785,51.6572258 286.687046,50.6160721 L286.001743,37.6741356 C287.853379,38.7482373 293.889317,42.6624482 299.457404,42.6624482 C303.285875,42.6624482 306.178645,40.8239552 306.178645,38.2803771 C306.178645,30.3333428 285.540481,30.1092971 285.540481,14.5908346 C285.540481,6.51200872 291.839997,0.996529707 301.500134,0.996529707 C307.687629,0.996529707 311.601763,2.78230607 313.789461,3.77733274 L313.934429,15.2959197 C308.979162,12.7786999 305.203406,10.9006694 300.972978,10.9006694 C298.330607,10.9006694 296.564634,12.2185856 296.564634,14.5512971 C296.564634,20.995907 317.703596,21.6680442 317.703596,37.2721712 C317.703596,45.9704177 310.646293,53.4364126 299.569424,53.4364126" id="path3107"></path>
            <polygon id="path3111" points="373.980783 51.9326703 373.980783 13.106861 358.581234 13.106861 358.581234 2.4580987 401.465387 2.4580987 401.465387 13.106861 386.316237 13.106861 386.316237 51.9326703"></polygon>
            <path d="M458.971533,11.9325978 L458.971533,26.1331441 L461.093336,26.1331441 C465.409427,26.1331441 469.870486,23.5170806 469.870486,18.2585952 C469.870486,14.4629967 466.358308,11.8469332 461.982912,11.8469332 C461.027442,11.8469332 459.933593,11.9328614 458.971533,11.9328614 L458.971533,11.9325978 Z M446.616311,51.9316159 L446.616311,2.45704436 L459.650246,2.45704436 C469.817771,2.45704436 480.584935,6.50963647 480.584935,17.3099592 C480.584935,23.3987317 477.165009,27.7742133 471.860501,30.7395245 L486.77243,51.9316159 L473.178391,51.9316159 L459.854519,32.9338549 L458.971533,32.9338549 L458.971533,51.9316159 L446.616311,51.9316159 L446.616311,51.9316159 Z" id="path3115"></path>
            <path d="M540.26365,27.2856881 C540.26365,35.6676347 544.994876,41.7102802 552.131253,41.7102802 C559.392828,41.7102802 564.216307,35.3447452 564.216307,27.1077694 C564.216307,18.1788876 559.544386,12.5645649 552.131253,12.5645649 C544.737888,12.5645649 540.26365,19.2925268 540.26365,27.2856881 M552.27622,53.4331441 C538.886454,53.4331441 528.053395,42.1781404 528.053395,27.3911214 C528.053395,13.3091875 538.550392,0.993261275 552.216915,0.993261275 C565.237672,0.993261275 576.419972,11.9319652 576.419972,26.3565572 C576.419972,41.492824 565.296977,53.4331441 552.27622,53.4331441" id="path3119"></path>
            <polygon id="path3123" points="622.385352 51.9326703 622.385352 0.00018511197 654.074026 29.2117962 654.074026 2.4580987 665.68464 2.4580987 665.68464 54.8189066 634.134345 25.930185 634.134345 51.9326703 622.385352 51.9326703"></polygon>
            <path d="M737.510298,53.4581846 C722.275485,53.4581846 711.64011,42.9280347 711.64011,28.2596281 C711.64011,14.1381568 721.662666,0.991943359 737.938612,0.991943359 C743.355142,0.991943359 748.297231,2.82384678 753.502898,5.55852276 L752.185007,18.6454299 C746.709173,13.7757298 743.1311,11.746139 737.787055,11.746139 C729.016495,11.746139 723.949206,19.4230005 723.949206,28.1410157 C723.949206,36.9842329 729.293252,42.6644514 738.261496,42.6644514 C740.192205,42.6644514 742.379903,42.3418256 743.902066,41.774858 L743.902066,34.8557984 L734.993127,34.8557984 L734.993127,24.77374 L756.178215,24.77374 L756.178215,47.9624743 C751.855535,50.5587691 744.857537,53.4581846 737.510298,53.4581846" id="path3127"></path>
            <path d="M780.947174,8.48099651 L782.627748,4.03961914 L784.28829,4.03961914 L784.28829,10.0624959 L783.240303,10.0624959 L783.240303,5.15325827 L783.182316,5.15325827 L781.310912,10.0624959 L780.559714,10.0624959 L778.68831,5.15325827 L778.68831,5.15325827 L778.68831,10.0624959 L777.614493,10.0624959 L777.614493,4.03961914 L779.261856,4.03961914 L780.975113,8.48099651 L780.947174,8.48099651 Z M776.539094,4.88967505 L774.654511,4.88967505 L774.654511,10.0624959 L773.619703,10.0624959 L773.619703,4.88967505 L771.78151,4.88967505 L771.78151,4.03961914 L776.539094,4.03961914 L776.539094,4.88967505 L776.539094,4.88967505 Z" id="path3131"></path>
        </g>
    </g>
</svg>