<?xml version="1.0" encoding="UTF-8"?>
<svg width="114px" height="96px" viewBox="0 0 114 96" version="1.1" xmlns="http://www.w3.org/2000/svg" xmlns:xlink="http://www.w3.org/1999/xlink">
    <!-- Generator: Sketch 41.2 (35397) - http://www.bohemiancoding.com/sketch -->
    <title>a209ca7b50dcaab2db7c2d4d1223d4d5</title>
    <desc>Created with Sketch.</desc>
    <defs></defs>
    <g id="Page-1" stroke="none" stroke-width="1" fill="none" fill-rule="evenodd">
        <g id="a209ca7b50dcaab2db7c2d4d1223d4d5" fill="#222421">
            <path d="M37.7638554,17.9508434 L37.7638554,92.1484337 C37.7638554,93.2009639 37.4978313,94.1031325 36.9773494,94.8318072 C36.4568675,95.5604819 35.6819277,95.9421687 34.6640964,95.9421687 C33.946988,95.9421687 33.253012,95.7686747 32.5821687,95.433253 L3.15759036,80.6978313 C2.26698795,80.2814458 1.52674699,79.5643373 0.91373494,78.5812048 C0.300722892,77.5980723 0,76.6149398 0,75.6433735 L0,3.52771084 C0,2.68337349 0.208192771,1.96626506 0.636144578,1.37638554 C1.05253012,0.786506024 1.66554217,0.485783133 2.47518072,0.485783133 C3.06506024,0.485783133 3.99036145,0.798072289 5.2626506,1.43421687 L37.5903614,17.626988 C37.6944578,17.7657831 37.7638554,17.8698795 37.7638554,17.9508434 L37.7638554,17.9508434 Z M41.8120482,24.346988 L75.5855422,79.1248193 L41.8120482,62.2959036 L41.8120482,24.346988 Z M113.349398,25.4804819 L113.349398,92.1484337 C113.349398,93.2009639 113.048675,94.0568675 112.458795,94.7045783 C111.868916,95.3638554 111.070843,95.6877108 110.053012,95.6877108 C109.035181,95.6877108 108.052048,95.4101205 107.080482,94.866506 L79.1942169,80.9522892 L113.349398,25.4804819 Z M113.164337,17.893012 C113.164337,18.020241 107.751325,26.8684337 96.9368675,44.4260241 C86.1224096,61.9951807 79.7840964,72.2660241 77.933494,75.2616867 L53.2626506,35.1614458 L73.7580723,1.82746988 C74.4751807,0.647710843 75.5739759,0.0578313253 77.0428916,0.0578313253 C77.6327711,0.0578313253 78.1763855,0.185060241 78.6853012,0.439518072 L112.90988,17.5228916 C113.071807,17.5922892 113.164337,17.7195181 113.164337,17.893012 L113.164337,17.893012 Z" id="Shape"></path>
        </g>
    </g>
</svg>