<?xml version="1.0" encoding="UTF-8"?>
<svg width="1171px" height="268px" viewBox="0 0 1171 268" version="1.1" xmlns="http://www.w3.org/2000/svg" xmlns:xlink="http://www.w3.org/1999/xlink">
    <!-- Generator: Sketch 40.3 (33839) - http://www.bohemiancoding.com/sketch -->
    <title>mens-fitness</title>
    <desc>Created with Sketch.</desc>
    <defs>
        <rect id="path-1" x="0.417864078" y="0.143640777" width="1170.34587" height="267.312874"></rect>
        <rect id="path-3" x="0.417864078" y="0.143640777" width="1170.34587" height="267.312874"></rect>
        <rect id="path-5" x="0.417864078" y="0.143640777" width="1170.34587" height="267.312874"></rect>
        <rect id="path-7" x="0.417864078" y="0.143640777" width="1170.34587" height="267.312874"></rect>
        <rect id="path-9" x="0.417864078" y="0.143640777" width="1170.34587" height="267.312874"></rect>
        <rect id="path-11" x="0.417864078" y="0.143640777" width="1170.34587" height="267.312874"></rect>
        <rect id="path-13" x="0.417864078" y="0.143640777" width="1170.34587" height="267.312874"></rect>
        <rect id="path-15" x="0.417864078" y="0.143640777" width="1170.34587" height="267.312874"></rect>
        <rect id="path-17" x="0.417864078" y="0.143640777" width="1170.34587" height="267.312874"></rect>
        <rect id="path-19" x="0.417864078" y="0.143640777" width="1170.34587" height="267.312874"></rect>
        <rect id="path-21" x="0.417864078" y="0.143640777" width="1170.34587" height="267.312874"></rect>
    </defs>
    <g id="Symbols" stroke="none" stroke-width="1" fill="none" fill-rule="evenodd">
        <g id="mens-fitness">
            <mask id="mask-2" fill="white">
                <use xlink:href="#path-1"></use>
            </mask>
            <g id="SVGID_1_"></g>
            <path d="M343.476437,91.7551165 L348.488194,80.6164272 C354.058845,67.8062816 356.840252,60.0105049 357.955427,52.2147282 L344.03533,52.2147282 L344.03533,2.37137864 L320.919612,2.37137864 L321.196447,56.9444272 L321.752728,108.459233 L296.414495,2.37137864 L251.86235,2.37137864 L251.86235,265.231388 L289.731282,265.231388 L289.172388,188.932019 L288.616107,119.879981 L316.461524,264.951942 L358.785932,264.951942 L358.785932,95.9311456 L343.476437,91.7551165 L343.476437,91.7551165 Z" id="Shape" fill="#252522" mask="url(#mask-2)"></path>
            <mask id="mask-4" fill="white">
                <use xlink:href="#path-3"></use>
            </mask>
            <g id="SVGID_3_"></g>
            <path d="M454.855495,128.790932 L417.263398,95.3774757 C411.977417,90.9246117 409.744456,86.7433592 409.744456,78.391301 L409.744456,53.6119612 C409.744456,47.2081942 412.251641,44.1447282 417.537621,44.1447282 L420.877922,44.1447282 C426.166515,44.1447282 428.671087,47.2081942 428.671087,53.6119612 L428.671087,86.4665243 L471.554388,86.4665243 L471.554388,48.8744272 C471.554388,16.2914757 458.190573,0.143640777 430.904049,0.143640777 L407.237272,0.143640777 C396.652252,0.143640777 388.300194,2.64821359 381.614369,7.66258252 L381.614369,36.3437282 C381.614369,58.0622136 379.666078,64.1891456 367.412214,82.5673301 L366.579097,83.9593398 L366.579097,90.922 C366.579097,109.579631 370.757738,120.713097 384.121553,132.131233 L421.716262,165.544689 C427.002243,170.000165 429.235204,174.178806 429.235204,182.528252 L429.235204,213.996029 C429.235204,220.399796 426.728019,223.463262 421.442039,223.463262 L417.260786,223.463262 C411.974806,223.463262 409.467621,220.399796 409.467621,213.996029 L409.467621,173.340466 L366.586932,173.340466 L366.586932,218.72834 C366.586932,251.311291 379.953359,267.456515 407.239883,267.456515 L431.46033,267.456515 C458.749466,267.456515 472.11067,251.303456 472.11067,218.72834 L472.11067,170.279612 C472.118505,150.786252 468.221922,140.485903 454.855495,128.790932" id="Shape" fill="#252522" mask="url(#mask-4)"></path>
            <mask id="mask-6" fill="white">
                <use xlink:href="#path-5"></use>
            </mask>
            <g id="SVGID_5_"></g>
            <rect id="Rectangle-path" fill="#252522" mask="url(#mask-6)" x="592.970019" y="2.37137864" width="43.7164175" height="262.86001"></rect>
            <mask id="mask-8" fill="white">
                <use xlink:href="#path-7"></use>
            </mask>
            <g id="SVGID_7_"></g>
            <polygon id="Shape" fill="#252522" mask="url(#mask-8)" points="205.915583 151.065699 241.838835 151.065699 241.838835 104.008981 205.915583 104.008981 205.915583 49.4307087 243.230845 49.4307087 243.230845 2.37137864 162.199165 2.37137864 162.199165 265.234 244.063961 265.234 244.063961 218.172058 205.915583 218.172058"></polygon>
            <mask id="mask-10" fill="white">
                <use xlink:href="#path-9"></use>
            </mask>
            <g id="SVGID_9_"></g>
            <polygon id="Shape" fill="#252522" mask="url(#mask-10)" points="75.8788932 112.084204 63.3481942 2.37137864 0.417864078 2.37137864 0.417864078 265.234 35.5027767 265.234 35.5027767 109.297573 51.9326699 265.234 93.1419029 265.234 109.571796 111.251087 109.571796 265.234 152.731932 265.234 152.731932 2.37137864 89.524767 2.37137864"></polygon>
            <mask id="mask-12" fill="white">
                <use xlink:href="#path-11"></use>
            </mask>
            <g id="SVGID_11_"></g>
            <polygon id="Shape" fill="#252522" mask="url(#mask-12)" points="507.206029 265.234 550.922447 265.234 550.922447 153.572883 585.171631 153.572883 585.171631 106.793 550.922447 106.793 550.922447 49.4307087 586.843087 49.4307087 586.843087 2.37137864 507.206029 2.37137864"></polygon>
            <mask id="mask-14" fill="white">
                <use xlink:href="#path-13"></use>
            </mask>
            <g id="SVGID_13_"></g>
            <path d="M1153.21867,128.790932 L1115.62135,95.3748641 C1110.33798,90.922 1108.10241,86.7407476 1108.10241,78.3886893 L1108.10241,53.6093495 C1108.10241,47.2055825 1110.60959,44.1421165 1115.89818,44.1421165 L1119.23849,44.1421165 C1124.52447,44.1421165 1127.03165,47.2055825 1127.03165,53.6093495 L1127.03165,86.4639126 L1169.91234,86.4639126 L1169.91234,48.8718155 C1169.91234,16.2888641 1156.55114,0.141029126 1129.53622,0.141029126 L1105.86945,0.141029126 C1078.58031,0.141029126 1065.2165,16.2914757 1065.2165,48.8718155 L1065.2165,90.6399417 C1065.2165,109.300184 1069.39775,120.436262 1082.75895,131.849175 L1120.35627,165.265243 C1125.64225,169.718107 1127.87521,173.899359 1127.87521,182.248806 L1127.87521,213.713971 C1127.87521,220.12035 1125.37064,223.181204 1120.07944,223.181204 L1115.90341,223.181204 C1110.6122,223.181204 1108.10502,220.12035 1108.10502,213.713971 L1108.10502,173.340466 L1065.22433,173.340466 L1065.22433,218.72834 C1065.22433,251.311291 1078.58815,267.456515 1105.87728,267.456515 L1130.09773,267.456515 C1157.38425,267.456515 1170.75068,251.303456 1170.75068,218.72834 L1170.75068,170.279612 C1170.76374,150.786252 1166.58771,140.485903 1153.21867,128.790932" id="Shape" fill="#252522" mask="url(#mask-14)"></path>
            <mask id="mask-16" fill="white">
                <use xlink:href="#path-15"></use>
            </mask>
            <g id="SVGID_15_"></g>
            <path d="M1039.05559,128.790932 L1001.46088,95.3748641 C996.172291,90.922 993.941942,86.7407476 993.941942,78.3886893 L993.941942,53.6093495 C993.941942,47.2055825 996.449126,44.1421165 1001.73511,44.1421165 L1005.0728,44.1421165 C1010.364,44.1421165 1012.86857,47.2055825 1012.86857,53.6093495 L1012.86857,86.4639126 L1055.75187,86.4639126 L1055.75187,48.8718155 C1055.75187,16.2888641 1042.38545,0.141029126 1015.10153,0.141029126 L991.434757,0.141029126 C964.148233,0.141029126 950.784417,16.2914757 950.784417,48.8718155 L950.784417,90.6399417 C950.784417,109.300184 954.96567,120.436262 968.326874,131.849175 L1005.92419,165.265243 C1011.21279,169.718107 1013.44314,173.899359 1013.44314,182.248806 L1013.44314,213.713971 C1013.44314,220.12035 1010.93595,223.181204 1005.64736,223.181204 L1001.46872,223.181204 C996.180126,223.181204 993.675553,220.12035 993.675553,213.713971 L993.675553,173.340466 L950.792252,173.340466 L950.792252,218.72834 C950.792252,251.311291 964.156068,267.456515 991.442592,267.456515 L1015.66826,267.456515 C1042.95479,267.456515 1056.31599,251.303456 1056.31599,218.72834 L1056.31599,170.279612 C1056.3186,150.786252 1052.42202,140.485903 1039.05559,128.790932" id="Shape" fill="#252522" mask="url(#mask-16)"></path>
            <mask id="mask-18" fill="white">
                <use xlink:href="#path-17"></use>
            </mask>
            <g id="SVGID_17_"></g>
            <polygon id="Shape" fill="#252522" mask="url(#mask-18)" points="815.733359 56.9522621 816.292252 108.459233 790.948796 2.37137864 746.399262 2.37137864 746.399262 265.234 784.268194 265.234 783.435078 188.934631 782.876184 126.283748 810.721602 265.234 853.04601 265.234 853.04601 2.37137864 815.453913 2.37137864"></polygon>
            <mask id="mask-20" fill="white">
                <use xlink:href="#path-19"></use>
            </mask>
            <g id="SVGID_19_"></g>
            <polygon id="Shape" fill="#252522" mask="url(#mask-20)" points="906.232272 151.065699 942.152913 151.065699 942.152913 104.008981 906.232272 104.008981 906.232272 49.4307087 943.824369 49.4307087 943.824369 2.37137864 862.513243 2.37137864 862.513243 265.234 944.383262 265.234 944.383262 218.172058 906.232272 218.172058"></polygon>
            <mask id="mask-22" fill="white">
                <use xlink:href="#path-21"></use>
            </mask>
            <g id="SVGID_21_"></g>
            <polygon id="Shape" fill="#252522" mask="url(#mask-22)" points="643.372262 49.4307087 669.82567 49.4307087 669.82567 265.234 713.542087 265.234 713.542087 49.4307087 739.995495 49.4307087 739.995495 2.37137864 643.372262 2.37137864"></polygon>
            <path d="M1161.85279,91.3529223 C1162.96796,91.3529223 1164.35997,91.6323689 1165.47253,92.1886505 C1166.59032,92.744932 1167.70288,93.8627184 1168.25655,94.9726699 C1168.81022,96.0826214 1169.37173,97.4772427 1169.37173,98.5924175 C1169.37173,99.9844272 1169.0975,101.09699 1168.25655,102.212165 C1167.70027,103.329951 1166.58249,104.442515 1165.47253,104.996184 C1164.36258,105.549854 1162.96796,106.108748 1161.85279,106.108748 C1160.46078,106.108748 1159.3456,105.834524 1158.23304,104.996184 C1157.11525,104.439903 1156.00269,103.322117 1155.44902,102.212165 C1154.89013,101.099602 1154.33384,99.7075922 1154.33384,98.5924175 C1154.33384,97.2004078 1154.60807,96.085233 1155.44902,94.9726699 C1156.00791,93.8601068 1157.1257,92.7423204 1158.23304,92.1886505 C1159.34038,91.6349806 1160.73761,91.3529223 1161.85279,91.3529223 L1161.85279,91.3529223 Z M1161.85279,92.4707087 C1160.73761,92.4707087 1159.9045,92.744932 1158.78932,93.3064369 C1157.67415,93.8627184 1157.11525,94.695835 1156.55897,95.5341748 C1155.99747,96.6467379 1155.72585,97.482466 1155.72585,98.5976408 C1155.72585,99.7102039 1155.99747,100.82799 1156.55897,101.661107 C1157.11525,102.776282 1157.94837,103.332563 1158.78932,103.888845 C1159.9045,104.447738 1160.73761,104.724573 1161.85279,104.724573 C1162.96796,104.724573 1164.08314,104.45035 1164.91625,103.888845 C1165.74937,103.332563 1166.59032,102.499447 1167.1466,101.661107 C1167.7055,100.545932 1167.97711,99.7102039 1167.97711,98.5976408 C1167.97711,97.482466 1167.7055,96.3672913 1167.1466,95.5341748 C1166.58771,94.6984466 1165.75459,93.8627184 1164.91625,93.3064369 C1164.08052,92.7475437 1162.96796,92.4707087 1161.85279,92.4707087 L1161.85279,92.4707087 Z M1158.78932,102.771058 L1158.78932,94.695835 L1161.57073,94.695835 C1162.40123,94.695835 1163.2448,94.695835 1163.51641,94.9700583 C1164.0753,95.2468932 1164.35214,95.2468932 1164.63681,95.8057864 C1164.90842,96.0826214 1164.90842,96.6415146 1164.90842,96.9183495 C1164.90842,97.4746311 1164.63681,98.0361359 1164.35214,98.3103592 C1164.0753,98.5898058 1163.23696,98.8666408 1162.68068,99.1460874 C1162.95229,99.1460874 1163.23696,99.425534 1163.23696,99.7023689 C1163.51118,99.9765922 1164.06747,100.538097 1164.35214,101.376437 L1165.4647,103.047893 L1163.79324,103.047893 L1162.96013,101.655883 C1162.40123,100.540709 1161.84495,99.9844272 1161.57073,99.7049806 C1161.2965,99.425534 1161.01183,99.4307573 1160.45294,99.4307573 L1159.62244,99.4307573 L1159.62244,102.771058 C1159.9045,102.771058 1158.78932,102.771058 1158.78932,102.771058 L1158.78932,102.771058 Z M1159.9045,98.3181942 L1161.57856,98.3181942 C1162.40907,98.3181942 1162.97057,98.3181942 1163.25263,98.0413592 C1163.52685,97.7645243 1163.52685,97.4850777 1163.52685,97.2056311 C1163.52685,96.9287961 1163.52685,96.6493495 1163.25263,96.6493495 C1163.25263,96.3725146 1162.9758,96.3725146 1162.69635,96.093068 L1161.30434,96.093068 L1159.91233,96.093068 L1159.9045,98.3181942 L1159.9045,98.3181942 L1159.9045,98.3181942 Z" id="Shape" fill="#252522" mask="url(#mask-22)"></path>
        </g>
    </g>
</svg>