<?xml version="1.0" encoding="UTF-8"?>
<svg width="566px" height="126px" viewBox="0 0 566 126" version="1.1" xmlns="http://www.w3.org/2000/svg" xmlns:xlink="http://www.w3.org/1999/xlink">
    <!-- Generator: Sketch 40.3 (33839) - http://www.bohemiancoding.com/sketch -->
    <title>mens-health</title>
    <desc>Created with Sketch.</desc>
    <defs></defs>
    <g id="Symbols" stroke="none" stroke-width="1" fill="none" fill-rule="evenodd">
        <g id="mens-health" fill="#252522">
            <path d="M530.51817,0.117077719 L530.32304,0.156103625 L506.048926,1.99032122 L505.853797,2.02934713 L505.853797,2.18545075 L505.853797,8.39056984 L505.853797,8.58569938 L506.048926,8.58569938 L509.131973,8.58569938 C510.106709,8.58569938 510.801545,8.80581797 511.278398,9.40524341 C511.755251,10.0046688 512.01989,11.0426955 512.01989,12.7224454 L512.01989,113.565387 C512.019902,114.942458 511.881707,115.781896 511.473527,116.258175 C511.065348,116.734453 510.349431,116.921615 509.131973,116.921615 L508.195351,116.921615 L508.000222,116.921615 L508.000222,117.116745 L508.000222,123.321864 L508.195351,123.321864 L508.195351,123.516993 L508.429507,123.516993 L534.342708,123.516993 L534.537838,123.516993 L534.537838,123.321864 L534.537838,117.116745 L534.537838,116.921615 L534.342708,116.921615 L532.664594,116.921615 C531.674585,116.921615 531.132681,116.81027 530.869403,116.531356 C530.606125,116.252443 530.51817,115.731693 530.51817,114.814216 L530.51817,55.5728905 C530.51817,51.7934844 530.846637,48.4540906 531.962128,46.0895953 C533.07762,43.7250999 534.937388,42.3040824 538.206273,42.3040824 C539.383881,42.3040824 540.298112,42.4963521 540.977112,42.8504451 C541.656113,43.204538 542.116769,43.7183438 542.460097,44.4505072 C543.146753,45.9148466 543.279641,48.2287395 543.279641,51.3971185 L543.279641,114.345905 C543.279628,115.474984 543.00375,116.095877 542.577175,116.453304 C542.1506,116.810732 541.536938,116.921615 540.703931,116.921615 L538.986791,116.921615 L538.791662,116.921615 L538.791662,117.116745 L538.791662,123.321864 L538.791662,123.516993 L538.986791,123.516993 L565.758563,123.516993 L565.953692,123.516993 L565.953692,123.321864 L565.953692,117.116745 L565.953692,116.921615 L565.758563,116.921615 L564.35363,116.921615 C563.289853,116.921615 562.652238,116.775777 562.285257,116.375252 C561.918276,115.974728 561.77792,115.25534 561.77792,114.033698 L561.77792,48.0018647 C561.77792,42.4099706 560.765208,38.0377578 558.343641,35.0842897 C555.922074,32.1308216 552.083536,30.6353364 546.557817,30.6353364 C539.55868,30.6353364 534.510101,34.6580269 530.51817,40.7430461 L530.51817,0.351233156 L530.51817,0.117077719 L530.51817,0.117077719 Z M530.12791,0.546362688 L530.12791,41.3284347 L530.12791,42.030901 L530.51817,41.4455124 C534.519742,35.1362035 539.519866,31.0255955 546.557817,31.0255955 C552.010554,31.0255955 555.697147,32.5104407 558.031433,35.3574711 C560.36572,38.2045015 561.387661,42.4579381 561.387661,48.0018647 L561.387661,114.033698 C561.387661,115.288484 561.528604,116.120766 562.012076,116.648434 C562.495548,117.176101 563.251938,117.311874 564.35363,117.311874 L565.563433,117.311874 L565.563433,123.126734 L539.181921,123.126734 L539.181921,117.311874 L540.703931,117.311874 C541.573079,117.311874 542.308152,117.219823 542.850356,116.765512 C543.39256,116.3112 543.669887,115.537163 543.6699,114.345905 L543.6699,51.3971185 C543.6699,48.2189486 543.556769,45.8840755 542.81133,44.2944036 C542.438617,43.4995614 541.928733,42.893717 541.172242,42.4992119 C540.415751,42.1047068 539.424543,41.9138233 538.206273,41.9138233 C534.820148,41.9138233 532.77544,43.4259929 531.610895,45.8944658 C530.446349,48.3629386 530.12791,51.7718921 530.12791,55.5728905 L530.12791,114.814216 C530.12791,115.753748 530.202603,116.387541 530.596221,116.804537 C530.98984,117.221534 531.643989,117.311874 532.664594,117.311874 L534.147579,117.311874 L534.147579,123.126734 L508.429507,123.126734 L508.429507,117.311874 L509.131973,117.311874 C510.390942,117.311874 511.265722,117.138125 511.785735,116.531356 C512.305747,115.924588 512.449187,114.971956 512.449175,113.565387 L512.449175,12.7224454 C512.449175,11.0003852 512.158385,9.88480623 511.590605,9.17108797 C511.022825,8.45736971 510.167827,8.19544031 509.131973,8.19544031 L506.244056,8.19544031 L506.244056,2.41960619 L530.12791,0.546362688 L530.12791,0.546362688 Z M402.739497,114.195297 C397.784144,114.195297 397.325824,110.942097 397.325824,99.3392268 C397.325824,78.9246191 398.717019,76.1397304 409.545615,70.102891 L409.545615,102.897141 C409.545615,109.401042 408.462881,114.195297 402.739497,114.195297 L402.739497,114.195297 Z M109.255941,68.8740433 C109.71551,41.3373638 110.648385,38.3976204 116.216913,38.3976204 C122.404861,38.3976204 121.781695,41.9555342 121.781695,68.8740433 L109.255941,68.8740433 L109.255941,68.8740433 Z M116.216913,124.869038 C131.377697,124.869038 139.111695,118.367634 137.25094,94.8584283 L130.758278,94.8584283 C131.217847,114.656114 127.969643,116.515621 120.702707,116.515621 C110.028966,116.515621 109.254692,110.942097 109.254692,78.1515939 L109.254692,75.3679541 L138.796991,75.3679541 C138.796991,42.2664926 132.454188,30.8234725 116.215665,30.8234725 C101.205989,30.8234725 89.6081139,46.7522864 89.6081139,78.4613035 C89.6093627,113.262421 100.284353,124.869038 116.216913,124.869038 L116.216913,124.869038 Z M226.454796,124.869038 C239.753576,124.869038 247.179113,115.892455 247.179113,102.27897 C247.179113,88.0510614 242.23375,81.868109 232.019578,70.5712019 C222.278712,59.8974604 218.565943,55.8774799 218.565943,47.061996 C218.565943,41.9555342 220.266848,38.7085788 226.145086,38.7085788 C232.019578,38.7085788 235.426383,41.0289031 236.505372,49.9967441 L237.588106,58.6636174 L244.395473,58.6636174 L244.395473,32.3695228 L238.826945,32.3695228 C238.52223,35.6152294 238.52223,37.4697404 237.589355,37.0026784 C236.201906,35.7700842 230.788232,30.8222237 223.052986,30.8222237 C212.379244,30.8222237 202.788237,37.6245952 202.788237,52.6292757 C202.788237,66.7048273 207.583741,72.272107 217.947773,84.0335785 C226.920609,94.2390091 231.401407,98.7248029 231.401407,107.073225 C231.401407,113.725737 229.549394,117.438505 222.588421,117.438505 C216.706437,117.438505 212.838813,114.654866 210.9868,102.895892 L209.74921,94.8559306 L202.943092,94.8559306 L202.943092,123.32049 L208.666475,123.32049 C209.284646,120.377 210.831945,117.592111 212.224389,118.519991 C214.232506,120.842813 218.874404,124.869038 226.454796,124.869038 L226.454796,124.869038 Z M353.49817,124.869038 C368.658954,124.869038 376.392952,118.367634 374.532197,94.8584283 L368.039535,94.8584283 C368.504099,114.656114 365.255895,116.515621 357.983964,116.515621 C347.310222,116.515621 346.537197,110.942097 346.537197,78.1515939 L346.537197,75.3679541 L376.078247,75.3679541 C376.078247,42.2664926 369.741689,30.8234725 353.49817,30.8234725 C338.492241,30.8234725 326.890619,46.7522864 326.890619,78.4613035 C326.890619,113.262421 337.569356,124.869038 353.49817,124.869038 L353.49817,124.869038 Z M395.005499,124.869038 C404.133191,124.869038 408.617735,118.367634 411.094163,113.726986 C412.640214,120.841564 414.647082,124.869038 424.08698,124.869038 C434.91183,124.869038 437.38576,118.367634 437.38576,105.687025 L431.822227,105.687025 C431.822227,114.814716 431.507522,115.742596 429.501903,115.742596 C427.641148,115.742596 427.641148,114.969571 427.641148,109.859362 L427.641148,53.5584044 C427.641148,35.4566281 417.900281,30.8234725 405.06107,30.8234725 C388.662697,30.8234725 379.3814,42.2664926 385.570596,53.7132592 C388.199381,58.5062649 393.304594,59.8987093 397.631787,56.6530027 C402.122576,53.2524413 402.895601,46.1316184 391.448834,40.4132304 C392.994885,39.0182884 397.480678,37.77945 400.575277,37.77945 C409.548113,37.77945 409.548113,41.0326496 409.548113,49.3860668 L409.548113,65.1600259 C387.27275,72.7441644 379.538752,76.9165021 379.538752,100.897765 C379.536255,119.454115 386.650833,124.869038 395.005499,124.869038 L395.005499,124.869038 Z M138.698333,123.322988 L166.851934,123.322988 L166.851934,117.13504 L165.146034,117.13504 C163.135419,117.13504 162.825709,116.666729 162.825709,114.814716 L162.825709,55.5715168 C162.825709,47.9911248 164.063299,42.1116378 170.714562,42.1116378 C175.510065,42.1116378 175.978376,45.0513813 175.978376,51.392935 L175.978376,114.346405 C175.978376,116.666729 174.890646,117.13504 173.189741,117.13504 L171.488836,117.13504 L171.488836,123.322988 L198.246246,123.322988 L198.246246,117.13504 L196.858797,117.13504 C194.693328,117.13504 194.075157,116.515621 194.075157,114.040442 L194.075157,47.9911248 C194.075157,36.8515701 190.052679,30.8222237 179.074223,30.8222237 C171.953401,30.8222237 166.539727,34.997059 162.517249,41.336115 L162.517249,31.2817927 L138.544727,32.9826978 L138.544727,39.1706455 L141.639325,39.1706455 C143.64994,39.1706455 144.733924,40.1010231 144.733924,43.5015845 L144.733924,113.572131 C144.733924,116.360766 144.109509,117.13504 141.639325,117.13504 L138.699582,117.13504 L138.699582,123.322988 L138.698333,123.322988 L138.698333,123.322988 Z M473.170955,104.600543 C473.170955,119.300509 475.18157,124.869038 489.722935,124.869038 C499.15534,124.869038 505.498143,120.841564 505.498143,107.389178 L505.498143,94.2402579 L498.850626,94.2402579 L498.850626,108.781623 C498.850626,114.196545 498.077601,116.362015 494.983003,116.362015 C491.888404,116.362015 491.270234,114.196545 491.270234,109.401042 L491.270234,39.1718944 L505.188433,39.1718944 L505.188433,32.3695228 L491.425089,32.3695228 L491.425089,8.39075717 L485.083535,8.39075717 C477.967707,29.8905972 474.718254,32.3707716 468.840016,32.3707716 L466.984256,32.3707716 L466.984256,39.0182884 L473.172204,39.0182884 L473.172204,104.600543 L473.170955,104.600543 L473.170955,104.600543 Z M0.639038288,123.322988 L24.7764052,123.322988 L24.7764052,117.13504 L21.0636366,117.13504 C17.6555822,117.13504 16.1132784,113.107566 16.1132784,107.539038 L16.1132784,30.045452 L35.6000061,123.163138 L44.8813033,123.163138 L64.3717775,29.7369913 L64.3717775,109.085088 C64.3717775,114.654866 63.4438975,117.133791 60.3492993,117.133791 L56.0183603,117.133791 L56.0183603,123.321739 L90.819478,123.321739 L90.819478,117.133791 L88.1894442,117.133791 C85.0960947,117.133791 84.1719613,114.654866 84.1719613,109.085088 L84.1719613,16.4344648 C84.1719613,10.8671851 85.0960947,8.39075717 88.1894442,8.39075717 L90.819478,8.39075717 L90.819478,2.20280947 L61.7429924,2.20280947 L46.5822084,78.6211536 L30.4947932,2.20280947 L0.639038288,2.20280947 L0.639038288,8.39075717 L3.11921268,8.39075717 C6.21381094,8.39075717 8.06957084,12.1035258 8.06957084,17.8294068 L8.06957084,107.540287 C8.06957084,113.108815 6.21381094,117.136289 3.11921268,117.136289 L0.639038288,117.136289 L0.639038288,123.322988 L0.639038288,123.322988 Z M249.967748,123.322988 L285.078575,123.322988 L285.078575,117.13504 L281.520662,117.13504 C278.267462,117.13504 277.344577,116.04731 277.344577,110.633636 L277.344577,65.7819427 L300.85753,65.7819427 L300.85753,110.633636 C300.85753,116.04731 299.7698,117.13504 296.67645,117.13504 L293.122283,117.13504 L293.122283,123.322988 L328.078256,123.322988 L328.078256,117.13504 L324.983657,117.13504 C321.734204,117.13504 320.81132,116.04731 320.81132,110.633636 L320.81132,14.8896633 C320.81132,9.31613946 321.734204,8.39075717 324.983657,8.39075717 L328.078256,8.39075717 L328.078256,2.20280947 L293.122283,2.20280947 L293.122283,8.39075717 L296.67645,8.39075717 C299.7698,8.39075717 300.85753,9.31613946 300.85753,14.8896633 L300.85753,58.5062649 L277.344577,58.5062649 L277.344577,14.8896633 C277.344577,9.31613946 278.267462,8.39075717 281.520662,8.39075717 L285.078575,8.39075717 L285.078575,2.20280947 L249.967748,2.20280947 L249.967748,8.39075717 L253.212206,8.39075717 C256.46041,8.39075717 257.38829,9.31613946 257.38829,14.8896633 L257.38829,113.728234 C257.38829,116.362015 256.46041,117.136289 253.212206,117.136289 L249.967748,117.136289 L249.967748,123.322988 L249.967748,123.322988 Z M439.452572,123.322988 L468.065742,123.322988 L468.065742,117.13504 L464.352974,117.13504 C462.342359,117.13504 461.569334,116.362015 461.569334,113.88184 L461.569334,0.348298408 L437.287103,2.20156064 L437.287103,8.38950834 L440.686415,8.38950834 C442.702025,8.38950834 443.475051,9.00767869 443.475051,11.4816089 L443.475051,114.195297 C443.475051,116.514372 443.160346,117.13504 440.999871,117.13504 L439.453821,117.13504 L439.453821,123.322988 L439.452572,123.322988 L439.452572,123.322988 Z M508.208102,123.322988 L534.351088,123.322988 L534.351088,117.13504 L532.645188,117.13504 C530.639568,117.13504 530.326112,116.666729 530.326112,114.814716 L530.326112,55.5715168 C530.326112,47.9911248 531.563702,42.1116378 538.218711,42.1116378 C543.010468,42.1116378 543.473784,45.0513813 543.473784,51.392935 L543.473784,114.346405 C543.473784,116.666729 542.392298,117.13504 540.690144,117.13504 L538.994234,117.13504 L538.994234,123.322988 L565.746649,123.322988 L565.746649,117.13504 L564.355454,117.13504 C562.193731,117.13504 561.574311,116.515621 561.574311,114.040442 L561.574311,47.9911248 C561.574311,36.8515701 557.551833,30.8222237 546.568382,30.8222237 C539.453803,30.8222237 534.352337,34.997059 530.326112,41.336115 L530.326112,0.348298408 L506.038886,2.20156064 L506.038886,8.38950834 L509.137231,8.38950834 C511.14285,8.38950834 512.231829,9.31489063 512.231829,12.7204473 L512.231829,113.572131 C512.231829,116.360766 511.613658,117.13504 509.137231,117.13504 L508.209351,117.13504 L508.209351,123.322988 L508.208102,123.322988 L508.208102,123.322988 Z M198.714557,35.4566281 C214.178807,23.8612508 217.273405,15.1968752 212.171938,7.3067736 C209.388299,2.97583462 203.045496,0.193443612 198.404848,4.0598182 C192.831324,8.70046676 194.228763,16.8952827 204.592795,21.3810764 C202.73204,23.5490436 198.404848,27.8799825 194.846934,31.2817927 L198.714557,35.4566281 L198.714557,35.4566281 Z M346.535948,68.8740433 C347.004259,41.3373638 347.928393,38.3976204 353.496921,38.3976204 C359.684869,38.3976204 359.06545,41.9555342 359.06545,68.8740433 L346.535948,68.8740433 L346.535948,68.8740433 Z M179.089884,30.6353364 C172.102323,30.6353364 166.744934,34.6395442 162.738029,40.7040202 L162.738029,31.2987768 L162.738029,31.0646214 L162.503874,31.1036473 L138.541967,32.7817613 L138.346838,32.7817613 L138.346838,32.9768908 L138.346838,39.1820099 L138.346838,39.3771394 L138.541967,39.3771394 L141.625014,39.3771394 C142.597839,39.3771394 143.294099,39.5973329 143.771439,40.1966834 C144.248779,40.7960339 144.551957,41.8348474 144.551957,43.5138855 L144.551957,113.565387 C144.551957,114.942346 144.37541,115.781759 143.966568,116.258175 C143.557727,116.73459 142.839925,116.921615 141.625014,116.921615 L138.698071,116.921615 L138.502941,116.921615 L138.502941,117.116745 L138.502941,123.321864 L138.502941,123.516993 L138.698071,123.516993 L166.874775,123.516993 L167.069905,123.516993 L167.069905,123.321864 L167.069905,117.116745 L167.069905,116.921615 L166.874775,116.921615 L165.157635,116.921615 C164.167626,116.921615 163.626021,116.810332 163.362444,116.531356 C163.098866,116.25238 163.01121,115.731643 163.01121,114.814216 L163.01121,55.5728905 C163.01121,51.7935218 163.338891,48.4541156 164.455169,46.0895953 C165.571447,43.7250749 167.43234,42.3040824 170.699314,42.3040824 C171.877871,42.3040824 172.791115,42.4963646 173.470153,42.8504451 C174.149192,43.2045255 174.610197,43.7183562 174.953138,44.4505072 C175.639032,45.9147967 175.772682,48.2286895 175.772682,51.3971185 L175.772682,114.345905 C175.772694,115.475084 175.534717,116.095989 175.109241,116.453304 C174.683765,116.810619 174.029341,116.921615 173.196972,116.921615 L171.479832,116.921615 L171.284703,116.921615 L171.284703,117.116745 L171.284703,123.321864 L171.284703,123.516993 L171.479832,123.516993 L198.251604,123.516993 L198.446733,123.516993 L198.446733,123.321864 L198.446733,117.116745 L198.446733,116.921615 L198.251604,116.921615 L196.846671,116.921615 C195.782881,116.921615 195.184305,116.775777 194.817324,116.375252 C194.450343,115.974728 194.270961,115.25534 194.270961,114.033698 L194.270961,48.0018647 C194.270961,42.4099706 193.258248,38.0377578 190.836682,35.0842897 C188.415115,32.1308216 184.615602,30.6353364 179.089884,30.6353364 L179.089884,30.6353364 Z M179.089884,31.0255955 C184.542621,31.0255955 188.190188,32.5104407 190.524474,35.3574711 C192.858761,38.2045015 193.880702,42.4579381 193.880702,48.0018647 L193.880702,114.033698 C193.880702,115.288484 194.021645,116.120766 194.505117,116.648434 C194.988588,117.176101 195.744979,117.311874 196.846671,117.311874 L198.056474,117.311874 L198.056474,123.126734 L171.674962,123.126734 L171.674962,117.311874 L173.196972,117.311874 C174.065508,117.311874 174.802279,117.219935 175.343397,116.765512 C175.884514,116.311088 176.162953,115.537051 176.162941,114.345905 L176.162941,51.3971185 C176.162941,48.2189986 176.088036,45.8841254 175.343397,44.2944036 C174.971071,43.4995489 174.421848,42.893717 173.665283,42.4992119 C172.908717,42.1047068 171.918508,41.9138233 170.699314,41.9138233 C167.315025,41.9138233 165.269268,43.4260179 164.103936,45.8944658 C162.938603,48.3629136 162.620951,51.7718422 162.620951,55.5728905 L162.620951,114.814216 C162.620951,115.753798 162.695332,116.387603 163.089262,116.804537 C163.483193,117.221471 164.13703,117.311874 165.157635,117.311874 L166.64062,117.311874 L166.64062,123.126734 L138.8932,123.126734 L138.8932,117.311874 L141.625014,117.311874 C142.881536,117.311874 143.758189,117.137987 144.278775,116.531356 C144.799362,115.924725 144.942216,114.972068 144.942216,113.565387 L144.942216,43.5138855 C144.942216,41.7923622 144.651888,40.6369831 144.083646,39.9235021 C143.515404,39.2100211 142.659069,38.9868803 141.625014,38.9868803 L138.737097,38.9868803 L138.737097,33.1720203 L162.308744,31.4939063 L162.308744,41.3284347 L162.308744,42.030901 L162.699003,41.4455124 C166.698103,35.1400874 172.0469,31.0255955 179.089884,31.0255955 L179.089884,31.0255955 Z M116.219149,30.6353364 C108.64384,30.6353364 101.93809,34.6634343 97.1354807,42.6553155 C92.3328715,50.6471967 89.4083512,62.5632733 89.4083512,78.4420716 C89.4083637,95.8636108 92.0905362,107.511314 96.7842475,114.814216 C101.477959,122.117118 108.203902,125.07803 116.219149,125.07803 C123.827377,125.07803 129.627938,123.420734 133.27347,118.794859 C136.919002,114.168984 138.381443,106.612507 137.449242,94.8329522 L137.449242,94.6378227 L137.254112,94.6378227 L130.775812,94.6378227 L130.541656,94.6378227 L130.580682,94.8719781 C130.812702,104.76103 130.096836,110.150239 128.473283,113.019025 C127.661507,114.453417 126.632547,115.242315 125.351211,115.711812 C124.069875,116.181309 122.51507,116.297201 120.707128,116.297201 C118.056014,116.297201 116.065405,115.972543 114.541035,114.97032 C113.016664,113.968097 111.94126,112.303858 111.184807,109.584745 C109.671913,104.146532 109.467667,94.5254156 109.467667,78.1298643 C109.467655,77.5587124 109.467667,76.6616285 109.467667,75.5541545 L138.815149,75.5541545 L139.010278,75.5541545 L139.010278,75.359025 C139.010291,58.7955687 137.424965,47.6420771 133.780807,40.5869425 C130.136649,33.5318079 124.385217,30.6353364 116.219149,30.6353364 L116.219149,30.6353364 Z M116.219149,31.0255955 C124.291604,31.0255955 129.842699,33.8378335 133.429573,40.782072 C137.001112,47.6966134 138.606457,58.7428056 138.620019,75.1638954 L109.272537,75.1638954 L109.077408,75.1638954 L109.077408,75.359025 C109.077408,76.592868 109.077395,77.515428 109.077408,78.1298643 C109.077408,94.5285626 109.251882,104.117559 110.794548,109.662797 C111.565887,112.435409 112.684089,114.215602 114.306879,115.282527 C115.92967,116.349452 118.021371,116.726486 120.707128,116.726486 C122.532029,116.726486 124.110699,116.599517 125.468289,116.102071 C126.825878,115.604625 127.972853,114.719043 128.824517,113.214154 C130.510948,110.234261 131.183167,104.792126 130.970941,95.0671076 L137.058983,95.0671076 C137.952795,106.677184 136.486445,114.08756 132.961263,118.560703 C129.414476,123.061271 123.770468,124.648745 116.219149,124.648745 C108.300586,124.648745 101.723066,121.817587 97.0964547,114.619087 C92.469843,107.420587 89.7986228,95.8228864 89.7986103,78.4420716 C89.7986103,62.6118527 92.6989282,50.7527228 97.4476879,42.8504451 C102.196448,34.9481674 108.784807,31.0255955 116.219149,31.0255955 L116.219149,31.0255955 Z M116.219149,38.2063622 C114.809496,38.2063622 113.634472,38.3968211 112.706817,39.142984 C111.779162,39.8891468 111.136515,41.1313195 110.638444,43.2407041 C109.642303,47.4594608 109.309715,55.1121475 109.077408,68.8807245 L109.077408,69.0758541 L109.272537,69.0758541 L121.799853,69.0758541 L121.994983,69.0758541 L121.994983,68.8807245 C121.994983,55.4255037 122.149913,47.8057361 121.526672,43.5138855 C121.215052,41.3679602 120.713023,40.0240703 119.848558,39.2210358 C118.984094,38.4180013 117.78523,38.2063622 116.219149,38.2063622 L116.219149,38.2063622 Z M116.219149,38.5966213 C117.747054,38.5966213 118.816326,38.8281292 119.575377,39.533243 C120.334428,40.2383569 120.830338,41.4451753 121.136413,43.5529114 C121.744867,47.7428825 121.606522,55.3788599 121.604724,68.685595 L109.467667,68.685595 C109.699974,55.0756443 110.058438,47.4669163 111.028703,43.3577818 C111.516733,41.2909199 112.153012,40.1203925 112.979999,39.4551912 C113.806986,38.78999 114.844538,38.5966213 116.219149,38.5966213 L116.219149,38.5966213 Z M353.496659,38.2063622 C352.087006,38.2063622 350.911683,38.3966213 349.984327,39.142984 C349.056972,39.8893466 348.413787,41.1699708 347.915954,43.27973 C346.920288,47.4992485 346.589111,55.1102743 346.354918,68.8807245 L346.315892,69.0758541 L346.550048,69.0758541 L359.077363,69.0758541 L359.272493,69.0758541 L359.272493,68.8807245 C359.272493,55.4229936 359.428372,47.806373 358.804182,43.5138855 C358.492087,41.3676355 357.990882,40.0241327 357.126068,39.2210358 C356.261254,38.4179388 355.06274,38.2063622 353.496659,38.2063622 L353.496659,38.2063622 Z M353.496659,38.5966213 C355.024564,38.5966213 356.093474,38.8280293 356.852887,39.533243 C357.6123,40.2384568 358.107385,41.444863 358.413923,43.5529114 C359.023289,47.743482 358.88402,55.3763997 358.882234,68.685595 L346.745177,68.685595 C346.979332,55.073771 347.336398,47.467728 348.306213,43.3577818 C348.794018,41.2905203 349.430809,40.1205423 350.257509,39.4551912 C351.084208,38.7898401 352.122048,38.5966213 353.496659,38.5966213 L353.496659,38.5966213 Z M202.076143,2.14642484 C200.752122,2.36729274 199.47698,2.91386773 198.29063,3.90259063 C195.453265,6.26506289 194.354733,9.57568359 195.324661,12.8395232 C196.278516,16.0492635 199.201051,19.211236 204.261593,21.4642484 C202.356118,23.656805 198.184879,27.8072632 194.700246,31.1426732 L194.583169,31.2597509 L194.700246,31.4158545 L198.563811,35.5916265 L198.680889,35.7087042 L198.836992,35.6306524 C206.583042,29.8206378 211.262379,24.7128148 213.354629,20.0593158 C215.44688,15.4058168 214.918675,11.1710002 212.339956,7.18076675 C210.921411,4.97627136 208.621293,3.18897227 206.056785,2.41960619 C204.774525,2.0349169 203.400164,1.92555695 202.076143,2.14642484 L202.076143,2.14642484 Z M202.154194,2.53668391 C203.41164,2.32759247 204.708225,2.44041168 205.939707,2.80986525 C208.40266,3.54877239 210.623615,5.29347392 211.988723,7.41492219 C214.51147,11.3185369 215.010115,15.3531537 212.96437,19.9032122 C210.932263,24.4229366 206.345564,29.421612 198.719915,35.1623415 L195.129531,31.2597509 C198.656587,27.8779844 202.884834,23.6529961 204.729904,21.5032743 L204.925034,21.3081448 L204.690878,21.1910671 C199.546465,18.963818 196.641326,15.8398099 195.71492,12.7224454 C194.788514,9.60508102 195.788663,6.49297418 198.524785,4.21479788 C199.658759,3.26970906 200.896748,2.74577535 202.154194,2.53668391 L202.154194,2.53668391 Z M461.754523,0.117077719 L461.559393,0.156103625 L437.28528,1.99032122 L437.09015,2.02934713 L437.09015,2.18545075 L437.09015,8.39056984 L437.09015,8.58569938 L437.28528,8.58569938 L440.680533,8.58569938 C441.667321,8.58569938 442.322369,8.72739151 442.70988,9.13206206 C443.097392,9.53673261 443.295269,10.2572945 443.295269,11.4736164 L443.295269,114.189802 C443.295257,115.34111 443.196349,116.04194 442.90501,116.414278 C442.759334,116.600454 442.546184,116.718393 442.24157,116.804537 C441.936955,116.890682 441.524617,116.921615 440.992741,116.921615 L439.47073,116.921615 L439.236575,116.921615 L439.236575,117.116745 L439.236575,123.321864 L439.47073,123.321864 L439.47073,123.516993 L439.66586,123.516993 L468.07672,123.516993 L468.271849,123.516993 L468.271849,123.321864 L468.271849,117.116745 L468.271849,116.921615 L468.07672,116.921615 L464.369258,116.921615 C463.389477,116.921615 462.771969,116.741709 462.378937,116.297201 C461.985906,115.852692 461.754523,115.095078 461.754523,113.877594 L461.754523,0.351233156 L461.754523,0.117077719 L461.754523,0.117077719 Z M461.364264,0.546362688 L461.364264,113.877594 C461.364264,115.136539 461.570595,116.009271 462.06673,116.570382 C462.562865,117.131493 463.338425,117.311874 464.369258,117.311874 L467.88159,117.311874 L467.88159,123.126734 L439.66586,123.126734 L439.66586,117.311874 L440.992741,117.311874 C441.543599,117.311874 441.99615,117.2973 442.358647,117.194796 C442.721145,117.092293 443.01477,116.907154 443.217217,116.648434 C443.6221,116.130981 443.685516,115.358831 443.685528,114.189802 L443.685528,11.4736164 C443.685528,10.2160082 443.48378,9.38177791 442.983062,8.85888072 C442.482344,8.33598353 441.708082,8.19544031 440.680533,8.19544031 L437.480409,8.19544031 L437.480409,2.41960619 L461.364264,0.546362688 L461.364264,0.546362688 Z M249.7658,1.99032122 L249.7658,2.18545075 L249.7658,8.39056984 L249.7658,8.58569938 L249.96093,8.58569938 L253.20008,8.58569938 C254.002665,8.58569938 254.678906,8.65655793 255.190401,8.81985481 C255.701896,8.98315169 256.065955,9.2501888 256.361178,9.67842475 C256.951612,10.5348842 257.180722,12.0963575 257.180722,14.8688703 L257.180722,113.721491 C257.180735,115.012318 256.975727,115.788053 256.400204,116.258175 C255.824681,116.728296 254.808359,116.921615 253.20008,116.921615 L249.96093,116.921615 L249.7658,116.921615 L249.7658,117.116745 L249.7658,123.321864 L249.7658,123.516993 L249.96093,123.516993 L285.084245,123.516993 L285.279375,123.516993 L285.279375,123.321864 L285.279375,117.116745 L285.279375,116.921615 L285.084245,116.921615 L281.532888,116.921615 C280.73285,116.921615 280.091602,116.862171 279.581592,116.68746 C279.071583,116.512749 278.667375,116.229102 278.371789,115.789864 C277.780631,114.911388 277.552245,113.333904 277.552245,110.638444 L277.552245,65.9537816 L300.655582,65.9537816 L300.655582,110.638444 C300.655594,113.331994 300.3693,114.90904 299.757986,115.789864 C299.452335,116.230276 299.091136,116.512724 298.587209,116.68746 C298.083281,116.862196 297.436975,116.921615 296.674939,116.921615 L293.123582,116.921615 L292.928452,116.921615 L292.928452,117.116745 L292.928452,123.321864 L292.928452,123.516993 L293.123582,123.516993 L328.090794,123.516993 L328.285923,123.516993 L328.285923,123.321864 L328.285923,117.116745 L328.285923,116.921615 L328.090794,116.921615 L324.968721,116.921615 C324.167423,116.921615 323.527648,116.862171 323.017426,116.68746 C322.507204,116.512749 322.141909,116.229065 321.846649,115.789864 C321.256128,114.911463 321.027105,113.333967 321.027105,110.638444 L321.027105,14.8688703 C321.027105,12.0962326 321.25845,10.5347593 321.846649,9.67842475 C322.140748,9.25025124 322.506755,8.98311423 323.017426,8.81985481 C323.528097,8.6565954 324.165812,8.58569938 324.968721,8.58569938 L328.090794,8.58569938 L328.285923,8.58569938 L328.285923,8.39056984 L328.285923,2.18545075 L328.285923,1.99032122 L328.090794,1.99032122 L293.123582,1.99032122 L292.928452,1.99032122 L292.928452,2.18545075 L292.928452,8.39056984 L292.928452,8.58569938 L293.123582,8.58569938 L296.674939,8.58569938 C297.438661,8.58569938 298.082894,8.6565954 298.587209,8.81985481 C299.091523,8.98311423 299.453496,9.2490149 299.757986,9.67842475 C300.366977,10.5372445 300.655582,12.0981433 300.655582,14.8688703 L300.655582,58.3047039 L277.552245,58.3047039 L277.552245,14.8688703 C277.552258,12.0962951 277.782966,10.5348467 278.371789,9.67842475 C278.666201,9.25021377 279.03212,8.98311423 279.542566,8.81985481 C280.053013,8.6565954 280.731239,8.58569938 281.532888,8.58569938 L285.084245,8.58569938 L285.279375,8.58569938 L285.279375,8.39056984 L285.279375,2.18545075 L285.279375,1.99032122 L285.084245,1.99032122 L249.96093,1.99032122 L249.7658,1.99032122 L249.7658,1.99032122 Z M250.156059,2.41960619 L284.889116,2.41960619 L284.889116,8.19544031 L281.532888,8.19544031 C280.712307,8.19544031 280.001524,8.2453685 279.425489,8.42959575 C278.849454,8.613823 278.402698,8.94522476 278.059582,9.44426931 C277.37335,10.4423584 277.161999,12.0741658 277.161986,14.8688703 L277.161986,58.4998335 L277.161986,58.694963 L277.357116,58.694963 L300.850711,58.694963 L301.045841,58.694963 L301.045841,58.4998335 L301.045841,14.8688703 C301.045841,12.0723175 300.815245,10.4399482 300.109219,9.44426931 C299.7562,8.94642363 299.27334,8.613823 298.704286,8.42959575 C298.135233,8.2453685 297.458517,8.19544031 296.674939,8.19544031 L293.318711,8.19544031 L293.318711,2.41960619 L327.895664,2.41960619 L327.895664,8.19544031 L324.968721,8.19544031 C324.146904,8.19544031 323.476633,8.2453685 322.900348,8.42959575 C322.324064,8.613823 321.838219,8.94518729 321.495416,9.44426931 C320.809809,10.4424458 320.59782,12.0742283 320.59782,14.8688703 L320.59782,110.638444 C320.59782,113.356595 320.812131,115.007635 321.495416,116.024019 C321.837058,116.532205 322.323627,116.880241 322.900348,117.077719 C323.47707,117.275196 324.145293,117.311874 324.968721,117.311874 L327.895664,117.311874 L327.895664,123.126734 L293.318711,123.126734 L293.318711,117.311874 L296.674939,117.311874 C297.460203,117.311874 298.134845,117.275171 298.704286,117.077719 C299.273727,116.880266 299.757374,116.530994 300.109219,116.024019 C300.812922,115.010058 301.045853,113.358556 301.045841,110.638444 L301.045841,65.758652 L301.045841,65.5635225 L300.850711,65.5635225 L277.357116,65.5635225 L277.161986,65.5635225 L277.161986,65.758652 L277.161986,110.638444 C277.161986,113.356658 277.375673,115.00771 278.059582,116.024019 C278.401536,116.532168 278.849004,116.880241 279.425489,117.077719 C280.001973,117.275196 280.710684,117.311874 281.532888,117.311874 L284.889116,117.311874 L284.889116,123.126734 L250.156059,123.126734 L250.156059,117.311874 L253.20008,117.311874 C254.840005,117.311874 255.931406,117.144594 256.634359,116.570382 C257.337313,115.99617 257.61002,115.059449 257.610007,113.721491 L257.610007,14.8688703 C257.610007,12.0741034 257.361428,10.442321 256.673385,9.44426931 C256.329358,8.94524973 255.88445,8.61378554 255.307479,8.42959575 C254.730507,8.24540596 254.021584,8.19544031 253.20008,8.19544031 L250.156059,8.19544031 L250.156059,2.41960619 L250.156059,2.41960619 Z M0.429284969,1.99032122 L0.429284969,2.18545075 L0.429284969,8.39056984 L0.429284969,8.58569938 L0.663440406,8.58569938 L3.1220725,8.58569938 C4.58982122,8.58569938 5.76590593,9.44451908 6.59537816,11.0443315 C7.42485038,12.6441439 7.88323306,14.993466 7.88323306,17.8348392 L7.88323306,107.555398 C7.88322057,110.31747 7.42669864,112.685237 6.59537816,114.345905 C5.76405767,116.006573 4.58240318,116.921615 3.1220725,116.921615 L0.663440406,116.921615 L0.429284969,116.921615 L0.429284969,117.116745 L0.429284969,123.321864 L0.429284969,123.516993 L0.663440406,123.516993 L24.7814505,123.516993 L24.97658,123.516993 L24.97658,123.321864 L24.97658,117.116745 L24.97658,116.921615 L24.7814505,116.921615 L21.0739894,116.921615 C19.4483387,116.921615 18.2753636,116.0041 17.483606,114.345905 C16.6918484,112.68771 16.3128288,110.321229 16.3128288,107.555398 L16.3128288,31.9622172 L35.396497,123.204786 L35.4355229,123.36089 L35.5916265,123.36089 L44.8797922,123.36089 L45.0358958,123.36089 L45.0749217,123.204786 L64.1585899,31.8451395 L64.1585899,109.077408 C64.1585899,111.851232 63.9326767,113.865181 63.3390458,115.126423 C62.745415,116.387666 61.8673009,116.921615 60.373077,116.921615 L56.0412014,116.921615 L55.8070459,116.921615 L55.8070459,117.116745 L55.8070459,123.321864 L55.8070459,123.516993 L56.0412014,123.516993 L90.8132838,123.516993 L91.0084134,123.516993 L91.0084134,123.321864 L91.0084134,117.116745 L91.0084134,116.921615 L90.8132838,116.921615 L88.1985481,116.921615 C86.7043367,116.921615 85.7859853,116.387666 85.1935533,115.126423 C84.6011214,113.865181 84.3740093,111.851294 84.3740093,109.077408 L84.3740093,16.4299065 C84.3739968,13.6572939 84.600984,11.6805349 85.1935533,10.419917 C85.7861227,9.15929902 86.7049486,8.58569938 88.1985481,8.58569938 L90.8132838,8.58569938 L91.0084134,8.58569938 L91.0084134,8.39056984 L91.0084134,2.18545075 L91.0084134,1.99032122 L90.8132838,1.99032122 L61.7389837,1.99032122 L61.5828801,1.99032122 L61.5438542,2.14642484 L46.5969321,77.6225275 L30.6743623,2.14642484 L30.6743623,1.99032122 L30.4792328,1.99032122 L0.663440406,1.99032122 L0.429284969,1.99032122 L0.429284969,1.99032122 Z M0.858569937,2.41960619 L30.3621551,2.41960619 L46.4018025,78.5591493 L46.4018025,78.6372011 L46.7920616,78.6372011 L46.7920616,78.5591493 L61.8950873,2.41960619 L90.6181543,2.41960619 L90.6181543,8.19544031 L88.1985481,8.19544031 C86.5987982,8.19544031 85.4851549,8.85724475 84.8423202,10.2247874 C84.1994855,11.5923301 83.9837378,13.635252 83.9837502,16.4299065 L83.9837502,109.077408 C83.9837502,111.873299 84.1996603,113.91436 84.8423202,115.282527 C85.4849801,116.650694 86.5981738,117.311874 88.1985481,117.311874 L90.6181543,117.311874 L90.6181543,123.126734 L56.2363309,123.126734 L56.2363309,117.311874 L60.373077,117.311874 C61.9734513,117.311874 63.0463203,116.650682 63.690279,115.282527 C64.3342377,113.914372 64.5878748,111.873349 64.5878748,109.077408 L64.5878748,29.7767665 L64.5878748,29.7377406 L64.3927453,29.7377406 L64.1976158,29.6987147 L64.1976158,29.7377406 L64.1585899,29.7377406 L64.1585899,29.8938442 L44.7236886,122.970631 L35.7477301,122.970631 L16.3128288,30.0499478 L16.3128288,30.0109219 L16.1176993,30.0499478 L15.9225697,30.0499478 L15.9225697,30.0889737 L15.9225697,107.555398 C15.9225697,110.358095 16.2990917,112.756833 17.1323728,114.502009 C17.965654,116.247185 19.2915982,117.311874 21.0739894,117.311874 L24.5863209,117.311874 L24.5863209,123.126734 L0.858569937,123.126734 L0.858569937,117.311874 L3.1220725,117.311874 C4.75509125,117.311874 6.07421684,116.244712 6.94661131,114.502009 C7.81900579,112.759306 8.27347964,110.361841 8.27349212,107.555398 L8.27349212,17.8348392 C8.27349212,14.9503314 7.82054185,12.5347464 6.94661131,10.8492019 C6.07268078,9.16365744 4.74892204,8.19544031 3.1220725,8.19544031 L0.858569937,8.19544031 L0.858569937,2.41960619 L0.858569937,2.41960619 Z M484.935911,8.19544031 L484.896885,8.31251803 C481.338597,19.0560191 478.758653,25.0647598 476.350212,28.3328079 C473.94177,31.6008561 471.765873,32.1573468 468.857238,32.1573468 L466.983994,32.1573468 L466.788865,32.1573468 L466.788865,32.3524763 L466.788865,39.0259063 L466.788865,39.2210358 L466.983994,39.2210358 L472.993984,39.2210358 L472.993984,104.589429 C472.993996,111.94412 473.473522,117.058262 475.842875,120.355895 C478.212228,123.653528 482.442474,125.07803 489.736098,125.07803 C494.483096,125.07803 498.472605,124.028214 501.287766,121.292517 C504.102926,118.556819 505.697693,114.157407 505.697693,107.399294 L505.697693,94.2475636 L505.697693,94.0524341 L505.502564,94.0524341 L498.86816,94.0524341 L498.634004,94.0524341 L498.634004,94.2475636 L498.634004,108.765201 C498.634004,111.462559 498.445443,113.342122 497.892512,114.502009 C497.33958,115.661896 496.466512,116.141097 494.965569,116.141097 C493.464614,116.141097 492.669684,115.662571 492.155704,114.580061 C491.641723,113.497551 491.453237,111.78131 491.453237,109.389615 L491.453237,39.3771394 L505.190356,39.3771394 L505.385486,39.3771394 L505.385486,39.1820099 L505.385486,32.3524763 L505.385486,32.1573468 L505.190356,32.1573468 L491.609341,32.1573468 L491.609341,8.39056984 L491.609341,8.19544031 L491.414211,8.19544031 L485.092015,8.19544031 L484.935911,8.19544031 L484.935911,8.19544031 Z M485.248118,8.58569938 L491.219082,8.58569938 L491.219082,32.3524763 L491.219082,32.5476058 L491.414211,32.5476058 L504.995227,32.5476058 L504.995227,38.9868803 L491.258108,38.9868803 L491.062978,38.9868803 L491.062978,39.1820099 L491.062978,109.389615 C491.062978,111.798419 491.235729,113.577338 491.804471,114.77519 C492.373212,115.973042 493.371901,116.531356 494.965569,116.531356 C496.559225,116.531356 497.636514,115.970907 498.243745,114.697138 C498.850976,113.42337 499.063289,111.481516 499.063289,108.765201 L499.063289,94.4426931 L505.307434,94.4426931 L505.307434,107.399294 C505.307434,114.094816 503.729551,118.381009 501.014584,121.019335 C498.299618,123.657661 494.426524,124.648745 489.736098,124.648745 C482.493351,124.648745 478.425141,123.281177 476.155082,120.121739 C473.885023,116.962302 473.384255,111.925949 473.384243,104.589429 L473.384243,39.0259063 L473.384243,38.8307767 L473.189113,38.8307767 L467.179124,38.8307767 L467.179124,32.5476058 L468.857238,32.5476058 C471.821845,32.5476058 474.197618,31.9114648 476.662419,28.5669634 C479.112809,25.2420186 481.717679,19.2239741 485.248118,8.58569938 L485.248118,8.58569938 Z M405.049881,30.6353364 C396.804962,30.6353364 390.351126,33.5062444 386.707705,37.8551291 C383.064284,42.2040137 382.253831,48.0322612 385.380824,53.8167247 C386.71807,56.2537396 388.717146,57.8261652 390.922503,58.3827558 C393.12786,58.9393463 395.547429,58.4753314 397.752036,56.8217195 C400.046273,55.0819009 401.413453,52.3690697 400.718005,49.3677714 C400.037244,46.4298637 397.365461,43.2635327 391.859125,40.4308389 C392.6317,39.8252442 393.919742,39.1985444 395.488534,38.7527249 C397.173891,38.273774 399.041215,37.9722068 400.561902,37.9722068 C402.793097,37.9722068 404.485048,38.1731434 405.713321,38.5966213 C406.941595,39.0200992 407.712946,39.6591125 408.250005,40.5479166 C409.324111,42.3255373 409.342731,45.1910628 409.342731,49.3677714 L409.342731,65.0561857 C398.306292,68.815723 390.780723,71.7161158 386.044265,76.7249317 C381.280444,81.7626829 379.331809,88.874277 379.331809,100.881968 C379.33056,110.18934 381.113763,116.240779 383.975892,119.965636 C386.83802,123.690493 390.799868,125.07803 395.020223,125.07803 C399.630725,125.07803 403.073422,123.404661 405.674295,121.175439 C408.148888,119.05444 409.790473,116.448659 411.020845,114.189802 C411.773876,117.534515 412.657622,120.256738 414.49415,122.112061 C416.41636,124.053952 419.348761,125.07803 424.094523,125.07803 C429.546773,125.07803 432.974572,123.390949 434.982751,120.121739 C436.990931,116.85253 437.597487,112.037283 437.597487,105.682154 L437.597487,105.487025 L437.402357,105.487025 L431.821653,105.487025 L431.626523,105.487025 L431.626523,105.682154 C431.626511,110.243102 431.554153,112.74658 431.236264,114.072724 C431.077313,114.735802 430.871319,115.091244 430.61185,115.282527 C430.35238,115.47381 430.005168,115.555708 429.519124,115.555708 C429.067722,115.555708 428.754454,115.483326 428.543477,115.360579 C428.332499,115.237831 428.183252,115.044488 428.075166,114.658113 C427.858981,113.88535 427.84101,112.410533 427.84101,109.857926 L427.84101,53.5435434 C427.841023,44.4594114 425.37797,38.7071302 421.284658,35.2403933 C417.191346,31.7736565 411.493476,30.6353364 405.049881,30.6353364 L405.049881,30.6353364 Z M405.049881,31.0255955 C411.445496,31.0255955 417.062967,32.1754423 421.050503,35.5526006 C425.038039,38.9297589 427.450764,44.5308943 427.450751,53.5435434 L427.450751,109.857926 C427.450751,112.410533 427.435915,113.885137 427.684907,114.77519 C427.809402,115.220223 428.03599,115.530082 428.348347,115.711812 C428.660704,115.893542 429.040136,115.945967 429.519124,115.945967 C430.03589,115.945967 430.482621,115.862633 430.846005,115.594734 C431.209389,115.326836 431.456395,114.899499 431.626523,114.189802 C431.958986,112.802877 432.013423,110.246911 432.016782,105.877284 L437.207228,105.877284 C437.192691,112.09644 436.543925,116.813317 434.631518,119.92661 C432.696507,123.076694 429.467085,124.648745 424.094523,124.648745 C419.405383,124.648745 416.596604,123.686871 414.767332,121.838879 C412.938059,119.990887 412.065528,117.229851 411.294026,113.682465 L411.176948,113.136102 L410.903767,113.643439 C409.671522,115.953735 407.943555,118.723113 405.401114,120.902258 C402.858673,123.081402 399.536201,124.648745 395.020223,124.648745 C390.885912,124.648745 387.071926,123.354421 384.288099,119.73148 C381.504272,116.10854 379.759857,110.138426 379.761094,100.881968 C379.761094,88.9171368 381.683828,81.9394422 386.356472,76.998113 C391.029115,72.0567839 398.482152,69.1176024 409.615912,65.3293671 L409.73299,65.2903412 L409.73299,65.1342375 L409.73299,49.3677714 C409.73299,45.1910628 409.770342,42.2876228 408.601238,40.3527871 C408.016687,39.3853692 407.125734,38.6919944 405.830399,38.2453881 C404.535064,37.7987819 402.817125,37.5819477 400.561902,37.5819477 C398.98799,37.5819477 397.088534,37.8745109 395.371456,38.3624658 C393.654379,38.8504208 392.137376,39.5371144 391.312762,40.2747353 L391.117632,40.4698648 L391.351788,40.5869425 C397.042165,43.4343101 399.669788,46.6063357 400.327746,49.4458232 C400.985704,52.2853107 399.714396,54.8437867 397.517881,56.5095123 C395.395296,58.1016069 393.086499,58.518953 391.000555,57.9924967 C388.914611,57.4660403 387.024845,55.9775985 385.732057,53.6215952 C382.671103,47.9592921 383.470391,42.3260992 387.019912,38.0892845 C390.569434,33.8524698 396.897675,31.0255955 405.049881,31.0255955 L405.049881,31.0255955 Z M353.496659,30.6353364 C345.92567,30.6353364 339.216686,34.6634468 334.412991,42.6553155 C329.609295,50.6471842 326.685861,62.5632608 326.685861,78.4420716 C326.686511,95.8636232 329.367434,107.511326 334.061757,114.814216 C338.756081,122.117106 345.484509,125.07803 353.496659,125.07803 C361.104875,125.07803 366.905448,123.420734 370.55098,118.794859 C374.196512,114.168984 375.658953,106.612507 374.726752,94.8329522 L374.726752,94.6378227 L374.531622,94.6378227 L368.053322,94.6378227 L367.858192,94.6378227 L367.858192,94.8719781 C368.0896,104.761043 367.373722,110.150264 365.750793,113.019025 C364.939329,114.453405 363.910369,115.242302 362.628721,115.711812 C361.347073,116.181322 359.794141,116.297201 357.984638,116.297201 C355.333536,116.297201 353.342803,115.972543 351.818545,114.97032 C350.294287,113.968097 349.21862,112.303858 348.462317,109.584745 C346.949723,104.146519 346.745177,94.525428 346.745177,78.1298643 C346.745152,77.5587249 346.745177,76.6616285 346.745177,75.5541545 L376.092659,75.5541545 L376.287788,75.5541545 L376.287788,75.359025 C376.287788,58.7955687 374.701688,47.6420895 371.058317,40.5869425 C367.414945,33.5317955 361.664587,30.6353364 353.496659,30.6353364 L353.496659,30.6353364 Z M353.496659,31.0255955 C361.571,31.0255955 367.120984,33.8378335 370.707083,40.782072 C374.277848,47.6966009 375.883967,58.7427932 375.897529,75.1638954 L346.550047,75.1638954 L346.354918,75.1638954 L346.354918,75.359025 C346.354918,76.592868 346.354881,77.5154155 346.354918,78.1298643 C346.354918,94.5285501 346.529704,104.117571 348.072058,109.662797 C348.843235,112.435409 349.961711,114.21559 351.584389,115.282527 C353.207068,116.349464 355.298881,116.726486 357.984638,116.726486 C359.8111,116.726486 361.387884,116.599517 362.745799,116.102071 C364.103713,115.604625 365.250675,114.719043 366.102027,113.214154 C367.787833,110.234236 368.460103,104.792101 368.248451,95.0671076 L374.336493,95.0671076 C375.230305,106.677184 373.763942,114.08756 370.238773,118.560703 C366.691986,123.061271 361.047978,124.648745 353.496659,124.648745 C345.581243,124.648745 339.001201,121.817599 334.373965,114.619087 C329.746729,107.420574 327.076757,95.822874 327.07612,78.4420716 C327.07612,62.6118652 329.975352,50.7527353 334.725198,42.8504451 C339.475044,34.9481549 346.066713,31.0255955 353.496659,31.0255955 L353.496659,31.0255955 Z M223.07208,30.6353364 C217.692874,30.6353364 212.562797,32.325589 208.788598,35.9428597 C205.0144,39.5601303 202.583479,45.0646189 202.583479,52.6069216 C202.583479,59.6691995 203.781206,64.6604318 206.29094,69.3100095 C208.800675,73.9595872 212.62133,78.2632143 217.803583,84.1398539 C222.291325,89.2459285 225.644818,92.9350568 227.872267,96.3549625 C230.099715,99.7748683 231.189469,102.946619 231.189469,107.087087 C231.189481,110.394873 230.722844,112.91667 229.433303,114.619087 C228.143762,116.321503 226.049476,117.233822 222.603769,117.233822 C219.693586,117.233822 217.315553,116.582546 215.423002,114.462983 C213.530452,112.34342 212.092251,108.733106 211.169179,102.872289 L209.959376,94.8329522 L209.92035,94.6378227 L209.764246,94.6378227 L202.934712,94.6378227 L202.739583,94.6378227 L202.739583,94.8719781 L202.739583,123.321864 L202.739583,123.516993 L202.934712,123.516993 L208.671521,123.516993 L208.827624,123.516993 L208.86665,123.36089 C209.172089,121.911311 209.695923,120.489045 210.310609,119.575377 C210.617946,119.118543 210.946138,118.790638 211.247231,118.638755 C211.548323,118.486872 211.811402,118.480903 212.1058,118.677781 C214.162909,121.03256 218.853636,125.07803 226.467334,125.07803 C233.161507,125.07803 238.402205,122.784081 241.960619,118.794859 C245.519032,114.805637 247.38522,109.129234 247.38522,102.2869 C247.38522,95.1479818 246.128536,89.9979733 243.599707,85.2325793 C241.070878,80.4671852 237.271104,76.087392 232.165116,70.4417608 C227.294583,65.1048026 223.953279,61.4484811 221.823251,58.0315226 C219.693223,54.6145641 218.77923,51.4443992 218.77923,47.0652429 C218.77923,44.5335169 219.184376,42.4898707 220.301241,41.0942793 C221.418106,39.6986879 223.252673,38.9088285 226.155127,38.9088285 C229.06551,38.9088285 231.311329,39.4788066 232.98466,41.1333052 C234.657991,42.7878038 235.765715,45.5680843 236.301862,50.0312118 L237.394588,58.694963 L237.433614,58.8510666 L237.589717,58.8510666 L244.380225,58.8510666 L244.61438,58.8510666 L244.61438,58.6559371 L244.61438,32.3524763 L244.61438,32.1573468 L244.380225,32.1573468 L238.838546,32.1573468 L238.643417,32.1573468 L238.643417,32.3524763 C238.49071,33.9794757 238.40293,35.2347361 238.253158,36.0209115 C238.178265,36.4139929 238.068781,36.6973896 237.979976,36.8014296 C237.935568,36.8534558 237.900813,36.8742238 237.862899,36.8794814 C237.832277,36.8837274 237.772246,36.8667059 237.706795,36.8404555 C237.703186,36.8372335 237.671428,36.8437274 237.667769,36.8404555 C236.267382,35.5907149 230.870643,30.6353364 223.07208,30.6353364 L223.07208,30.6353364 Z M223.07208,31.0255955 C230.72112,31.0255955 236.080507,35.9108896 237.47264,37.1526628 L237.511665,37.1916887 C237.651909,37.2619103 237.799108,37.289397 237.94095,37.2697405 C238.082792,37.2500839 238.200644,37.1818604 238.292184,37.0746109 C238.475274,36.8601246 238.563604,36.5179329 238.643417,36.0989633 C238.796398,35.2959288 238.893907,34.0722387 239.033676,32.5476058 L244.185095,32.5476058 L244.185095,58.4608076 L237.745821,58.4608076 L236.692121,49.95316 C236.150529,45.4447 235.026296,42.6086843 233.257842,40.8601238 C231.489387,39.1115634 229.117974,38.5185695 226.155127,38.5185695 C223.179342,38.5185695 221.192805,39.3559343 219.989034,40.8601238 C218.785262,42.3643134 218.388971,44.4892584 218.388971,47.0652429 C218.388971,51.5003218 219.310457,54.7591161 221.472018,58.2266521 C223.633579,61.6941882 227.021589,65.3781838 231.891935,70.7149421 C236.995125,76.3574762 240.749817,80.7191739 243.248474,85.4277088 C245.747131,90.1362437 246.994961,95.1941635 246.994961,102.2869 C246.994961,109.056802 245.127449,114.66046 241.648411,118.560703 C238.169374,122.460946 233.071916,124.648745 226.467334,124.648745 C218.957388,124.648745 214.371289,120.697924 212.378982,118.4046 L212.339956,118.365574 C211.94063,118.098512 211.489491,118.086573 211.091127,118.287522 C210.692763,118.488471 210.32843,118.850656 209.998402,119.341221 C209.365483,120.282002 208.873481,121.70192 208.554443,123.126734 L203.129842,123.126734 L203.129842,95.0671076 L209.608142,95.0671076 L210.77892,102.911315 C211.707861,108.809472 213.13571,112.485138 215.110795,114.697138 C217.085881,116.909139 219.630757,117.624069 222.603769,117.624081 C226.120284,117.624081 228.408127,116.670338 229.784536,114.853242 C231.160945,113.036146 231.618766,110.431825 231.618754,107.087087 C231.618754,102.875386 230.479647,99.584759 228.2235,96.1208071 C225.967353,92.6568552 222.600922,89.0088134 218.11579,83.9056984 C212.934011,78.0296083 209.121199,73.7075735 206.642174,69.11488 C204.163148,64.5221864 202.973738,59.6239669 202.973738,52.6069216 C202.973738,45.1495393 205.37204,39.791401 209.06178,36.2550669 C212.75152,32.7187329 217.77757,31.0255955 223.07208,31.0255955 L223.07208,31.0255955 Z M409.73299,69.7783204 L409.459808,69.934424 C404.037318,72.9574019 400.920965,75.2048196 399.195995,79.2616156 C397.471025,83.3184116 397.127634,89.1066092 397.127622,99.3209314 C397.127622,105.124402 397.233385,108.867218 397.986192,111.184807 C398.362589,112.343608 398.919017,113.167236 399.703332,113.682465 C400.487646,114.197694 401.487983,114.384931 402.747352,114.384931 C405.664667,114.384931 407.471947,113.131894 408.484161,111.067729 C409.496374,109.003565 409.733002,106.171832 409.73299,102.911315 L409.73299,70.0905276 L409.73299,69.7783204 L409.73299,69.7783204 Z M409.342731,70.4807867 L409.342731,102.911315 C409.342743,106.149703 409.092927,108.953936 408.132928,110.911626 C407.172928,112.869315 405.553421,113.994672 402.747352,113.994672 C401.531568,113.994672 400.63256,113.787829 399.937487,113.331232 C399.242414,112.874635 398.734977,112.171494 398.376451,111.067729 C397.659398,108.860199 397.517881,105.119082 397.517881,99.3209314 C397.517894,89.1156632 397.868839,83.3649805 399.547228,79.4177192 C401.18548,75.564857 404.177611,73.3845264 409.342731,70.4807867 L409.342731,70.4807867 Z" id="path41"></path>
        </g>
    </g>
</svg>