<?xml version="1.0" encoding="UTF-8"?>
<svg width="67px" height="120px" viewBox="0 0 67 120" version="1.1" xmlns="http://www.w3.org/2000/svg" xmlns:xlink="http://www.w3.org/1999/xlink">
    <!-- Generator: Sketch 40.3 (33839) - http://www.bohemiancoding.com/sketch -->
    <title>mobile-coaching</title>
    <desc>Created with Sketch.</desc>
    <defs></defs>
    <g id="Page-1" stroke="none" stroke-width="1" fill="none" fill-rule="evenodd">
        <g id="Mobile-Coaching" fill="#252522">
            <path d="M58.9891304,0 L8.01086957,0 C3.59323913,0 0,3.56674699 0,7.95180723 L0,112.048193 C0,116.431807 3.59323913,120 8.01086957,120 L58.9891304,120 C63.4053043,120 67,116.431807 67,112.048193 L67,7.95180723 C67,3.56674699 63.4053043,0 58.9891304,0 L58.9891304,0 Z M8.01086957,4.3373494 L58.9891304,4.3373494 C60.9976739,4.3373494 62.6304348,5.95951807 62.6304348,7.95180723 L62.6304348,14.4578313 L4.36956522,14.4578313 L4.36956522,7.95180723 C4.36956522,5.95951807 6.00378261,4.3373494 8.01086957,4.3373494 L8.01086957,4.3373494 Z M62.6304348,18.7951807 L62.6304348,93.9759036 L4.36956522,93.9759036 L4.36956522,18.7951807 L62.6304348,18.7951807 L62.6304348,18.7951807 Z M58.9891304,115.662651 L8.01086957,115.662651 C6.00378261,115.662651 4.36956522,114.041928 4.36956522,112.048193 L4.36956522,98.313253 L62.6304348,98.313253 L62.6304348,112.048193 C62.6304348,114.041928 60.9976739,115.662651 58.9891304,115.662651 L58.9891304,115.662651 Z" id="Shape"></path>
            <path d="M34.1073696,100.000482 C30.2927391,100.000482 27.1888913,103.081446 27.1888913,106.867952 C27.1888913,110.654458 30.2927391,113.735422 34.1073696,113.735422 C37.922,113.735422 41.0258478,110.654458 41.0258478,106.867952 C41.0258478,103.081446 37.922,100.000482 34.1073696,100.000482 L34.1073696,100.000482 Z M34.1073696,109.398072 C32.7018261,109.398072 31.5584565,108.263133 31.5584565,106.867952 C31.5584565,105.472771 32.7018261,104.337831 34.1073696,104.337831 C35.512913,104.337831 36.6562826,105.472771 36.6562826,106.867952 C36.6562826,108.263133 35.512913,109.398072 34.1073696,109.398072 L34.1073696,109.398072 Z" id="Shape"></path>
            <path d="M24.7608696,11.5662651 L42.2391304,11.5662651 C43.4451304,11.5662651 44.423913,10.5961446 44.423913,9.39759036 C44.423913,8.19903614 43.4451304,7.22891566 42.2391304,7.22891566 L24.7608696,7.22891566 C23.553413,7.22891566 22.576087,8.19903614 22.576087,9.39759036 C22.576087,10.5961446 23.553413,11.5662651 24.7608696,11.5662651 L24.7608696,11.5662651 Z" id="Shape"></path>
            <ellipse id="Oval" cx="18.2371087" cy="9.42795181" rx="2.17021739" ry="2.15421687"></ellipse>
            <path d="M58.9161123,55.369418 L55.6661758,55.369418 L55.6661758,54.2857767 C55.6661758,52.4984683 54.2078227,51.0407344 52.4161377,51.0407344 C52.0370004,51.0407344 51.6719805,51.1072578 51.3323516,51.22773 L51.3323516,51.0407344 C51.3323516,49.253426 49.8739985,47.7965034 48.0823135,47.7965034 C46.2906284,47.7965034 44.8322754,49.253426 44.8322754,51.0407344 L44.8322754,55.369418 L39.1494822,55.369418 C40.0302425,53.3541454 40.4999746,51.1532968 40.4999746,48.8795363 C40.4999746,44.5443626 38.8083298,40.4698064 35.7392782,37.4055738 C35.1902249,36.8572631 34.6093821,36.3541802 34,35.8955137 L34,27.2450423 C34,25.4554015 32.541647,24 30.7500635,24 L17.7500127,24 C15.9568042,24 14.4999746,25.4554015 14.4999746,27.2450423 L14.4999746,35.8955137 C13.8889674,36.3541802 13.3082263,36.8572631 12.759173,37.4055738 C9.69012137,40.4698064 8,44.5443626 8,48.8795363 C8,53.8801464 10.2581671,58.5257287 14.1969086,61.6265694 C14.3873405,61.7770582 14.6237807,61.8595026 14.868143,61.8595026 L19.9161631,61.8595026 L23.1660996,61.8595026 L23.1660996,62.9401016 C23.1660996,64.7290326 24.6244526,66.1851439 26.4161377,66.1851439 C26.7953765,66.1851439 27.1603964,66.1186205 27.5000254,65.9981483 L27.5000254,66.1851439 C27.5000254,67.975596 28.956855,69.4301862 30.7500635,69.4301862 C32.541647,69.4301862 34,67.975596 34,66.1851439 L34,61.8595026 L44.8322754,61.8595026 L44.8322754,66.1851439 C44.8322754,67.975596 46.2906284,69.4301862 48.0823135,69.4301862 C49.8739985,69.4301862 51.3323516,67.975596 51.3323516,66.1851439 L51.3323516,65.9981483 C51.6719805,66.1186205 52.0370004,66.1851439 52.4161377,66.1851439 C54.2078227,66.1851439 55.6661758,64.7290326 55.6661758,62.9401016 L55.6661758,61.8595026 L58.9161123,61.8595026 C59.514424,61.8595026 60,61.374673 60,60.7756584 L60,56.4500171 C60,55.8526251 59.514424,55.369418 58.9161123,55.369418 L58.9161123,55.369418 Z M16.666125,27.2450423 C16.666125,26.6484615 17.151701,26.1636319 17.7500127,26.1636319 L30.7500635,26.1636319 C31.3467502,26.1636319 31.8323262,26.6484615 31.8323262,27.2450423 L31.8323262,34.5201228 C31.4784783,34.3331273 31.1166068,34.1596189 30.7500635,33.9995978 L30.7500635,29.4086742 C30.7500635,28.2155127 29.7772865,27.2450423 28.5822881,27.2450423 L19.9161631,27.2450423 C18.7211647,27.2450423 17.7500127,28.2155127 17.7500127,29.4086742 L17.7500127,33.9995978 C17.3818443,34.1596189 17.0199729,34.3331273 16.666125,34.5201228 L16.666125,27.2450423 L16.666125,27.2450423 Z M28.5822881,33.233565 C27.1889358,32.8509542 25.7337313,32.6536151 24.2499873,32.6536151 C22.7646183,32.6536151 21.3095153,32.8508528 19.9161631,33.233565 L19.9161631,29.4086742 L28.5822881,29.4086742 L28.5822881,33.233565 L28.5822881,33.233565 Z M10.5830752,48.8314644 C10.5830752,41.3065001 16.7135127,35.1846988 24.2499633,35.1846988 C31.7849354,35.1846988 37.9152744,41.3065001 37.9152744,48.8314644 C37.9152744,51.0640866 37.3793219,53.2135562 36.3800533,55.1292146 L33.711329,55.1292146 L33.711329,50.9286807 C33.711329,49.1942852 32.2961502,47.7804945 30.5576061,47.7804945 C28.8174851,47.7804945 27.4037847,49.1942852 27.4037847,50.9286807 L27.4037847,51.1101403 C27.0742103,50.9932347 26.7199968,50.9286807 26.3519852,50.9286807 C24.6133426,50.9286807 23.1981638,52.3432587 23.1981638,54.0776543 L23.1981638,55.1292146 L20.0444409,55.1292146 C19.4638421,55.1292146 18.9926415,55.5982148 18.9926415,56.1778228 L18.9926415,59.3267963 L15.5170317,59.3267963 C12.3771068,56.7221032 10.5830752,52.91834 10.5830752,48.8314644 L10.5830752,48.8314644 Z M21.0000508,59.6950594 C21.2762025,59.6950594 21.5538776,59.5905082 21.7649269,59.3781607 C22.1886506,58.9567108 22.1886506,58.2705872 21.7649269,57.8475148 C21.5538776,57.6384124 21.2777259,57.5322387 21.0015742,57.5306162 L23.1660996,57.5306162 L23.1660996,59.6950594 L21.0000508,59.6950594 L21.0000508,59.6950594 L21.0000508,59.6950594 Z M26.4161377,64.0207007 C25.817826,64.0207007 25.33225,63.5358711 25.33225,62.9401016 L25.33225,54.2857767 C25.33225,53.6900072 25.817826,53.2051776 26.4161377,53.2051776 C27.0128244,53.2051776 27.5000254,53.6900072 27.5000254,54.2857767 L27.5000254,62.9401016 C27.5000254,63.5358711 27.0128244,64.0207007 26.4161377,64.0207007 L26.4161377,64.0207007 Z M31.8323262,66.1851439 C31.8323262,66.7809134 31.3467502,67.265743 30.7500635,67.265743 C30.1517518,67.265743 29.6661758,66.7809134 29.6661758,66.1851439 L29.6661758,62.9401016 L29.6661758,54.2857767 L29.6661758,51.0407344 C29.6661758,50.444965 30.1517518,49.9601354 30.7500635,49.9601354 C31.3467502,49.9601354 31.8323262,50.444965 31.8323262,51.0407344 L31.8323262,66.1851439 L31.8323262,66.1851439 Z M34,59.6950594 L34,57.5306162 L44.8322754,57.5306162 L44.8322754,59.6950594 L34,59.6950594 L34,59.6950594 Z M49.1662012,66.1851439 C49.1662012,66.7809134 48.6806252,67.265743 48.0823135,67.265743 C47.4856268,67.265743 47.0000508,66.7809134 47.0000508,66.1851439 L47.0000508,51.0407344 C47.0000508,50.444965 47.4856268,49.9601354 48.0823135,49.9601354 C48.6806252,49.9601354 49.1662012,50.444965 49.1662012,51.0407344 L49.1662012,54.2857767 L49.1662012,62.9401016 L49.1662012,66.1851439 L49.1662012,66.1851439 Z M53.5000254,62.9401016 C53.5000254,63.5358711 53.0128244,64.0207007 52.4161377,64.0207007 C51.8179276,64.0207007 51.3323516,63.5358711 51.3323516,62.9401016 L51.3323516,54.2857767 C51.3323516,53.6900072 51.8179276,53.2051776 52.4161377,53.2051776 C53.0128244,53.2051776 53.5000254,53.6900072 53.5000254,54.2857767 L53.5000254,62.9401016 L53.5000254,62.9401016 Z M55.6661758,59.6950594 L55.6661758,57.5306162 L57.8307011,57.5306162 C57.5545495,57.5322387 57.2768743,57.638311 57.065825,57.8475148 C56.6438279,58.2705872 56.6438279,58.9567108 57.065825,59.3781607 C57.2784994,59.5905082 57.5545495,59.6950594 57.8323262,59.6950594 L57.8323262,59.6950594 L55.6661758,59.6950594 L55.6661758,59.6950594 Z" id="Shape"></path>
            <path d="M8,73.6923077 L8,90.3076923 L8,91 L9.38888889,91 L56.6111111,91 L58,91 L58,90.3076923 L58,73.6923077 L58,73 L56.6111111,73 L9.38888889,73 L8,73 L8,73.6923077 Z M12.0816327,77 L53.9183673,77 L53.9183673,87 L12.0816327,87 L12.0816327,77 L12.0816327,77 Z" id="Shape"></path>
            <polygon id="Shape" points="19 91 23 91 23 73 19 73"></polygon>
            <polygon id="Shape" points="31 73 31 91 35 91 35 73"></polygon>
            <polygon id="Shape" points="43 91 47 91 47 73 43 73"></polygon>
        </g>
    </g>
</svg>