<?xml version="1.0" encoding="UTF-8"?>
<svg width="117px" height="108px" viewBox="0 0 117 108" version="1.1" xmlns="http://www.w3.org/2000/svg" xmlns:xlink="http://www.w3.org/1999/xlink">
    <!-- Generator: Sketch 40.3 (33839) - http://www.bohemiancoding.com/sketch -->
    <title>Nutrition</title>
    <desc>Created with Sketch.</desc>
    <defs></defs>
    <g id="Page-1" stroke="none" stroke-width="1" fill="none" fill-rule="evenodd">
        <g id="Nutrition" transform="translate(0.272727, -0.361259)" fill="#252522">
            <path d="M7.62642045,0.551470588 C6.74056744,0.841757049 6.15830849,1.68886164 6.20454545,2.62009804 L6.20454545,10.8946078 C6.20465966,12.0370319 7.1305493,12.9631211 8.27272727,12.9632353 L37.2272727,12.9632353 C38.3694507,12.9631211 39.2953403,12.0370319 39.2954545,10.8946078 L39.2954545,2.62009804 C39.2953403,1.47767396 38.3694507,0.551584814 37.2272727,0.551470588 L8.27272727,0.551470588 C8.05862261,0.517596904 7.84052512,0.517596904 7.62642045,0.551470588 L7.62642045,0.551470588 Z M10.3409091,4.68872549 L35.1590909,4.68872549 L35.1590909,8.82598039 L10.3409091,8.82598039 L10.3409091,4.68872549 L10.3409091,4.68872549 Z" id="Shape"></path>
            <path d="M22.1036932,50.1985294 C21.684993,50.3399712 21.3225932,50.6118296 21.0696023,50.9742647 C21.0696023,50.9742647 19.9543534,52.5989647 18.8721591,54.4648667 C18.3310619,55.3982314 17.7583629,56.4428882 17.3210227,57.4387255 C16.8836825,58.4345627 16.5454545,59.346 16.5454545,60.5416667 C16.5454545,63.9445588 19.3476105,66.747549 22.75,66.747549 C26.1523825,66.747549 28.9545455,63.9445588 28.9545455,60.5416667 C28.9545455,59.346 28.6163191,58.4345627 28.1789773,57.4387255 C27.7416366,56.4428882 27.1689389,55.3982314 26.6278409,54.4648667 C25.5456449,52.5989647 24.4303977,50.9742647 24.4303977,50.9742647 C23.9082738,50.2340645 22.9654168,49.9197111 22.1036932,50.1985294 L22.1036932,50.1985294 Z M22.75,56.1458333 C22.8737724,56.3526961 22.8829675,56.3154608 23.0085227,56.5347353 C23.5015165,57.3849412 23.9629084,58.3505765 24.3011364,59.1205196 C24.6393627,59.8908765 24.8181818,60.5958647 24.8181818,60.5429078 C24.8181818,61.7092 23.9164876,62.6115353 22.75,62.6115353 C21.5834929,62.6115353 20.6818182,61.7092 20.6818182,60.5429078 C20.6818182,60.5966922 20.8606373,59.8908765 21.1988636,59.1205196 C21.53709,58.3505765 21.9984844,57.3849412 22.4914773,56.5347353 C22.6170325,56.319598 22.6262276,56.3526961 22.75,56.1458333 L22.75,56.1458333 Z" id="Shape"></path>
            <path d="M38.9076705,79.1593137 C37.8130406,79.356927 37.0706713,80.3850446 37.2272727,81.4865196 C37.2272727,81.4865196 37.6387582,85.4578706 38.5198864,90.2781863 C39.4010145,95.098502 40.6232935,100.675522 42.7855114,104.5 C43.05392,104.974957 43.4771072,105.711388 44.078125,106.439545 C44.6791428,107.167288 45.7277234,108.133751 47.1803977,108.120098 C50.9302265,108.078725 55.9667538,108.078725 59.71875,108.120098 C61.1832999,108.120098 62.2452905,107.155704 62.8210227,106.439545 C63.3967549,105.722973 63.7420627,104.99978 63.984375,104.629082 C65.4308614,102.417306 66.5755049,99.300298 67.4744318,96.6135647 C68.092479,94.7658667 68.2738337,94.0873569 68.5085227,93.2516314 L74.3252841,93.2516314 C74.6011795,94.0679118 74.7582125,94.7348373 75.4886364,96.6135647 C76.5297798,99.2911961 77.8749004,102.4533 79.3664773,104.629082 C79.5948459,104.9642 79.9618944,105.594304 80.5298295,106.310049 C81.0977647,107.025794 82.1499522,108.004255 83.6321023,107.991016 C87.3841026,107.949643 92.4206258,107.949643 96.1704545,107.991016 C97.6083,107.991016 98.667023,107.166461 99.2727273,106.439545 C99.8784315,105.712216 100.291154,105.000608 100.565341,104.5 C102.678344,100.644078 103.707294,94.9727294 104.443182,90.1486902 C105.17907,85.3250647 105.477273,81.3570235 105.477273,81.3570235 C105.528525,80.6148289 105.178148,79.9020917 104.55921,79.4894999 C103.940272,79.0769082 103.147729,79.0277599 102.482577,79.3607209 C101.817425,79.693682 101.38171,80.3576709 101.340909,81.1005137 C101.340909,81.1005137 101.143646,84.8658294 100.43608,89.5041059 C99.7285132,94.1423824 98.3578009,99.6205216 96.8167614,102.433027 C96.52734,102.961355 96.2553534,103.468996 96.0411932,103.72592 C95.8270536,103.982429 95.9177227,103.854175 96.1704545,103.854175 C92.3802797,103.812802 87.4244073,103.812802 83.6321023,103.854175 C83.9291345,103.851278 83.9882018,104.01139 83.7613636,103.72592 C83.5345255,103.440449 83.2921387,102.939841 82.8565341,102.303945 C81.8102575,100.777298 80.3621041,97.7533784 79.3664773,95.1928314 C78.3708504,92.6322843 77.6860795,90.5384196 77.6860795,90.5384196 C77.409981,89.6986442 76.630916,89.1271237 75.7471591,89.1160314 L66.9573864,89.1160314 C66.0380969,89.1444974 65.2480269,89.7766896 65.0184659,90.667502 C65.0184659,90.667502 64.451267,92.7675725 63.5965909,95.3219137 C62.7419148,97.8766686 61.4612883,100.954373 60.4943182,102.433027 C60.0940423,103.045341 59.8138822,103.576151 59.5894886,103.855416 C59.3650909,104.132612 59.4393386,103.983671 59.71875,103.983671 C55.9264491,103.942298 50.9705725,103.942298 47.1803977,103.983671 C47.4479377,103.981188 47.5250395,104.116063 47.3096591,103.855416 C47.0942786,103.594769 46.7138531,103.109055 46.4048295,102.56211 C44.8019018,99.7272627 43.5050732,94.1477608 42.65625,89.5041059 C41.8074268,84.8587961 41.3636364,81.0988588 41.3636364,81.0988588 C41.336851,80.4986338 41.0505089,79.9397046 40.5790545,79.5673838 C40.1076001,79.195063 39.4976094,79.0461332 38.9076705,79.1593137 L38.9076705,79.1593137 Z" id="Shape"></path>
            <path d="M69.1548295,34.295749 C63.1196351,36.8745 59.8605694,42.5495725 58.0383523,47.3541667 C57.7343534,48.0582375 57.8446997,48.8727455 58.3250658,49.4705079 C58.8054319,50.0682703 59.5769901,50.3511947 60.3298103,50.2056323 C61.0826304,50.0600698 61.6931754,49.5099072 61.9161932,48.7761412 C63.5485925,44.4721549 66.2304039,39.9575824 70.7059659,38.0453431 C71.5206806,37.6978137 73.252026,37.6978137 74.0667614,38.0453431 C78.5423192,39.9575824 81.2241306,44.4721549 82.8565341,48.7761412 C83.0795518,49.5099072 83.6900968,50.0600698 84.442917,50.2056323 C85.1957372,50.3511947 85.9672953,50.0682703 86.4476614,49.4705079 C86.9280275,48.8727455 87.0383739,48.0582375 86.734375,47.3541667 C84.9121538,42.5495725 81.653088,36.8745 75.6178977,34.295749 C73.5174564,33.397551 71.2552667,33.397551 69.1548295,34.295749 L69.1548295,34.295749 Z" id="Shape"></path>
            <path d="M85.5710227,44.7683824 C79.6288468,47.977651 76.704537,54.7652314 74.9715909,60.5416667 C74.3377263,62.6545627 74.462781,65.1389843 74.5838068,67.2647059 C74.7048368,69.3904275 74.8423295,71.1433824 74.8423295,71.1433824 C75.0208594,72.2858537 76.0915429,73.0672516 77.2337682,72.8886833 C78.3759935,72.7101151 79.157223,71.6392008 78.9786932,70.4967294 C78.9786932,70.4967294 78.8306114,68.9456725 78.7201705,67.0061275 C78.6097295,65.0665824 78.6866659,62.6785588 78.9786932,61.7050627 C80.5839994,56.354351 83.2954271,50.6643843 87.5099432,48.3884804 C88.2068336,48.0119902 89.6568028,48.0119902 90.3536932,48.3884804 C94.5682093,50.6643843 97.2796411,56.354351 98.8849432,61.7050627 C99.1769291,62.6785588 99.2539068,65.0665824 99.1434659,67.0061275 C99.033025,68.9456725 98.8849432,70.4967294 98.8849432,70.4967294 C98.7064134,71.6392008 99.4876429,72.7101151 100.629868,72.8886833 C101.772093,73.0672516 102.842777,72.2858537 103.021307,71.1433824 C103.021307,71.1433824 103.1588,69.3904275 103.27983,67.2647059 C103.40086,65.1389843 103.525902,62.6545627 102.892045,60.5416667 C101.159103,54.7652314 98.2347895,47.977651 92.2926136,44.7683824 C90.1725411,43.6223627 87.6910952,43.6223627 85.5710227,44.7683824 L85.5710227,44.7683824 Z" id="Shape"></path>
            <path d="M34.7713068,68.8161765 C31.5916311,68.8161765 28.9545455,71.3245941 28.9545455,74.504902 L28.9545455,77.4787608 C28.9545455,80.6586549 31.5913557,83.2965686 34.7713068,83.2965686 L110.00142,83.2965686 C113.18137,83.2965686 115.818182,80.6586549 115.818182,77.4787608 L115.818182,74.504902 C115.818182,71.3245941 113.181097,68.8161765 110.00142,68.8161765 L34.7713068,68.8161765 L34.7713068,68.8161765 Z M34.7713068,72.9534314 L110.00142,72.9534314 C110.961309,72.9534314 111.681818,73.5446451 111.681818,74.504902 L111.681818,77.4787608 C111.681818,78.4381902 110.961036,79.1593137 110.00142,79.1593137 L34.7713068,79.1593137 C33.8116911,79.1593137 33.0909091,78.4381902 33.0909091,77.4787608 L33.0909091,74.504902 C33.0909091,73.5446451 33.811414,72.9534314 34.7713068,72.9534314 L34.7713068,72.9534314 Z" id="Shape"></path>
            <polygon id="Shape" points="2.06818182 41.9240196 2.06818182 46.0612745 43.4318182 46.0612745 43.4318182 41.9240196"></polygon>
            <polygon id="Shape" points="0 75.0220588 0 79.1593137 33.0909091 79.1593137 33.0909091 75.0220588"></polygon>
            <path d="M11.2457386,8.82598039 C10.3598856,9.11626682 9.77762663,9.96337144 9.82386364,10.8946078 L9.82386364,13.3513098 C9.72192709,17.6912902 7.20468344,22.7147451 4.65340909,28.2193627 C2.11987602,33.6855039 -0.417066236,39.6137765 0.129261364,45.9321922 C0.133087086,45.977702 0.125128309,46.0149373 0.129261364,46.0604471 L0.129261364,93.5097961 C0.129261364,96.6044627 0.989806173,99.6693412 2.84375,102.171967 C3.87219064,103.560016 5.34421532,104.95758 6.85085227,106.050643 C8.35748922,107.143706 9.95893783,108.119271 11.8920455,108.119271 L33.7372159,108.119271 C37.8929046,108.119271 40.7406214,104.757337 42.65625,102.171967 C43.16664,101.483114 43.5906876,100.838529 43.9488636,100.103339 C44.1922728,99.6227434 44.238647,99.0661326 44.078125,98.5518686 C41.7784061,91.4775765 40.6054161,81.137749 40.5880682,80.9685353 C40.4569535,79.9281061 39.5682907,79.1503586 38.5198864,79.1584863 L34.7713068,79.1584863 C33.8086137,79.1593137 33.0909091,78.4402588 33.0909091,77.4787608 L33.0909091,74.504902 C33.0909091,73.5429902 33.8086137,72.9534314 34.7713068,72.9534314 L41.3636364,72.9534314 C41.9864827,72.964436 42.581116,72.69408 42.9823564,72.2174643 C43.3835968,71.7408485 43.5487056,71.1087403 43.4318182,70.4967294 C43.4252,70.4470824 43.2765391,68.9336745 43.1732955,67.0061275 C43.0700518,65.0785804 43.1418591,62.6992451 43.4318182,61.7050627 C43.9391225,59.9661745 44.6047668,58.2537647 45.3707386,56.5334941 C45.4807301,56.2452992 45.5248949,55.9361494 45.5,55.6286765 L45.5,45.9321922 C45.3964668,39.5699216 42.8683917,33.6577843 40.4588068,28.2193627 C38.049222,22.7809412 35.8054019,17.7434196 35.8053977,13.3513098 L35.8053977,10.8946078 C35.8052836,9.75218374 34.8793939,8.82609455 33.7372159,8.82598039 L11.8920455,8.82598039 C11.6779408,8.79210671 11.4598433,8.79210671 11.2457386,8.82598039 L11.2457386,8.82598039 Z M13.9602273,12.9632353 L31.6690341,12.9632353 L31.6690341,13.3521373 C31.6690386,19.0466549 34.1818791,24.4863176 36.5809659,29.9011569 C38.9800527,35.3155824 41.2781501,40.6803608 41.3636364,45.9330196 L41.3636364,55.2418431 C40.5883991,57.0312059 39.9425183,58.7676118 39.4247159,60.5424941 C38.8156529,62.6301529 38.9238933,65.1551196 39.0369318,67.2655333 C39.0820595,68.1082922 39.1048923,68.1802804 39.1661932,68.8170039 L34.7713068,68.8170039 C31.5936547,68.8161765 28.9545455,71.3270765 28.9545455,74.504902 L28.9545455,77.4787608 C28.9545455,80.6565863 31.5936547,83.2965686 34.7713068,83.2965686 L36.96875,83.2965686 C37.1731691,85.1765373 37.8266897,92.0605157 39.8125,98.8112745 C39.6324441,99.1298431 39.4956959,99.4459294 39.2954545,99.7165059 C37.6672205,101.913802 35.4199548,103.982843 33.7372159,103.982843 L11.8920455,103.982843 C11.5351559,103.982843 10.2993333,103.503749 9.17755682,102.689951 C8.05578038,101.876153 6.94803614,100.71979 6.20454545,99.7165059 C4.95031148,98.0231275 4.265625,95.6963353 4.265625,93.5106235 L4.265625,45.9321922 C4.2711023,45.8453962 4.2711023,45.7583411 4.265625,45.6715451 C3.80083712,40.6915314 5.89185043,35.4434235 8.40198864,30.0277569 C10.9121268,24.6120902 13.8253185,19.0938196 13.9602273,13.3496549 L13.9602273,12.9607529 L13.9602273,12.9632353 Z" id="Shape"></path>
            <path d="M50.4119318,44.7683824 C44.4696773,47.977651 41.5454378,54.7652314 39.8125,60.5416667 C39.1786312,62.6545627 39.30369,65.1389843 39.4247159,67.2647059 C39.5457459,69.3904275 39.6832386,71.1433824 39.6832386,71.1433824 C39.8617684,72.2858537 40.932452,73.0672516 42.0746773,72.8886833 C43.2169026,72.7101151 43.9981321,71.6392008 43.8196023,70.4967294 C43.8196023,70.4967294 43.6715205,68.9456725 43.5610795,67.0061275 C43.4506386,65.0665824 43.527575,62.6785588 43.8196023,61.7050627 C45.4249167,56.354351 48.1364148,50.6643843 52.3508523,48.3884804 C53.0477261,48.0119902 54.497716,48.0119902 55.1946023,48.3884804 C59.4090398,50.6643843 62.120542,56.354351 63.7258523,61.7050627 C64.0178382,62.6785588 64.0948159,65.0665824 63.984375,67.0061275 C63.8739341,68.9456725 63.7258523,70.4967294 63.7258523,70.4967294 C63.6103637,71.2357788 63.8978412,71.9803143 64.4799946,72.4498766 C65.062148,72.9194388 65.8505344,73.0426902 66.5481764,72.773203 C67.2458183,72.5037159 67.7467274,71.8824318 67.8622159,71.1433824 C67.8622159,71.1433824 67.9997086,69.3904275 68.1207386,67.2647059 C68.2417686,65.1389843 68.3668109,62.6545627 67.7329545,60.5416667 C66.0000209,54.7652314 63.0757772,47.977651 57.1335227,44.7683824 C55.0134461,43.6223627 52.5320043,43.6223627 50.4119318,44.7683824 L50.4119318,44.7683824 Z" id="Shape"></path>
            <path d="M17.7088068,16.3247549 C16.7161423,16.4483947 15.9541953,17.2648553 15.8991477,18.2638863 C15.8991477,18.2638863 15.1825848,22.9178843 14.6065341,24.5992647 C14.1194905,26.0212392 12.0213068,29.7708333 12.0213068,29.7708333 C11.6518136,30.4175049 11.6553229,31.2122221 12.0305128,31.8556038 C12.4057026,32.4989856 13.0955685,32.8932795 13.8402282,32.8899497 C14.5848879,32.8866199 15.2712015,32.4861722 15.640625,31.8394608 C15.640625,31.8394608 17.6407669,28.4845608 18.484375,26.0212392 C19.4170133,23.2993392 19.90625,18.7810431 19.90625,18.7810431 C20.0295203,18.1458207 19.8485434,17.4894975 19.417148,17.0072864 C18.9857526,16.5250754 18.3536344,16.2725259 17.7088068,16.3247549 L17.7088068,16.3247549 Z" id="Shape"></path>
            <path d="M13.7778835,37.0619176 C13.7779227,37.6105382 13.5600429,38.136702 13.1721793,38.5246492 C12.7843158,38.9125963 12.2582432,39.1305451 11.7097017,39.1305451 C11.1611602,39.1305451 10.6350877,38.9125963 10.2472241,38.5246492 C9.85936055,38.136702 9.64148074,37.6105382 9.6415199,37.0619176 C9.64166679,35.9196317 10.5675803,34.9937039 11.7097017,34.9937039 C12.8518231,34.9937039 13.7777367,35.9196317 13.7778835,37.0619176 L13.7778835,37.0619176 Z" id="Shape"></path>
        </g>
    </g>
</svg>