<?xml version="1.0" encoding="UTF-8"?>
<svg width="96px" height="96px" viewBox="0 0 96 96" version="1.1" xmlns="http://www.w3.org/2000/svg" xmlns:xlink="http://www.w3.org/1999/xlink">
    <!-- Generator: Sketch 41.2 (35397) - http://www.bohemiancoding.com/sketch -->
    <title>Pinterest Icon</title>
    <desc>Created with Sketch.</desc>
    <defs></defs>
    <g id="Page-1" stroke="none" stroke-width="1" fill="none" fill-rule="evenodd">
        <path d="M48,0 C21.4774775,0 0,21.4936114 0,48.0360577 C0,68.3756497 12.6126126,85.758067 30.4864865,92.7543096 C30.0540541,88.9316203 29.6936937,83.1615233 30.6306306,78.978203 C31.4954955,75.2276399 36.2522523,55.1044265 36.2522523,55.1044265 C36.2522523,55.1044265 34.8108108,52.219378 34.8108108,47.9639315 C34.8108108,41.2561937 38.7027027,36.279485 43.4594595,36.279485 C47.5675676,36.279485 49.5135135,39.3809122 49.5135135,43.059349 C49.5135135,47.1705431 46.9189189,53.3733974 45.5495495,59.0713682 C44.3963964,63.8316983 47.9279279,67.7265138 52.6846847,67.7265138 C61.1891892,67.7265138 67.7477477,58.7107372 67.7477477,45.7280189 C67.7477477,34.2599511 59.4594595,26.1818152 47.7117117,26.1818152 C34.0900901,26.1818152 26.018018,36.4237447 26.018018,47.0262979 C26.018018,51.1374848 27.6036036,55.6093172 29.6216216,57.9894751 C29.981982,58.4943585 30.0540541,58.8549896 29.981982,59.3598731 C29.6216216,60.8745236 28.8288288,64.1202031 28.6846847,64.7693391 C28.4684685,65.6348536 27.963964,65.8512322 27.0990991,65.4184822 C21.1171171,62.6055527 17.3693694,53.8782881 17.3693694,46.8099121 C17.3693694,31.6634074 28.3963964,17.7430483 49.0810811,17.7430483 C65.7297297,17.7430483 78.6306306,29.6438734 78.6306306,45.4395213 C78.6306306,61.956424 68.1801802,75.2997733 53.7657658,75.2997733 C48.9369369,75.2997733 44.3243243,72.7753559 42.7387387,69.8181812 C42.7387387,69.8181812 40.3603604,78.9782102 39.7837838,81.21413 C38.7027027,85.3974503 35.7477477,90.5905376 33.8018018,93.8362136 C38.2702703,95.2066073 43.027027,96 48,96 C74.5225225,96 96,74.506385 96,47.9639459 C96,21.4936114 74.5225225,0 48,0 L48,0 Z" id="Pinterest-Icon" fill="#252522"></path>
    </g>
</svg>