<?xml version="1.0" encoding="UTF-8"?>
<svg width="104px" height="184px" viewBox="0 0 104 184" version="1.1" xmlns="http://www.w3.org/2000/svg" xmlns:xlink="http://www.w3.org/1999/xlink">
    <!-- Generator: Sketch 40.3 (33839) - http://www.bohemiancoding.com/sketch -->
    <title>PJ Alt Icon</title>
    <desc>Created with Sketch.</desc>
    <defs></defs>
    <g id="Symbols" stroke="none" stroke-width="1" fill="none" fill-rule="evenodd">
        <g id="PJ-Alt-Icon" fill="#A82F30">
            <path d="M0,12 L12,0 L12,184 L0,172 L104,172 L92,184 L92,0 L104,12 L0,12 Z M104,0 L104,184 L0,184 L0,0 L104,0 Z" id="Rectangle-16-Copy"></path>
            <path d="M32,32 L52.8170515,32 C58.5956476,32 63.0242593,33.1768434 66.1030195,35.5305655 C70.0343595,38.4962554 72,43.4625346 72,50.4295521 C72,57.537793 70.0580419,62.5982197 66.1740675,65.610984 C64.5636391,66.8819939 62.6453634,67.7999318 60.4191829,68.3648251 C58.240368,68.882644 55.6353023,69.1415495 52.6039076,69.1415495 L44.2912966,69.1415495 L44.2912966,86.0882641 L32,86.0882641 L32,45.4867604 L32,32 L32,32 Z M51.3250444,97.2762341 L63.5452931,97.2762341 L63.5452931,133.005557 C63.5452931,139.266458 62.0059361,143.997369 58.9271758,147.198431 C55.8484156,150.399493 51.3250742,152 45.357016,152 C39.5310544,152 35.126125,150.470104 32.1420959,147.410265 C33.6104277,145.574362 35.7655275,142.773474 38.60746,139.007519 C40.3599851,140.702199 42.5150849,141.549526 45.0728242,141.549526 C47.0621769,141.549526 48.6015339,140.984641 49.6909414,139.854855 C50.7803488,138.725068 51.3250444,136.371381 51.3250444,132.793723 L51.3250444,97.2762341 L51.3250444,97.2762341 Z M44.2912966,42.3798627 L44.2912966,58.7616868 L52.3197158,58.7616868 C54.8300895,58.7616868 56.5825883,58.2674126 57.5772647,57.2788493 C58.6666721,56.1961371 59.2113677,53.9836715 59.2113677,50.6413861 C59.2113677,48.7113339 59.0692732,47.2049744 58.7850799,46.1222622 C58.4535211,45.03955 57.9798728,44.2392965 57.3641208,43.7214776 C56.8430998,43.2036587 56.1563098,42.8506057 55.30373,42.6623079 C54.4511503,42.4740102 53.3380767,42.3798627 51.964476,42.3798627 L44.2912966,42.3798627 L44.2912966,42.3798627 Z" id="P-J-Copy"></path>
        </g>
    </g>
</svg>