<?xml version="1.0" encoding="UTF-8"?>
<svg width="635px" height="108px" viewBox="0 0 635 108" version="1.1" xmlns="http://www.w3.org/2000/svg" xmlns:xlink="http://www.w3.org/1999/xlink">
    <!-- Generator: Sketch 40.3 (33839) - http://www.bohemiancoding.com/sketch -->
    <title>PJ Icon Copy</title>
    <desc>Created with Sketch.</desc>
    <defs></defs>
    <g id="Symbols" stroke="none" stroke-width="1" fill="none" fill-rule="evenodd">
        <g id="PJ-Icon-Copy" fill="#A82F30">
            <path d="M261.601562,27 C267.320341,27 271.70311,28.1718633 274.75,30.515625 C278.640644,33.4687648 280.585938,38.4140278 280.585938,45.3515625 C280.585938,52.4297229 278.664082,57.468735 274.820312,60.46875 C273.226555,61.7343813 271.328136,62.6484347 269.125,63.2109375 C266.968739,63.7265651 264.39064,63.984375 261.390625,63.984375 L253.164062,63.984375 C253.164062,66.7968891 253,89.5624578 253,98 C250.984365,98 247.09378,91 241,91 L241,40.4296875 L241,27 L261.601562,27 Z M253.164062,37.3359375 L253.164062,53.6484375 L261.109375,53.6484375 C263.593762,53.6484375 265.32812,53.1562549 266.3125,52.171875 C267.39063,51.0937446 267.929688,48.8906416 267.929688,45.5625 C267.929688,43.6406154 267.789064,42.1406304 267.507812,41.0625 C267.179686,39.9843696 266.710941,39.1875026 266.101562,38.671875 C265.585935,38.1562474 264.906254,37.8046884 264.0625,37.6171875 C263.218746,37.4296866 262.117194,37.3359375 260.757812,37.3359375 L253.164062,37.3359375 L253.164062,37.3359375 Z M287,10 C289.015635,10 292.953095,17 299,17 C301.497627,17 299.195312,46.7655359 299.195312,64.578125 C299.195312,70.8125312 297.67189,75.5234216 294.625,78.7109375 C291.57811,81.8984534 287.101592,83.4921875 281.195312,83.4921875 C275.429659,83.4921875 271.070327,81.9687652 268.117188,78.921875 C269.57032,77.0937409 271.703111,74.3047062 274.515625,70.5546875 C276.250009,72.2421959 278.3828,73.0859375 280.914062,73.0859375 C282.882822,73.0859375 284.406245,72.5234431 285.484375,71.3984375 C286.562505,70.2734319 287.101562,67.9297053 287.101562,64.3671875 L287.101562,29 L287,10 Z" id="PJ-Copy"></path>
            <path d="M233,77.8215751 L233,93.332136 C222.5346,83.4835272 216,69.5048824 216,54 C216,24.1766235 240.176624,0 270,0 C281.10088,0 291.419412,3.34962995 300,9.09329422 L300,21.8128151 C292.140497,14.4841846 281.593917,10 270,10 C245.699471,10 226,29.699471 226,54 C226,62.7781431 228.570564,70.9558988 233,77.8215751 Z M241,87.0915631 L241,99.5602079 C249.377279,104.903639 259.327043,108 270,108 C299.823376,108 324,83.8233765 324,54 C324,38.9950613 317.880013,25.4195222 308,15.6333423 L308,31.8048067 C311.813956,38.3205376 314,45.9049798 314,54 C314,78.300529 294.300529,98 270,98 C258.890925,98 248.743423,93.8830189 241,87.0915631 Z" id="Combined-Shape"></path>
            <path d="M2.8835445,45.0625 L12.0397945,45.0625 C14.5814739,45.0625 16.5293711,45.5833281 17.8835445,46.625 C19.6127198,47.9375066 20.4772945,50.1354013 20.4772945,53.21875 C20.4772945,56.3645991 19.6231364,58.60416 17.9147945,59.9375 C17.2064576,60.5000028 16.3627161,60.9062488 15.3835445,61.15625 C14.4252064,61.3854178 13.2793845,61.5 11.9460445,61.5 L8.2897945,61.5 L8.2897945,69 L2.8835445,69 L2.8835445,51.03125 L2.8835445,45.0625 L2.8835445,45.0625 Z M8.2897945,49.65625 L8.2897945,56.90625 L11.8210445,56.90625 C12.9252167,56.90625 13.6960423,56.6875022 14.1335445,56.25 C14.6127136,55.7708309 14.8522945,54.7916741 14.8522945,53.3125 C14.8522945,52.4583291 14.7897951,51.7916691 14.6647945,51.3125 C14.5189604,50.8333309 14.3106292,50.4791678 14.0397945,50.25 C13.8106267,50.0208322 13.5085464,49.8645838 13.1335445,49.78125 C12.7585426,49.6979163 12.2689642,49.65625 11.6647945,49.65625 L8.2897945,49.65625 L8.2897945,49.65625 Z M30.9286834,45.0625 L36.3036834,45.0625 L36.3036834,60.875 C36.3036834,63.6458472 35.6266068,65.7395762 34.2724334,67.15625 C32.91826,68.5729238 30.9286965,69.28125 28.3036834,69.28125 C25.7411706,69.28125 23.80369,68.6041734 22.4911834,67.25 C23.13702,66.4374959 24.0849271,65.197925 25.3349334,63.53125 C26.1057706,64.2812537 27.0536778,64.65625 28.1786834,64.65625 C29.0536878,64.65625 29.7307643,64.4062525 30.2099334,63.90625 C30.6891025,63.4062475 30.9286834,62.3645913 30.9286834,60.78125 L30.9286834,45.0625 L30.9286834,45.0625 Z M72.1891001,46.71875 C71.7515979,47.3645866 70.8974398,48.6562403 69.6266001,50.59375 C68.9182632,50.1145809 68.0953548,49.7604178 67.1578501,49.53125 C66.199512,49.3229156 65.2828545,49.21875 64.4078501,49.21875 C63.449512,49.21875 62.7203526,49.3958316 62.2203501,49.75 C61.6995141,50.1250019 61.4391001,50.7604122 61.4391001,51.65625 C61.4391001,52.0520853 61.5640988,52.4062484 61.8141001,52.71875 C62.0849348,53.0104181 62.4286813,53.2708322 62.8453501,53.5 C63.2828523,53.7083344 63.7828473,53.8958325 64.3453501,54.0625 C64.9078529,54.2500009 65.501597,54.4479156 66.1266001,54.65625 C66.7516032,54.8645844 67.376597,55.0937488 68.0016001,55.34375 C68.6266032,55.5937512 69.2203473,55.9166647 69.7828501,56.3125 C70.3453529,56.6875019 70.8453479,57.1145809 71.2828501,57.59375 C71.7203523,58.0937525 72.0640988,58.7187463 72.3141001,59.46875 C72.5641013,60.1979203 72.6891001,61.0312453 72.6891001,61.96875 C72.6891001,63.2604231 72.428686,64.3854119 71.9078501,65.34375 C71.3661807,66.3020881 70.6474379,67.0937469 69.7516001,67.71875 C68.0849251,68.8437556 65.991196,69.40625 63.4703501,69.40625 C62.0120095,69.40625 60.5432741,69.2187519 59.0641001,68.84375 C57.6057595,68.4479147 56.4286879,67.8437541 55.5328501,67.03125 C56.1161863,66.1562456 57.0015941,64.8333422 58.1891001,63.0625 C58.9599373,63.6666697 59.8661782,64.1145819 60.9078501,64.40625 C61.9286885,64.6979181 62.9703448,64.84375 64.0328501,64.84375 C64.4911857,64.84375 64.8974316,64.8020838 65.2516001,64.71875 C65.6057685,64.6562497 65.9390985,64.5312509 66.2516001,64.34375 C66.5641016,64.1562491 66.8036826,63.8854184 66.9703501,63.53125 C67.1370176,63.1562481 67.2203501,62.7187525 67.2203501,62.21875 C67.2203501,61.7604144 67.0849348,61.364585 66.8141001,61.03125 C66.5640988,60.6770816 66.2203523,60.3854178 65.7828501,60.15625 C65.3661813,59.9270822 64.8661863,59.7083344 64.2828501,59.5 C63.7203473,59.3124991 63.1266032,59.1145844 62.5016001,58.90625 C61.8974304,58.6979156 61.2828532,58.4791678 60.6578501,58.25 C60.032847,57.9999988 59.4391029,57.6875019 58.8766001,57.3125 C58.3140973,56.9374981 57.8141023,56.5104191 57.3766001,56.03125 C56.9390979,55.5520809 56.5849348,54.9583369 56.3141001,54.25 C56.0640988,53.5208297 55.9391001,52.6979213 55.9391001,51.78125 C55.9391001,49.5937391 56.8140913,47.8437566 58.5641001,46.53125 C60.2516085,45.2812438 62.3765873,44.65625 64.9391001,44.65625 C66.2307732,44.65625 67.5432601,44.822915 68.8766001,45.15625 C70.1891066,45.489585 71.2932623,46.0104131 72.1891001,46.71875 L72.1891001,46.71875 Z M74.671739,45.0625 L92.827989,45.0625 L92.827989,49.84375 L86.452989,49.84375 L86.452989,69 L81.046739,69 L81.046739,49.84375 L74.671739,49.84375 L74.671739,46.53125 L74.671739,45.0625 L74.671739,45.0625 Z M96.2481279,45.0625 L105.966878,45.0625 C108.446057,45.0625 110.352288,45.4895791 111.685628,46.34375 C112.518965,46.8854194 113.164792,47.6041622 113.623128,48.5 C114.06063,49.3750044 114.279378,50.5104097 114.279378,51.90625 C114.279378,53.5937584 113.904382,55.0104109 113.154378,56.15625 C112.383541,57.2812556 111.216886,58.0520813 109.654378,58.46875 C110.175214,58.5729172 110.633543,58.7291656 111.029378,58.9375 C111.425213,59.1666678 111.779376,59.4895813 112.091878,59.90625 C112.404379,60.3229187 112.67521,60.8020806 112.904378,61.34375 C113.133546,61.8645859 113.341877,62.5208294 113.529378,63.3125 C113.716879,64.1041706 113.883544,64.9479122 114.029378,65.84375 C114.154378,66.7395878 114.289794,67.7916606 114.435628,69 L108.779378,69 C108.633544,68.1041622 108.508545,67.3541697 108.404378,66.75 C108.300211,66.1458303 108.196045,65.5416697 108.091878,64.9375 C107.966877,64.3541637 107.841878,63.8750019 107.716878,63.5 C107.612711,63.1249981 107.487712,62.7604184 107.341878,62.40625 C107.196044,62.072915 107.050212,61.8020844 106.904378,61.59375 C106.758544,61.4062491 106.581462,61.2500006 106.373128,61.125 C106.164793,60.9583325 105.946046,60.8541669 105.716878,60.8125 C105.48771,60.7499997 105.216879,60.71875 104.904378,60.71875 L101.654378,60.71875 L101.654378,69 L96.2481279,69 L96.2481279,54.03125 L96.2481279,45.0625 L96.2481279,45.0625 Z M101.654378,49.65625 L101.654378,56.1875 L104.279378,56.1875 C105.029382,56.1875 105.654375,56.1354172 106.154378,56.03125 C106.65438,55.9270828 107.102293,55.7500012 107.498128,55.5 C107.914797,55.2291653 108.216877,54.8437525 108.404378,54.34375 C108.571045,53.8437475 108.654378,53.2083372 108.654378,52.4375 C108.654378,51.3541613 108.414797,50.6041687 107.935628,50.1875 C107.539793,49.8333316 106.7898,49.65625 105.685628,49.65625 L101.654378,49.65625 L101.654378,49.65625 Z M119.105767,45.0625 L124.512017,45.0625 L124.512017,69 L119.105767,69 L119.105767,54.03125 L119.105767,45.0625 L119.105767,45.0625 Z M130.213406,45.0625 L144.557156,45.0625 L144.557156,49.53125 L135.463406,49.53125 L135.463406,54.625 L143.744656,54.625 L143.744656,59.09375 L135.463406,59.09375 L135.463406,64.53125 L144.713406,64.53125 L144.713406,69 L130.213406,69 L130.213406,54.03125 L130.213406,45.0625 L130.213406,45.0625 Z M147.477295,45.0625 L165.633545,45.0625 L165.633545,49.84375 L159.258545,49.84375 L159.258545,69 L153.852295,69 L153.852295,49.84375 L147.477295,49.84375 L147.477295,46.53125 L147.477295,45.0625 L147.477295,45.0625 Z M168.101137,45.3125 C168.101137,44.4374956 168.382384,43.6979197 168.944887,43.09375 C169.50739,42.5104137 170.257382,42.21875 171.194887,42.21875 C172.153225,42.21875 172.903218,42.5104137 173.444887,43.09375 C174.00739,43.6979197 174.288637,44.4583287 174.288637,45.375 C174.288637,47.4791772 173.132399,50.2708159 170.819887,53.75 C170.11155,53.3958316 169.028228,52.8437537 167.569887,52.09375 C167.590721,52.0520831 167.68447,51.8750016 167.851137,51.5625 C167.996971,51.2499984 168.101137,51.0416672 168.163637,50.9375 C168.205304,50.8333328 168.299053,50.6354181 168.444887,50.34375 C168.569888,50.0729153 168.663637,49.8541675 168.726137,49.6875 C168.788637,49.5208325 168.87197,49.3125012 168.976137,49.0625 C169.080304,48.8124988 169.163637,48.5833344 169.226137,48.375 C169.309471,48.1666656 169.37197,47.9583344 169.413637,47.75 C168.996968,47.5208322 168.674055,47.1875022 168.444887,46.75 C168.215719,46.3333313 168.101137,45.8541694 168.101137,45.3125 L168.101137,45.3125 Z M193.75623,46.71875 C193.318728,47.3645866 192.464569,48.6562403 191.19373,50.59375 C190.485393,50.1145809 189.662484,49.7604178 188.72498,49.53125 C187.766642,49.3229156 186.849984,49.21875 185.97498,49.21875 C185.016642,49.21875 184.287482,49.3958316 183.78748,49.75 C183.266644,50.1250019 183.00623,50.7604122 183.00623,51.65625 C183.00623,52.0520853 183.131229,52.4062484 183.38123,52.71875 C183.652064,53.0104181 183.995811,53.2708322 184.41248,53.5 C184.849982,53.7083344 185.349977,53.8958325 185.91248,54.0625 C186.474983,54.2500009 187.068727,54.4479156 187.69373,54.65625 C188.318733,54.8645844 188.943727,55.0937488 189.56873,55.34375 C190.193733,55.5937512 190.787477,55.9166647 191.34998,56.3125 C191.912483,56.6875019 192.412478,57.1145809 192.84998,57.59375 C193.287482,58.0937525 193.631229,58.7187463 193.88123,59.46875 C194.131231,60.1979203 194.25623,61.0312453 194.25623,61.96875 C194.25623,63.2604231 193.995816,64.3854119 193.47498,65.34375 C192.93331,66.3020881 192.214568,67.0937469 191.31873,67.71875 C189.652055,68.8437556 187.558326,69.40625 185.03748,69.40625 C183.579139,69.40625 182.110404,69.2187519 180.63123,68.84375 C179.172889,68.4479147 177.995818,67.8437541 177.09998,67.03125 C177.683316,66.1562456 178.568724,64.8333422 179.75623,63.0625 C180.527067,63.6666697 181.433308,64.1145819 182.47498,64.40625 C183.495818,64.6979181 184.537474,64.84375 185.59998,64.84375 C186.058315,64.84375 186.464561,64.8020838 186.81873,64.71875 C187.172898,64.6562497 187.506228,64.5312509 187.81873,64.34375 C188.131231,64.1562491 188.370812,63.8854184 188.53748,63.53125 C188.704147,63.1562481 188.78748,62.7187525 188.78748,62.21875 C188.78748,61.7604144 188.652064,61.364585 188.38123,61.03125 C188.131229,60.6770816 187.787482,60.3854178 187.34998,60.15625 C186.933311,59.9270822 186.433316,59.7083344 185.84998,59.5 C185.287477,59.3124991 184.693733,59.1145844 184.06873,58.90625 C183.46456,58.6979156 182.849983,58.4791678 182.22498,58.25 C181.599977,57.9999988 181.006233,57.6875019 180.44373,57.3125 C179.881227,56.9374981 179.381232,56.5104191 178.94373,56.03125 C178.506228,55.5520809 178.152064,54.9583369 177.88123,54.25 C177.631229,53.5208297 177.50623,52.6979213 177.50623,51.78125 C177.50623,49.5937391 178.381221,47.8437566 180.13123,46.53125 C181.818738,45.2812438 183.943717,44.65625 186.50623,44.65625 C187.797903,44.65625 189.11039,44.822915 190.44373,45.15625 C191.756236,45.489585 192.860392,46.0104131 193.75623,46.71875 L193.75623,46.71875 Z" id="PJ-STRIET’S-Copy"></path>
            <path d="M347.375,45.0625 L361.78125,45.0625 L361.78125,49.84375 L352.78125,49.84375 L352.78125,55.09375 L361,55.09375 L361,59.84375 L352.78125,59.84375 L352.78125,69 L347.375,69 L347.375,54.03125 L347.375,45.0625 L347.375,45.0625 Z M366.201389,45.0625 L371.607639,45.0625 L371.607639,69 L366.201389,69 L366.201389,54.03125 L366.201389,45.0625 L366.201389,45.0625 Z M375.090278,45.0625 L393.246528,45.0625 L393.246528,49.84375 L386.871528,49.84375 L386.871528,69 L381.465278,69 L381.465278,49.84375 L375.090278,49.84375 L375.090278,46.53125 L375.090278,45.0625 L375.090278,45.0625 Z M396.635417,45.0625 L403.510417,45.0625 C404.86459,47.8333472 407.593729,53.3957916 411.697917,61.75 C411.677083,58.9583194 411.625,53.395875 411.541667,45.0625 L416.697917,45.0625 L416.697917,69 L409.822917,69 C408.468743,66.2291528 405.739604,60.677125 401.635417,52.34375 C401.65625,55.1145972 401.708333,60.666625 401.791667,69 L396.635417,69 L396.635417,51.03125 L396.635417,45.0625 L396.635417,45.0625 Z M422.274306,45.0625 L436.618056,45.0625 L436.618056,49.53125 L427.524306,49.53125 L427.524306,54.625 L435.805556,54.625 L435.805556,59.09375 L427.524306,59.09375 L427.524306,64.53125 L436.774306,64.53125 L436.774306,69 L422.274306,69 L422.274306,54.03125 L422.274306,45.0625 L422.274306,45.0625 Z M456.538194,46.71875 C456.100692,47.3645866 455.246534,48.6562403 453.975694,50.59375 C453.267358,50.1145809 452.444449,49.7604178 451.506944,49.53125 C450.548606,49.3229156 449.631949,49.21875 448.756944,49.21875 C447.798606,49.21875 447.069447,49.3958316 446.569444,49.75 C446.048609,50.1250019 445.788194,50.7604122 445.788194,51.65625 C445.788194,52.0520853 445.913193,52.4062484 446.163194,52.71875 C446.434029,53.0104181 446.777776,53.2708322 447.194444,53.5 C447.631947,53.7083344 448.131942,53.8958325 448.694444,54.0625 C449.256947,54.2500009 449.850691,54.4479156 450.475694,54.65625 C451.100698,54.8645844 451.725691,55.0937488 452.350694,55.34375 C452.975698,55.5937512 453.569442,55.9166647 454.131944,56.3125 C454.694447,56.6875019 455.194442,57.1145809 455.631944,57.59375 C456.069447,58.0937525 456.413193,58.7187463 456.663194,59.46875 C456.913196,60.1979203 457.038194,61.0312453 457.038194,61.96875 C457.038194,63.2604231 456.77778,64.3854119 456.256944,65.34375 C455.715275,66.3020881 454.996532,67.0937469 454.100694,67.71875 C452.434019,68.8437556 450.34029,69.40625 447.819444,69.40625 C446.361104,69.40625 444.892369,69.2187519 443.413194,68.84375 C441.954854,68.4479147 440.777782,67.8437541 439.881944,67.03125 C440.465281,66.1562456 441.350689,64.8333422 442.538194,63.0625 C443.309032,63.6666697 444.215273,64.1145819 445.256944,64.40625 C446.277783,64.6979181 447.319439,64.84375 448.381944,64.84375 C448.84028,64.84375 449.246526,64.8020838 449.600694,64.71875 C449.954863,64.6562497 450.288193,64.5312509 450.600694,64.34375 C450.913196,64.1562491 451.152777,63.8854184 451.319444,63.53125 C451.486112,63.1562481 451.569444,62.7187525 451.569444,62.21875 C451.569444,61.7604144 451.434029,61.364585 451.163194,61.03125 C450.913193,60.6770816 450.569447,60.3854178 450.131944,60.15625 C449.715276,59.9270822 449.215281,59.7083344 448.631944,59.5 C448.069442,59.3124991 447.475698,59.1145844 446.850694,58.90625 C446.246525,58.6979156 445.631948,58.4791678 445.006944,58.25 C444.381941,57.9999988 443.788197,57.6875019 443.225694,57.3125 C442.663192,56.9374981 442.163197,56.5104191 441.725694,56.03125 C441.288192,55.5520809 440.934029,54.9583369 440.663194,54.25 C440.413193,53.5208297 440.288194,52.6979213 440.288194,51.78125 C440.288194,49.5937391 441.163186,47.8437566 442.913194,46.53125 C444.600703,45.2812438 446.725682,44.65625 449.288194,44.65625 C450.579868,44.65625 451.892354,44.822915 453.225694,45.15625 C454.538201,45.489585 455.642357,46.0104131 456.538194,46.71875 L456.538194,46.71875 Z M476.020833,46.71875 C475.583331,47.3645866 474.729173,48.6562403 473.458333,50.59375 C472.749996,50.1145809 471.927088,49.7604178 470.989583,49.53125 C470.031245,49.3229156 469.114588,49.21875 468.239583,49.21875 C467.281245,49.21875 466.552086,49.3958316 466.052083,49.75 C465.531247,50.1250019 465.270833,50.7604122 465.270833,51.65625 C465.270833,52.0520853 465.395832,52.4062484 465.645833,52.71875 C465.916668,53.0104181 466.260415,53.2708322 466.677083,53.5 C467.114586,53.7083344 467.614581,53.8958325 468.177083,54.0625 C468.739586,54.2500009 469.33333,54.4479156 469.958333,54.65625 C470.583336,54.8645844 471.20833,55.0937488 471.833333,55.34375 C472.458336,55.5937512 473.052081,55.9166647 473.614583,56.3125 C474.177086,56.6875019 474.677081,57.1145809 475.114583,57.59375 C475.552086,58.0937525 475.895832,58.7187463 476.145833,59.46875 C476.395835,60.1979203 476.520833,61.0312453 476.520833,61.96875 C476.520833,63.2604231 476.260419,64.3854119 475.739583,65.34375 C475.197914,66.3020881 474.479171,67.0937469 473.583333,67.71875 C471.916658,68.8437556 469.822929,69.40625 467.302083,69.40625 C465.843743,69.40625 464.375007,69.2187519 462.895833,68.84375 C461.437493,68.4479147 460.260421,67.8437541 459.364583,67.03125 C459.94792,66.1562456 460.833327,64.8333422 462.020833,63.0625 C462.791671,63.6666697 463.697911,64.1145819 464.739583,64.40625 C465.760422,64.6979181 466.802078,64.84375 467.864583,64.84375 C468.322919,64.84375 468.729165,64.8020838 469.083333,64.71875 C469.437502,64.6562497 469.770832,64.5312509 470.083333,64.34375 C470.395835,64.1562491 470.635416,63.8854184 470.802083,63.53125 C470.968751,63.1562481 471.052083,62.7187525 471.052083,62.21875 C471.052083,61.7604144 470.916668,61.364585 470.645833,61.03125 C470.395832,60.6770816 470.052086,60.3854178 469.614583,60.15625 C469.197915,59.9270822 468.69792,59.7083344 468.114583,59.5 C467.552081,59.3124991 466.958336,59.1145844 466.333333,58.90625 C465.729164,58.6979156 465.114586,58.4791678 464.489583,58.25 C463.86458,57.9999988 463.270836,57.6875019 462.708333,57.3125 C462.145831,56.9374981 461.645836,56.5104191 461.208333,56.03125 C460.770831,55.5520809 460.416668,54.9583369 460.145833,54.25 C459.895832,53.5208297 459.770833,52.6979213 459.770833,51.78125 C459.770833,49.5937391 460.645825,47.8437566 462.395833,46.53125 C464.083342,45.2812438 466.208321,44.65625 468.770833,44.65625 C470.062506,44.65625 471.374993,44.822915 472.708333,45.15625 C474.02084,45.489585 475.124996,46.0104131 476.020833,46.71875 L476.020833,46.71875 Z M503.204861,46.71875 C502.767359,47.3645866 501.913201,48.6562403 500.642361,50.59375 C499.934024,50.1145809 499.111116,49.7604178 498.173611,49.53125 C497.215273,49.3229156 496.298616,49.21875 495.423611,49.21875 C494.465273,49.21875 493.736114,49.3958316 493.236111,49.75 C492.715275,50.1250019 492.454861,50.7604122 492.454861,51.65625 C492.454861,52.0520853 492.57986,52.4062484 492.829861,52.71875 C493.100696,53.0104181 493.444442,53.2708322 493.861111,53.5 C494.298613,53.7083344 494.798608,53.8958325 495.361111,54.0625 C495.923614,54.2500009 496.517358,54.4479156 497.142361,54.65625 C497.767364,54.8645844 498.392358,55.0937488 499.017361,55.34375 C499.642364,55.5937512 500.236108,55.9166647 500.798611,56.3125 C501.361114,56.6875019 501.861109,57.1145809 502.298611,57.59375 C502.736113,58.0937525 503.07986,58.7187463 503.329861,59.46875 C503.579862,60.1979203 503.704861,61.0312453 503.704861,61.96875 C503.704861,63.2604231 503.444447,64.3854119 502.923611,65.34375 C502.381942,66.3020881 501.663199,67.0937469 500.767361,67.71875 C499.100686,68.8437556 497.006957,69.40625 494.486111,69.40625 C493.027771,69.40625 491.559035,69.2187519 490.079861,68.84375 C488.621521,68.4479147 487.444449,67.8437541 486.548611,67.03125 C487.131947,66.1562456 488.017355,64.8333422 489.204861,63.0625 C489.975698,63.6666697 490.881939,64.1145819 491.923611,64.40625 C492.94445,64.6979181 493.986106,64.84375 495.048611,64.84375 C495.506947,64.84375 495.913193,64.8020838 496.267361,64.71875 C496.62153,64.6562497 496.95486,64.5312509 497.267361,64.34375 C497.579863,64.1562491 497.819444,63.8854184 497.986111,63.53125 C498.152779,63.1562481 498.236111,62.7187525 498.236111,62.21875 C498.236111,61.7604144 498.100696,61.364585 497.829861,61.03125 C497.57986,60.6770816 497.236113,60.3854178 496.798611,60.15625 C496.381942,59.9270822 495.881947,59.7083344 495.298611,59.5 C494.736108,59.3124991 494.142364,59.1145844 493.517361,58.90625 C492.913191,58.6979156 492.298614,58.4791678 491.673611,58.25 C491.048608,57.9999988 490.454864,57.6875019 489.892361,57.3125 C489.329858,56.9374981 488.829863,56.5104191 488.392361,56.03125 C487.954859,55.5520809 487.600696,54.9583369 487.329861,54.25 C487.07986,53.5208297 486.954861,52.6979213 486.954861,51.78125 C486.954861,49.5937391 487.829852,47.8437566 489.579861,46.53125 C491.26737,45.2812438 493.392348,44.65625 495.954861,44.65625 C497.246534,44.65625 498.559021,44.822915 499.892361,45.15625 C501.204868,45.489585 502.309023,46.0104131 503.204861,46.71875 L503.204861,46.71875 Z M505.09375,45.0625 L511.28125,45.0625 C511.94792,46.6458413 513.28124,49.8228928 515.28125,54.59375 C515.968753,52.9895753 517.34374,49.8125237 519.40625,45.0625 L525.59375,45.0625 C524.302077,47.5625125 521.750019,52.5520459 517.9375,60.03125 L517.9375,69 L512.53125,69 L512.53125,60.03125 C511.281244,57.5312375 508.802102,52.5417041 505.09375,45.0625 L505.09375,45.0625 Z M543.201389,46.71875 C542.763887,47.3645866 541.909729,48.6562403 540.638889,50.59375 C539.930552,50.1145809 539.107644,49.7604178 538.170139,49.53125 C537.211801,49.3229156 536.295143,49.21875 535.420139,49.21875 C534.461801,49.21875 533.732641,49.3958316 533.232639,49.75 C532.711803,50.1250019 532.451389,50.7604122 532.451389,51.65625 C532.451389,52.0520853 532.576388,52.4062484 532.826389,52.71875 C533.097224,53.0104181 533.44097,53.2708322 533.857639,53.5 C534.295141,53.7083344 534.795136,53.8958325 535.357639,54.0625 C535.920142,54.2500009 536.513886,54.4479156 537.138889,54.65625 C537.763892,54.8645844 538.388886,55.0937488 539.013889,55.34375 C539.638892,55.5937512 540.232636,55.9166647 540.795139,56.3125 C541.357642,56.6875019 541.857637,57.1145809 542.295139,57.59375 C542.732641,58.0937525 543.076388,58.7187463 543.326389,59.46875 C543.57639,60.1979203 543.701389,61.0312453 543.701389,61.96875 C543.701389,63.2604231 543.440975,64.3854119 542.920139,65.34375 C542.37847,66.3020881 541.659727,67.0937469 540.763889,67.71875 C539.097214,68.8437556 537.003485,69.40625 534.482639,69.40625 C533.024298,69.40625 531.555563,69.2187519 530.076389,68.84375 C528.618048,68.4479147 527.440977,67.8437541 526.545139,67.03125 C527.128475,66.1562456 528.013883,64.8333422 529.201389,63.0625 C529.972226,63.6666697 530.878467,64.1145819 531.920139,64.40625 C532.940977,64.6979181 533.982634,64.84375 535.045139,64.84375 C535.503475,64.84375 535.909721,64.8020838 536.263889,64.71875 C536.618057,64.6562497 536.951387,64.5312509 537.263889,64.34375 C537.576391,64.1562491 537.815971,63.8854184 537.982639,63.53125 C538.149306,63.1562481 538.232639,62.7187525 538.232639,62.21875 C538.232639,61.7604144 538.097224,61.364585 537.826389,61.03125 C537.576388,60.6770816 537.232641,60.3854178 536.795139,60.15625 C536.37847,59.9270822 535.878475,59.7083344 535.295139,59.5 C534.732636,59.3124991 534.138892,59.1145844 533.513889,58.90625 C532.909719,58.6979156 532.295142,58.4791678 531.670139,58.25 C531.045136,57.9999988 530.451392,57.6875019 529.888889,57.3125 C529.326386,56.9374981 528.826391,56.5104191 528.388889,56.03125 C527.951387,55.5520809 527.597224,54.9583369 527.326389,54.25 C527.076388,53.5208297 526.951389,52.6979213 526.951389,51.78125 C526.951389,49.5937391 527.82638,47.8437566 529.576389,46.53125 C531.263897,45.2812438 533.388876,44.65625 535.951389,44.65625 C537.243062,44.65625 538.555549,44.822915 539.888889,45.15625 C541.201396,45.489585 542.305551,46.0104131 543.201389,46.71875 L543.201389,46.71875 Z M545.684028,45.0625 L563.840278,45.0625 L563.840278,49.84375 L557.465278,49.84375 L557.465278,69 L552.059028,69 L552.059028,49.84375 L545.684028,49.84375 L545.684028,46.53125 L545.684028,45.0625 L545.684028,45.0625 Z M567.291667,45.0625 L581.635417,45.0625 L581.635417,49.53125 L572.541667,49.53125 L572.541667,54.625 L580.822917,54.625 L580.822917,59.09375 L572.541667,59.09375 L572.541667,64.53125 L581.791667,64.53125 L581.791667,69 L567.291667,69 L567.291667,54.03125 L567.291667,45.0625 L567.291667,45.0625 Z M587.430556,45.0625 L594.649306,45.0625 C595.440976,47.6250128 597.03471,52.7707947 599.430556,60.5 C600.222226,57.9374872 601.826377,52.7917053 604.243056,45.0625 L611.399306,45.0625 C611.628473,49.0416866 612.086802,57.0207734 612.774306,69 L607.493056,69 C607.368055,65.999985 607.149307,60.0104616 606.836806,51.03125 C606.003468,53.8437641 604.336818,59.4582913 601.836806,67.875 L596.899306,67.875 C596.065968,65.0624859 594.409735,59.4375422 591.930556,51 C591.826388,54.000015 591.597224,59.999955 591.243056,69 L586.024306,69 C586.253473,64.99998 586.722219,57.0208931 587.430556,45.0625 L587.430556,45.0625 Z M632.444445,46.71875 C632.006942,47.3645866 631.152784,48.6562403 629.881945,50.59375 C629.173608,50.1145809 628.350699,49.7604178 627.413195,49.53125 C626.454856,49.3229156 625.538199,49.21875 624.663195,49.21875 C623.704856,49.21875 622.975697,49.3958316 622.475695,49.75 C621.954859,50.1250019 621.694445,50.7604122 621.694445,51.65625 C621.694445,52.0520853 621.819443,52.4062484 622.069445,52.71875 C622.340279,53.0104181 622.684026,53.2708322 623.100695,53.5 C623.538197,53.7083344 624.038192,53.8958325 624.600695,54.0625 C625.163197,54.2500009 625.756941,54.4479156 626.381945,54.65625 C627.006948,54.8645844 627.631941,55.0937488 628.256945,55.34375 C628.881948,55.5937512 629.475692,55.9166647 630.038195,56.3125 C630.600697,56.6875019 631.100692,57.1145809 631.538195,57.59375 C631.975697,58.0937525 632.319443,58.7187463 632.569445,59.46875 C632.819446,60.1979203 632.944445,61.0312453 632.944445,61.96875 C632.944445,63.2604231 632.68403,64.3854119 632.163195,65.34375 C631.621525,66.3020881 630.902782,67.0937469 630.006945,67.71875 C628.34027,68.8437556 626.24654,69.40625 623.725695,69.40625 C622.267354,69.40625 620.798619,69.2187519 619.319445,68.84375 C617.861104,68.4479147 616.684032,67.8437541 615.788195,67.03125 C616.371531,66.1562456 617.256939,64.8333422 618.444445,63.0625 C619.215282,63.6666697 620.121523,64.1145819 621.163195,64.40625 C622.184033,64.6979181 623.225689,64.84375 624.288195,64.84375 C624.74653,64.84375 625.152776,64.8020838 625.506945,64.71875 C625.861113,64.6562497 626.194443,64.5312509 626.506945,64.34375 C626.819446,64.1562491 627.059027,63.8854184 627.225695,63.53125 C627.392362,63.1562481 627.475695,62.7187525 627.475695,62.21875 C627.475695,61.7604144 627.340279,61.364585 627.069445,61.03125 C626.819443,60.6770816 626.475697,60.3854178 626.038195,60.15625 C625.621526,59.9270822 625.121531,59.7083344 624.538195,59.5 C623.975692,59.3124991 623.381948,59.1145844 622.756945,58.90625 C622.152775,58.6979156 621.538198,58.4791678 620.913195,58.25 C620.288191,57.9999988 619.694447,57.6875019 619.131945,57.3125 C618.569442,56.9374981 618.069447,56.5104191 617.631945,56.03125 C617.194442,55.5520809 616.840279,54.9583369 616.569445,54.25 C616.319443,53.5208297 616.194445,52.6979213 616.194445,51.78125 C616.194445,49.5937391 617.069436,47.8437566 618.819445,46.53125 C620.506953,45.2812438 622.631932,44.65625 625.194445,44.65625 C626.486118,44.65625 627.798605,44.822915 629.131945,45.15625 C630.444451,45.489585 631.548607,46.0104131 632.444445,46.71875 L632.444445,46.71875 Z" id="FITNESS-SYSTEMS-Copy"></path>
        </g>
    </g>
</svg>