<?xml version="1.0" encoding="UTF-8"?>
<svg width="100px" height="136px" viewBox="0 0 100 136" version="1.1" xmlns="http://www.w3.org/2000/svg" xmlns:xlink="http://www.w3.org/1999/xlink">
    <!-- Generator: Sketch 40.3 (33839) - http://www.bohemiancoding.com/sketch -->
    <title>Strength</title>
    <desc>Created with Sketch.</desc>
    <defs></defs>
    <g id="Page-1" stroke="none" stroke-width="1" fill="none" fill-rule="evenodd">
        <g id="Strength" transform="translate(0.000000, -1.000000)" fill="#252522">
            <g id="noun_297969_cc">
                <g id="Group">
                    <g transform="translate(0.000000, 0.189000)" id="Shape">
                        <path d="M50,35.875 C36.878425,35.875 23.965855,41.128 14.6875,50.406 C5.409145,59.6845 0,72.7535 0,85.875 C0,98.9965 5.409145,111.909 14.6875,121.1875 C23.965855,130.466 36.878425,135.875 50,135.875 C63.121575,135.875 76.034145,130.466 85.3125,121.1875 C94.590855,111.909 100,98.9965 100,85.875 C100,72.7535 94.590855,59.6845 85.3125,50.406 C76.034145,41.128 63.121575,35.875 50,35.875 L50,35.875 Z M50,40.875 C61.749365,40.875 73.566945,45.692 81.875,54 C90.183055,62.308 95,74.1255 95,85.875 C95,97.6245 90.183055,109.2855 81.875,117.594 C73.566945,125.902 61.749365,130.875 50,130.875 C38.250635,130.875 26.433055,125.902 18.125,117.594 C9.8169435,109.2855 5,97.6245 5,85.875 C5,74.1255 9.8169435,62.308 18.125,54 C26.433055,45.692 38.250635,40.875 50,40.875 L50,40.875 Z"></path>
                        <path d="M50,0.875 C39.16891,0.875 28.372805,2.367 19.84375,5.5625 C12.3921775,8.3545 6.452751,15.4805 5.15625,23.0625 C4.1970165,28.672 7.02872,34.967 9.6875,40.25 C12.34628,45.533 15.15625,49.625 15.15625,49.625 C15.5861166,50.5121641 16.4971614,51.0639178 17.4825252,51.033856 C18.4678889,51.0037943 19.3436046,50.3975296 19.7185904,49.4858109 C20.0935762,48.5740921 19.8978225,47.5271369 19.21875,46.8125 C19.21875,46.8125 16.5500925,43.005 14.0625,38.0625 C11.5749075,33.12 9.6304165,26.919 10.15625,23.844 C11.093823,18.361 16.0276825,12.324 21.5625,10.25 C36.96803,4.478 63.013955,4.477 78.4375,10.25 C83.977485,12.3235 88.953845,18.382 89.84375,23.844 C90.346455,26.929 88.21259,33.1275 85.625,38.0625 C83.03741,42.9975 80.3125,46.8125 80.3125,46.8125 C79.7821416,47.538192 79.6792473,48.4917106 80.04258,49.3138409 C80.4059126,50.1359712 81.1802672,50.7017981 82.0739244,50.7981599 C82.9675816,50.8945218 83.8447585,50.5067774 84.375,49.781 C84.375,49.781 87.39004,45.5255 90.15625,40.25 C92.92246,34.9745 95.76558,28.72 94.84375,23.0625 C93.602555,15.4445 87.604455,8.35 80.15625,5.5625 C71.61957,2.3675 60.83109,0.875 50,0.875 L50,0.875 Z"></path>
                        <path d="M50,15.875 C42.949525,15.875 35.933315,16.7245 30.3125,18.531 C25.24925,20.159 21.118775,24.171 20.15625,29 C19.386267,32.864 21.35629,36.4535 23.125,39.469 C24.89371,42.484 26.875,44.781 26.875,44.781 C27.7379449,45.8596812 29.3119438,46.0345699 30.390625,45.171625 C31.4693062,44.3086801 31.6441949,42.7346812 30.78125,41.656 C30.78125,41.656 29.059325,39.627 27.5,36.969 C25.940675,34.3105 24.809635,30.893 25,29.9375 C25.4822,27.5185 28.54027,24.291 31.875,23.219 C41.626825,20.084 58.36111,20.0835 68.125,23.219 C71.46427,24.291 74.546265,27.548 75,29.9375 C75.1799,30.885 73.966345,34.3135 72.34375,36.969 C70.721155,39.624 69.0625,41.656 69.0625,41.656 C68.2911052,42.7023152 68.4501857,44.1651956 69.4284526,45.0212443 C70.4067194,45.877293 71.8777736,45.8408891 72.8125,44.9375 C72.8125,44.9375 74.722925,42.479 76.5625,39.469 C78.402075,36.4585 80.585065,32.904 79.84375,29 C78.919365,24.1325 74.74737,20.156 69.6875,18.531 C64.061965,16.725 57.050475,15.875 50,15.875 L50,15.875 Z"></path>
                        <path d="M35,113.311 C35,114.691712 33.8807119,115.811 32.5,115.811 C31.1192881,115.811 30,114.691712 30,113.311 C30,111.930288 31.1192881,110.811 32.5,110.811 C33.8807119,110.811 35,111.930288 35,113.311 L35,113.311 Z"></path>
                        <path d="M16.71875,75.875 C15.6479387,76.2258201 14.9441092,77.2495721 15,78.375 L15,79.625 C14.9999935,88.9485 17.7963385,98.274 22.96875,106.031 L25.46875,109.625 C25.8116222,110.60641 26.7260039,111.273258 27.7652452,111.299807 C28.8044865,111.326357 29.7517249,110.707067 30.1442606,109.744444 C30.5367964,108.781821 30.2927176,107.676739 29.53125,106.969 L27.1875,103.219 C22.573955,96.2995 19.999994,87.9415 20,79.625 L20,78.375 C20.0415311,77.551317 19.6741976,76.7601379 19.0181817,76.2603162 C18.3621658,75.7604946 17.5018659,75.6163339 16.71875,75.875 L16.71875,75.875 Z"></path>
                    </g>
                </g>
            </g>
        </g>
    </g>
</svg>