<?xml version="1.0" encoding="UTF-8"?>
<svg width="96px" height="80px" viewBox="0 0 96 80" version="1.1" xmlns="http://www.w3.org/2000/svg" xmlns:xlink="http://www.w3.org/1999/xlink">
    <!-- Generator: Sketch 41.2 (35397) - http://www.bohemiancoding.com/sketch -->
    <title>Twitter Icon Copy</title>
    <desc>Created with Sketch.</desc>
    <defs></defs>
    <g id="Page-1" stroke="none" stroke-width="1" fill="none" fill-rule="evenodd">
        <path d="M84.6976183,12.6315703 C88.7693007,10.1484436 91.8932501,6.18982215 93.3674509,1.47549467 C89.5415212,3.77867427 85.3294286,5.47006953 80.8365861,6.3697693 C77.2563039,2.44713732 72.1316158,0 66.48046,0 C55.5992735,0 46.7890308,9.0328432 46.7890308,20.1889188 C46.7890308,21.7723818 46.9645434,23.3198553 47.3155336,24.795314 C30.9235839,23.9316397 16.4270583,15.9064285 6.70420598,3.70669541 C5.01937597,6.69367418 4.03656138,10.1484436 4.03656138,13.855139 C4.03656138,20.872682 7.51151846,27.0265508 12.8117016,30.6612673 C9.58244818,30.553299 6.56380289,29.6536352 3.89616181,28.1421511 L3.89616181,28.3940771 C3.89616181,38.1826264 10.6705668,46.3157914 19.6914072,48.1871338 C18.0416832,48.6549712 16.2866552,48.9068829 14.4965281,48.9068829 C13.2329074,48.9068829 12.0043891,48.7629359 10.7758674,48.5470101 C13.2680064,56.5722033 20.5689212,62.4021599 29.1685593,62.5820963 C22.4292498,67.9802085 13.9349193,71.2190737 4.70347429,71.2190737 C3.12394905,71.2190737 1.54442416,71.1111126 0,70.9311763 C8.70493767,76.6531718 19.0596003,80 30.1864729,80 C66.410255,80 86.2069567,49.2307661 86.2069567,22.5641133 C86.2069567,21.700403 86.1718542,20.8007032 86.1367517,19.9370288 C90.0329215,17.0580183 93.3674509,13.4952807 96,9.46468038 C92.4548554,11.0841328 88.6639932,12.1637437 84.6976183,12.6315703 Z" id="Twitter-Icon-Copy" fill="#A82F30"></path>
    </g>
</svg>