<?xml version="1.0" encoding="UTF-8"?>
<svg width="772px" height="153px" viewBox="0 0 772 153" version="1.1" xmlns="http://www.w3.org/2000/svg" xmlns:xlink="http://www.w3.org/1999/xlink">
    <!-- Generator: Sketch 40.3 (33839) - http://www.bohemiancoding.com/sketch -->
    <title>vanity-fair</title>
    <desc>Created with Sketch.</desc>
    <defs></defs>
    <g id="Symbols" stroke="none" stroke-width="1" fill="none" fill-rule="evenodd">
        <g id="vanity-fair" fill="#252522">
            <polygon id="polygon3" points="71.9038344 3.9469697 42.9720859 151.208212 32.9113497 151.203455 3.98435583 3.9469697 0 3.9469697 0 0.378787879 37.104908 0.378787879 37.104908 3.9469697 27.0441718 3.9469697 47.3796012 107.990394 67.7102761 3.9469697 55.7619632 3.9469697 55.7667178 0.378787879 78.6125767 0.378787879 78.6125767 3.9469697"></polygon>
            <path d="M78.227454,101.486788 L100.86411,101.491545 L89.5434049,42.9638485 L78.227454,101.486788 L78.227454,101.486788 Z M58.3104294,147.635273 L65.0191718,147.635273 L93.9461656,0.378787879 L104.006902,0.378787879 L132.93865,147.635273 L136.295399,147.635273 L136.295399,151.203455 L99.8180982,151.203455 L99.8133436,147.635273 L109.878834,147.635273 L101.491718,105.05497 L77.595092,105.05497 L69.2079755,147.635273 L81.1562883,147.635273 L81.1610429,151.203455 L58.3056748,151.203455 L58.3056748,147.635273 L58.3104294,147.635273 Z" id="path5"></path>
            <polygon id="polygon7" points="208.408436 3.9469697 208.408436 151.622121 201.38589 151.622121 151.605215 11.0785758 151.605215 147.635273 161.456748 147.635273 161.456748 151.203455 142.06273 151.203455 142.06273 147.635273 147.097853 147.635273 147.097853 3.9469697 137.664724 3.9469697 137.664724 0.378787879 171.412883 0.378787879 203.901074 89.845 203.901074 3.9469697 194.044785 3.9469697 194.044785 0.378787879 216.372393 0.378787879 216.372393 3.9469697"></polygon>
            <polygon id="polygon9" points="224.279294 151.203455 224.27454 147.635273 230.983282 147.635273 230.983282 3.9469697 224.279294 3.9469697 224.279294 0.378787879 261.170245 0.378787879 261.170245 3.9469697 254.257055 3.9469697 254.257055 147.635273 261.170245 147.635273 261.170245 151.203455"></polygon>
            <path d="M290.729601,151.203455 L290.729601,147.635273 L297.647546,147.635273 L297.647546,3.52830303 L297.229141,3.52830303 C287.377607,3.52830303 277.735276,13.5953333 275.842945,59.3251515 L272.281748,59.3251515 L272.281748,0.378787879 L346.491564,0.378787879 L346.491564,59.3251515 L342.925613,59.3251515 C340.833589,13.6000909 330.349693,3.52830303 321.544172,3.52830303 L320.91181,3.52830303 L320.916564,147.635273 L328.038957,147.635273 L328.038957,151.203455 L290.729601,151.203455 L290.729601,151.203455 Z" id="path11"></path>
            <polygon id="polygon13" points="410.407669 3.9469697 410.407669 0.378787879 431.156748 0.378787879 431.156748 3.9469697 425.498773 3.9469697 405.995399 81.3527273 406.000153 147.64003 412.918098 147.635273 412.918098 151.203455 375.81319 151.208212 375.81319 147.64003 382.731135 147.635273 382.731135 81.7666364 360.926534 3.9469697 356.105368 3.9469697 356.105368 0.378787879 394.05184 0.378787879 394.05184 3.9469697 383.572699 3.9469697 403.489724 74.6350303 421.305215 3.9469697"></polygon>
            <path d="M498.833742,151.203455 L498.833742,147.635273 L504.910123,147.635273 L504.910123,3.9469697 L498.833742,3.9469697 L498.833742,0.378787879 L564.661196,0.378787879 L564.656442,45.4806061 L561.095245,45.4806061 C559.212423,13.5953333 549.565337,3.9469697 533.219018,3.9469697 L528.183896,3.9469697 L528.183896,71.4902727 L530.066718,71.4902727 C542.85184,71.4902727 546.622239,66.2474242 547.886963,45.4806061 L551.238957,45.4806061 L551.238957,102.533455 L547.886963,102.533455 C546.626994,79.8778788 542.85184,75.0584545 531.11273,75.053697 L528.183896,75.0584545 L528.183896,147.630515 L537.403067,147.630515 L537.403067,151.203455 L498.833742,151.203455 L498.833742,151.203455 Z" id="path15"></path>
            <path d="M579.124693,101.486788 L601.766104,101.486788 L590.440644,42.9638485 L579.124693,101.486788 L579.124693,101.486788 Z M559.207669,147.635273 L565.916411,147.635273 L594.84816,0.378787879 L604.904141,0.378787879 L633.840644,147.635273 L637.506442,147.635273 L637.506442,151.203455 L600.715337,151.203455 L600.715337,147.635273 L610.776074,147.635273 L602.388957,105.05497 L578.497086,105.05497 L570.10046,147.635273 L582.058282,147.64003 L582.058282,151.208212 L559.202914,151.203455 L559.202914,147.635273 L559.207669,147.635273 Z" id="path17"></path>
            <polygon id="polygon19" points="642.189724 151.203455 642.189724 147.635273 648.270859 147.635273 648.270859 3.9469697 642.189724 3.9469697 642.189724 0.378787879 677.830215 0.378787879 677.830215 3.9469697 671.544632 3.9469697 671.544632 147.635273 677.82546 147.635273 677.82546 151.203455"></polygon>
            <path d="M718.610429,3.9469697 L718.605675,68.3455152 L721.753221,68.3455152 C733.073926,68.3455152 741.247086,69.1876061 741.242331,41.4937576 L741.247086,34.1528182 C741.247086,7.29630303 733.073926,3.94221212 723.008436,3.94221212 L718.610429,3.94221212 L718.610429,3.9469697 Z M739.991871,131.906727 L739.987117,94.9831818 C739.991871,75.2630303 734.329141,71.9089394 722.590031,71.9089394 L718.610429,71.9089394 L718.610429,147.635273 L727.829601,147.635273 L727.829601,151.203455 L689.255521,151.203455 L689.255521,147.635273 L695.331902,147.635273 L695.331902,3.9469697 L689.265031,3.9469697 L689.265031,0.378787879 L723.01319,0.378787879 C747.75138,0.378787879 763.679294,11.7065758 763.684049,37.5116667 C763.679294,60.1672424 750.057362,68.1361818 733.287883,70.2342727 L733.287883,70.4436061 C750.894172,73.169697 763.056442,80.5153939 763.056442,107.157818 L763.056442,141.764424 C763.056442,146.379273 764.525613,147.635273 767.036043,147.635273 C768.714417,147.635273 770.388037,147.007273 771.443558,146.583848 L771.443558,150.15203 C770.183589,150.994121 766.194479,152.454697 760.75046,152.454697 C747.746626,152.459455 739.991871,147.844606 739.991871,131.906727 L739.991871,131.906727 Z" id="path21"></path>
        </g>
    </g>
</svg>