<?xml version="1.0" encoding="UTF-8"?>
<svg width="571px" height="115px" viewBox="0 0 571 115" version="1.1" xmlns="http://www.w3.org/2000/svg" xmlns:xlink="http://www.w3.org/1999/xlink">
    <!-- Generator: Sketch 40.3 (33839) - http://www.bohemiancoding.com/sketch -->
    <title>womens-health</title>
    <desc>Created with Sketch.</desc>
    <defs></defs>
    <g id="Symbols" stroke="none" stroke-width="1" fill="none" fill-rule="evenodd">
        <g id="womens-health" fill="#252522">
            <g id="womenshealth-logo">
                <g id="Layer_1">
                    <path d="M56.165,113.555 L66.293,13.41 C66.863,8.275 67.862,7.418 69.574,7.418 L70.572,7.418 L70.572,1.713 L54.167,1.713 L54.167,7.418 L55.166,7.418 C57.448,7.418 58.589,8.988 58.304,13.41 L52.455,73.326 L45.751,13.41 C45.179,8.703 46.32,7.418 48.89,7.418 L49.174,7.418 L49.174,1.713 L26.349,1.713 L26.349,7.418 L27.492,7.418 C29.632,7.418 29.632,8.275 30.06,13.41 L31.772,28.676 L26.492,77.178 L20.502,13.41 C19.788,8.275 20.787,7.418 23.069,7.418 L23.353,7.418 L23.353,1.713 L0.243,1.713 L0.243,7.418 L1.385,7.418 C3.81,7.418 3.952,8.275 4.523,13.41 L14.794,113.555 L29.631,113.555 L35.48,62.055 L41.471,113.555 L56.165,113.555 L56.165,113.555 Z M154.458,47.934 C154.458,40.944 154.458,38.518 158.88,38.518 C161.876,38.518 161.876,39.659 161.876,45.508 L161.876,105.281 C161.876,107.422 161.162,107.849 160.021,107.849 L159.309,107.849 L159.309,113.554 L182.276,113.554 L182.276,107.849 L181.277,107.849 C179.709,107.849 179.281,107.277 179.281,104.995 L179.281,42.371 C179.281,32.098 177.141,28.103 167.012,28.103 C161.162,28.103 156.884,29.958 154.173,36.376 C153.03,30.671 150.035,28.103 142.19,28.103 C135.77,28.103 132.346,30.101 129.779,36.376 L129.779,28.103 L110.092,29.673 L110.092,35.378 L110.947,35.378 C112.231,35.378 113.229,36.376 113.229,39.517 L113.229,104.566 C113.229,107.134 112.659,107.849 110.947,107.849 L110.092,107.849 L110.092,113.554 L132.061,113.554 L132.061,107.849 L131.206,107.849 C130.064,107.849 129.779,107.421 129.779,105.708 L129.779,47.934 C129.779,40.944 129.635,38.518 134.057,38.518 C137.053,38.518 137.053,39.659 137.053,45.508 L137.053,105.281 C137.053,107.422 136.34,107.849 135.341,107.849 L134.343,107.849 L134.343,113.554 L156.884,113.554 L156.884,107.849 L156.598,107.849 C155.03,107.849 154.458,107.277 154.458,104.995 L154.458,47.934 L154.458,47.934 Z M314.95,113.555 L342.485,113.555 L342.485,107.85 L340.628,107.85 C338.204,107.85 337.491,106.85 337.491,101.858 L337.491,58.775 L352.042,58.775 L352.042,101.857 C352.042,106.849 351.329,107.849 349.046,107.849 L346.905,107.849 L346.905,113.554 L374.296,113.554 L374.296,107.849 L372.015,107.849 C369.587,107.849 369.161,106.849 369.161,101.857 L369.161,13.41 C369.161,8.275 369.587,7.418 372.015,7.418 L374.296,7.418 L374.296,1.713 L346.905,1.713 L346.905,7.418 L349.046,7.418 C351.329,7.418 352.042,8.275 352.042,13.41 L352.042,52.068 L337.491,52.068 L337.491,13.41 C337.491,8.275 338.204,7.418 340.628,7.418 L342.485,7.418 L342.485,1.713 L314.95,1.713 L314.95,7.418 L317.376,7.418 C319.659,7.418 320.372,8.275 320.372,13.41 L320.372,104.709 C320.372,107.135 319.659,107.85 317.376,107.85 L314.95,107.85 L314.95,113.555 L314.95,113.555 Z M522.95,113.555 L544.776,113.555 L544.776,107.85 L544.063,107.85 C542.637,107.85 542.493,107.422 542.493,105.709 L542.493,47.934 C542.493,40.944 542.638,38.518 547.059,38.518 C550.338,38.518 550.338,39.659 550.338,45.508 L550.338,105.281 C550.338,107.422 549.77,107.849 548.772,107.849 L547.772,107.849 L547.772,113.554 L570.883,113.554 L570.883,107.849 L569.885,107.849 C568.315,107.849 568.03,107.277 568.03,104.995 L568.03,42.371 C568.03,32.098 565.462,28.103 555.475,28.103 C548.914,28.103 545.205,30.101 542.493,36.376 L542.493,0 L521.524,1.713 L521.524,7.418 L523.665,7.418 C525.089,7.418 525.946,8.275 525.946,11.414 L525.946,104.566 C525.946,107.134 525.516,107.849 523.665,107.849 L522.95,107.849 L522.95,113.555 L522.95,113.555 Z M86.979,114.553 C105.241,114.553 107.808,99.289 107.808,71.328 C107.808,43.226 105.097,28.103 86.979,28.103 C68.863,28.103 66.153,43.226 66.153,71.328 C66.152,99.289 68.72,114.553 86.979,114.553 L86.979,114.553 L86.979,114.553 Z M225.217,113.555 L247.186,113.555 L247.186,107.85 L246.186,107.85 C244.905,107.85 244.905,107.422 244.905,105.709 L244.905,47.934 C244.905,40.944 244.905,38.518 249.467,38.518 C252.606,38.518 252.75,39.659 252.75,45.508 L252.75,105.281 C252.75,107.422 251.895,107.849 251.037,107.849 L250.037,107.849 L250.037,113.554 L273.149,113.554 L273.149,107.849 L272.151,107.849 C270.581,107.849 270.155,107.277 270.155,104.995 L270.155,42.371 C270.155,32.098 267.729,28.103 257.598,28.103 C251.182,28.103 247.328,30.101 244.905,36.376 L244.905,28.103 L223.79,29.673 L223.79,35.378 L226.073,35.378 C227.358,35.378 228.354,36.376 228.354,39.517 L228.354,104.566 C228.354,107.134 227.786,107.849 226.073,107.849 L225.218,107.849 L225.218,113.555 L225.217,113.555 Z M427.651,114.553 C435.212,114.553 438.065,110.846 439.633,106.422 C441.059,112.984 442.629,114.553 451.188,114.553 C461.174,114.553 462.459,108.563 462.317,96.864 L457.608,96.864 C457.608,105.282 457.465,106.137 455.895,106.137 C454.469,106.137 454.469,105.424 454.469,100.715 L454.469,45.223 C454.469,33.953 450.762,28.104 437.637,28.104 C427.223,28.104 416.951,31.243 417.52,42.512 C417.807,47.649 419.805,53.069 425.225,52.783 C430.217,52.498 432.5,49.789 432.5,45.65 C432.5,42.798 430.359,38.089 426.938,35.521 C428.221,34.951 430.217,34.378 433.499,34.378 C437.21,34.378 437.921,37.232 437.921,42.653 L437.921,58.202 C418.948,64.622 414.954,67.19 414.954,91.014 C414.954,108.135 419.093,114.553 427.651,114.553 L427.651,114.553 L427.651,114.553 Z M394.983,114.553 C409.104,114.553 412.385,110.274 411.672,86.879 L405.822,86.879 C405.822,105.424 405.252,106.85 398.691,106.85 C390.845,106.85 390.845,103.426 390.845,71.616 L390.845,69.046 L413.667,69.046 C413.667,36.95 410.103,28.105 394.981,28.105 C381.286,28.105 374.153,36.523 374.153,71.9 C374.155,105.566 379.575,114.697 394.983,114.553 L394.983,114.553 L394.983,114.553 Z M205.386,114.553 C219.226,114.553 223.077,110.274 222.505,86.879 L216.659,86.879 C216.659,105.424 215.803,106.85 209.097,106.85 C200.68,106.85 201.108,103.426 201.108,71.616 L201.108,69.046 L223.22,69.046 C223.22,36.95 220.225,28.105 205.387,28.105 C191.552,28.105 184.418,36.523 184.418,71.9 C184.417,105.566 189.837,114.697 205.386,114.553 L205.386,114.553 L205.386,114.553 Z M465.458,113.555 L488.284,113.555 L488.284,107.85 L486.571,107.85 C485.143,107.85 484.573,107.135 484.573,104.854 L484.573,0 L463.317,1.713 L463.317,7.418 L465.743,7.418 C467.169,7.418 467.739,7.988 467.739,10.272 L467.739,105.139 C467.739,107.278 467.596,107.85 466.598,107.85 L465.457,107.85 L465.457,113.555 L465.458,113.555 Z M298.829,114.553 C309.245,114.553 314.667,107.705 314.667,97.436 C314.667,73.327 292.839,59.346 292.839,42.084 C292.839,36.805 294.694,35.236 298.403,35.236 C303.823,35.236 304.68,37.519 305.678,45.65 L306.532,53.638 L312.809,53.638 L312.809,28.816 L307.819,28.816 C307.532,31.957 306.821,33.097 306.532,32.668 C304.966,30.814 301.255,28.104 295.122,28.104 C285.991,28.104 278.003,32.241 278.003,45.793 C278.003,66.906 299.687,83.027 299.687,99.147 C299.687,106.137 298.119,107.278 293.125,107.278 C288.133,107.278 286.85,104.997 285.852,94.44 L285.137,87.448 L278.575,87.448 L278.575,113.555 L284.28,113.555 C284.71,110.701 285.71,108.848 286.563,109.703 C288.417,111.844 290.413,114.553 298.829,114.553 L298.829,114.553 L298.829,114.553 Z M492.562,95.867 C492.562,109.418 494.56,114.553 507.968,114.553 C517.384,114.553 519.525,110.846 519.525,100.432 L519.525,86.307 L513.818,86.307 L513.818,101.145 C513.818,106.137 513.39,106.707 511.537,106.707 C509.682,106.707 509.254,106.137 509.254,101.715 L509.254,35.236 L519.668,35.236 L519.668,28.816 L509.397,28.816 L509.397,7.418 L503.549,7.418 C499.41,26.393 495.846,28.816 490.281,28.816 L488.713,28.816 L488.713,35.093 L492.563,35.093 L492.563,95.867 L492.562,95.867 Z M86.979,107.277 C82.987,107.277 82.987,104.996 82.987,71.328 C82.987,37.519 82.987,35.236 86.979,35.236 C90.974,35.236 90.974,37.519 90.974,71.328 C90.974,105.139 90.974,107.277 86.979,107.277 L86.979,107.277 L86.979,107.277 Z M275.149,32.385 C289.413,21.826 292.268,13.838 287.559,6.563 C284.991,2.569 279.141,0.001 274.862,3.567 C269.725,7.846 271.01,15.266 280.569,19.546 C278.856,21.542 274.862,25.396 271.581,28.677 L275.149,32.385 L275.149,32.385 Z M434.499,104.566 C431.075,104.566 431.075,101.002 431.075,89.732 C431.075,69.189 431.075,66.478 437.921,62.769 L437.921,98.005 C437.921,103.283 437.21,104.566 434.499,104.566 L434.499,104.566 L434.499,104.566 Z M201.107,63.055 C201.392,36.377 201.821,35.094 205.53,35.094 C209.096,35.094 208.812,36.522 208.812,63.055 L201.107,63.055 L201.107,63.055 Z M390.847,63.055 C391.275,36.377 391.56,35.094 395.269,35.094 C398.978,35.094 398.406,36.522 398.406,63.055 L390.847,63.055 L390.847,63.055 Z" id="Shape"></path>
                </g>
            </g>
        </g>
    </g>
</svg>