<?xml version="1.0" encoding="UTF-8"?>
<svg width="135px" height="93px" viewBox="0 0 135 93" version="1.1" xmlns="http://www.w3.org/2000/svg" xmlns:xlink="http://www.w3.org/1999/xlink">
    <!-- Generator: Sketch 41.2 (35397) - http://www.bohemiancoding.com/sketch -->
    <title>YouTube-icon-dark.eps</title>
    <desc>Created with Sketch.</desc>
    <defs>
        <polygon id="path-1" points="0.00792563601 92.9922392 134.927348 92.9922392 134.927348 0.0746328234 0.00792563601 0.0746328234"></polygon>
    </defs>
    <g id="Page-1" stroke="none" stroke-width="1" fill="none" fill-rule="evenodd">
        <g id="YouTube-icon-dark.eps">
            <polyline id="Fill-1" fill="#FFFFFF" points="54 63 90 45.0627178 54 27 54 63"></polyline>
            <polyline id="Fill-2" fill="#DEDED9" points="84.0045904 48 84 47.9971064 90 45 84.0045904 48"></polyline>
            <g id="Group-6">
                <mask id="mask-2" fill="white">
                    <use xlink:href="#path-1"></use>
                </mask>
                <g id="Clip-4"></g>
                <polyline id="Fill-3" fill="#DEDED9" mask="url(#mask-2)" points="85.4966096 47.4557399 53.5277642 26.5523408 89.9856898 45.17821 85.4966096 47.4557399"></polyline>
                <path d="M53.5339726,63.674733 L53.5277642,26.5523408 L89.9856898,45.17821 L53.5339726,63.674733 Z M133.57999,20.1213713 C133.57999,20.1213713 132.261693,11.0168136 128.21592,7.00746592 C123.085127,1.74526982 117.334022,1.71914186 114.696634,1.41116829 C95.8155235,0.0746328234 67.4928669,0.0746328234 67.4928669,0.0746328234 L67.4342172,0.0746328234 C67.4342172,0.0746328234 39.1122211,0.0746328234 20.2304501,1.41116829 C17.5929305,1.71914186 11.8439384,1.74526982 6.71129648,7.00746592 C2.66578767,11.0168136 1.34933953,20.1213713 1.34933953,20.1213713 C1.34933953,20.1213713 0,30.8131377 0,41.5047747 L0,51.5282086 C0,62.2197163 1.34933953,72.9113533 1.34933953,72.9113533 C1.34933953,72.9113533 2.66578767,82.0160403 6.71129648,86.025388 C11.8439384,91.2877135 18.5860127,91.1212448 21.5889041,91.6727775 C32.3832241,92.6863352 67.4636742,93 67.4636742,93 C67.4636742,93 95.8155235,92.9582211 114.696634,91.621815 C117.334022,91.3137121 123.085127,91.2877135 128.21592,86.025388 C132.261693,82.0160403 133.57999,72.9113533 133.57999,72.9113533 C133.57999,72.9113533 134.927348,62.2197163 134.927348,51.5282086 L134.927348,41.5047747 C134.927348,30.8131377 133.57999,20.1213713 133.57999,20.1213713 L133.57999,20.1213713 Z" id="Fill-5" fill="#222321" mask="url(#mask-2)"></path>
            </g>
        </g>
    </g>
</svg>