<?xml version="1.0" encoding="UTF-8"?>
<svg width="180px" height="33px" viewBox="0 0 180 33" version="1.1" xmlns="http://www.w3.org/2000/svg" xmlns:xlink="http://www.w3.org/1999/xlink">
    <!-- Generator: Sketch 41 (35326) - http://www.bohemiancoding.com/sketch -->
    <title>Traveler's Joy / Logo / Mobile White</title>
    <desc>Created with Sketch.</desc>
    <defs></defs>
    <g id="Symbols" stroke="none" stroke-width="1" fill="none" fill-rule="evenodd">
        <g id="Primary-Nav" transform="translate(-108.000000, -42.000000)" fill="#FFFFFF">
            <g id="Traveler's-Joy-/-Logo-/-Mobile-White">
                <g transform="translate(108.000000, 37.000000)">
                    <g id="White-on-Blue">
                        <path d="M142.17641,27.4861538 C142.647179,28.0676923 143.97641,29.5076923 146.385641,29.5076923 C149.625641,29.5076923 152.339487,27.2923077 152.339487,23.4430769 L152.339487,10.3723077 C152.339487,10.0953846 152.117949,9.84615385 151.813333,9.84615385 L148.434872,9.84615385 C148.130256,9.84615385 147.908718,10.0953846 147.908718,10.3723077 L147.908718,23.4153846 C147.908718,24.8 147.050256,25.52 146.274872,25.52 C145.527179,25.52 145.194872,25.2707692 144.862564,24.9384615 C144.641026,24.7169231 144.33641,24.7446154 144.114872,24.9384615 L142.231795,26.7938462 C142.065641,26.9876923 142.037949,27.2646154 142.17641,27.4861538 Z M154.942564,23.6646154 C154.942564,26.8492308 157.545641,29.5076923 160.702564,29.5076923 C163.859487,29.5076923 166.462564,26.8492308 166.462564,23.6646154 C166.462564,20.5353846 163.859487,17.8769231 160.702564,17.8769231 C157.545641,17.8769231 154.942564,20.5353846 154.942564,23.6646154 Z M158.514872,23.6646154 C158.514872,22.4461538 159.484103,21.4492308 160.702564,21.4492308 C161.921026,21.4492308 162.890256,22.4461538 162.890256,23.6646154 C162.890256,24.9107692 161.921026,25.9353846 160.702564,25.9353846 C159.484103,25.9353846 158.514872,24.9107692 158.514872,23.6646154 Z M171.419487,28.0953846 L167.293333,36.7907692 C167.099487,37.1784615 167.348718,37.5384615 167.764103,37.5384615 L170.865641,37.5384615 C171.087179,37.5384615 171.253333,37.3723077 171.33641,37.2061538 L179.810256,18.8738462 C180.004103,18.5138462 179.754872,18.1538462 179.339487,18.1538462 L176.210256,18.1538462 C175.988718,18.1538462 175.794872,18.2923077 175.739487,18.4584615 L173.551795,23.6092308 L173.49641,23.6092308 L171.364103,18.4584615 C171.281026,18.2923077 171.114872,18.1538462 170.893333,18.1538462 L167.73641,18.1538462 C167.321026,18.1538462 167.099487,18.5138462 167.265641,18.8738462 L171.419487,28.0953846 Z" id="Joy-Outline"></path>
                        <path d="M116.80666,24.2842167 C115.365019,25.8522788 114.31925,27.9064117 113.87552,28.8720503 C113.803108,29.0292727 113.746578,29.1571812 113.706769,29.2494698 C114.86147,29.8083182 115.960691,29.6231156 116.269619,29.5525321 C117.109387,28.0367879 117.423607,26.6295452 117.514469,25.5366676 C117.57341,25.7250843 117.643841,25.9312436 117.727983,26.1535249 C117.958368,26.7610935 118.229546,27.2700794 118.442048,27.6248563 C118.552791,27.8094666 118.64676,27.951031 118.711525,28.0447974 C119.337377,27.7013348 119.850393,27.2873429 120.262207,26.8755291 C120.971607,26.1664409 121.379221,25.4633176 121.538319,25.1558406 C121.439816,25.0986222 121.294635,25.0182666 121.111129,24.9268807 C120.751771,24.7480112 120.251043,24.5299575 119.692544,24.3757661 C119.478944,24.3163635 119.090987,24.2230122 118.704085,24.1392894 L119.102,23.7413747 L122.569497,20.2738769 L125.591269,26.2258763 L126.812197,25.0049479 L125.499726,17.3436486 L128.942744,13.9006303 C129.482486,13.3608884 129.47947,12.5327084 128.997691,12.050929 C128.51594,11.5691778 127.687701,11.5661648 127.14799,12.1058762 L123.704972,15.5488944 L116.043672,14.2364231 L114.822744,15.4573516 L120.774743,18.4791227 L117.307245,21.9466206 L116.754403,22.4994633 C116.657734,22.0084465 116.516572,21.4068232 116.436549,21.1197875 C116.282506,20.5616086 116.064949,20.060696 115.885738,19.7016796 C115.794203,19.5178535 115.713855,19.3725089 115.657041,19.2740705 C115.556577,19.3261165 115.412855,19.4050196 115.240978,19.5122339 C114.887831,19.7326213 114.414187,20.0728793 113.937193,20.5501855 C113.525381,20.9619982 113.111568,21.4746786 112.767765,22.1008708 C112.861532,22.1656362 113.003252,22.2597611 113.18794,22.3705824 C113.542788,22.5833256 114.05112,22.8545328 114.65952,23.0845558 C114.996752,23.2122349 115.29599,23.3082044 115.552432,23.3802813 C114.435373,23.4511222 112.956569,23.7519811 111.35578,24.6384461 C111.347401,24.6750958 111.337461,24.7231458 111.326978,24.7809542 C111.300593,24.931197 111.27253,25.1487177 111.269161,25.4112042 C111.262773,25.8988097 111.339088,26.5394026 111.658694,27.2011317 C111.750982,27.161323 111.878729,27.1047985 112.035878,27.0321482 C112.380361,26.8739984 112.862386,26.6393767 113.41154,26.3376265 C114.397056,25.797139 115.59836,25.0384747 116.603362,24.1194913 L116.788407,24.2602136 L116.80666,24.2842167 Z M121.025641,35.8974359 C129.522329,35.8974359 136.410256,29.009509 136.410256,20.5128205 C136.410256,12.0161321 129.522329,5.12820513 121.025641,5.12820513 C112.528953,5.12820513 105.641026,12.0161321 105.641026,20.5128205 C105.641026,29.009509 112.528953,35.8974359 121.025641,35.8974359 Z" id="Combined-Shape"></path>
                        <path d="M4.87384615,28.7046154 C4.87384615,28.9815385 5.12307692,29.2307692 5.4,29.2307692 L8.72307692,29.2307692 C9,29.2307692 9.24923077,28.9815385 9.24923077,28.7046154 L9.24923077,13.9169231 L13.2092308,13.9169231 C13.5138462,13.9169231 13.7353846,13.6676923 13.7353846,13.3907692 L13.7353846,10.3723077 C13.7353846,10.0953846 13.5138462,9.84615385 13.2092308,9.84615385 L0.913846154,9.84615385 C0.609230769,9.84615385 0.387692308,10.0953846 0.387692308,10.3723077 L0.387692308,13.3907692 C0.387692308,13.6676923 0.609230769,13.9169231 0.913846154,13.9169231 L4.87384615,13.9169231 L4.87384615,28.7046154 Z M14.08,28.7046154 C14.08,28.9815385 14.3292308,29.2307692 14.6061538,29.2307692 L17.4307692,29.2307692 C17.8738462,29.2307692 18.04,29.0369231 18.04,28.7046154 L18.04,22.9723077 C18.04,22.0307692 18.6769231,21.3938462 19.5076923,21.3938462 C19.7569231,21.3938462 20.0338462,21.4769231 20.1723077,21.5323077 C20.4769231,21.6430769 20.6707692,21.4769231 20.7815385,21.2830769 L22.1384615,19.0676923 C22.5261538,18.4307692 21.4461538,17.8769231 19.9230769,17.8769231 C18.4830769,17.8769231 17.4584615,18.9015385 16.9046154,19.7046154 L16.4061538,18.4861538 C16.3230769,18.32 16.2123077,18.1538462 15.9076923,18.1538462 L14.6061538,18.1538462 C14.3292308,18.1538462 14.08,18.3753846 14.08,18.68 L14.08,28.7046154 Z M22.8861538,25.8523077 C22.8861538,28.04 24.52,29.5076923 26.7076923,29.5076923 C28.4523077,29.5076923 29.4215385,28.7046154 30.0584615,28.1230769 L30.4461538,28.8707692 C30.5846154,29.1753846 30.7784615,29.2307692 30.9446154,29.2307692 L32.1630769,29.2307692 C32.44,29.2307692 32.6892308,28.9815385 32.6892308,28.7046154 L32.6892308,22.5846154 C32.6892308,19.3169231 31.4430769,17.8769231 28.0092308,17.8769231 C26.5138462,17.8769231 24.5753846,18.2092308 24.3261538,18.2923077 C24.0769231,18.3753846 23.8276923,18.5692308 23.9107692,19.04 L24.16,20.7846154 C24.2153846,21.2 24.4092308,21.5046154 24.8246154,21.3661538 C25.5446154,21.1446154 26.8461538,20.9507692 27.5938462,20.9507692 C28.9230769,20.9507692 29.0892308,21.5046154 29.0892308,22.5846154 C29.0892308,22.5846154 28.2030769,22.1415385 26.9569231,22.1415385 C24.4369231,22.1415385 22.8861538,23.72 22.8861538,25.8523077 Z M26.4861538,25.5753846 C26.4861538,24.9384615 27.0123077,24.4123077 27.6769231,24.4123077 C28.3415385,24.4123077 28.8676923,24.9384615 28.8953846,25.5753846 C28.8953846,26.24 28.3415385,26.7938462 27.6769231,26.7938462 C27.0123077,26.7938462 26.4861538,26.24 26.4861538,25.5753846 Z M39.3353846,29.2307692 C39.4184615,29.3692308 39.64,29.5076923 39.8061538,29.5076923 L39.9446154,29.5076923 C40.1107692,29.5076923 40.3323077,29.3692308 40.4153846,29.2307692 L45.6769231,18.9015385 C45.8707692,18.5415385 45.6215385,18.1538462 45.2061538,18.1538462 L42.4092308,18.1538462 C42.0215385,18.1538462 41.8276923,18.1261538 41.6615385,18.4584615 L39.9169231,22.2246154 L39.8338462,22.2246154 L38.2,18.4584615 C38.1169231,18.2923077 37.8953846,18.1538462 37.7015385,18.1538462 L34.6,18.1538462 C34.1846154,18.1538462 33.9353846,18.5415385 34.1292308,18.9015385 L39.3353846,29.2307692 Z M46.48,23.6923077 C46.48,26.8769231 48.9723077,29.5076923 52.2676923,29.5076923 C54.0123077,29.5076923 55.3969231,28.8984615 56.3661538,27.9292308 C56.6153846,27.68 56.56,27.3476923 56.3938462,27.1261538 L55.0092308,25.4646154 C54.8430769,25.2707692 54.5661538,25.2707692 54.3169231,25.4646154 C53.8738462,25.7969231 53.0707692,26.1292308 52.3784615,26.1292308 C50.9384615,26.1292308 50.3292308,25.0492308 50.2461538,24.3015385 L56.8923077,24.3015385 C57.1415385,24.3015385 57.3907692,24.1076923 57.4184615,23.8307692 C57.4461538,23.6369231 57.4738462,23.2769231 57.4738462,23.0830769 C57.4738462,20.0369231 55.0369231,17.8769231 52.2123077,17.8769231 C48.9446154,17.8769231 46.48,20.5630769 46.48,23.6923077 Z M50.6061538,22.1415385 C50.7169231,21.4215385 51.3538462,20.84 52.1015385,20.84 C52.8215385,20.84 53.5138462,21.4215385 53.5692308,22.1415385 L50.6061538,22.1415385 Z M59.4676923,28.7046154 C59.4676923,28.9815385 59.7169231,29.2307692 59.9938462,29.2307692 L63.04,29.2307692 C63.3169231,29.2307692 63.5661538,28.9815385 63.5661538,28.7046154 L63.5661538,10.3723077 C63.5661538,10.0953846 63.3169231,9.84615385 63.04,9.84615385 L59.9938462,9.84615385 C59.7169231,9.84615385 59.4676923,10.0953846 59.4676923,10.3723077 L59.4676923,28.7046154 Z M65.7261538,23.6923077 C65.7261538,26.8769231 68.2184615,29.5076923 71.5138462,29.5076923 C73.2584615,29.5076923 74.6430769,28.8984615 75.6123077,27.9292308 C75.8615385,27.68 75.8061538,27.3476923 75.64,27.1261538 L74.2553846,25.4646154 C74.0892308,25.2707692 73.8123077,25.2707692 73.5630769,25.4646154 C73.12,25.7969231 72.3169231,26.1292308 71.6246154,26.1292308 C70.1846154,26.1292308 69.5753846,25.0492308 69.4923077,24.3015385 L76.1384615,24.3015385 C76.3876923,24.3015385 76.6369231,24.1076923 76.6646154,23.8307692 C76.6923077,23.6369231 76.72,23.2769231 76.72,23.0830769 C76.72,20.0369231 74.2830769,17.8769231 71.4584615,17.8769231 C68.1907692,17.8769231 65.7261538,20.5630769 65.7261538,23.6923077 Z M69.8523077,22.1415385 C69.9630769,21.4215385 70.6,20.84 71.3476923,20.84 C72.0676923,20.84 72.76,21.4215385 72.8153846,22.1415385 L69.8523077,22.1415385 Z M78.7138462,28.7046154 C78.7138462,28.9815385 78.9630769,29.2307692 79.24,29.2307692 L82.0646154,29.2307692 C82.5076923,29.2307692 82.6738462,29.0369231 82.6738462,28.7046154 L82.6738462,22.9723077 C82.6738462,22.0307692 83.3107692,21.3938462 84.1415385,21.3938462 C84.3907692,21.3938462 84.6676923,21.4769231 84.8061538,21.5323077 C85.1107692,21.6430769 85.3046154,21.4769231 85.4153846,21.2830769 L86.7723077,19.0676923 C87.16,18.4307692 86.08,17.8769231 84.5569231,17.8769231 C83.1169231,17.8769231 82.0923077,18.9015385 81.5384615,19.7046154 L81.04,18.4861538 C80.9569231,18.32 80.8461538,18.1538462 80.5415385,18.1538462 L79.24,18.1538462 C78.9630769,18.1538462 78.7138462,18.3753846 78.7138462,18.68 L78.7138462,28.7046154 Z M88.6553846,17.6830769 C88.8769231,17.9323077 89.0707692,17.8769231 89.2646154,17.7384615 C89.9015385,17.2123077 91.84,15.6892308 91.84,12.7815385 C91.84,10.3723077 90.3723077,9.56923077 89.32,9.56923077 C88.0461538,9.56923077 87.1323077,10.4830769 87.1323077,11.5630769 C87.1323077,12.6707692 88.0461538,13.5292308 89.1261538,13.5292308 C89.7630769,13.5292308 90.2338462,13.3353846 90.2338462,13.3353846 C90.2061538,15.2184615 88.5723077,16.4369231 88.2676923,16.6584615 C88.1015385,16.7969231 88.0461538,17.0461538 88.24,17.2676923 L88.6553846,17.6830769 Z M90.854359,28.5938462 C91.4082051,29.0369231 92.7928205,29.5076923 94.6205128,29.5076923 C97.7497436,29.5076923 99.3005128,27.9292308 99.3005128,25.9907692 C99.3005128,23.7753846 97.7497436,22.8892308 95.5066667,22.1138462 C94.5651282,21.7815385 94.2605128,21.5046154 94.2605128,21.2276923 C94.2605128,20.9230769 94.5097436,20.84 94.8697436,20.84 C95.9497436,20.84 97.2235897,21.4769231 97.2235897,21.4769231 C97.4451282,21.56 97.7220513,21.4769231 97.8051282,21.3107692 L98.8297436,19.4276923 C98.9958974,19.1507692 98.8020513,18.9015385 98.5528205,18.7353846 C97.9435897,18.3476923 96.614359,17.8769231 94.8697436,17.8769231 C91.8789744,17.8769231 90.5497436,19.3723077 90.5497436,21.2276923 C90.5497436,22.9446154 91.4912821,24.1907692 93.6512821,24.9384615 C95.0635897,25.4369231 95.2297436,25.8246154 95.2297436,26.1015385 C95.2297436,26.4338462 94.9805128,26.6 94.7035897,26.6 C93.5128205,26.6 92.2112821,25.88 92.2112821,25.88 C91.9897436,25.7692308 91.7128205,25.9353846 91.6297436,26.1015385 L90.6605128,28.0123077 C90.5220513,28.2615385 90.6605128,28.4276923 90.854359,28.5938462 Z" id="Traveler's-Outline"></path>
                    </g>
                </g>
            </g>
        </g>
    </g>
</svg>