<?xml version="1.0" encoding="UTF-8"?>
<svg width="120px" height="120px" viewBox="0 0 120 120" version="1.1" xmlns="http://www.w3.org/2000/svg" xmlns:xlink="http://www.w3.org/1999/xlink">
    <!-- Generator: Sketch 42 (36781) - http://www.bohemiancoding.com/sketch -->
    <title>Shape</title>
    <desc>Created with Sketch.</desc>
    <defs></defs>
    <g id="UI" stroke="none" stroke-width="1" fill="none" fill-rule="evenodd">
        <g id="Ranking-Copy" transform="translate(-315.000000, -298.000000)" fill-rule="nonzero" fill="#FFFFF6">
            <path d="M375,298 C341.900211,298 315,324.900368 315,358.000032 C315,391.099663 341.900211,418.000032 375,418.000032 C408.099789,418.000032 435,391.099663 435,358.000032 C434.915837,356.31729 433.52695,354.996134 431.842105,354.996134 C430.15726,354.996134 428.768374,356.31729 428.684211,358.000032 C428.684211,387.686453 404.686421,411.684242 375,411.684242 C345.313579,411.684242 321.315789,387.686453 321.315789,358.000032 C321.315789,328.313737 345.313579,304.315789 375,304.315789 C384.423789,304.315789 393.681,306.807842 401.842105,311.519737 C402.82086,312.090148 404.030023,312.093199 405.011645,311.527735 C405.993266,310.96227 406.597248,309.914754 406.594843,308.781915 C406.592438,307.649076 405.984013,306.604133 405,306.042842 C395.879053,300.776737 385.532053,298 375,298 L375,298 Z M430.164474,313.838895 C429.366632,313.883105 428.590737,314.244368 428.042842,314.825737 C411.096158,332.556053 394.698947,351.766947 377.960526,369.4474 L353.437579,347.835526 C352.227474,346.582474 349.946526,346.623211 348.799263,347.933421 C347.652158,349.244421 347.890105,351.538474 349.292842,352.571579 L376.134947,376.255821 C377.343,377.301558 379.368632,377.209505 380.477053,376.058453 C398.112947,357.606874 415.130526,337.475421 432.582316,319.216316 C434.654842,316.377684 432.862579,314.017632 430.164474,313.838105 L430.164474,313.838895 Z" id="Shape"></path>
        </g>
    </g>
</svg>