<?xml version="1.0" encoding="UTF-8"?>
<svg width="40px" height="40px" viewBox="0 0 40 40" version="1.1" xmlns="http://www.w3.org/2000/svg" xmlns:xlink="http://www.w3.org/1999/xlink">
    <!-- Generator: Sketch 42 (36781) - http://www.bohemiancoding.com/sketch -->
    <title>Shape</title>
    <desc>Created with Sketch.</desc>
    <defs></defs>
    <g id="UI" stroke="none" stroke-width="1" fill="none" fill-rule="evenodd">
        <g id="NEW-Lesson-Splash" transform="translate(-630.000000, -905.000000)" fill-rule="nonzero" fill="#C6ED2E">
            <path d="M650,905 C638.966737,905 630,913.966789 630,925.000011 C630,936.033221 638.966737,945.000011 650,945.000011 C661.033263,945.000011 670,936.033221 670,925.000011 C669.971946,924.439097 669.508983,923.998711 668.947368,923.998711 C668.385753,923.998711 667.922791,924.439097 667.894737,925.000011 C667.894737,934.895484 659.895474,942.894747 650,942.894747 C640.104526,942.894747 632.105263,934.895484 632.105263,925.000011 C632.105263,915.104579 640.104526,907.105263 650,907.105263 C653.141263,907.105263 656.227,907.935947 658.947368,909.506579 C659.27362,909.696716 659.676674,909.697733 660.003882,909.509245 C660.331089,909.320757 660.532416,908.971585 660.531614,908.593972 C660.530813,908.216359 660.328004,907.868044 660,907.680947 C656.959684,905.925579 653.510684,905 650,905 L650,905 Z M668.388158,910.279632 C668.122211,910.294368 667.863579,910.414789 667.680947,910.608579 C662.032053,916.518684 656.566316,922.922316 650.986842,928.8158 L642.812526,921.611842 C642.409158,921.194158 641.648842,921.207737 641.266421,921.644474 C640.884053,922.081474 640.963368,922.846158 641.430947,923.190526 L650.378316,931.085274 C650.781,931.433853 651.456211,931.403168 651.825684,931.019484 C657.704316,924.868958 663.376842,918.158474 669.194105,912.072105 C669.884947,911.125895 669.287526,910.339211 668.388158,910.279368 L668.388158,910.279632 Z" id="Shape"></path>
        </g>
    </g>
</svg>