<?xml version="1.0" encoding="UTF-8"?>
<svg width="67px" height="32px" viewBox="0 0 67 32" version="1.1" xmlns="http://www.w3.org/2000/svg" xmlns:xlink="http://www.w3.org/1999/xlink">
    <!-- Generator: Sketch 42 (36781) - http://www.bohemiancoding.com/sketch -->
    <title>Shape</title>
    <desc>Created with Sketch.</desc>
    <defs></defs>
    <g id="UI" stroke="none" stroke-width="1" fill="none" fill-rule="evenodd">
        <g id="noun_712170_cc" fill-rule="nonzero" fill="#5A483D">
            <g id="Group">
                <path d="M57.4,0.1 C52.7,0.1 48.9,3.6 48.4,8.2 L19,8.2 C18.5,3.7 14.6,0.1 10,0.1 C5,0.1 0.9,4.2 0.9,9.2 C0.9,11.7 1.9,14 3.6,15.7 C1.9,17.4 0.9,19.7 0.9,22.2 C0.9,27.2 5,31.3 10,31.3 C14.7,31.3 18.5,27.8 19,23.2 L48.4,23.2 C48.9,27.8 52.7,31.3 57.4,31.3 C62.4,31.3 66.5,27.2 66.5,22.2 C66.5,19.7 65.5,17.4 63.8,15.7 C65.5,14 66.5,11.7 66.5,9.2 C66.4,4.1 62.4,0.1 57.4,0.1 Z M61.6,16.4 C63.4,17.8 64.5,19.8 64.5,22.1 C64.5,26 61.3,29.2 57.4,29.2 C53.5,29.2 50.3,26 50.3,22.1 L50.3,22 C50.3,21.4 49.9,21 49.3,21 L18,21 C17.4,21 17,21.5 17,22.1 C17,26 13.8,29.2 9.9,29.2 C6,29.2 2.8,26 2.8,22.1 C2.8,19.9 3.8,17.8 5.7,16.4 C6,16.2 6.1,15.9 6.1,15.6 C6.1,15.3 6,15 5.8,14.8 C4,13.4 2.9,11.4 2.9,9.1 C2.9,5.2 6.1,2 10,2 C13.9,2 17.1,5.2 17.1,9.1 C17.1,9.7 17.5,10.1 18.1,10.1 L49.4,10.1 C50,10.1 50.4,9.7 50.4,9.1 C50.4,5.2 53.6,2 57.5,2 C61.4,2 64.6,5.2 64.6,9.1 C64.6,11.3 63.6,13.4 61.7,14.8 C61.4,15 61.3,15.3 61.3,15.6 C61.3,15.9 61.3,16.2 61.6,16.4 Z" id="Shape"></path>
            </g>
        </g>
    </g>
</svg>