<?xml version="1.0" encoding="UTF-8"?>
<svg width="750px" height="1334px" viewBox="0 0 750 1334" version="1.1" xmlns="http://www.w3.org/2000/svg" xmlns:xlink="http://www.w3.org/1999/xlink">
    <!-- Generator: Sketch 41.2 (35397) - http://www.bohemiancoding.com/sketch -->
    <title>iPhone 7</title>
    <desc>Created with Sketch.</desc>
    <defs></defs>
    <g id="Page-1" stroke="none" stroke-width="1" fill="none" fill-rule="evenodd">
        <g id="iPhone-7" fill="#FFFFFF">
            <path d="M138.641,284.334929 L124.303286,298.672643 L117.950714,292.320071 C117.504429,291.873786 116.780429,291.873786 116.334714,292.320071 C115.888429,292.766357 115.888429,293.489786 116.334714,293.936071 L123.495286,301.097214 C123.709571,301.3115 124.000429,301.4315 124.303286,301.4315 C124.606143,301.4315 124.897,301.3115 125.111286,301.097214 L140.257571,285.950929 C140.703857,285.504643 140.703857,284.781214 140.257571,284.334929 C139.811286,283.888643 139.087286,283.888071 138.641,284.334929 Z" id="Shape"></path>
            <path d="M128,269 C114.990857,269 104,279.990286 104,293 C104,306.009714 114.990857,317 128,317 C141.009143,317 152,306.009714 152,293 C152,279.990286 141.009143,269 128,269 Z M128,314.714286 C116.229714,314.714286 106.285714,304.770286 106.285714,293 C106.285714,281.229714 116.229714,271.285714 128,271.285714 C139.770286,271.285714 149.714286,281.229714 149.714286,293 C149.714286,304.770286 139.770286,314.714286 128,314.714286 Z" id="Shape"></path>
            <path d="M196.96,307 L196.96,281.04 L192.2,281.04 C191.68,283.76 189.04,285.88 185.24,285.92 L185.24,289.64 L191.48,289.64 L191.48,307 L196.96,307 Z M218.84,278.28 L214,278.28 L199.84,307.36 L204.64,307.36 L218.84,278.28 Z M225.76,291.08 C225.64,290.64 225.56,290.12 225.56,289.64 C225.56,287.2 226.92,285.32 229.68,285.32 C232.28,285.32 233.6,287 233.6,288.88 C233.6,290.68 232.72,292.04 230.52,293.36 L226.24,295.92 C221.6,298.72 220.16,302.44 220.12,307 L239.32,307 L239.32,302.24 L226.88,302.24 C227.28,301.24 228.12,300.52 229.12,299.88 L234.12,296.84 C237.32,294.88 239.16,292.16 239.16,288.8 C239.16,284.28 235.6,280.44 229.8,280.44 C223.76,280.44 220.32,284.56 220.32,289.12 C220.32,289.76 220.44,290.56 220.52,290.92 L225.76,291.08 Z M258.6,307 L258.6,295.48 C258.6,293.32 259.96,291.6 262.28,291.6 C264.68,291.6 265.76,293.2 265.76,295.32 L265.76,307 L271.04,307 L271.04,295.48 C271.04,293.36 272.4,291.6 274.68,291.6 C277.12,291.6 278.16,293.2 278.16,295.32 L278.16,307 L283.32,307 L283.32,294.24 C283.32,288.96 279.84,286.76 276.2,286.76 C273.6,286.76 271.52,287.64 269.96,290.04 C268.96,287.92 266.8,286.76 264.12,286.76 C261.96,286.76 259.44,287.8 258.36,289.72 L258.36,287.32 L253.28,287.32 L253.28,307 L258.6,307 Z M292.6,294.92 C292.72,293.12 294.24,291.04 297,291.04 C300.04,291.04 301.32,292.96 301.4,294.92 L292.6,294.92 Z M301.92,300.04 C301.28,301.8 299.92,303.04 297.44,303.04 C294.8,303.04 292.6,301.16 292.48,298.56 L306.56,298.56 C306.56,298.48 306.64,297.68 306.64,296.92 C306.64,290.6 303,286.72 296.92,286.72 C291.88,286.72 287.24,290.8 287.24,297.08 C287.24,303.72 292,307.6 297.4,307.6 C302.24,307.6 305.36,304.76 306.36,301.36 L301.92,300.04 Z M309.64,301.64 C309.64,304.72 312.2,307.56 316.4,307.56 C319.32,307.56 321.2,306.2 322.2,304.64 C322.2,305.4 322.28,306.48 322.4,307 L327.28,307 C327.16,306.32 327.04,304.92 327.04,303.88 L327.04,294.2 C327.04,290.24 324.72,286.72 318.48,286.72 C313.2,286.72 310.36,290.12 310.04,293.2 L314.76,294.2 C314.92,292.48 316.2,291 318.52,291 C320.76,291 321.84,292.16 321.84,293.56 C321.84,294.24 321.48,294.8 320.36,294.96 L315.52,295.68 C312.24,296.16 309.64,298.12 309.64,301.64 Z M317.52,303.6 C315.8,303.6 314.96,302.48 314.96,301.32 C314.96,299.8 316.04,299.04 317.4,298.84 L321.84,298.16 L321.84,299.04 C321.84,302.52 319.76,303.6 317.52,303.6 Z M337.72,307 L337.72,278.04 L332.4,278.04 L332.4,307 L337.72,307 Z M362.12,302.76 C359.52,302.76 357.12,300.84 357.12,297.16 C357.12,293.44 359.52,291.56 362.12,291.56 C364.72,291.56 367.12,293.44 367.12,297.16 C367.12,300.88 364.72,302.76 362.12,302.76 Z M362.12,286.72 C356.24,286.72 351.8,291.08 351.8,297.16 C351.8,303.2 356.24,307.6 362.12,307.6 C368,307.6 372.44,303.2 372.44,297.16 C372.44,291.08 368,286.72 362.12,286.72 Z M385.76,282.44 C386.64,282.44 387.16,282.56 387.44,282.64 L387.44,278.16 C387,277.96 385.92,277.76 384.8,277.76 C380.44,277.76 377.64,280.64 377.64,285.08 L377.64,287.32 L374.36,287.32 L374.36,291.88 L377.64,291.88 L377.64,307 L383,307 L383,291.88 L387.44,291.88 L387.44,287.32 L383,287.32 L383,285.16 C383,282.96 384.56,282.44 385.76,282.44 Z M419.52,278.04 L414.28,278.04 L414.28,289.28 C413.72,288.24 412.12,286.84 408.72,286.84 C403.16,286.84 399.28,291.36 399.28,297.12 C399.28,303.08 403.28,307.48 408.88,307.48 C411.52,307.48 413.52,306.28 414.4,304.72 C414.4,305.64 414.52,306.6 414.6,307 L419.68,307 C419.6,306.2 419.52,304.76 419.52,303.44 L419.52,278.04 Z M404.64,297.12 C404.64,293.6 406.8,291.6 409.52,291.6 C412.24,291.6 414.36,293.56 414.36,297.08 C414.36,300.64 412.24,302.72 409.52,302.72 C406.72,302.72 404.64,300.64 404.64,297.12 Z M437.28,287.24 C436.88,287.2 436.48,287.16 436.04,287.16 C434.36,287.16 431.64,287.64 430.44,290.24 L430.44,287.32 L425.28,287.32 L425.28,307 L430.6,307 L430.6,298 C430.6,293.76 432.96,292.44 435.68,292.44 C436.16,292.44 436.68,292.48 437.28,292.6 L437.28,287.24 Z M447.72,314.76 L460.08,287.32 L454.4,287.32 L449.56,298.84 L444.32,287.32 L438.36,287.32 L446.72,304.52 L442.08,314.76 L447.72,314.76 Z M482.32,282.44 C483.2,282.44 483.72,282.56 484,282.64 L484,278.16 C483.56,277.96 482.48,277.76 481.36,277.76 C477,277.76 474.2,280.64 474.2,285.08 L474.2,287.32 L470.92,287.32 L470.92,291.88 L474.2,291.88 L474.2,307 L479.56,307 L479.56,291.88 L484,291.88 L484,287.32 L479.56,287.32 L479.56,285.16 C479.56,282.96 481.12,282.44 482.32,282.44 Z M496.28,302.76 C493.68,302.76 491.28,300.84 491.28,297.16 C491.28,293.44 493.68,291.56 496.28,291.56 C498.88,291.56 501.28,293.44 501.28,297.16 C501.28,300.88 498.88,302.76 496.28,302.76 Z M496.28,286.72 C490.4,286.72 485.96,291.08 485.96,297.16 C485.96,303.2 490.4,307.6 496.28,307.6 C502.16,307.6 506.6,303.2 506.6,297.16 C506.6,291.08 502.16,286.72 496.28,286.72 Z M519.64,302.76 C517.04,302.76 514.64,300.84 514.64,297.16 C514.64,293.44 517.04,291.56 519.64,291.56 C522.24,291.56 524.64,293.44 524.64,297.16 C524.64,300.88 522.24,302.76 519.64,302.76 Z M519.64,286.72 C513.76,286.72 509.32,291.08 509.32,297.16 C509.32,303.2 513.76,307.6 519.64,307.6 C525.52,307.6 529.96,303.2 529.96,297.16 C529.96,291.08 525.52,286.72 519.64,286.72 Z M552.92,278.04 L547.68,278.04 L547.68,289.28 C547.12,288.24 545.52,286.84 542.12,286.84 C536.56,286.84 532.68,291.36 532.68,297.12 C532.68,303.08 536.68,307.48 542.28,307.48 C544.92,307.48 546.92,306.28 547.8,304.72 C547.8,305.64 547.92,306.6 548,307 L553.08,307 C553,306.2 552.92,304.76 552.92,303.44 L552.92,278.04 Z M538.04,297.12 C538.04,293.6 540.2,291.6 542.92,291.6 C545.64,291.6 547.76,293.56 547.76,297.08 C547.76,300.64 545.64,302.72 542.92,302.72 C540.12,302.72 538.04,300.64 538.04,297.12 Z M195.68,350.76 C193.08,350.76 190.68,348.84 190.68,345.16 C190.68,341.44 193.08,339.56 195.68,339.56 C198.28,339.56 200.68,341.44 200.68,345.16 C200.68,348.88 198.28,350.76 195.68,350.76 Z M195.68,334.72 C189.8,334.72 185.36,339.08 185.36,345.16 C185.36,351.2 189.8,355.6 195.68,355.6 C201.56,355.6 206,351.2 206,345.16 C206,339.08 201.56,334.72 195.68,334.72 Z M222.2,335.24 C221.8,335.2 221.4,335.16 220.96,335.16 C219.28,335.16 216.56,335.64 215.36,338.24 L215.36,335.32 L210.2,335.32 L210.2,355 L215.52,355 L215.52,346 C215.52,341.76 217.88,340.44 220.6,340.44 C221.08,340.44 221.6,340.48 222.2,340.6 L222.2,335.24 Z M245.84,355 L245.84,329.04 L241.08,329.04 C240.56,331.76 237.92,333.88 234.12,333.92 L234.12,337.64 L240.36,337.64 L240.36,355 L245.84,355 Z M262.12,345.48 L262.12,340.76 L250.52,340.76 L250.52,345.48 L262.12,345.48 Z M270.84,339.08 C270.72,338.64 270.64,338.12 270.64,337.64 C270.64,335.2 272,333.32 274.76,333.32 C277.36,333.32 278.68,335 278.68,336.88 C278.68,338.68 277.8,340.04 275.6,341.36 L271.32,343.92 C266.68,346.72 265.24,350.44 265.2,355 L284.4,355 L284.4,350.24 L271.96,350.24 C272.36,349.24 273.2,348.52 274.2,347.88 L279.2,344.84 C282.4,342.88 284.24,340.16 284.24,336.8 C284.24,332.28 280.68,328.44 274.88,328.44 C268.84,328.44 265.4,332.56 265.4,337.12 C265.4,337.76 265.52,338.56 265.6,338.92 L270.84,339.08 Z M317.12,326.04 L311.88,326.04 L311.88,337.28 C311.32,336.24 309.72,334.84 306.32,334.84 C300.76,334.84 296.88,339.36 296.88,345.12 C296.88,351.08 300.88,355.48 306.48,355.48 C309.12,355.48 311.12,354.28 312,352.72 C312,353.64 312.12,354.6 312.2,355 L317.28,355 C317.2,354.2 317.12,352.76 317.12,351.44 L317.12,326.04 Z M302.24,345.12 C302.24,341.6 304.4,339.6 307.12,339.6 C309.84,339.6 311.96,341.56 311.96,345.08 C311.96,348.64 309.84,350.72 307.12,350.72 C304.32,350.72 302.24,348.64 302.24,345.12 Z M331.72,350.76 C329.12,350.76 326.72,348.84 326.72,345.16 C326.72,341.44 329.12,339.56 331.72,339.56 C334.32,339.56 336.72,341.44 336.72,345.16 C336.72,348.88 334.32,350.76 331.72,350.76 Z M331.72,334.72 C325.84,334.72 321.4,339.08 321.4,345.16 C321.4,351.2 325.84,355.6 331.72,355.6 C337.6,355.6 342.04,351.2 342.04,345.16 C342.04,339.08 337.6,334.72 331.72,334.72 Z M361.16,355 L361.16,350.36 L351.4,350.36 L361,339.76 L361,335.32 L345.12,335.32 L345.12,339.92 L354.2,339.92 L344.88,350.32 L344.88,355 L361.16,355 Z M369.36,342.92 C369.48,341.12 371,339.04 373.76,339.04 C376.8,339.04 378.08,340.96 378.16,342.92 L369.36,342.92 Z M378.68,348.04 C378.04,349.8 376.68,351.04 374.2,351.04 C371.56,351.04 369.36,349.16 369.24,346.56 L383.32,346.56 C383.32,346.48 383.4,345.68 383.4,344.92 C383.4,338.6 379.76,334.72 373.68,334.72 C368.64,334.72 364,338.8 364,345.08 C364,351.72 368.76,355.6 374.16,355.6 C379,355.6 382.12,352.76 383.12,349.36 L378.68,348.04 Z M392.92,343.68 C392.92,341.4 394.28,339.6 396.6,339.6 C399.16,339.6 400.24,341.32 400.24,343.52 L400.24,355 L405.56,355 L405.56,342.6 C405.56,338.28 403.32,334.8 398.44,334.8 C396.32,334.8 393.96,335.72 392.76,337.76 L392.76,335.32 L387.6,335.32 L387.6,355 L392.92,355 L392.92,343.68 Z M427.4,329.44 L422.6,329.44 L422.6,332.2 C422.6,333.96 421.64,335.32 419.56,335.32 L418.56,335.32 L418.56,340.04 L422.12,340.04 L422.12,349.2 C422.12,353 424.52,355.28 428.36,355.28 C429.92,355.28 430.88,355 431.36,354.8 L431.36,350.4 C431.08,350.48 430.36,350.56 429.72,350.56 C428.2,350.56 427.4,350 427.4,348.28 L427.4,340.04 L431.36,340.04 L431.36,335.32 L427.4,335.32 L427.4,329.44 Z M434.56,349.64 C434.56,352.72 437.12,355.56 441.32,355.56 C444.24,355.56 446.12,354.2 447.12,352.64 C447.12,353.4 447.2,354.48 447.32,355 L452.2,355 C452.08,354.32 451.96,352.92 451.96,351.88 L451.96,342.2 C451.96,338.24 449.64,334.72 443.4,334.72 C438.12,334.72 435.28,338.12 434.96,341.2 L439.68,342.2 C439.84,340.48 441.12,339 443.44,339 C445.68,339 446.76,340.16 446.76,341.56 C446.76,342.24 446.4,342.8 445.28,342.96 L440.44,343.68 C437.16,344.16 434.56,346.12 434.56,349.64 Z M442.44,351.6 C440.72,351.6 439.88,350.48 439.88,349.32 C439.88,347.8 440.96,347.04 442.32,346.84 L446.76,346.16 L446.76,347.04 C446.76,350.52 444.68,351.6 442.44,351.6 Z M455.64,349.52 C455.88,351.76 457.92,355.6 463.84,355.6 C469,355.6 471.48,352.32 471.48,349.12 C471.48,346.24 469.52,343.88 465.64,343.08 L462.84,342.48 C461.76,342.28 461.04,341.68 461.04,340.72 C461.04,339.6 462.16,338.76 463.56,338.76 C465.8,338.76 466.64,340.24 466.8,341.4 L471.24,340.4 C471,338.28 469.12,334.72 463.52,334.72 C459.28,334.72 456.16,337.64 456.16,341.16 C456.16,343.92 457.88,346.2 461.68,347.04 L464.28,347.64 C465.8,347.96 466.4,348.68 466.4,349.56 C466.4,350.6 465.56,351.52 463.8,351.52 C461.48,351.52 460.32,350.08 460.2,348.52 L455.64,349.52 Z M482.32,329.44 L477.52,329.44 L477.52,332.2 C477.52,333.96 476.56,335.32 474.48,335.32 L473.48,335.32 L473.48,340.04 L477.04,340.04 L477.04,349.2 C477.04,353 479.44,355.28 483.28,355.28 C484.84,355.28 485.8,355 486.28,354.8 L486.28,350.4 C486,350.48 485.28,350.56 484.64,350.56 C483.12,350.56 482.32,350 482.32,348.28 L482.32,340.04 L486.28,340.04 L486.28,335.32 L482.32,335.32 L482.32,329.44 Z M497.48,362.76 L509.84,335.32 L504.16,335.32 L499.32,346.84 L494.08,335.32 L488.12,335.32 L496.48,352.52 L491.84,362.76 L497.48,362.76 Z M529.52,329.44 L524.72,329.44 L524.72,332.2 C524.72,333.96 523.76,335.32 521.68,335.32 L520.68,335.32 L520.68,340.04 L524.24,340.04 L524.24,349.2 C524.24,353 526.64,355.28 530.48,355.28 C532.04,355.28 533,355 533.48,354.8 L533.48,350.4 C533.2,350.48 532.48,350.56 531.84,350.56 C530.32,350.56 529.52,350 529.52,348.28 L529.52,340.04 L533.48,340.04 L533.48,335.32 L529.52,335.32 L529.52,329.44 Z M549.88,335.24 C549.48,335.2 549.08,335.16 548.64,335.16 C546.96,335.16 544.24,335.64 543.04,338.24 L543.04,335.32 L537.88,335.32 L537.88,355 L543.2,355 L543.2,346 C543.2,341.76 545.56,340.44 548.28,340.44 C548.76,340.44 549.28,340.48 549.88,340.6 L549.88,335.24 Z M557.4,342.92 C557.52,341.12 559.04,339.04 561.8,339.04 C564.84,339.04 566.12,340.96 566.2,342.92 L557.4,342.92 Z M566.72,348.04 C566.08,349.8 564.72,351.04 562.24,351.04 C559.6,351.04 557.4,349.16 557.28,346.56 L571.36,346.56 C571.36,346.48 571.44,345.68 571.44,344.92 C571.44,338.6 567.8,334.72 561.72,334.72 C556.68,334.72 552.04,338.8 552.04,345.08 C552.04,351.72 556.8,355.6 562.2,355.6 C567.04,355.6 570.16,352.76 571.16,349.36 L566.72,348.04 Z M574.44,349.64 C574.44,352.72 577,355.56 581.2,355.56 C584.12,355.56 586,354.2 587,352.64 C587,353.4 587.08,354.48 587.2,355 L592.08,355 C591.96,354.32 591.84,352.92 591.84,351.88 L591.84,342.2 C591.84,338.24 589.52,334.72 583.28,334.72 C578,334.72 575.16,338.12 574.84,341.2 L579.56,342.2 C579.72,340.48 581,339 583.32,339 C585.56,339 586.64,340.16 586.64,341.56 C586.64,342.24 586.28,342.8 585.16,342.96 L580.32,343.68 C577.04,344.16 574.44,346.12 574.44,349.64 Z M582.32,351.6 C580.6,351.6 579.76,350.48 579.76,349.32 C579.76,347.8 580.84,347.04 582.2,346.84 L586.64,346.16 L586.64,347.04 C586.64,350.52 584.56,351.6 582.32,351.6 Z M603.76,329.44 L598.96,329.44 L598.96,332.2 C598.96,333.96 598,335.32 595.92,335.32 L594.92,335.32 L594.92,340.04 L598.48,340.04 L598.48,349.2 C598.48,353 600.88,355.28 604.72,355.28 C606.28,355.28 607.24,355 607.72,354.8 L607.72,350.4 C607.44,350.48 606.72,350.56 606.08,350.56 C604.56,350.56 603.76,350 603.76,348.28 L603.76,340.04 L607.72,340.04 L607.72,335.32 L603.76,335.32 L603.76,329.44 Z M610.44,349.52 C610.68,351.76 612.72,355.6 618.64,355.6 C623.8,355.6 626.28,352.32 626.28,349.12 C626.28,346.24 624.32,343.88 620.44,343.08 L617.64,342.48 C616.56,342.28 615.84,341.68 615.84,340.72 C615.84,339.6 616.96,338.76 618.36,338.76 C620.6,338.76 621.44,340.24 621.6,341.4 L626.04,340.4 C625.8,338.28 623.92,334.72 618.32,334.72 C614.08,334.72 610.96,337.64 610.96,341.16 C610.96,343.92 612.68,346.2 616.48,347.04 L619.08,347.64 C620.6,347.96 621.2,348.68 621.2,349.56 C621.2,350.6 620.36,351.52 618.6,351.52 C616.28,351.52 615.12,350.08 615,348.52 L610.44,349.52 Z" id="1/2-meal-of-dry-food"></path>
            <path d="M138.641,188.334929 L124.303286,202.672643 L117.950714,196.320071 C117.504429,195.873786 116.780429,195.873786 116.334714,196.320071 C115.888429,196.766357 115.888429,197.489786 116.334714,197.936071 L123.495286,205.097214 C123.709571,205.3115 124.000429,205.4315 124.303286,205.4315 C124.606143,205.4315 124.897,205.3115 125.111286,205.097214 L140.257571,189.950929 C140.703857,189.504643 140.703857,188.781214 140.257571,188.334929 C139.811286,187.888643 139.087286,187.888071 138.641,188.334929 Z" id="Shape"></path>
            <path d="M128,173 C114.990857,173 104,183.990286 104,197 C104,210.009714 114.990857,221 128,221 C141.009143,221 152,210.009714 152,197 C152,183.990286 141.009143,173 128,173 Z M128,218.714286 C116.229714,218.714286 106.285714,208.770286 106.285714,197 C106.285714,185.229714 116.229714,175.285714 128,175.285714 C139.770286,175.285714 149.714286,185.229714 149.714286,197 C149.714286,208.770286 139.770286,218.714286 128,218.714286 Z" id="Shape"></path>
            <path d="M196.96,211 L196.96,185.04 L192.2,185.04 C191.68,187.76 189.04,189.88 185.24,189.92 L185.24,193.64 L191.48,193.64 L191.48,211 L196.96,211 Z M217.88,199.44 C218,197.28 219.32,195.6 221.56,195.6 C224.12,195.6 225.2,197.32 225.2,199.52 L225.2,211 L230.52,211 L230.52,198.6 C230.52,194.28 228.2,190.8 223.2,190.8 C221.32,190.8 219.16,191.44 217.88,192.96 L217.88,182.04 L212.56,182.04 L212.56,211 L217.88,211 L217.88,199.44 Z M248.8,211 L253.88,211 C253.8,210.32 253.68,208.96 253.68,207.44 L253.68,191.32 L248.36,191.32 L248.36,202.76 C248.36,205.04 247,206.64 244.64,206.64 C242.16,206.64 241.04,204.88 241.04,202.68 L241.04,191.32 L235.72,191.32 L235.72,203.76 C235.72,208.04 238.44,211.52 243.2,211.52 C245.28,211.52 247.56,210.72 248.64,208.88 C248.64,209.68 248.72,210.6 248.8,211 Z M264.68,199.68 C264.68,197.4 266.04,195.6 268.36,195.6 C270.92,195.6 272,197.32 272,199.52 L272,211 L277.32,211 L277.32,198.6 C277.32,194.28 275.08,190.8 270.2,190.8 C268.08,190.8 265.72,191.72 264.52,193.76 L264.52,191.32 L259.36,191.32 L259.36,211 L264.68,211 L264.68,199.68 Z M281.32,212.08 C281.88,215.84 285.48,219.2 290.88,219.2 C298.28,219.2 301.2,214.28 301.2,208.88 L301.2,191.32 L296.08,191.32 L296.08,193.64 C295.4,192.32 293.6,190.96 290.48,190.96 C285.08,190.96 281.32,195.36 281.32,200.56 C281.32,206.08 285.24,210.12 290.48,210.12 C293.32,210.12 295.16,208.88 295.96,207.6 L295.96,209.04 C295.96,212.84 294.08,214.52 290.72,214.52 C288.2,214.52 286.48,212.96 286.12,210.8 L281.32,212.08 Z M291.4,205.56 C288.64,205.56 286.68,203.64 286.68,200.56 C286.68,197.52 288.76,195.6 291.4,195.6 C293.96,195.6 296.04,197.52 296.04,200.56 C296.04,203.6 294.12,205.56 291.4,205.56 Z M318.6,191.24 C318.2,191.2 317.8,191.16 317.36,191.16 C315.68,191.16 312.96,191.64 311.76,194.24 L311.76,191.32 L306.6,191.32 L306.6,211 L311.92,211 L311.92,202 C311.92,197.76 314.28,196.44 317,196.44 C317.48,196.44 318,196.48 318.6,196.6 L318.6,191.24 Z M329.04,218.76 L341.4,191.32 L335.72,191.32 L330.88,202.84 L325.64,191.32 L319.68,191.32 L328.04,208.52 L323.4,218.76 L329.04,218.76 Z M359.84,218.6 L359.84,209.08 C360.8,210.4 362.8,211.48 365.52,211.48 C371.08,211.48 374.8,207.08 374.8,201.12 C374.8,195.28 371.48,190.88 365.72,190.88 C362.76,190.88 360.56,192.2 359.68,193.72 L359.68,191.32 L354.52,191.32 L354.52,218.6 L359.84,218.6 Z M369.56,201.16 C369.56,204.68 367.4,206.72 364.68,206.72 C361.96,206.72 359.76,204.64 359.76,201.16 C359.76,197.68 361.96,195.64 364.68,195.64 C367.4,195.64 369.56,197.68 369.56,201.16 Z M391.88,211 L396.96,211 C396.88,210.32 396.76,208.96 396.76,207.44 L396.76,191.32 L391.44,191.32 L391.44,202.76 C391.44,205.04 390.08,206.64 387.72,206.64 C385.24,206.64 384.12,204.88 384.12,202.68 L384.12,191.32 L378.8,191.32 L378.8,203.76 C378.8,208.04 381.52,211.52 386.28,211.52 C388.36,211.52 390.64,210.72 391.72,208.88 C391.72,209.68 391.8,210.6 391.88,211 Z M407.76,218.6 L407.76,209.08 C408.72,210.4 410.72,211.48 413.44,211.48 C419,211.48 422.72,207.08 422.72,201.12 C422.72,195.28 419.4,190.88 413.64,190.88 C410.68,190.88 408.48,192.2 407.6,193.72 L407.6,191.32 L402.44,191.32 L402.44,218.6 L407.76,218.6 Z M417.48,201.16 C417.48,204.68 415.32,206.72 412.6,206.72 C409.88,206.72 407.68,204.64 407.68,201.16 C407.68,197.68 409.88,195.64 412.6,195.64 C415.32,195.64 417.48,197.68 417.48,201.16 Z" id="1-hungry-pup"></path>
        </g>
    </g>
</svg>