<?xml version="1.0" encoding="UTF-8"?>
<svg width="750px" height="1334px" viewBox="0 0 750 1334" version="1.1" xmlns="http://www.w3.org/2000/svg" xmlns:xlink="http://www.w3.org/1999/xlink">
    <!-- Generator: Sketch 41.2 (35397) - http://www.bohemiancoding.com/sketch -->
    <title>iPhone 7</title>
    <desc>Created with Sketch.</desc>
    <defs></defs>
    <g id="Page-1" stroke="none" stroke-width="1" fill="none" fill-rule="evenodd">
        <g id="iPhone-7" fill="#FFFFFF">
            <path d="M138.641,284.334929 L124.303286,298.672643 L117.950714,292.320071 C117.504429,291.873786 116.780429,291.873786 116.334714,292.320071 C115.888429,292.766357 115.888429,293.489786 116.334714,293.936071 L123.495286,301.097214 C123.709571,301.3115 124.000429,301.4315 124.303286,301.4315 C124.606143,301.4315 124.897,301.3115 125.111286,301.097214 L140.257571,285.950929 C140.703857,285.504643 140.703857,284.781214 140.257571,284.334929 C139.811286,283.888643 139.087286,283.888071 138.641,284.334929 Z" id="Shape"></path>
            <path d="M128,269 C114.990857,269 104,279.990286 104,293 C104,306.009714 114.990857,317 128,317 C141.009143,317 152,306.009714 152,293 C152,279.990286 141.009143,269 128,269 Z M128,314.714286 C116.229714,314.714286 106.285714,304.770286 106.285714,293 C106.285714,281.229714 116.229714,271.285714 128,271.285714 C139.770286,271.285714 149.714286,281.229714 149.714286,293 C149.714286,304.770286 139.770286,314.714286 128,314.714286 Z" id="Shape"></path>
            <text id="1/2-meal-of-dry-food" font-family="CircularStd-Bold, Circular Std" font-size="40" font-weight="bold" line-spacing="48">
                <tspan x="184" y="308">1/2 meal of dry food</tspan>
                <tspan x="184" y="356">or 1-2 dozen tasty treats</tspan>
            </text>
            <path d="M138.641,188.334929 L124.303286,202.672643 L117.950714,196.320071 C117.504429,195.873786 116.780429,195.873786 116.334714,196.320071 C115.888429,196.766357 115.888429,197.489786 116.334714,197.936071 L123.495286,205.097214 C123.709571,205.3115 124.000429,205.4315 124.303286,205.4315 C124.606143,205.4315 124.897,205.3115 125.111286,205.097214 L140.257571,189.950929 C140.703857,189.504643 140.703857,188.781214 140.257571,188.334929 C139.811286,187.888643 139.087286,187.888071 138.641,188.334929 Z" id="Shape"></path>
            <path d="M128,173 C114.990857,173 104,183.990286 104,197 C104,210.009714 114.990857,221 128,221 C141.009143,221 152,210.009714 152,197 C152,183.990286 141.009143,173 128,173 Z M128,218.714286 C116.229714,218.714286 106.285714,208.770286 106.285714,197 C106.285714,185.229714 116.229714,175.285714 128,175.285714 C139.770286,175.285714 149.714286,185.229714 149.714286,197 C149.714286,208.770286 139.770286,218.714286 128,218.714286 Z" id="Shape"></path>
            <text id="1-hungry-pup" font-family="CircularStd-Bold, Circular Std" font-size="40" font-weight="bold" line-spacing="40">
                <tspan x="184" y="216">1 hungry pup</tspan>
            </text>
        </g>
    </g>
</svg>