<?xml version="1.0" encoding="UTF-8"?>
<svg width="40px" height="40px" viewBox="0 0 40 40" version="1.1" xmlns="http://www.w3.org/2000/svg" xmlns:xlink="http://www.w3.org/1999/xlink">
    <!-- Generator: Sketch 42 (36781) - http://www.bohemiancoding.com/sketch -->
    <title>Buoy</title>
    <desc>Created with Sketch.</desc>
    <defs></defs>
    <g id="UI" stroke="none" stroke-width="1" fill="none" fill-rule="evenodd">
        <g id="NEW-Lesson-Splash" transform="translate(-577.000000, -74.000000)" fill-rule="nonzero" fill="#FFFFF6">
            <g id="Group" transform="translate(577.000000, 72.000000)">
                <path d="M37.653913,18.5478261 C36.2591304,11.4052174 30.5947826,5.74086957 23.4521739,4.34608696 C23.3182609,3.03304348 22.2191304,2 20.8695652,2 L19.1304348,2 C17.7808696,2 16.6817391,3.03304348 16.5478261,4.34608696 C9.40521739,5.73913043 3.74086957,11.4052174 2.34608696,18.5478261 C1.03304348,18.6817391 0,19.7808696 0,21.1304348 L0,22.8695652 C0,24.2191304 1.03304348,25.3182609 2.34608696,25.4521739 C3.74086957,32.5947826 9.40521739,38.2591304 16.5478261,39.653913 C16.6817391,40.9686957 17.7808696,42 19.1304348,42 L20.8695652,42 C22.2191304,42 23.3182609,40.9669565 23.4521739,39.653913 C30.5947826,38.2591304 36.2591304,32.5947826 37.653913,25.4521739 C38.9686957,25.3182609 40,24.2191304 40,22.8695652 L40,21.1304348 C40,19.7826087 38.9669565,18.6817391 37.653913,18.5478261 Z M23.4782609,6.11826087 C29.6434783,7.46782609 34.5321739,12.3565217 35.8817391,18.5217391 L29.8173913,18.5217391 C28.7704348,15.5756522 26.4243478,13.2295652 23.4782609,12.1826087 L23.4782609,6.11826087 Z M18.2608696,4.60869565 C18.2608696,4.12869565 18.6504348,3.73913043 19.1304348,3.73913043 L20.8695652,3.73913043 C21.3495652,3.73913043 21.7391304,4.12869565 21.7391304,4.60869565 L21.7391304,12.4347826 C21.7391304,12.9147826 21.3495652,13.3043478 20.8695652,13.3043478 L19.1304348,13.3043478 C18.6504348,13.3043478 18.2608696,12.9147826 18.2608696,12.4347826 L18.2608696,4.60869565 Z M16.5217391,6.11826087 L16.5217391,12.1826087 C13.5756522,13.2313043 11.2295652,15.5756522 10.1826087,18.5217391 L4.11826087,18.5217391 C5.46782609,12.3565217 10.3565217,7.46782609 16.5217391,6.11826087 Z M1.73913043,22.8695652 L1.73913043,21.1304348 C1.73913043,20.6504348 2.12869565,20.2608696 2.60869565,20.2608696 L10.4347826,20.2608696 C10.9147826,20.2608696 11.3043478,20.6504348 11.3043478,21.1304348 L11.3043478,22.8695652 C11.3043478,23.3495652 10.9147826,23.7391304 10.4347826,23.7391304 L2.60869565,23.7391304 C2.12869565,23.7391304 1.73913043,23.3495652 1.73913043,22.8695652 Z M16.5217391,37.8817391 C10.3565217,36.5321739 5.46782609,31.6434783 4.11826087,25.4782609 L10.1826087,25.4782609 C11.2295652,28.4243478 13.5756522,30.7704348 16.5217391,31.8173913 L16.5217391,37.8817391 Z M21.7391304,39.3913043 C21.7391304,39.8713043 21.3495652,40.2608696 20.8695652,40.2608696 L19.1304348,40.2608696 C18.6504348,40.2608696 18.2608696,39.8713043 18.2608696,39.3913043 L18.2608696,31.5652174 C18.2608696,31.0852174 18.6504348,30.6956522 19.1304348,30.6956522 L20.8695652,30.6956522 C21.3495652,30.6956522 21.7391304,31.0852174 21.7391304,31.5652174 L21.7391304,39.3913043 Z M23.0434783,30.1286957 C22.5773913,29.4243478 21.7773913,28.9565217 20.8695652,28.9565217 L19.1304348,28.9565217 C18.2226087,28.9565217 17.4226087,29.4243478 16.9565217,30.1304348 C14.6173913,29.2504348 12.7513043,27.3843478 11.8713043,25.0452174 C12.5756522,24.5773913 13.0434783,23.7773913 13.0434783,22.8695652 L13.0434783,21.1304348 C13.0434783,20.2226087 12.5756522,19.4226087 11.8695652,18.9565217 C12.7495652,16.6173913 14.6156522,14.7495652 16.9547826,13.8713043 C17.4226087,14.5756522 18.2226087,15.0434783 19.1304348,15.0434783 L20.8695652,15.0434783 C21.7773913,15.0434783 22.5773913,14.5756522 23.0434783,13.8695652 C25.3826087,14.7495652 27.2504348,16.6156522 28.1286957,18.9547826 C27.4243478,19.4226087 26.9565217,20.2226087 26.9565217,21.1304348 L26.9565217,22.8695652 C26.9565217,23.7773913 27.4243478,24.5773913 28.1304348,25.0434783 C27.2504348,27.3826087 25.3843478,29.2504348 23.0434783,30.1286957 Z M23.4782609,37.8817391 L23.4782609,31.8173913 C26.4243478,30.7704348 28.7704348,28.4243478 29.8173913,25.4782609 L35.8817391,25.4782609 C34.5321739,31.6434783 29.6434783,36.5321739 23.4782609,37.8817391 Z M38.2608696,22.8695652 C38.2608696,23.3495652 37.8713043,23.7391304 37.3913043,23.7391304 L29.5652174,23.7391304 C29.0852174,23.7391304 28.6956522,23.3495652 28.6956522,22.8695652 L28.6956522,21.1304348 C28.6956522,20.6504348 29.0852174,20.2608696 29.5652174,20.2608696 L37.3913043,20.2608696 C37.8713043,20.2608696 38.2608696,20.6504348 38.2608696,21.1304348 L38.2608696,22.8695652 Z" id="Buoy"></path>
            </g>
        </g>
    </g>
</svg>