<?xml version="1.0" encoding="UTF-8"?>
<svg width="32px" height="40px" viewBox="0 0 32 40" version="1.1" xmlns="http://www.w3.org/2000/svg" xmlns:xlink="http://www.w3.org/1999/xlink">
    <!-- Generator: Sketch 42 (36781) - http://www.bohemiancoding.com/sketch -->
    <title>Shape Copy 2</title>
    <desc>Created with Sketch.</desc>
    <defs></defs>
    <g id="UI" stroke="none" stroke-width="1" fill="none" fill-rule="evenodd" fill-opacity="0.33">
        <g id="NEW-Lesson-Splash" transform="translate(-634.000000, -1523.000000)" fill-rule="nonzero" fill="#ACA399">
            <path d="M650,1523 C644.28075,1523 639.647059,1527.80322 639.647059,1533.73168 L639.647059,1539.58534 L636.823529,1539.58534 C635.275573,1539.58534 634,1540.90758 634,1542.51216 L634,1560.07317 C634,1561.67776 635.275573,1563 636.823529,1563 L663.176471,1563 C664.724429,1563 666,1561.67776 666,1560.07317 L666,1542.51216 C666,1540.90758 664.724429,1539.58534 663.176471,1539.58534 L660.352941,1539.58534 L660.352941,1533.73168 C660.352941,1527.80322 655.719252,1523 650,1523 Z M650,1524.95122 C654.708984,1524.95122 658.470588,1528.85044 658.470588,1533.73168 L658.470588,1539.58534 L641.529412,1539.58534 L641.529412,1533.73168 C641.529412,1528.85044 645.291014,1524.95122 650,1524.95122 Z M636.823529,1541.53655 L663.176471,1541.53655 C663.714165,1541.53655 664.117647,1541.95479 664.117647,1542.51216 L664.117647,1560.07317 C664.117647,1560.63054 663.714165,1561.04878 663.176471,1561.04878 L636.823529,1561.04878 C636.285837,1561.04878 635.882353,1560.63054 635.882353,1560.07317 L635.882353,1542.51216 C635.882353,1541.95479 636.285837,1541.53655 636.823529,1541.53655 Z M650,1545.43899 C647.931958,1545.43899 646.235294,1547.19777 646.235294,1549.34147 C646.235294,1550.29845 646.620641,1551.1305 647.176471,1551.81098 L647.176471,1554.21952 C647.176471,1555.8241 648.452044,1557.14635 650,1557.14635 C651.547958,1557.14635 652.823529,1555.8241 652.823529,1554.21952 L652.823529,1551.81098 C653.37936,1551.1305 653.764706,1550.29845 653.764706,1549.34147 C653.764706,1547.19777 652.068042,1545.43899 650,1545.43899 Z M650,1547.39025 C651.050744,1547.39025 651.882353,1548.2523 651.882353,1549.34147 C651.882353,1549.92474 651.636678,1550.43064 651.25,1550.78967 C651.051062,1550.97672 650.938692,1551.24297 650.941176,1551.52137 L650.941176,1554.21952 C650.941176,1554.77688 650.537689,1555.19513 650,1555.19513 C649.462308,1555.19513 649.058824,1554.77688 649.058824,1554.21952 L649.058824,1551.52137 C649.061308,1551.24297 648.948938,1550.97672 648.75,1550.78967 C648.363324,1550.43064 648.117647,1549.92474 648.117647,1549.34147 C648.117647,1548.2523 648.949256,1547.39025 650,1547.39025 Z" id="Shape-Copy-2"></path>
        </g>
    </g>
</svg>