<?xml version="1.0" encoding="UTF-8"?>
<svg width="36px" height="32px" viewBox="0 0 36 32" version="1.1" xmlns="http://www.w3.org/2000/svg" xmlns:xlink="http://www.w3.org/1999/xlink">
    <!-- Generator: Sketch 42 (36781) - http://www.bohemiancoding.com/sketch -->
    <title>noun_812641_cc</title>
    <desc>Created with Sketch.</desc>
    <defs></defs>
    <g id="UI" stroke="none" stroke-width="1" fill="none" fill-rule="evenodd">
        <g id="NEW-Lesson-Splash" transform="translate(-631.000000, -1141.000000)" fill-rule="nonzero" fill="#FF5F2B">
            <g id="noun_812641_cc" transform="translate(631.000000, 1141.000000)">
                <g id="Group">
                    <path d="M22.9371782,1.28768361 C21.6519053,0.0181760971 19.7734295,-0.323614387 18.092688,0.31113937 C16.4119464,0.994720338 15.3244078,2.60601834 15.3244078,4.36379797 L15.3244078,10.3695451 L5.68486097,10.3695451 C2.57054583,10.3695451 0,12.9085601 0,15.9846744 C0,19.0607888 2.57054583,21.5998038 5.68486097,21.5998038 L15.3244078,21.5998038 L15.3244078,27.6055509 C15.3244078,29.4121578 16.4119464,30.9746285 18.092688,31.6582095 C18.6364573,31.9023456 19.2296601,32 19.7734295,32 C20.9598352,32 22.0968074,31.5605551 22.9371782,30.7304925 L34.7023687,19.109616 C36.4325438,17.4006636 36.4325438,14.6175125 34.7023687,12.9085601 L22.9371782,1.28768361 Z M33.2687951,17.6936269 L21.5530381,29.3145033 C20.8609681,29.9980843 19.7734295,30.1933932 18.8836251,29.8516027 C17.9443872,29.460985 17.3511843,28.5820952 17.3511843,27.6055509 L17.3511843,19.6467153 L5.68486097,19.6467153 C3.65808445,19.6467153 1.97734295,17.9865901 1.97734295,15.9846744 C1.97734295,13.9827587 3.65808445,12.3226335 5.68486097,12.3226335 L17.3017508,12.3226335 L17.3017508,4.36379797 C17.3017508,3.38725373 17.8949537,2.50836391 18.8341916,2.11774622 C19.7734295,1.72712852 20.8115345,1.92243737 21.5530381,2.65484555 L33.3182286,14.275722 C34.2574665,15.203439 34.2574665,16.7659098 33.2687951,17.6936269 Z" id="Shape"></path>
                </g>
            </g>
        </g>
    </g>
</svg>