<?xml version="1.0" encoding="UTF-8"?>
<svg width="40px" height="40px" viewBox="0 0 40 40" version="1.1" xmlns="http://www.w3.org/2000/svg" xmlns:xlink="http://www.w3.org/1999/xlink">
    <!-- Generator: Sketch 42 (36781) - http://www.bohemiancoding.com/sketch -->
    <title>Combined Shape Copy</title>
    <desc>Created with Sketch.</desc>
    <defs></defs>
    <g id="UI" stroke="none" stroke-width="1" fill="none" fill-rule="evenodd">
        <g id="NEW-Lesson-Splash" transform="translate(-80.000000, -1371.000000)" fill="#ACA399">
            <path d="M100,1371 C111.047619,1371 120,1379.95238 120,1391 C120,1402.04762 111.047619,1411 100,1411 C88.952381,1411 80,1402.04762 80,1391 C80,1379.95238 88.952381,1371 100,1371 Z M107.666667,1392.2381 C108.095238,1391.95238 108.333333,1391.52381 108.333333,1391.04762 C108.333333,1390.52381 108.095238,1390.04762 107.666667,1389.80952 L97.7142857,1382.95238 C97.2857143,1382.71429 96.7142857,1382.71429 96.2857143,1382.95238 C95.8571429,1383.19048 95.5714286,1383.66667 95.5714286,1384.19048 L95.5714286,1397.80952 C95.5714286,1398.33333 95.8571429,1398.80952 96.2857143,1399.04762 C96.5238095,1399.19048 96.7619048,1399.2381 97,1399.2381 C97.2380952,1399.2381 97.5238095,1399.19048 97.7619048,1399.04762 L107.666667,1392.2381 Z" id="Combined-Shape-Copy"></path>
        </g>
    </g>
</svg>