<?xml version="1.0" encoding="UTF-8"?>
<svg width="84px" height="84px" viewBox="0 0 84 84" version="1.1" xmlns="http://www.w3.org/2000/svg" xmlns:xlink="http://www.w3.org/1999/xlink">
    <!-- Generator: Sketch 42 (36781) - http://www.bohemiancoding.com/sketch -->
    <title>Combined Shape Copy</title>
    <desc>Created with Sketch.</desc>
    <defs>
        <path d="M375,333 C398.2,333 417,351.8 417,375 C417,398.2 398.2,417 375,417 C351.8,417 333,398.2 333,375 C333,351.8 351.8,333 375,333 Z M391.1,377.6 C392,377 392.5,376.1 392.5,375.1 C392.5,374 392,373 391.1,372.5 L370.2,358.1 C369.3,357.6 368.1,357.6 367.2,358.1 C366.3,358.6 365.7,359.6 365.7,360.7 L365.7,389.3 C365.7,390.4 366.3,391.4 367.2,391.9 C367.7,392.2 368.2,392.3 368.7,392.3 C369.2,392.3 369.8,392.2 370.3,391.9 L391.1,377.6 Z" id="path-1"></path>
        <mask id="mask-2" maskContentUnits="userSpaceOnUse" maskUnits="objectBoundingBox" x="0" y="0" width="84" height="84" fill="white">
            <use xlink:href="#path-1"></use>
        </mask>
    </defs>
    <g id="UI" stroke="none" stroke-width="1" fill="none" fill-rule="evenodd">
        <g id="NEW-Lesson-Splash" transform="translate(-333.000000, -333.000000)" stroke="#FFFFF6" stroke-width="8" fill="#FFFFFF">
            <use id="Combined-Shape-Copy" mask="url(#mask-2)" xlink:href="#path-1"></use>
        </g>
    </g>
</svg>