<?xml version="1.0" encoding="UTF-8"?>
<svg width="84px" height="84px" viewBox="0 0 84 84" version="1.1" xmlns="http://www.w3.org/2000/svg" xmlns:xlink="http://www.w3.org/1999/xlink">
    <!-- Generator: Sketch 41.2 (35397) - http://www.bohemiancoding.com/sketch -->
    <title>Combined Shape</title>
    <desc>Created with Sketch.</desc>
    <defs></defs>
    <g id="Page-1" stroke="none" stroke-width="1" fill="none" fill-rule="evenodd">
        <g id="iPhone-7" transform="translate(-113.000000, -29.000000)" fill="#FFFFFF">
            <g id="noun_680704_cc" transform="translate(113.000000, 29.000000)">
                <g id="Group">
                    <path d="M42,0 C18.8,0 0,18.8 0,42 C0,65.2 18.8,84 42,84 C65.2,84 84,65.2 84,42 C84,18.8 65.2,0 42,0 Z M58.1,44.6 L37.3,58.9 C36.8,59.2 36.2,59.3 35.7,59.3 C35.2,59.3 34.7,59.2 34.2,58.9 C33.3,58.4 32.7,57.4 32.7,56.3 L32.7,27.7 C32.7,26.6 33.3,25.6 34.2,25.1 C35.1,24.6 36.3,24.6 37.2,25.1 L58.1,39.5 C59,40 59.5,41 59.5,42.1 C59.5,43.1 59,44 58.1,44.6 Z M57,41.1 L36.2,26.8 C36.1,26.7 35.9,26.7 35.8,26.7 C35.6,26.7 35.4,26.8 35.3,26.8 C35.1,26.9 34.8,27.1 34.8,27.7 L34.8,56.3 C34.8,56.8 35.1,57.1 35.3,57.2 C35.5,57.3 35.9,57.5 36.3,57.2 L57,42.9 C57.5,42.6 57.5,42.2 57.5,42 C57.5,41.8 57.5,41.4 57,41.1 Z" id="Combined-Shape"></path>
                </g>
            </g>
        </g>
    </g>
</svg>