<?xml version="1.0" encoding="UTF-8"?>
<svg width="53px" height="54px" viewBox="0 0 53 54" version="1.1" xmlns="http://www.w3.org/2000/svg" xmlns:xlink="http://www.w3.org/1999/xlink">
    <!-- Generator: Sketch 42 (36781) - http://www.bohemiancoding.com/sketch -->
    <title>Shape</title>
    <desc>Created with Sketch.</desc>
    <defs></defs>
    <g id="UI" stroke="none" stroke-width="1" fill="none" fill-rule="evenodd">
        <g id="Session-Cover" transform="translate(-631.000000, -865.000000)" fill-rule="nonzero" fill="#5A483D">
            <g id="Row-4" transform="translate(48.000000, 828.000000)">
                <g id="noun_487566_cc" transform="translate(583.000000, 37.000000)">
                    <g id="Group">
                        <path d="M51.3786735,20.1852509 C50.1620583,18.7612133 48.417262,17.9123623 46.5539112,17.8279688 C46.7542275,15.991796 46.1998827,14.1195716 44.9775441,12.6881597 C43.6930667,11.183006 41.8215396,10.3194066 39.8420871,10.3194066 C38.233833,10.3194066 36.6754535,10.896232 35.453115,11.9450054 C32.6993784,14.3063843 32.31101,18.4244587 34.5259365,21.2602437 L18.3681746,35.1130656 C17.0918733,33.7439247 15.308649,32.9647189 13.4281282,32.9647189 C11.8206917,32.9647189 10.2623122,33.5415442 9.03997371,34.5894983 C7.66882875,35.7652716 6.8373115,37.4047994 6.69831648,39.2081981 C6.55768623,41.0107774 7.12674818,42.7600987 8.30002965,44.132517 C9.51500962,45.557374 11.2589883,46.406225 13.1231567,46.4906185 C12.9228404,48.32843 13.4780028,50.1998351 14.7003414,51.6312469 C15.9848188,53.1364006 17.8563459,54 19.8341632,54 C21.4415997,54 22.9991615,53.4223553 24.2215,52.3744012 C25.592645,51.1986279 26.4249799,49.5591001 26.5647925,47.7565208 C26.6947937,46.0891349 26.2173049,44.4668135 25.2181761,43.1468339 L41.3841142,29.2866377 C42.6538745,30.605798 44.4043941,31.3546878 46.2473045,31.3546878 C47.854741,31.3546878 49.4123028,30.7778624 50.6330061,29.7299084 C52.0057863,28.5549544 52.8381212,26.9146072 52.9787514,25.1112086 C53.1201993,23.3094486 52.551955,21.559308 51.3786735,20.1852509 Z M49.2389678,28.0944773 C48.4049977,28.8097736 47.3437299,29.2038829 46.2481221,29.2038829 C44.8982352,29.2038829 43.6202987,28.6147672 42.7429948,27.5881164 C42.6236227,27.4463681 42.5173323,27.2988844 42.4159477,27.1489425 C42.2450656,26.8949427 41.9736165,26.7253364 41.6702804,26.6843687 C41.3661266,26.6442203 41.0611551,26.7343493 40.8289517,26.9334524 L22.9844444,42.2316152 C22.7514233,42.4315376 22.6148812,42.721589 22.6083402,43.0296662 C22.6034345,43.3369241 22.7293476,43.6318916 22.9558278,43.8400075 C23.0866466,43.9604526 23.214195,44.0890912 23.3335672,44.2292008 C24.1340149,45.166542 24.5215657,46.3595218 24.4259045,47.5893725 C24.3310608,48.8192232 23.7619989,49.9376417 22.8266442,50.7406089 C21.9926741,51.4559051 20.9314062,51.8500145 19.8349808,51.8500145 C18.4850939,51.8500145 17.207975,51.2608988 16.3323064,50.2334286 C15.26368,48.9847328 14.9439915,47.241147 15.4958834,45.6843739 C15.6234318,45.3222193 15.5490286,44.9182777 15.2996552,44.6257683 C15.0936155,44.3848781 14.795185,44.2496847 14.4844903,44.2496847 C14.4190809,44.2496847 14.3528538,44.2554201 14.2874444,44.2677105 C12.6816432,44.5692328 10.9916273,43.9776591 9.93281229,42.7346987 C9.13236451,41.7973575 8.74399608,40.6043777 8.83965736,39.374527 C8.93450102,38.1446763 9.50274535,37.0254384 10.4364648,36.2232906 C11.2712525,35.5088137 12.333338,35.1147044 13.4297634,35.1147044 C14.7796503,35.1147044 16.0584044,35.70382 16.9324378,36.7280128 C17.0730681,36.892703 17.1940755,37.0680448 17.308542,37.2466641 C17.4769712,37.5072187 17.7492379,37.6825605 18.0558446,37.727625 C18.360816,37.7718701 18.673146,37.6825605 18.9086199,37.4809994 L36.7768381,22.160714 C37.0123121,21.9591528 37.1496718,21.665824 37.1529423,21.3561081 C37.1562128,21.0455729 37.0253939,20.7489666 36.7948257,20.5424894 C36.6370255,20.4007411 36.484131,20.2540767 36.3443184,20.0902058 C34.6927305,18.1557105 34.9200282,15.2347127 36.8496061,13.5796171 C37.6835762,12.8651402 38.7464793,12.4702115 39.8429047,12.4702115 C41.1936092,12.4702115 42.4715458,13.0593272 43.348032,14.085978 C44.4150231,15.3354932 44.7347117,17.079079 44.1828197,18.6350327 C44.0544537,18.9980066 44.1288569,19.4019483 44.3782303,19.6944577 C44.6276038,19.9861478 45.0102489,20.1246187 45.3912587,20.0525155 C46.9946071,19.7493545 48.6878935,20.3425669 49.7475261,21.5838886 C50.5479739,22.5220492 50.9355247,23.7150289 50.8398634,24.9448796 C50.7442021,26.1747303 50.1759578,27.2931489 49.2389678,28.0944773 Z M10.031744,22.944836 C10.5231323,23.0079262 11.0202439,23.0398811 11.5124498,23.0398811 C14.1558079,23.0398811 16.73948,22.109914 18.7859772,20.4212249 L18.7876125,20.4212249 C18.7884301,20.4204056 18.7884301,20.4204056 18.7892477,20.4195862 L18.7900653,20.4195862 C18.790883,20.4187669 18.790883,20.4179475 18.7917006,20.4179475 C21.0638603,18.5530973 22.5216727,15.9139573 22.8977769,12.9864047 C23.2730634,10.0572133 22.5265784,7.13211869 20.7956817,4.75189465 C20.7948641,4.7510753 20.7940464,4.7510753 20.7932288,4.75025594 C18.9445951,2.19223203 16.0902915,0.495349424 12.9612684,0.0922271431 C9.83061007,-0.30925643 6.63699515,0.612517079 4.20867044,2.61419946 C4.20785282,2.61501882 4.20621759,2.61501882 4.20539997,2.61583817 C1.92915216,4.48232711 0.469704486,7.12228644 0.0952355583,10.0498391 C-0.280868605,12.9757531 0.46479878,15.9000283 2.19406031,18.2802523 C2.19406031,18.2810717 2.19406031,18.281891 2.19487793,18.281891 C2.19487793,18.2827104 2.19569555,18.2835298 2.19569555,18.2835298 C2.19651317,18.2843491 2.19651317,18.2851685 2.19733079,18.2851685 C2.19733079,18.2859878 2.1981484,18.2868072 2.19896602,18.2876265 C4.04759975,20.8448311 6.9019033,22.5417137 10.031744,22.944836 Z M20.7695179,12.711921 C20.506245,14.766042 19.5847898,16.6415439 18.1523235,18.0918009 C16.6896053,16.4006537 16.0150707,14.2768876 16.2889727,12.1350956 C16.5645098,9.99494237 17.7525084,8.11124699 19.5937836,6.84452535 C20.6133529,8.61105307 21.0327908,10.6594386 20.7695179,12.711921 Z M12.6881841,2.22582556 C14.8818525,2.50850277 16.8433175,3.52040524 18.3191175,5.11159116 C16.0060769,6.72326093 14.5122893,9.12396882 14.159896,11.8614313 C13.8099556,14.5980744 14.6496491,17.2994853 16.4802952,19.4437353 C14.6610957,20.5957474 12.4666097,21.0906374 10.305646,20.8112376 C8.11197757,20.5285603 6.15051259,19.5166579 4.67471256,17.9262913 C6.98693555,16.3187183 8.47990555,13.9163717 8.83148118,11.1756318 C9.18305681,8.43489191 8.34418101,5.73348102 6.51435249,3.59250841 C8.33355197,2.44213507 10.5272204,1.95052254 12.6881841,2.22582556 Z M2.22349455,10.3243228 C2.48594985,8.27184042 3.40740505,6.39551923 4.84150658,4.94526225 C6.30422473,6.63395132 6.97712413,8.75689813 6.70240457,10.9027869 C6.42686739,13.0478562 5.23968642,14.9331903 3.39922887,16.1949958 C2.37802431,14.4276488 1.95940402,12.3792632 2.22349455,10.3243228 Z" id="Shape"></path>
                    </g>
                </g>
            </g>
        </g>
    </g>
</svg>