<?xml version="1.0" encoding="UTF-8"?>
<svg width="87px" height="48px" viewBox="0 0 87 48" version="1.1" xmlns="http://www.w3.org/2000/svg" xmlns:xlink="http://www.w3.org/1999/xlink">
    <!-- Generator: Sketch 42 (36781) - http://www.bohemiancoding.com/sketch -->
    <title>Indoors</title>
    <desc>Created with Sketch.</desc>
    <defs></defs>
    <g id="UI" stroke="none" stroke-width="1" fill="none" fill-rule="evenodd">
        <g id="Session-Cover" transform="translate(-616.000000, -612.000000)" fill-rule="nonzero" fill="#5A483D">
            <g id="Group-6-Copy" transform="translate(48.000000, 572.000000)">
                <g id="Indoors" transform="translate(568.000000, 40.000000)">
                    <path d="M82.5,21.4 L79.1,21.4 L79.1,17.8 C79.1,15.7 77.4,14 75.3,14 L55.1,14 C54.1,14 53.3,14.4 52.6,14.9 C51.9,14.3 51.1,14 50.1,14 L29.9,14 C27.8,14 26.1,15.7 26.1,17.8 L26.1,21.4 L22.8,21.4 C20.7,21.4 19,23.1 19,25.2 L19,41 L27.4,41 L27.7,41 L27.7,47.3 L32.4,47.3 L34.4,41 L70.7,41 L72.7,47.2 L77.5,47.2 L77.5,41 L77.7,41 L86.2,41 L86.2,25.2 C86.3,23.1 84.6,21.4 82.5,21.4 Z M55.1,16.6 L75.3,16.6 C76,16.6 76.5,17.1 76.5,17.8 L76.5,22.2 C75.6,22.9 75,24 75,25.2 L75,31.1 L53.9,31.1 L53.9,27.1 L53.9,17.8 C53.9,17.1 54.4,16.6 55.1,16.6 Z M29.9,16.6 L50.1,16.6 C50.8,16.6 51.3,17.1 51.3,17.8 L51.3,27.1 L51.3,31.1 L30.3,31.1 L30.3,25.2 C30.3,24 29.7,22.8 28.7,22.1 L28.7,17.8 C28.7,17.1 29.2,16.6 29.9,16.6 Z M21.6,38.4 L21.6,25.2 C21.6,24.5 22.1,24 22.8,24 L26.5,24 C27.1,24 27.7,24.5 27.7,25.2 L27.7,38.4 L27.4,38.4 L21.6,38.4 Z M30.6,44.7 L30.3,44.7 L30.3,41.1 L31.8,41.1 L30.6,44.7 Z M30.3,38.4 L30.3,33.7 L75,33.7 L75,38.4 L69.9,38.4 L30.3,38.4 Z M75,44.6 L74.6,44.6 L73.4,41 L75,41 L75,44.6 L75,44.6 Z M83.7,38.4 L77.8,38.4 L77.6,38.4 L77.6,25.2 C77.6,24.5 78.1,24 78.8,24 L82.5,24 C83.2,24 83.7,24.5 83.7,25.2 L83.7,38.4 Z" id="Shape"></path>
                    <path d="M13,14 L23.6,14 L18.9,0 L4.5,0 L0,14 L10.5,14 L10.5,44.7 L5.6,44.7 L5.6,47.3 L18,47.3 L18,44.7 L13.1,44.7 L13.1,14 L13,14 Z M6.3,2.6 L17.1,2.6 L20,11.4 L3.5,11.4 L6.3,2.6 Z" id="Shape"></path>
                </g>
            </g>
        </g>
    </g>
</svg>