<?xml version="1.0" encoding="UTF-8"?>
<svg width="48px" height="54px" viewBox="0 0 48 54" version="1.1" xmlns="http://www.w3.org/2000/svg" xmlns:xlink="http://www.w3.org/1999/xlink">
    <!-- Generator: Sketch 42 (36781) - http://www.bohemiancoding.com/sketch -->
    <title>Food</title>
    <desc>Created with Sketch.</desc>
    <defs></defs>
    <g id="UI" stroke="none" stroke-width="1" fill="none" fill-rule="evenodd">
        <g id="Session-Cover" transform="translate(-636.000000, -737.000000)" fill="#5A483D">
            <g id="Row-3" transform="translate(48.000000, 700.000000)">
                <path d="M608.705882,85.2142857 L594.588235,85.2142857 L594.588235,70.4607143 L621.882353,63.2285714 L621.882353,66.8928571 C622.447059,66.7 623.105882,66.8928571 623.764706,66.8928571 L623.764706,43.3642857 L628.658824,38.4464286 L627.341176,37 L622.635294,41.8214286 L594.117647,41.8214286 L589.411765,37 L588,38.35 L592.705882,43.1714286 L592.705882,87.0464286 L608.894118,87.0464286 C608.611765,86.3714286 608.8,85.8892857 608.705882,85.2142857 Z M594.588235,43.75 L621.882353,43.75 L621.882353,45.8714286 L594.588235,53.0071429 L594.588235,43.75 Z M594.588235,55.0321429 L621.882353,47.8 L621.882353,61.2035714 L594.588235,68.4357143 L594.588235,55.0321429 Z M610.588235,54.1642857 L597.505882,57.7321429 C597.035294,57.8285714 596.658824,58.4071429 596.847059,58.8892857 C596.941176,59.275 597.317647,59.5642857 597.788235,59.5642857 L598.070588,59.5642857 L611.152941,55.9964286 C611.623529,55.9 612,55.3214286 611.811765,54.8392857 C611.623529,54.3571429 611.152941,54.0678571 610.588235,54.1642857 Z M607.764706,59.3714286 L597.505882,62.1678571 C597.035294,62.2642857 596.658824,62.8428571 596.847059,63.325 C596.941176,63.7107143 597.317647,64 597.788235,64 L598.070588,64 L608.329412,61.2035714 C608.8,61.1071429 609.176471,60.5285714 608.988235,60.0464286 C608.8,59.5642857 608.235294,59.275 607.764706,59.3714286 Z M607.764706,75.5714286 L607.388235,76.4392857 C607.388235,84.4428571 613.882353,91 621.694118,91 C629.505882,91 636,84.4428571 636,76.4392857 L636,75.5714286 L607.764706,75.5714286 Z M621.788235,89.0714286 C615.294118,89.0714286 610.117647,84.0571429 609.647059,77.5 L634.117647,77.5 C633.647059,84.0571429 628.282353,89.0714286 621.788235,89.0714286 Z M630.164706,73.5464286 C631.952941,73.5464286 631.952941,70.6535714 630.164706,70.6535714 C628.376471,70.6535714 628.376471,73.5464286 630.164706,73.5464286 Z M625.647059,67.5678571 C623.858824,67.5678571 623.858824,70.4607143 625.647059,70.4607143 C627.435294,70.4607143 627.435294,67.5678571 625.647059,67.5678571 Z M625.647059,71.9071429 C623.858824,71.9071429 623.858824,74.8 625.647059,74.8 C627.435294,74.8 627.435294,71.9071429 625.647059,71.9071429 Z M619.341176,74.6071429 C621.129412,74.6071429 621.129412,71.7142857 619.341176,71.7142857 C617.552941,71.7142857 617.552941,74.6071429 619.341176,74.6071429 Z M622.164706,71.6178571 C623.952941,71.6178571 623.952941,68.725 622.164706,68.725 C620.376471,68.725 620.376471,71.6178571 622.164706,71.6178571 Z M614.258824,74.8 C616.047059,74.8 616.047059,71.9071429 614.258824,71.9071429 C612.470588,71.9071429 612.470588,74.8 614.258824,74.8 Z" id="Food"></path>
            </g>
        </g>
    </g>
</svg>