<?xml version="1.0" encoding="UTF-8"?>
<svg width="50px" height="50px" viewBox="0 0 50 50" version="1.1" xmlns="http://www.w3.org/2000/svg" xmlns:xlink="http://www.w3.org/1999/xlink">
    <!-- Generator: Sketch 42 (36781) - http://www.bohemiancoding.com/sketch -->
    <title>Stopwatch</title>
    <desc>Created with Sketch.</desc>
    <defs></defs>
    <g id="UI" stroke="none" stroke-width="1" fill="none" fill-rule="evenodd">
        <g id="Session-Cover" transform="translate(-635.000000, -484.000000)" fill="#5A483D">
            <g id="Group-6" transform="translate(48.000000, 444.000000)">
                <g id="Stopwatch" transform="translate(587.000000, 40.000000)">
                    <path d="M38.8487401,3.93150053 C36.0757708,2.0136954 32.9010474,0.653690898 29.4812253,-7.10542736e-15 L20.2322134,-7.10542736e-15 C8.72991107,2.19962894 0,12.4341598 0,24.6987575 C0,38.561916 11.1508399,49.8407151 24.8567194,49.8407151 C38.5625988,49.8407151 49.7134387,38.561916 49.7134387,24.6987575 C49.7134387,19.4534435 48.1150939,14.5805813 45.3883696,10.5461742 L38.8487401,3.93150053 Z M24.8567194,47.1997882 C12.5902903,47.1997882 2.61096529,37.1059475 2.61096529,24.6987575 C2.61096529,12.2915676 12.5902903,2.1977268 24.8567194,2.1977268 C37.1231484,2.1977268 47.1024734,12.2915676 47.1024734,24.6987575 C47.1024734,37.1059475 37.1231484,47.1997882 24.8567194,47.1997882 Z" id="Shape"></path>
                    <path d="M24,7.172371 C24.330883,7.15278579 24.6643052,7.14285714 25,7.14285714 C28.3560239,7.14285714 31.4849148,8.13517515 34.1202529,9.84795407 L24,27.5510204 L24,7.172371 Z" id="Combined-Shape"></path>
                </g>
            </g>
        </g>
    </g>
</svg>